<svg xmlns="http://www.w3.org/2000/svg" width="500" height="500" version="1.0" viewBox="0 0 375 375"><path fill="none" stroke="#8e44ad" stroke-width="20.36826627" d="m36.168 177.238 6.797-2.64-5.414-13.977 13.64-6.945 4.82 15.504 9.489-4.121 4.508 14.203-8.918 3.351 8.148 22.371-13.863 5.051-7.39-22.328-6.555 2.875ZM80.297 144.86l5.691 26.406c.07-1.621.324-3.254.766-4.907a23.61 23.61 0 0 1 1.719-4.523c.707-1.418 1.57-2.629 2.593-3.633 1.036-1.004 2.2-1.672 3.497-2.004 3.609-.918 6.515-.945 8.718-.07 2.16.95 3.977 2.863 5.453 5.746 1.442 2.89 2.73 6.8 3.871 11.738a1611.005 1611.005 0 0 1 3.918 18.14l-14.976 3.817a135.72 135.72 0 0 0-.52-4.265c-.289-1.739-.609-3.633-.96-5.68a236.87 236.87 0 0 0-1.313-6.078c-.465-2.02-.953-3.844-1.473-5.469-.566-1.613-1.164-2.902-1.785-3.863-.613-.914-1.266-1.281-1.965-1.106-1.75.446-3.18 1.32-4.297 2.621-1.152 1.364-1.898 2.727-2.242 4.09l4.77 22.164-12.336 3.145-1.82-7.14c-.665-2.606-1.352-5.313-2.067-8.114a508.04 508.04 0 0 1-2.258-8.555l-2.129-8.351c-1.672-6.352-3.379-12.856-5.129-19.512ZM152.707 169.957c.277 2.309.356 4.543.238 6.7-.156 2.218-.757 4.234-1.8 6.054-1.11 1.824-2.793 3.394-5.055 4.71-2.32 1.376-5.531 2.352-9.629 2.93-4.04.57-7.324.438-9.855-.406-2.567-.836-4.598-2.117-6.09-3.843-1.551-1.668-2.668-3.68-3.36-6.032a47.578 47.578 0 0 1-1.554-7.07 87.698 87.698 0 0 1-.72-7.262 16.302 16.302 0 0 1 1.083-6.812c.851-2.11 2.418-3.977 4.7-5.598 2.218-1.629 5.542-2.855 9.964-3.687l1.312-.184c3.938-.559 7.16-.332 9.664.68 2.442 1.058 4.422 2.527 5.938 4.402a19.207 19.207 0 0 1 3.242 6.277c.703 2.364 1.227 4.59 1.574 6.684l-23.058 5.363c.246 1.75.48 3.235.707 4.453.23 1.27.55 2.293.969 3.078.378.774.921 1.297 1.636 1.567.672.324 1.625.402 2.864.226 1.226-.171 2.144-.488 2.757-.945.618-.406 1.032-.988 1.243-1.742.222-.707.28-1.578.187-2.61a71.349 71.349 0 0 0-.437-3.632Zm-14.605-3.578-.075.008-1.422-5.594c-.273-.754-.78-1.363-1.523-1.832-.742-.469-1.574-.64-2.5-.508a7.495 7.495 0 0 0-1.73.473c-.59.25-1.098.558-1.516.922a3.986 3.986 0 0 0-1.074 1.34c-.285.511-.38 1.097-.285 1.761l.726 5.695.012.075 9.312-2.332.012.078ZM184.113 131.3l15.313-.292-2.492 24.504a45.964 45.964 0 0 1 1.703-3.57 13.052 13.052 0 0 1 2.23-3.09 10.121 10.121 0 0 1 3.024-2.055c1.16-.524 2.515-.75 4.066-.688 3.773.157 6.672.848 8.695 2.067 2.02 1.222 3.489 2.762 4.395 4.62.848 1.84 1.332 3.903 1.45 6.184a107.06 107.06 0 0 1-.06 6.993c-.105 2.523-.308 5-.613 7.425-.367 2.473-1.082 4.618-2.14 6.434-1.118 1.875-2.7 3.34-4.754 4.39-2.117 1.102-4.989 1.575-8.61 1.426-2.636-.109-4.793-.558-6.465-1.347-1.722-.805-3.125-1.899-4.207-3.285l-.25 4.18-13.265-.548Zm17.684 26.669c-1.293.148-2.313.367-3.059.652-.734.336-1.273.832-1.617 1.488-.328.657-.543 1.5-.637 2.532a88.477 88.477 0 0 0-.242 4.03 102.346 102.346 0 0 0-.097 4.184c.003 1.188.136 2.18.41 2.977.28.832.773 1.445 1.476 1.844.715.445 1.715.695 3.004.75 1.399.054 2.492-.106 3.281-.492.747-.336 1.313-.907 1.7-1.711.347-.77.574-1.746.672-2.93.05-1.188.105-2.582.171-4.184.063-1.449.141-2.742.239-3.875.047-1.136-.016-2.093-.184-2.87-.184-.794-.5-1.407-.95-1.84-.448-.426-1.187-.657-2.206-.7-.52-.023-1.172.028-1.961.145ZM261.887 175.957a39.292 39.292 0 0 1-1.7 6.484c-.789 2.079-1.945 3.836-3.468 5.278-1.586 1.43-3.649 2.453-6.196 3.058-2.617.649-5.972.66-10.066.04-4.031-.618-7.137-1.692-9.32-3.223-2.219-1.54-3.793-3.352-4.727-5.438-1.004-2.043-1.5-4.289-1.484-6.738-.004-2.402.18-4.809.547-7.219a87.48 87.48 0 0 1 1.398-7.164c.57-2.316 1.57-4.387 2.996-6.21 1.422-1.778 3.461-3.114 6.113-4.013 2.594-.921 6.125-1.14 10.602-.664l1.313.2c3.93.601 6.949 1.742 9.054 3.433 2.04 1.715 3.516 3.688 4.426 5.922a19.22 19.22 0 0 1 1.297 6.945c-.004 2.465-.14 4.75-.414 6.852l-23.63-1.492a113.078 113.078 0 0 0-.6 4.469c-.145 1.28-.13 2.355.042 3.222.141.852.512 1.512 1.118 1.973.55.508 1.44.851 2.68 1.043 1.222.183 2.19.148 2.91-.113.706-.211 1.273-.649 1.69-1.313.415-.613.723-1.43.93-2.445a75.17 75.17 0 0 0 .625-3.602Zm-12.961-7.633-.074-.008.246-5.77c-.043-.8-.352-1.53-.93-2.19-.574-.665-1.324-1.067-2.25-1.208a7.357 7.357 0 0 0-1.793-.043 5.75 5.75 0 0 0-1.719.446 3.994 3.994 0 0 0-1.41.972c-.422.41-.683.946-.781 1.606l-.942 5.664-.011.074 9.59.45-.012.074ZM288.062 171.941c.145-.55.075-1.183-.207-1.894-.293-.719-.894-1.195-1.796-1.434a2.873 2.873 0 0 0-.625-.086 4.73 4.73 0 0 0-.809.024c-.71.074-1.25.304-1.613.691-.422.375-.77.871-1.035 1.492-.286.684-.52 1.477-.704 2.38-.238.906-.496 1.882-.77 2.933-.198.758-.253 1.355-.16 1.8.028.489.137.895.325 1.22.18.308.418.527.71.656.22.164.43.27.642.324.195.05.324.058.382.023l.149.04 5.039 1.324a56.146 56.146 0 0 1 5.27 1.636c1.558.567 2.874 1.258 3.937 2.075 1.004.847 1.695 1.886 2.066 3.105.32 1.262.239 2.816-.25 4.676-.578 2.199-1.687 3.773-3.336 4.722-1.687.957-3.574 1.532-5.664 1.727-2.09.207-4.21.133-6.363-.223-2.203-.367-4.125-.77-5.777-1.203-1.953-.512-3.637-1.137-5.047-1.875-1.426-.699-2.614-1.469-3.567-2.304-1.004-.852-1.789-1.723-2.351-2.614a12.209 12.209 0 0 1-1.48-2.644c-.813-1.973-1.067-4.07-.758-6.29l14.148 4.52-.527 2.016c-.22.582-.332 1.113-.34 1.594-.024.476.113.859.402 1.144.238.336.707.598 1.402.777l.606.16c.976.153 1.73.247 2.258.282a1.68 1.68 0 0 0 1.332-.531c.328-.399.62-1.098.886-2.102.25-.95.555-2.312.915-4.086l-4.067-1.066a53.714 53.714 0 0 1-3.273-.961c-.953-.25-1.84-.532-2.657-.852-.89-.285-1.77-.62-2.632-1.004a49.787 49.787 0 0 1-2.993-1.433c-1.933-.993-3.12-2.371-3.554-4.145-.496-1.789-.383-4.058.336-6.805.183-.695.46-1.558.836-2.582.312-.988.797-2.011 1.449-3.066.648-1.02 1.492-2.004 2.539-2.957 1.035-.902 2.375-1.621 4.016-2.156 1.636-.524 3.605-.778 5.898-.766 2.293.016 4.992.43 8.094 1.246 2.36.617 4.347 1.403 5.965 2.348 1.55 1.008 2.812 2.09 3.789 3.25.972 1.219 1.687 2.476 2.144 3.773a21.2 21.2 0 0 1 .817 3.895c.226 3.012-.258 6.203-1.454 9.57l-14.109-3.707ZM309.113 166.8l6.895 2.38 4.894-14.168 14.899 3.511-6.336 14.946 9.906 2.984-5.734 13.754-8.973-3.203-8.23 22.344-13.848-5.102 8.785-21.816-6.86-2.043ZM349.453 164.988l13.195 5.067-17.355 34.902-10.39-3.727Zm-19.21 44.367c1.058-2.363 2.3-3.738 3.718-4.125 1.375-.41 3.266-.074 5.672 1.008 1.512.676 2.61 1.371 3.3 2.082.637.743 1.02 1.48 1.149 2.215a4.822 4.822 0 0 1-.144 2.219c-.231.758-.5 1.484-.817 2.187a21.39 21.39 0 0 1-1.191 2.29c-.477.687-1.051 1.218-1.73 1.59-.7.421-1.552.605-2.555.558-1.07-.024-2.383-.383-3.938-1.082-1.371-.613-2.371-1.29-2.992-2.027-.703-.715-1.133-1.473-1.285-2.278a5.083 5.083 0 0 1 .035-2.347c.183-.778.441-1.54.777-2.29Zm0 0"/><path fill="#f7c548" d="m36.16 177.23 6.796-2.656-5.406-13.953 13.64-6.953 4.829 15.515 9.484-4.125 4.516 14.188-8.938 3.344 8.157 22.39-13.844 5.047-7.406-22.328-6.547 2.89ZM80.31 144.865l5.672 26.406c.082-1.613.332-3.254.75-4.922a25.49 25.49 0 0 1 1.75-4.515c.695-1.407 1.562-2.614 2.594-3.625 1.02-1.008 2.18-1.68 3.484-2.016 3.601-.914 6.508-.93 8.719-.047 2.156.938 3.976 2.844 5.468 5.719 1.426 2.898 2.711 6.812 3.86 11.75 1.101 4.96 2.406 11.008 3.906 18.14l-14.969 3.813a120.607 120.607 0 0 0-.515-4.266 399.292 399.292 0 0 0-.97-5.687 274.328 274.328 0 0 0-1.296-6.063 65.038 65.038 0 0 0-1.469-5.468c-.586-1.614-1.187-2.907-1.812-3.875-.594-.907-1.242-1.27-1.938-1.094-1.761.45-3.199 1.32-4.312 2.61-1.137 1.366-1.883 2.73-2.235 4.093l4.766 22.172-12.344 3.14-1.828-7.14c-.656-2.602-1.344-5.313-2.062-8.125-.758-2.79-1.508-5.64-2.25-8.547l-2.125-8.344c-1.676-6.363-3.391-12.867-5.141-19.515ZM152.707 169.94a37.71 37.71 0 0 1 .234 6.72c-.156 2.218-.758 4.234-1.797 6.046-1.105 1.836-2.793 3.407-5.062 4.72-2.305 1.366-5.508 2.339-9.61 2.921-4.054.574-7.336.437-9.844-.406-2.585-.844-4.624-2.125-6.124-3.844-1.543-1.664-2.657-3.676-3.344-6.031a47.713 47.713 0 0 1-1.563-7.063 80.436 80.436 0 0 1-.703-7.281 16.454 16.454 0 0 1 1.063-6.813c.851-2.093 2.422-3.953 4.703-5.578 2.219-1.625 5.547-2.851 9.984-3.687l1.313-.188c3.937-.562 7.156-.336 9.656.672 2.437 1.063 4.41 2.531 5.922 4.406a18.877 18.877 0 0 1 3.25 6.282c.707 2.367 1.234 4.59 1.578 6.672l-23.078 5.39c.238 1.742.472 3.219.703 4.438.238 1.273.57 2.297 1 3.078.375.773.914 1.293 1.625 1.562.676.325 1.625.399 2.844.22 1.226-.165 2.156-.474 2.78-.923.626-.406 1.036-.984 1.235-1.734.207-.727.27-1.602.188-2.625a75.89 75.89 0 0 0-.438-3.625Zm-14.625-3.562-.078.016-1.407-5.61c-.25-.738-.75-1.343-1.5-1.812a3.67 3.67 0 0 0-2.515-.531 7.833 7.833 0 0 0-1.735.484 5.11 5.11 0 0 0-1.5.938 3.917 3.917 0 0 0-1.078 1.312c-.305.512-.406 1.106-.312 1.781l.734 5.688v.078l9.313-2.328.015.078ZM184.116 131.29l15.312-.282-2.5 24.516a44.892 44.892 0 0 1 1.72-3.578 12.746 12.746 0 0 1 2.218-3.11 10.536 10.536 0 0 1 3.031-2.046c1.164-.52 2.524-.75 4.078-.688 3.758.156 6.649.852 8.672 2.078 2.02 1.219 3.488 2.758 4.406 4.61.852 1.843 1.336 3.914 1.453 6.203.051 2.312.032 4.636-.062 6.968a86.347 86.347 0 0 1-.625 7.438c-.367 2.469-1.074 4.617-2.125 6.437-1.117 1.868-2.703 3.325-4.766 4.375-2.125 1.102-4.992 1.582-8.593 1.438-2.649-.117-4.809-.563-6.485-1.344-1.719-.8-3.125-1.898-4.219-3.297l-.25 4.188-13.25-.547Zm17.687 26.687c-1.304.156-2.324.371-3.062.64-.742.325-1.278.821-1.61 1.485-.343.656-.562 1.5-.656 2.531a86.438 86.438 0 0 0-.25 4.032c-.062 1.605-.094 3-.094 4.187 0 1.2.141 2.195.422 2.984.282.836.774 1.45 1.485 1.844.707.45 1.707.7 3 .75 1.394.055 2.492-.113 3.297-.5.726-.332 1.289-.898 1.687-1.703.344-.758.566-1.738.672-2.937.05-1.188.11-2.582.172-4.188.062-1.445.144-2.738.25-3.875.039-1.133-.028-2.094-.203-2.875-.18-.781-.492-1.383-.938-1.812-.437-.438-1.18-.676-2.219-.72-.511-.019-1.164.032-1.953.157ZM261.891 175.954a39.872 39.872 0 0 1-1.703 6.485c-.781 2.085-1.945 3.843-3.484 5.28-1.575 1.438-3.637 2.458-6.188 3.063-2.605.645-5.953.657-10.047.032-4.043-.618-7.148-1.696-9.312-3.235-2.243-1.539-3.825-3.347-4.75-5.422-1-2.039-1.5-4.289-1.5-6.75.007-2.394.195-4.797.562-7.203a83.625 83.625 0 0 1 1.406-7.172c.563-2.312 1.555-4.383 2.985-6.218 1.426-1.758 3.46-3.098 6.11-4.016 2.6-.906 6.144-1.125 10.624-.656l1.313.203c3.925.594 6.941 1.73 9.047 3.406 2.03 1.742 3.503 3.727 4.421 5.953a18.623 18.623 0 0 1 1.297 6.953c0 2.461-.136 4.742-.406 6.844l-23.64-1.5a94.468 94.468 0 0 0-.61 4.469c-.148 1.293-.125 2.37.063 3.234.132.856.5 1.508 1.093 1.953.563.512 1.453.86 2.672 1.047 1.227.188 2.207.153 2.938-.11.718-.195 1.28-.632 1.687-1.312.406-.613.711-1.425.922-2.437.207-1.02.414-2.219.625-3.594Zm-12.969-7.625-.078-.015.235-5.782c-.024-.781-.325-1.504-.907-2.172-.586-.675-1.336-1.082-2.25-1.218a7.409 7.409 0 0 0-1.797-.032c-.648.063-1.214.215-1.703.454a3.625 3.625 0 0 0-1.422.953c-.43.406-.695.949-.796 1.625l-.938 5.64-.016.078 9.594.454-.015.078ZM288.076 171.937c.144-.55.066-1.18-.235-1.89-.281-.72-.875-1.196-1.781-1.438a2.659 2.659 0 0 0-.625-.078 7.921 7.921 0 0 0-.797.015c-.719.086-1.262.313-1.625.688-.43.375-.773.875-1.031 1.5-.293.68-.527 1.469-.703 2.375-.242.906-.5 1.887-.782 2.937-.199.75-.25 1.352-.156 1.797.031.5.14.907.328 1.22.176.323.41.546.703.67.22.169.43.278.641.33.188.042.317.054.39.03l.157.032 5.031 1.328a62.867 62.867 0 0 1 5.266 1.61c1.562.573 2.879 1.265 3.953 2.077 1 .856 1.687 1.89 2.062 3.11.313 1.25.223 2.804-.265 4.656-.586 2.207-1.7 3.797-3.344 4.765-1.68.946-3.562 1.516-5.656 1.704a24.383 24.383 0 0 1-6.36-.22c-2.21-.355-4.136-.75-5.78-1.187-1.95-.511-3.626-1.14-5.032-1.89-1.418-.7-2.605-1.465-3.563-2.297-1.023-.867-1.812-1.742-2.375-2.625a11.124 11.124 0 0 1-1.468-2.656c-.813-1.97-1.063-4.055-.75-6.266l14.14 4.484-.53 2.032c-.212.593-.329 1.132-.36 1.609-.012.469.133.851.437 1.14.227.336.692.586 1.39.766l.595.156c.976.157 1.738.25 2.28.282.52.03.962-.14 1.329-.516.32-.406.613-1.11.875-2.11.25-.945.555-2.312.922-4.093l-4.063-1.078a66.235 66.235 0 0 1-3.28-.922 23.56 23.56 0 0 1-2.657-.86 22.448 22.448 0 0 1-2.625-1.015 56.877 56.877 0 0 1-3-1.422c-1.938-1-3.125-2.383-3.563-4.156-.492-1.79-.375-4.063.344-6.813.176-.695.453-1.554.828-2.578.313-.988.797-2.008 1.453-3.062.645-1.008 1.493-1.993 2.547-2.953 1.04-.895 2.38-1.61 4.016-2.141 1.633-.54 3.598-.805 5.89-.797 2.301.023 5.004.438 8.11 1.25 2.344.617 4.328 1.406 5.953 2.375 1.55.992 2.816 2.07 3.797 3.234.957 1.22 1.672 2.485 2.14 3.797.383 1.325.657 2.617.813 3.875.227 3-.262 6.196-1.469 9.578l-14.11-3.703ZM309.114 166.792l6.89 2.36 4.891-14.14 14.907 3.515-6.344 14.953 9.922 2.969-5.735 13.75-8.984-3.22-8.234 22.36-13.829-5.094 8.766-21.812-6.86-2.031ZM349.454 164.976l13.204 5.078-17.36 34.906-10.406-3.75Zm-19.218 44.36c1.062-2.352 2.3-3.72 3.718-4.094 1.375-.414 3.27-.082 5.688 1 1.5.68 2.602 1.37 3.312 2.078.625.742 1 1.48 1.125 2.219.133.742.086 1.48-.14 2.218a15.721 15.721 0 0 1-.813 2.188c-.355.812-.75 1.57-1.187 2.281-.48.695-1.063 1.227-1.75 1.594-.7.426-1.547.617-2.547.578-1.063-.043-2.375-.414-3.938-1.11-1.367-.617-2.37-1.289-3.015-2.015-.688-.711-1.11-1.465-1.266-2.266-.156-.75-.14-1.539.047-2.375.176-.77.43-1.535.766-2.297Zm0 0"/><path fill="none" stroke="#8e44ad" stroke-width="13.62802672" d="M76.313 145.336c.73-.219 1.34-.457 1.835-.715.473-.25.801-.676.98-1.277.192-.559.208-1.34.044-2.344-.195-.992-.594-2.313-1.2-3.965l-4.417 1.336c-1.059.32-1.992.582-2.805.785-.793.242-1.535.414-2.23.516-.715.148-1.38.219-1.997.223-.628.046-1.316.039-2.062-.028-1.805-.097-3.254-.762-4.352-1.992-1.125-1.21-2.09-3.14-2.89-5.785a70.414 70.414 0 0 0-.758-2.324 16.237 16.237 0 0 1-.691-2.98 13.758 13.758 0 0 1-.102-3.4c.117-1.16.508-2.32 1.168-3.491.746-1.348 1.883-2.614 3.402-3.801 1.532-1.153 3.79-2.18 6.774-3.082 1.586-.48 3.039-.758 4.36-.832 1.288-.028 2.476.082 3.57.336 1.097.277 2.081.66 2.956 1.156.844.539 1.61 1.16 2.297 1.86a13.934 13.934 0 0 1 2.633 3.706 29.75 29.75 0 0 1 1.492 3.824c.387 1.399.664 2.801.832 4.196l-9.789 2.965-1.32-4.368c-.402-1.324-.863-2.304-1.383-2.94-.55-.63-1.406-.767-2.562-.419a9.648 9.648 0 0 0-.836.305c-.278.156-.59.32-.934.496-.765.453-1.238.976-1.418 1.57-.21.61-.246 1.274-.101 1.988.117.727.324 1.473.629 2.247.316.804.585 1.59.816 2.347.3.996.816 1.676 1.543 2.035.7.407 1.527.465 2.492.176.758-.23 1.48-.473 2.164-.723.66-.203 1.324-.402 1.988-.601a37.97 37.97 0 0 1 4.137-1.031c1.27-.207 2.43-.196 3.48.03 1.055.255 1.989.821 2.79 1.7.773.887 1.43 2.223 1.972 4.012.422 1.39.532 2.64.328 3.754a7.958 7.958 0 0 1-1.312 3.004 10.617 10.617 0 0 1-2.422 2.418 19.41 19.41 0 0 1-2.937 1.75c-1.04.5-2.055.918-3.04 1.25a45.08 45.08 0 0 1-2.554.879c-1.688.511-3.188.804-4.5.875-1.352.082-2.543.027-3.574-.165-1.036-.187-1.934-.511-2.692-.972-.77-.418-1.418-.895-1.937-1.422-1.285-1.238-2.164-2.813-2.637-4.727l10.328-2.265c.23.758.469 1.43.715 2.008.215.59.48 1.05.805 1.386.324.367.718.594 1.183.672.434.117.98.074 1.645-.125ZM113.129 128.305c.32 1.523.504 3.008.555 4.453.023 1.488-.262 2.867-.848 4.14-.633 1.282-1.664 2.426-3.094 3.434-1.465 1.055-3.547 1.89-6.246 2.52-2.656.617-4.855.718-6.59.304-1.758-.406-3.187-1.14-4.285-2.203-1.129-1.023-1.992-2.297-2.59-3.824a31.867 31.867 0 0 1-1.453-4.617 59.425 59.425 0 0 1-.902-4.801 10.855 10.855 0 0 1 .32-4.602c.445-1.457 1.379-2.793 2.805-4.007 1.383-1.215 3.523-2.227 6.426-3.04l.863-.203c2.59-.601 4.75-.636 6.476-.109 1.692.559 3.098 1.422 4.22 2.586a12.81 12.81 0 0 1 2.526 3.992 36.815 36.815 0 0 1 1.442 4.36l-15.055 4.93c.27 1.152.512 2.124.735 2.925.226.832.5 1.496.824 1.992.297.496.691.813 1.183.95.47.18 1.11.171 1.922-.016.809-.188 1.403-.453 1.782-.793a1.97 1.97 0 0 0 .726-1.235c.106-.484.098-1.066-.027-1.75a54.185 54.185 0 0 0-.504-2.394Zm-9.942-1.528-.05.012-1.278-3.644c-.222-.489-.597-.864-1.12-1.133-.52-.27-1.087-.332-1.696-.192a4.825 4.825 0 0 0-1.125.418c-.379.2-.7.434-.957.703-.29.282-.5.602-.637.954-.16.359-.187.753-.086 1.19l.817 3.755.011.047 6.07-2.098.012.05ZM114.293 126.117a58.9 58.9 0 0 1-.61-4.847c-.113-1.555.102-3.012.645-4.372.543-1.351 1.547-2.57 3.012-3.652 1.472-1.062 3.668-1.906 6.578-2.531l.926-.152c2.558-.43 4.672-.364 6.34.195 1.652.605 2.976 1.472 3.972 2.597 1 1.168 1.75 2.5 2.246 3.993.5 1.535.887 3.02 1.172 4.445l-8.96 2.129a23.02 23.02 0 0 0-.364-1.777 7.371 7.371 0 0 0-.613-1.528c-.29-.449-.617-.8-.977-1.058-.387-.207-.867-.266-1.441-.168a3.858 3.858 0 0 0-.664.16c-.762.265-1.328.554-1.696.863-.402.309-.652.7-.754 1.18-.12.508-.136 1.125-.05 1.847.09.723.226 1.645.414 2.77.183 1.09.36 2.047.531 2.867.172.809.402 1.469.691 1.977.27.523.645.882 1.133 1.082.453.199 1.07.234 1.856.101.789-.133 1.386-.351 1.789-.66.402-.316.668-.726.797-1.238.117-.516.132-1.153.039-1.906-.078-.727-.2-1.563-.356-2.512l8.914-2.395a30.31 30.31 0 0 1 .301 4.641c-.055 1.55-.418 2.96-1.09 4.23-.687 1.309-1.781 2.438-3.273 3.391-1.485.95-3.578 1.652-6.278 2.106-2.66.445-4.843.39-6.554-.165-1.73-.515-3.117-1.37-4.157-2.566-1.042-1.16-1.816-2.539-2.324-4.133a33.763 33.763 0 0 1-1.195-4.914ZM140.168 122.3a59.38 59.38 0 0 1-.305-4.87 10.897 10.897 0 0 1 .89-4.528c.622-1.39 1.716-2.601 3.282-3.629 1.524-1.035 3.774-1.773 6.75-2.222l1.082-.114c2.86-.296 5.11-.097 6.754.598 1.64.738 2.906 1.738 3.805 3.004a11.894 11.894 0 0 1 1.765 4.352 59.56 59.56 0 0 1 .696 4.734c.175 1.687.242 3.332.195 4.934-.031 1.636-.398 3.132-1.098 4.5-.687 1.363-1.84 2.507-3.449 3.441-1.597.965-3.883 1.602-6.847 1.91-2.715.285-4.907.113-6.579-.512-1.695-.62-3.02-1.527-3.976-2.718-.996-1.153-1.695-2.524-2.098-4.114-.41-1.554-.7-3.14-.867-4.765Zm11.676-6.695c-.82.223-1.422.457-1.813.711-.422.293-.695.668-.824 1.133-.156.465-.215 1.047-.176 1.738.035.692.114 1.59.227 2.688.113 1.07.226 1.996.344 2.781.113.79.3 1.43.554 1.93.235.527.586.89 1.059 1.09.441.234 1.078.308 1.91.219.855-.09 1.492-.293 1.91-.618.426-.293.715-.722.86-1.289.156-.543.207-1.21.16-2.004-.082-.789-.18-1.718-.293-2.785a67.628 67.628 0 0 1-.219-2.59c-.078-.757-.195-1.386-.348-1.886-.164-.512-.414-.887-.754-1.133-.332-.238-.808-.324-1.43-.258-.312.031-.702.125-1.167.273ZM175.957 105.652l-.059 7.383c.305-.984.715-1.937 1.227-2.863a13.31 13.31 0 0 1 1.727-2.504 8.065 8.065 0 0 1 2.113-1.746 4.916 4.916 0 0 1 2.355-.715c2.493-.098 4.395.258 5.711 1.066 1.278.856 2.2 2.29 2.762 4.305.535 2.024.832 4.695.89 8.016.032 3.355.044 7.48.036 12.367l-10.332.41c.078-.73.164-1.683.254-2.863.054-1.145.109-2.375.168-3.7.015-1.316.011-2.648-.008-3.992a43.965 43.965 0 0 0-.196-3.683c-.144-1.07-.351-1.945-.625-2.625-.273-.684-.648-1.016-1.132-.996a5.712 5.712 0 0 0-2.98.941c-.903.629-1.587 1.352-2.044 2.164l-.176 15.024-8.507.34c-.118-2.938-.239-5.915-.356-8.93-.152-2.969-.277-5.66-.375-8.074-.148-2.872-.293-5.637-.433-8.305ZM193.23 117.215c.043-1.633.223-3.203.543-4.715.317-1.516.872-2.852 1.66-4.016.794-1.152 1.891-2.058 3.294-2.714 1.359-.657 3.148-.957 5.359-.903 1.004.028 1.836.156 2.488.383.653.219 1.2.492 1.64.816.438.356.81.747 1.11 1.168.266.465.516.942.75 1.426l.356.012.082-13.031 10.441-.352-.621 24.024a219.56 219.56 0 0 0-.078 4.976c-.04 1.496-.055 2.797-.05 3.906 0 1.274.007 2.418.023 3.422l-8.98-.23.726-6.004c-.282 1.344-.723 2.406-1.325 3.183-.648.813-1.34 1.418-2.078 1.813-.734.394-1.468.637-2.199.726-.762.118-1.406.168-1.93.153l-.722-.016a.708.708 0 0 0-.25-.058c-1.875-.047-3.426-.434-4.649-1.16-1.234-.692-2.215-1.567-2.949-2.626a11.018 11.018 0 0 1-1.726-3.316c-.676-2.02-.98-4.309-.915-6.867Zm9.934 1.234a59.305 59.305 0 0 0-.016 2.965c.016.828.133 1.524.352 2.086.2.555.535.98 1.008 1.27.484.293 1.172.449 2.066.472.973.024 1.719-.094 2.242-.36a2.479 2.479 0 0 0 1.172-1.214c.227-.55.367-1.238.422-2.066.055-.829.098-1.813.125-2.965l.067-2.48a8.804 8.804 0 0 0-.106-1.766c-.098-.461-.281-.809-.543-1.055-.308-.219-.773-.336-1.398-.352-.414-.011-.97.024-1.664.11-.899.12-1.598.258-2.09.414-.488.164-.84.418-1.059.758-.246.375-.394.87-.445 1.484-.059.66-.102 1.559-.133 2.7ZM223.047 106.082l2.648-4.488c-.777-.27-1.289-.633-1.535-1.098-.281-.48-.406-.957-.37-1.437.077-1.106.397-1.934.96-2.489.52-.511 1.52-.718 3.004-.617 1.21.086 2.023.438 2.426 1.059.406.648.582 1.316.535 2.008-.04.554-.082.949-.133 1.183a6.334 6.334 0 0 1-.43.91l-.996 1.696c-.469.773-1.12 1.96-1.96 3.562ZM245.848 116.086c.043-.379-.063-.79-.32-1.234-.266-.446-.708-.704-1.329-.774a1.908 1.908 0 0 0-.422.004 3.425 3.425 0 0 0-.535.094c-.465.117-.797.324-1 .617-.242.285-.422.648-.539 1.086-.121.48-.2 1.027-.234 1.644-.07.622-.145 1.293-.223 2.016-.059.52-.035.922.07 1.207.067.32.176.582.336.777a.993.993 0 0 0 .532.364c.16.086.312.136.453.152.136.016.222.008.258-.02l.101.008 3.465.387a37.73 37.73 0 0 1 3.648.57c1.086.223 2.024.551 2.809.989a4.318 4.318 0 0 1 1.668 1.855c.336.8.434 1.84.293 3.117-.168 1.512-.75 2.66-1.746 3.453-1.024.793-2.219 1.36-3.582 1.692-1.364.344-2.774.5-4.235.476a44.94 44.94 0 0 1-3.937-.234c-1.344-.148-2.52-.398-3.527-.746-1.008-.324-1.872-.719-2.586-1.18-.746-.465-1.352-.968-1.809-1.504a7.99 7.99 0 0 1-1.238-1.601c-.73-1.23-1.102-2.594-1.114-4.09l9.805 1.61c-.058.511-.11.976-.152 1.386-.09.406-.113.77-.07 1.09.03.316.156.555.378.715.192.203.524.328 1.004.383l.414.043c.664.007 1.172-.004 1.524-.036.351-.035.629-.195.828-.48.18-.297.305-.785.383-1.477.07-.652.14-1.586.207-2.793l-2.797-.312c-.856-.094-1.61-.2-2.258-.313a17.288 17.288 0 0 1-1.844-.304 17.82 17.82 0 0 1-1.84-.41 31.164 31.164 0 0 1-2.12-.657c-1.376-.465-2.294-1.265-2.758-2.394-.5-1.137-.649-2.649-.438-4.54.05-.476.152-1.074.3-1.788.11-.684.329-1.41.661-2.172.328-.739.793-1.473 1.39-2.203.598-.7 1.415-1.305 2.45-1.82 1.031-.509 2.308-.868 3.828-1.083 1.52-.21 3.348-.199 5.48.035 1.622.18 3.012.504 4.176.973 1.125.516 2.067 1.11 2.824 1.781.762.711 1.36 1.477 1.786 2.29.402.843.707 1.675.921 2.5.446 1.968.434 4.128-.027 6.472l-9.7-1.074Zm0 0"/><path fill="#f7c548" d="M76.322 145.353c.726-.219 1.336-.46 1.828-.734.469-.239.789-.66.969-1.266.195-.562.218-1.348.062-2.36-.2-.976-.601-2.304-1.203-3.984l-4.438 1.344a83.481 83.481 0 0 1-2.796.813c-.793.242-1.532.414-2.22.515-.718.137-1.386.211-2 .219-.624.055-1.308.047-2.046-.016-1.813-.113-3.27-.785-4.375-2.015-1.113-1.207-2.07-3.133-2.875-5.782-.195-.625-.453-1.394-.766-2.312a15.092 15.092 0 0 1-.672-3c-.187-1.063-.222-2.191-.109-3.39.117-1.157.5-2.317 1.156-3.485.743-1.344 1.875-2.61 3.407-3.797 1.523-1.156 3.77-2.187 6.75-3.094 1.593-.476 3.046-.754 4.359-.828 1.3-.031 2.492.074 3.578.313 1.102.304 2.086.699 2.953 1.187a12.859 12.859 0 0 1 2.313 1.844 14.43 14.43 0 0 1 2.64 3.687 32.321 32.321 0 0 1 1.485 3.86c.375 1.398.648 2.789.828 4.172l-9.781 2.968-1.329-4.359c-.398-1.32-.855-2.3-1.375-2.937-.554-.633-1.414-.774-2.578-.422-.261.086-.539.183-.828.297-.273.156-.586.328-.937.515-.762.438-1.235.961-1.422 1.563-.2.605-.23 1.265-.094 1.984.102.73.313 1.48.625 2.25a38.1 38.1 0 0 1 .828 2.36c.301.992.813 1.667 1.531 2.03.696.4 1.524.45 2.485.157.77-.227 1.492-.461 2.172-.703.664-.195 1.328-.395 1.984-.594 1.5-.457 2.879-.812 4.14-1.062 1.282-.188 2.442-.164 3.485.062 1.05.25 1.984.813 2.797 1.688.77.886 1.426 2.226 1.969 4.015.414 1.399.52 2.649.312 3.75a7.64 7.64 0 0 1-1.312 3 9.779 9.779 0 0 1-2.407 2.406c-.949.7-1.921 1.29-2.921 1.766a31.799 31.799 0 0 1-3.047 1.234 36.9 36.9 0 0 1-2.563.891c-1.699.512-3.199.805-4.5.875-1.355.086-2.547.027-3.578-.172-1.031-.195-1.93-.52-2.687-.969a8.23 8.23 0 0 1-1.954-1.421c-1.27-1.227-2.144-2.805-2.625-4.735l10.329-2.25c.226.75.468 1.422.718 2.016.22.574.485 1.031.797 1.375.332.375.723.605 1.172.687.445.118 1 .075 1.656-.125ZM113.124 128.3c.312 1.53.5 3.023.562 4.468.031 1.48-.25 2.856-.844 4.125-.636 1.293-1.672 2.438-3.11 3.438-1.46 1.043-3.538 1.875-6.233 2.5-2.657.625-4.852.73-6.579.312-1.761-.394-3.195-1.125-4.296-2.187-1.125-1.02-1.993-2.29-2.594-3.813a32.488 32.488 0 0 1-1.469-4.625 53.398 53.398 0 0 1-.875-4.797 10.846 10.846 0 0 1 .313-4.625c.437-1.445 1.375-2.78 2.812-4 1.383-1.207 3.523-2.218 6.422-3.03l.86-.204c2.593-.594 4.75-.629 6.468-.11 1.695.563 3.102 1.43 4.219 2.594a12.363 12.363 0 0 1 2.531 3.985 37.993 37.993 0 0 1 1.438 4.36l-15.047 4.921c.257 1.149.5 2.125.718 2.938.227.824.508 1.484.844 1.984.29.5.68.82 1.172.953.469.168 1.11.156 1.922-.031.8-.188 1.398-.445 1.797-.781.394-.301.633-.707.719-1.22.101-.5.085-1.081-.047-1.75a55.718 55.718 0 0 0-.5-2.39Zm-9.938-1.532-.062.016-1.266-3.64c-.219-.489-.59-.864-1.11-1.126a2.48 2.48 0 0 0-1.703-.203 5.419 5.419 0 0 0-1.14.438 2.95 2.95 0 0 0-.938.687 2.547 2.547 0 0 0-.64.969c-.168.355-.2.75-.094 1.187l.812 3.735.016.047 6.063-2.094.015.047ZM114.285 126.112a56.511 56.511 0 0 1-.594-4.828c-.113-1.562.101-3.02.64-4.375.543-1.351 1.547-2.578 3.016-3.672 1.457-1.05 3.645-1.89 6.563-2.515l.937-.156c2.55-.426 4.664-.36 6.344.203 1.644.605 2.96 1.465 3.953 2.578a11.929 11.929 0 0 1 2.266 4.015 37.5 37.5 0 0 1 1.14 4.438l-8.953 2.125a49.557 49.557 0 0 0-.344-1.781 7.504 7.504 0 0 0-.625-1.532 3.947 3.947 0 0 0-.953-1.046c-.398-.22-.886-.282-1.468-.188a3.386 3.386 0 0 0-.657.156c-.761.282-1.324.575-1.687.875a1.993 1.993 0 0 0-.75 1.172c-.125.512-.149 1.133-.063 1.86.082.718.219 1.648.407 2.78a44.07 44.07 0 0 0 .546 2.845c.164.812.399 1.48.704 2 .257.511.632.867 1.125 1.062.445.211 1.062.246 1.843.11.79-.133 1.39-.36 1.797-.672.395-.301.66-.711.797-1.235.125-.5.14-1.129.047-1.89a165.07 165.07 0 0 0-.39-2.516l8.921-2.406c.227 1.586.332 3.133.313 4.64-.055 1.555-.414 2.965-1.078 4.235-.688 1.312-1.782 2.445-3.282 3.39-1.48.961-3.574 1.664-6.281 2.11-2.656.449-4.84.39-6.547-.172-1.742-.508-3.133-1.363-4.172-2.563-1.043-1.156-1.812-2.535-2.312-4.14a33.816 33.816 0 0 1-1.203-4.907ZM140.17 122.297a59.303 59.303 0 0 1-.296-4.86c-.04-1.601.25-3.113.875-4.53.625-1.395 1.718-2.602 3.281-3.626 1.531-1.039 3.781-1.785 6.75-2.234l1.094-.11c2.851-.289 5.101-.085 6.75.61 1.633.73 2.898 1.73 3.797 3 .863 1.305 1.445 2.758 1.75 4.36.32 1.624.562 3.195.718 4.702.176 1.688.243 3.34.203 4.954-.042 1.636-.406 3.136-1.093 4.5-.711 1.355-1.86 2.5-3.453 3.437-1.606.969-3.891 1.605-6.86 1.906-2.71.282-4.898.11-6.562-.515-1.7-.625-3.032-1.524-4-2.703-.992-1.157-1.684-2.524-2.078-4.11a31.01 31.01 0 0 1-.875-4.781Zm11.657-6.703c-.805.242-1.402.48-1.797.719-.43.292-.703.671-.828 1.14-.168.461-.23 1.043-.188 1.75.04.688.118 1.578.235 2.672.113 1.074.226 2.008.343 2.797.114.781.301 1.418.563 1.906.227.531.582.899 1.062 1.094.446.242 1.083.312 1.907.219.863-.082 1.504-.29 1.922-.625.406-.282.687-.707.843-1.282.157-.53.207-1.195.157-2-.086-.789-.184-1.722-.297-2.796a37.894 37.894 0 0 1-.203-2.579c-.086-.757-.204-1.39-.36-1.89-.156-.508-.406-.883-.75-1.125-.336-.25-.812-.336-1.437-.266-.313.031-.703.121-1.172.266ZM175.965 105.652l-.078 7.39c.312-.988.722-1.945 1.234-2.874a13.303 13.303 0 0 1 1.719-2.5 8.478 8.478 0 0 1 2.109-1.75c.75-.446 1.535-.688 2.36-.72 2.488-.093 4.394.266 5.718 1.079 1.281.844 2.207 2.277 2.781 4.297.532 2.023.82 4.699.875 8.031.032 3.356.04 7.477.032 12.36l-10.328.406c.07-.727.156-1.688.25-2.875.05-1.133.101-2.367.156-3.703.02-1.313.02-2.633 0-3.97a39.813 39.813 0 0 0-.188-3.687c-.148-1.07-.355-1.953-.625-2.64-.281-.676-.664-1.004-1.14-.985-1.106.043-2.102.36-2.985.953-.898.625-1.574 1.344-2.031 2.157l-.187 15.015-8.5.344c-.118-2.937-.235-5.91-.36-8.922a710.401 710.401 0 0 1-.36-8.094c-.148-2.863-.296-5.628-.452-8.296ZM193.236 117.206a25.27 25.27 0 0 1 .547-4.703c.3-1.52.847-2.852 1.64-4 .79-1.157 1.89-2.063 3.297-2.72 1.375-.655 3.164-.956 5.375-.905 1.008.03 1.836.164 2.485.39.656.219 1.203.492 1.64.813a6.02 6.02 0 0 1 1.11 1.172c.27.46.52.933.75 1.421h.359l.078-13.03 10.422-.345-.625 24.016a213.958 213.958 0 0 0-.063 4.984 99.91 99.91 0 0 0-.046 3.891 106.71 106.71 0 0 0 .015 3.422l-8.969-.234.735-6c-.281 1.343-.727 2.406-1.328 3.187-.649.813-1.34 1.418-2.078 1.813a6.172 6.172 0 0 1-2.204.718c-.761.114-1.402.164-1.921.157l-.735-.016a.932.932 0 0 0-.25-.047c-1.875-.055-3.422-.437-4.64-1.156-1.243-.695-2.227-1.57-2.954-2.625a11.293 11.293 0 0 1-1.734-3.328c-.68-2.02-.98-4.313-.906-6.875Zm9.937 1.25a73.108 73.108 0 0 0-.031 2.953c.008.836.133 1.527.375 2.078.188.562.52.992 1 1.281.477.293 1.164.45 2.063.469.968.031 1.718-.086 2.25-.36.52-.269.91-.675 1.171-1.218.22-.54.352-1.227.407-2.063.062-.82.109-1.804.14-2.953l.063-2.484c.02-.695-.016-1.285-.11-1.766-.093-.457-.277-.812-.546-1.062-.313-.219-.782-.336-1.407-.36-.418-.007-.968.028-1.656.11-.898.125-1.594.265-2.094.422-.48.168-.828.418-1.047.75-.261.386-.414.886-.453 1.5a52.142 52.142 0 0 0-.125 2.703ZM223.046 106.098l2.64-4.5c-.761-.257-1.265-.625-1.515-1.093-.281-.477-.406-.957-.375-1.438.07-1.101.39-1.937.953-2.5.52-.508 1.52-.71 3-.61 1.219.087 2.032.43 2.438 1.032.406.656.582 1.336.531 2.031-.031.555-.074.95-.125 1.188a9.833 9.833 0 0 1-.437.922l-1 1.703c-.47.75-1.125 1.933-1.97 3.547ZM245.844 116.08c.039-.383-.07-.797-.329-1.234-.261-.438-.699-.692-1.312-.766a3.797 3.797 0 0 0-.422 0 1.95 1.95 0 0 0-.531.11c-.469.125-.809.324-1.016.593-.242.293-.418.664-.531 1.11a7.957 7.957 0 0 0-.234 1.64c-.075.625-.149 1.293-.22 2-.062.524-.038.93.079 1.22.062.323.164.577.312.765.157.199.336.324.547.375a.985.985 0 0 0 .453.156c.133.023.22.016.25-.016l.11.016 3.437.375c1.352.156 2.57.34 3.657.547 1.093.219 2.03.554 2.812 1a4.26 4.26 0 0 1 1.688 1.86c.332.804.425 1.839.28 3.109-.167 1.523-.75 2.68-1.75 3.468-1.023.782-2.214 1.336-3.577 1.672a16.266 16.266 0 0 1-4.235.485c-1.492-.024-2.804-.094-3.937-.22-1.336-.148-2.512-.402-3.531-.765-1-.324-1.86-.715-2.579-1.172-.742-.476-1.343-.976-1.812-1.5a7.826 7.826 0 0 1-1.234-1.61c-.743-1.226-1.11-2.593-1.11-4.093l9.781 1.61c-.054.511-.105.976-.156 1.39a4.025 4.025 0 0 0-.062 1.094c.03.312.16.555.39.719.188.199.524.324 1.016.375l.406.047c.656 0 1.164-.016 1.531-.047.344-.032.625-.188.844-.47.164-.288.285-.78.36-1.468.07-.656.14-1.594.203-2.812l-2.782-.313a42.707 42.707 0 0 1-2.265-.297 15.238 15.238 0 0 1-1.86-.312 15.495 15.495 0 0 1-1.843-.422 33.61 33.61 0 0 1-2.11-.64c-1.367-.47-2.289-1.27-2.765-2.407-.5-1.133-.641-2.644-.422-4.531.05-.488.148-1.086.297-1.797a9.243 9.243 0 0 1 .656-2.156c.32-.727.789-1.461 1.406-2.203.602-.696 1.414-1.305 2.438-1.829 1.039-.507 2.316-.867 3.828-1.078 1.52-.226 3.347-.222 5.484.016 1.613.18 3.004.512 4.172 1 1.125.512 2.066 1.101 2.828 1.766a8.89 8.89 0 0 1 1.781 2.312c.395.836.704 1.664.922 2.484.438 1.97.422 4.125-.047 6.47l-9.687-1.079Zm0 0"/></svg>