<svg xmlns="http://www.w3.org/2000/svg" xmlns:xlink="http://www.w3.org/1999/xlink" width="1024" zoomAndPan="magnify" viewBox="0 0 768 767.999994" height="1024" preserveAspectRatio="xMidYMid meet" version="1.0"><defs><g/><clipPath id="5108e086fc"><path d="M 116 222 L 221.300781 222 L 221.300781 488 L 116 488 Z M 116 222 " clip-rule="nonzero"/></clipPath><clipPath id="bf5f1b875f"><path d="M 176 465 L 221.300781 465 L 221.300781 559.707031 L 176 559.707031 Z M 176 465 " clip-rule="nonzero"/></clipPath><clipPath id="9b67cef792"><path d="M 34.886719 151.707031 L 221.300781 151.707031 L 221.300781 549.835938 L 34.886719 549.835938 Z M 34.886719 151.707031 " clip-rule="nonzero"/></clipPath></defs><g clip-path="url(#5108e086fc)"><path fill="#f6b737" d="M 327.453125 335.417969 C 321.589844 361.195312 308.339844 382.871094 291.015625 402.484375 C 282.191406 412.476562 273.015625 422.371094 266.671875 434.207031 C 263.363281 440.386719 260.945312 447.011719 259.4375 453.851562 C 257.929688 460.699219 258.296875 467.542969 257.277344 474.398438 C 255.542969 486.09375 244.457031 488 234.453125 487.9375 C 220.289062 487.847656 206.101562 486.417969 192.191406 483.710938 C 190.992188 484.179688 189.355469 483.800781 189.132812 482.335938 C 188.144531 475.703125 187.179688 469.054688 185.851562 462.480469 C 183.113281 448.914062 178.632812 435.8125 170.03125 424.796875 C 162.332031 414.941406 152.714844 406.816406 144.332031 397.582031 C 128.175781 379.796875 118.867188 356.746094 116.890625 332.867188 C 115.097656 311.175781 119.460938 288.507812 130.894531 269.839844 C 143.078125 249.953125 162.769531 237.121094 184.804688 230.460938 C 209.113281 223.117188 236.96875 220.964844 262.089844 224.433594 C 286.234375 227.765625 310.410156 239.359375 321.949219 261.910156 C 333.269531 284.042969 332.851562 311.699219 327.453125 335.417969 " fill-opacity="1" fill-rule="nonzero"/></g><g clip-path="url(#bf5f1b875f)"><path fill="#c49261" d="M 268 510.246094 C 267.722656 516.347656 264.171875 522.355469 258.273438 523.496094 C 260.371094 529.421875 257.050781 535.765625 251.941406 539.394531 C 252.082031 544.988281 250.640625 550.09375 245.757812 553.910156 C 240.148438 558.296875 232.546875 559.574219 225.601562 559.628906 C 215.738281 559.703125 194.53125 555.003906 195.453125 542.050781 C 192.074219 541.207031 188.75 539.964844 186.257812 537.601562 C 183.679688 535.160156 182.4375 531.691406 183.890625 528.300781 C 184.855469 526.058594 186.574219 524.550781 188.566406 523.414062 C 182.722656 520.742188 177.957031 516.078125 177.058594 509.273438 C 176.285156 503.429688 179.382812 497.757812 184.574219 495.460938 C 180.121094 490.171875 176.097656 484.132812 176.914062 476.914062 C 177.449219 472.1875 180.519531 468.128906 184.746094 466.582031 C 184.984375 466.160156 185.402344 465.871094 185.972656 465.941406 C 186.265625 465.976562 186.5625 466.011719 186.851562 466.046875 C 187.667969 465.921875 188.515625 465.875 189.386719 465.941406 C 189.914062 465.984375 190.332031 466.191406 190.644531 466.488281 C 199.644531 467.492188 208.671875 468.148438 217.742188 468.070312 C 228.082031 467.976562 238.105469 466.511719 248.351562 465.390625 C 255.148438 464.648438 262.824219 466.410156 264.824219 473.867188 C 266.578125 480.414062 264.734375 487.210938 261.023438 492.667969 C 265.882812 497.085938 268.300781 503.621094 268 510.246094 " fill-opacity="1" fill-rule="nonzero"/></g><g clip-path="url(#9b67cef792)"><path fill="#2e2e30" d="M 248.746094 540.859375 C 241.710938 545.699219 233.929688 546.117188 225.632812 546.101562 C 216.425781 546.085938 207.980469 544.816406 199.109375 542.472656 C 197.804688 542.125 196.902344 544.054688 198.167969 544.707031 C 206.855469 549.195312 217.652344 549.234375 227.195312 549.316406 C 235.144531 549.386719 244.582031 549.257812 250.507812 543.140625 C 251.617188 542 250.148438 539.894531 248.746094 540.859375 Z M 254.164062 522.074219 C 249.339844 522.730469 244.617188 524.570312 239.796875 525.457031 C 234.574219 526.421875 229.28125 526.972656 223.96875 527.128906 C 213.671875 527.4375 203.519531 526.023438 193.519531 523.625 C 191.761719 523.203125 191.042969 525.808594 192.777344 526.335938 C 203.132812 529.464844 213.980469 530.75 224.792969 530.535156 C 234.464844 530.34375 246.734375 529.652344 255.449219 525.121094 C 257.277344 524.171875 255.878906 521.839844 254.164062 522.074219 Z M 224.070312 500.199219 C 234.050781 499.707031 246.253906 499.253906 255.4375 495.035156 C 256.6875 494.460938 256.074219 492.328125 254.730469 492.429688 C 249.890625 492.785156 245.113281 494.355469 240.316406 495.152344 C 234.664062 496.085938 228.957031 496.730469 223.230469 496.988281 C 212.472656 497.472656 202.113281 496 191.433594 495.3125 C 189.921875 495.214844 189.660156 497.539062 191.082031 497.921875 C 201.542969 500.738281 213.328125 500.730469 224.070312 500.199219 Z M 275.238281 331.421875 C 275.058594 330.539062 273.878906 329.917969 272.074219 329.761719 C 271.820312 329.738281 271.5625 329.726562 271.304688 329.726562 C 267.234375 329.726562 263.113281 332.410156 260.320312 335.191406 C 262.285156 335.878906 264.328125 336.234375 266.285156 336.234375 C 268.558594 336.234375 270.617188 335.757812 272.398438 334.816406 C 274.597656 333.652344 275.410156 332.273438 275.238281 331.421875 Z M 250.898438 336.101562 L 250.753906 336.050781 L 250.648438 335.960938 C 249.457031 334.945312 248.347656 333.820312 247.347656 332.609375 C 245.609375 330.53125 244.117188 328.121094 242.90625 325.441406 C 239.867188 327.527344 236.402344 328.628906 232.828125 328.628906 C 227.21875 328.628906 221.875 325.878906 218.324219 321.222656 C 214.167969 326.464844 209.125 329.339844 204.023438 329.339844 C 202.164062 329.339844 200.296875 328.957031 198.464844 328.195312 C 197.796875 331.792969 196.96875 334.703125 195.875 337.285156 C 195.652344 337.808594 195.285156 338.441406 194.898438 339.117188 C 194.375 340.015625 193.496094 341.523438 193.558594 342.042969 C 193.644531 342.789062 195.085938 344.46875 196.136719 345.695312 C 197.058594 346.765625 197.921875 347.78125 198.363281 348.59375 C 199.625 350.933594 200.730469 353.621094 201.734375 356.804688 C 205.503906 368.746094 206.136719 381.699219 206.429688 392.898438 C 206.753906 405.121094 206.441406 417.558594 206.136719 429.59375 C 206.066406 432.402344 205.996094 435.207031 205.929688 438.011719 C 205.777344 445.015625 205.566406 452.304688 205.3125 459.667969 C 205.300781 460.089844 205.316406 460.851562 205.339844 461.808594 C 205.363281 462.894531 205.378906 463.980469 205.382812 465.042969 C 211.128906 465.335938 216.875 465.578125 222.667969 465.441406 C 229.769531 465.273438 236.777344 464.617188 243.792969 463.859375 C 243.203125 460.664062 243.09375 456.429688 243.078125 452.148438 C 243.074219 450.933594 243.074219 449.882812 243.035156 449.261719 C 242.210938 435.519531 242.207031 420.671875 243.019531 402.527344 C 243.171875 399.148438 243.296875 395.753906 243.429688 392.355469 C 243.847656 381.277344 244.285156 369.824219 245.542969 358.722656 C 246.007812 354.640625 246.570312 351.363281 247.320312 348.398438 C 247.5625 347.457031 248.082031 346.085938 248.683594 344.496094 C 249.554688 342.210938 251.589844 336.855469 250.898438 336.101562 Z M 194.425781 318.148438 C 194.476562 317.78125 194.535156 317.398438 194.59375 317.003906 C 195.320312 312 196.425781 304.429688 194.359375 300.855469 C 193.703125 299.714844 192.757812 299.03125 191.847656 299.03125 C 191.171875 299.03125 190.507812 299.390625 189.863281 300.101562 C 188.464844 301.640625 189.335938 305.082031 189.851562 307.136719 L 189.960938 307.578125 C 191.054688 311.992188 192.523438 315.472656 194.425781 318.148438 Z M 219.0625 310.039062 C 220.777344 307.171875 222.660156 303.785156 222.972656 300.667969 C 223.109375 299.308594 222.628906 297.082031 221.773438 296.136719 C 221.566406 295.90625 221.371094 295.792969 221.183594 295.792969 C 221.003906 295.792969 220.5 295.90625 219.722656 296.972656 C 217.261719 300.332031 217.875 305.644531 219.0625 310.039062 Z M 245.546875 315.121094 C 249.695312 309.800781 251.539062 305.542969 251.027344 302.457031 C 250.71875 300.605469 249.066406 298.984375 247.488281 298.984375 C 246.207031 298.984375 245.546875 300.089844 245.210938 301.019531 C 244.09375 304.125 244.207031 308.867188 245.546875 315.121094 Z M 184.410156 342.632812 C 183.355469 342.269531 182.253906 342.085938 181.152344 342.085938 C 179.078125 342.085938 177.246094 342.738281 175.890625 343.945312 C 176.832031 344.394531 177.824219 344.621094 178.851562 344.621094 C 180.992188 344.621094 182.933594 343.667969 184.410156 342.632812 Z M 280.488281 330.574219 C 280.972656 334.59375 277.914062 339.738281 271.304688 341.347656 C 269.855469 341.703125 268.289062 341.882812 266.644531 341.882812 C 265.597656 341.882812 264.503906 341.808594 263.402344 341.664062 C 262.722656 341.574219 261.601562 341.15625 260.300781 340.667969 C 259.03125 340.1875 257.292969 339.535156 256.660156 339.535156 C 255.234375 339.941406 253.253906 343.246094 251.792969 356.679688 L 251.699219 357.496094 C 248.089844 388.816406 247.136719 420.519531 248.871094 451.738281 C 248.886719 452.0625 248.976562 452.78125 249.085938 453.691406 C 249.480469 456.964844 249.839844 460.386719 249.84375 463.1875 C 251.070312 463.050781 252.296875 462.914062 253.527344 462.773438 C 255.464844 462.5625 255.867188 465.804688 253.984375 466.15625 C 243.730469 468.066406 233.078125 468.667969 222.667969 468.867188 C 212.324219 469.0625 201.554688 469 191.347656 467.183594 C 189.746094 466.894531 190.15625 464.339844 191.722656 464.390625 C 194.238281 464.46875 196.753906 464.589844 199.261719 464.722656 C 199.277344 459.566406 199.605469 452.425781 200.238281 442.769531 C 200.410156 440.171875 200.542969 438.117188 200.558594 437.234375 C 200.773438 425.351562 200.960938 411.335938 200.769531 397.480469 C 200.601562 385.707031 199.976562 373.15625 196.519531 361.144531 C 196.40625 360.761719 196.277344 360.273438 196.128906 359.714844 C 195.183594 356.214844 192.980469 348.015625 190.128906 346.816406 C 190.125 346.8125 190.066406 346.789062 189.925781 346.789062 C 189.078125 346.789062 187.339844 347.511719 185.65625 348.214844 C 183.21875 349.226562 180.460938 350.375 178.289062 350.375 C 178.128906 350.375 177.976562 350.367188 177.828125 350.355469 C 174.691406 350.105469 170.609375 348.808594 169.414062 345.988281 C 168.921875 344.828125 168.753906 342.9375 170.746094 340.507812 C 173.050781 337.703125 176.578125 336.15625 180.679688 336.15625 C 181.117188 336.15625 181.550781 336.175781 181.984375 336.210938 C 182.9375 336.289062 184.074219 336.746094 185.171875 337.183594 C 186.207031 337.601562 187.28125 338.035156 187.945312 338.035156 C 187.984375 338.035156 188.027344 338.03125 188.0625 338.027344 C 189.402344 337.878906 190.171875 335.933594 190.917969 334.046875 L 191.355469 332.953125 C 192.070312 331.191406 193.046875 328.785156 193.046875 327.066406 C 193.050781 324.8125 192.585938 324.265625 191.472656 322.945312 C 191.054688 322.449219 190.574219 321.882812 190.023438 321.109375 C 186.871094 316.707031 182.003906 305.582031 184.464844 298.601562 C 185.417969 295.886719 187.359375 294.105469 190.238281 293.308594 C 191.109375 293.066406 191.949219 292.941406 192.722656 292.941406 C 194.574219 292.941406 196.140625 293.617188 197.382812 294.949219 C 200.984375 298.816406 200.820312 307.25 200.582031 310.695312 C 200.527344 311.503906 200.265625 312.898438 199.964844 314.511719 C 199.515625 316.878906 198.59375 321.804688 199.09375 322.605469 C 199.96875 323.84375 201.660156 324.105469 202.925781 324.105469 C 205.417969 324.105469 208.402344 323.09375 209.847656 322.121094 C 211.601562 320.933594 213.6875 319.03125 214.382812 317.460938 C 215.175781 315.675781 214.820312 314.5 214.277344 312.71875 C 214.054688 311.980469 213.800781 311.140625 213.609375 310.164062 C 212.367188 303.78125 212.785156 298.730469 214.847656 295.167969 C 216.335938 292.597656 219.257812 290.003906 222.417969 290.003906 C 223.644531 290.003906 224.808594 290.386719 225.863281 291.144531 C 230.484375 294.4375 228.816406 301.511719 227.882812 304.394531 C 227.460938 305.710938 226.214844 307.640625 224.898438 309.6875 C 223.402344 312.007812 221.351562 315.183594 221.457031 316.375 C 221.675781 318.835938 226.933594 322.074219 229.585938 322.820312 C 230.433594 323.058594 231.535156 323.191406 232.6875 323.191406 C 236.28125 323.191406 240.371094 321.980469 240.839844 319.324219 C 241.148438 317.578125 240.507812 315.140625 239.886719 312.785156 C 239.351562 310.753906 238.796875 308.65625 238.792969 306.828125 C 238.792969 303.886719 239.761719 300.503906 241.386719 297.777344 C 243.257812 294.640625 245.664062 292.914062 248.164062 292.914062 C 250.429688 292.914062 252.585938 294.296875 254.585938 297.03125 C 257.410156 300.898438 257.234375 306.226562 254.078125 312.4375 L 250.105469 318.476562 C 249.6875 319.007812 249.316406 319.433594 248.996094 319.796875 C 247.632812 321.367188 247.550781 321.460938 248.539062 324.144531 C 249.445312 326.601562 251.488281 328.976562 252.625 330.179688 C 253.269531 330.859375 254.351562 331.996094 254.714844 331.996094 C 254.890625 331.996094 255.285156 331.726562 255.742188 331.414062 C 256.105469 331.167969 256.535156 330.875 257.078125 330.550781 C 258.152344 329.910156 259.140625 329.234375 260.097656 328.578125 C 262.875 326.675781 265.496094 324.882812 269.503906 324.363281 C 270.277344 324.265625 271.03125 324.214844 271.742188 324.214844 C 277.628906 324.214844 280.117188 327.5 280.488281 330.574219 Z M 356.417969 435.546875 C 350.59375 430.71875 344.28125 426.511719 338.472656 421.640625 C 332.914062 416.984375 327.871094 411.589844 322.03125 407.285156 C 320.179688 405.917969 317.566406 408.609375 318.859375 410.460938 C 323.140625 416.589844 329.203125 421.566406 334.953125 426.277344 C 340.761719 431.027344 346.832031 435.878906 353.53125 439.292969 C 355.800781 440.449219 358.617188 437.371094 356.417969 435.546875 Z M 401.972656 380.449219 C 394.582031 375.050781 386.210938 370.894531 378.121094 366.65625 C 370.703125 362.769531 362.25 357.042969 353.898438 355.714844 C 351.628906 355.351562 349.273438 358.132812 351.40625 360.003906 C 357.804688 365.640625 367.117188 368.695312 374.679688 372.546875 C 382.855469 376.714844 390.828125 381.476562 399.265625 385.078125 C 402.425781 386.425781 404.796875 382.515625 401.972656 380.449219 Z M 358.742188 271.398438 C 365.867188 270.25 372.855469 267.765625 379.777344 265.75 C 386.695312 263.734375 393.914062 262.042969 400.601562 259.339844 C 403.574219 258.140625 402.492188 253.925781 399.269531 254.5 C 391.890625 255.824219 384.601562 258.339844 377.402344 260.40625 C 370.519531 262.382812 363.425781 264.042969 356.820312 266.84375 C 354.023438 268.027344 356.203125 271.808594 358.742188 271.398438 Z M 334.652344 179.394531 C 336.445312 176.902344 332.367188 174.617188 330.5625 177.007812 C 325.496094 183.726562 320.304688 190.363281 314.992188 196.890625 C 310.171875 202.816406 304.726562 208.46875 300.460938 214.808594 C 298.914062 217.105469 302.253906 219.398438 304.152344 217.660156 C 310.207031 212.109375 315.242188 205.011719 320.292969 198.558594 C 325.214844 192.269531 329.988281 185.875 334.652344 179.394531 Z M 222.671875 202.804688 C 223.683594 194.910156 222.359375 186.347656 222.191406 178.386719 C 222.015625 170.242188 222.09375 162.097656 222.027344 153.957031 C 222 150.929688 217.589844 150.992188 217.375 153.957031 C 216.761719 162.367188 216.640625 170.824219 216.675781 179.257812 C 216.710938 187.0625 216.109375 195.820312 217.992188 203.4375 C 218.691406 206.265625 222.351562 205.28125 222.671875 202.804688 Z M 113.019531 213.316406 C 108.105469 206.855469 103.445312 199.796875 97.867188 193.890625 C 95.953125 191.863281 92.601562 194.46875 94.023438 196.859375 C 98.355469 204.140625 104.097656 210.835938 109.1875 217.601562 C 114.019531 224.035156 118.585938 231.375 124.382812 236.984375 C 126.351562 238.890625 129.421875 236.484375 128.136719 234.082031 C 124.179688 226.683594 118.085938 219.988281 113.019531 213.316406 Z M 83.625 301.097656 C 89.050781 301.78125 94.757812 302.90625 100.226562 302.414062 C 103.175781 302.148438 103.957031 298.085938 100.941406 297.132812 C 96.25 295.652344 91.109375 295.410156 86.246094 294.808594 C 80.425781 294.089844 74.609375 293.320312 68.804688 292.503906 C 58.390625 291.042969 48.003906 289.082031 37.550781 287.929688 C 34.4375 287.582031 33.867188 292.589844 36.820312 293.339844 C 47.289062 295.996094 58.132812 297.484375 68.808594 299.066406 C 73.738281 299.800781 78.679688 300.476562 83.625 301.097656 Z M 108.449219 389.835938 C 101.691406 394.472656 94.152344 398.003906 87.09375 402.175781 C 80.554688 406.039062 73.9375 411.710938 66.824219 414.292969 C 64.445312 415.160156 63.101562 411.96875 64.53125 410.347656 C 67.183594 407.347656 70.992188 405.3125 74.339844 403.160156 C 77.804688 400.9375 81.300781 398.773438 84.839844 396.679688 C 91.820312 392.554688 98.949219 388.191406 106.632812 385.519531 C 109.3125 384.582031 110.515625 388.414062 108.449219 389.835938 " fill-opacity="1" fill-rule="nonzero"/></g><path fill="#ffffff" d="M 148.433594 361.753906 C 147.203125 358.246094 146.742188 354.636719 144.75 351.464844 C 144.261719 350.683594 143.082031 350.832031 142.8125 351.714844 C 140.589844 359.007812 143.800781 367.835938 147.453125 374.191406 C 150.453125 379.417969 155.203125 387.929688 161.730469 388.679688 C 162.53125 388.769531 163.261719 387.910156 163.246094 387.164062 C 163.097656 381.285156 156.527344 376.359375 153.519531 371.714844 C 151.496094 368.589844 149.671875 365.269531 148.433594 361.753906 Z M 169.652344 269.359375 C 160.847656 274.761719 154.589844 283.480469 150.765625 292.96875 C 146.195312 304.320312 146.5625 316.222656 143.792969 327.914062 C 143.148438 330.648438 138.507812 330.878906 138.027344 327.914062 C 135.980469 315.183594 139.050781 300.4375 144.148438 288.726562 C 148.753906 278.152344 156.300781 269.410156 166.492188 263.945312 C 170.046875 262.042969 173.09375 267.25 169.652344 269.359375 " fill-opacity="1" fill-rule="nonzero"/><g fill="#ff0000" fill-opacity="1"><g transform="translate(216.260339, 370.698275)"><g><path d="M 50.59375 0 L 20.4375 0 C 17.96875 0 16.179688 -0.550781 15.078125 -1.65625 C 13.972656 -2.757812 13.421875 -4.539062 13.421875 -7 L 13.421875 -133.09375 C 13.421875 -135.550781 13.972656 -137.332031 15.078125 -138.4375 C 16.179688 -139.539062 17.96875 -140.09375 20.4375 -140.09375 L 107.21875 -140.09375 C 109.675781 -140.09375 111.457031 -139.539062 112.5625 -138.4375 C 113.664062 -137.332031 114.21875 -135.550781 114.21875 -133.09375 L 114.21875 -109.9375 C 114.21875 -107.46875 113.664062 -105.679688 112.5625 -104.578125 C 111.457031 -103.484375 109.675781 -102.9375 107.21875 -102.9375 L 57.59375 -102.9375 L 57.59375 -82.703125 L 91.453125 -82.703125 C 93.921875 -82.703125 95.703125 -82.148438 96.796875 -81.046875 C 97.898438 -79.941406 98.453125 -78.15625 98.453125 -75.6875 L 98.453125 -52.34375 C 98.453125 -49.875 97.898438 -48.085938 96.796875 -46.984375 C 95.703125 -45.890625 93.921875 -45.34375 91.453125 -45.34375 L 57.59375 -45.34375 L 57.59375 -7 C 57.59375 -4.539062 57.039062 -2.757812 55.9375 -1.65625 C 54.832031 -0.550781 53.050781 0 50.59375 0 Z M 50.59375 0 "/></g></g></g><g fill="#ff0000" fill-opacity="1"><g transform="translate(336.5061, 370.698275)"><g><path d="M 132.703125 -36.78125 C 132.703125 -30.8125 131.828125 -25.394531 130.078125 -20.53125 C 128.328125 -15.664062 125.210938 -11.515625 120.734375 -8.078125 C 116.253906 -4.640625 110.125 -1.945312 102.34375 0 C 94.5625 1.945312 84.640625 2.921875 72.578125 2.921875 C 60.515625 2.921875 50.585938 1.945312 42.796875 0 C 35.015625 -1.945312 28.882812 -4.640625 24.40625 -8.078125 C 19.9375 -11.515625 16.828125 -15.664062 15.078125 -20.53125 C 13.328125 -25.394531 12.453125 -30.8125 12.453125 -36.78125 L 12.453125 -133.09375 C 12.453125 -135.550781 13.003906 -137.332031 14.109375 -138.4375 C 15.210938 -139.539062 16.992188 -140.09375 19.453125 -140.09375 L 50 -140.09375 C 52.46875 -140.09375 54.253906 -139.539062 55.359375 -138.4375 C 56.460938 -137.332031 57.015625 -135.550781 57.015625 -133.09375 L 57.015625 -44.359375 C 57.015625 -41.765625 57.984375 -39.59375 59.921875 -37.84375 C 61.867188 -36.09375 66.21875 -35.21875 72.96875 -35.21875 C 79.84375 -35.21875 84.25 -36.09375 86.1875 -37.84375 C 88.132812 -39.59375 89.109375 -41.765625 89.109375 -44.359375 L 89.109375 -133.09375 C 89.109375 -135.550781 89.660156 -137.332031 90.765625 -138.4375 C 91.867188 -139.539062 93.65625 -140.09375 96.125 -140.09375 L 125.703125 -140.09375 C 128.160156 -140.09375 129.941406 -139.539062 131.046875 -138.4375 C 132.148438 -137.332031 132.703125 -135.550781 132.703125 -133.09375 Z M 132.703125 -36.78125 "/></g></g></g><g fill="#ff0000" fill-opacity="1"><g transform="translate(481.657132, 370.698275)"><g><path d="M 49.625 0 L 20.4375 0 C 17.96875 0 16.179688 -0.550781 15.078125 -1.65625 C 13.972656 -2.757812 13.421875 -4.539062 13.421875 -7 L 13.421875 -133.09375 C 13.421875 -135.550781 13.972656 -137.332031 15.078125 -138.4375 C 16.179688 -139.539062 17.96875 -140.09375 20.4375 -140.09375 L 40.671875 -140.09375 C 43.128906 -140.09375 45.234375 -139.703125 46.984375 -138.921875 C 48.742188 -138.148438 50.460938 -136.789062 52.140625 -134.84375 L 89.890625 -91.640625 L 89.890625 -133.09375 C 89.890625 -135.550781 90.441406 -137.332031 91.546875 -138.4375 C 92.648438 -139.539062 94.4375 -140.09375 96.90625 -140.09375 L 126.09375 -140.09375 C 128.550781 -140.09375 130.332031 -139.539062 131.4375 -138.4375 C 132.539062 -137.332031 133.09375 -135.550781 133.09375 -133.09375 L 133.09375 -7 C 133.09375 -4.539062 132.539062 -2.757812 131.4375 -1.65625 C 130.332031 -0.550781 128.550781 0 126.09375 0 L 96.90625 0 C 94.4375 0 92.648438 -0.550781 91.546875 -1.65625 C 90.441406 -2.757812 89.890625 -4.539062 89.890625 -7 L 89.890625 -30.9375 L 56.625 -71.21875 L 56.625 -7 C 56.625 -4.539062 56.070312 -2.757812 54.96875 -1.65625 C 53.863281 -0.550781 52.082031 0 49.625 0 Z M 49.625 0 "/></g></g></g><g fill="#00ffff" fill-opacity="1"><g transform="translate(226.399314, 361.243528)"><g><path d="M 50.59375 0 L 20.4375 0 C 17.96875 0 16.179688 -0.550781 15.078125 -1.65625 C 13.972656 -2.757812 13.421875 -4.539062 13.421875 -7 L 13.421875 -133.09375 C 13.421875 -135.550781 13.972656 -137.332031 15.078125 -138.4375 C 16.179688 -139.539062 17.96875 -140.09375 20.4375 -140.09375 L 107.21875 -140.09375 C 109.675781 -140.09375 111.457031 -139.539062 112.5625 -138.4375 C 113.664062 -137.332031 114.21875 -135.550781 114.21875 -133.09375 L 114.21875 -109.9375 C 114.21875 -107.46875 113.664062 -105.679688 112.5625 -104.578125 C 111.457031 -103.484375 109.675781 -102.9375 107.21875 -102.9375 L 57.59375 -102.9375 L 57.59375 -82.703125 L 91.453125 -82.703125 C 93.921875 -82.703125 95.703125 -82.148438 96.796875 -81.046875 C 97.898438 -79.941406 98.453125 -78.15625 98.453125 -75.6875 L 98.453125 -52.34375 C 98.453125 -49.875 97.898438 -48.085938 96.796875 -46.984375 C 95.703125 -45.890625 93.921875 -45.34375 91.453125 -45.34375 L 57.59375 -45.34375 L 57.59375 -7 C 57.59375 -4.539062 57.039062 -2.757812 55.9375 -1.65625 C 54.832031 -0.550781 53.050781 0 50.59375 0 Z M 50.59375 0 "/></g></g></g><g fill="#00ffff" fill-opacity="1"><g transform="translate(346.645075, 361.243528)"><g><path d="M 132.703125 -36.78125 C 132.703125 -30.8125 131.828125 -25.394531 130.078125 -20.53125 C 128.328125 -15.664062 125.210938 -11.515625 120.734375 -8.078125 C 116.253906 -4.640625 110.125 -1.945312 102.34375 0 C 94.5625 1.945312 84.640625 2.921875 72.578125 2.921875 C 60.515625 2.921875 50.585938 1.945312 42.796875 0 C 35.015625 -1.945312 28.882812 -4.640625 24.40625 -8.078125 C 19.9375 -11.515625 16.828125 -15.664062 15.078125 -20.53125 C 13.328125 -25.394531 12.453125 -30.8125 12.453125 -36.78125 L 12.453125 -133.09375 C 12.453125 -135.550781 13.003906 -137.332031 14.109375 -138.4375 C 15.210938 -139.539062 16.992188 -140.09375 19.453125 -140.09375 L 50 -140.09375 C 52.46875 -140.09375 54.253906 -139.539062 55.359375 -138.4375 C 56.460938 -137.332031 57.015625 -135.550781 57.015625 -133.09375 L 57.015625 -44.359375 C 57.015625 -41.765625 57.984375 -39.59375 59.921875 -37.84375 C 61.867188 -36.09375 66.21875 -35.21875 72.96875 -35.21875 C 79.84375 -35.21875 84.25 -36.09375 86.1875 -37.84375 C 88.132812 -39.59375 89.109375 -41.765625 89.109375 -44.359375 L 89.109375 -133.09375 C 89.109375 -135.550781 89.660156 -137.332031 90.765625 -138.4375 C 91.867188 -139.539062 93.65625 -140.09375 96.125 -140.09375 L 125.703125 -140.09375 C 128.160156 -140.09375 129.941406 -139.539062 131.046875 -138.4375 C 132.148438 -137.332031 132.703125 -135.550781 132.703125 -133.09375 Z M 132.703125 -36.78125 "/></g></g></g><g fill="#00ffff" fill-opacity="1"><g transform="translate(491.796107, 361.243528)"><g><path d="M 49.625 0 L 20.4375 0 C 17.96875 0 16.179688 -0.550781 15.078125 -1.65625 C 13.972656 -2.757812 13.421875 -4.539062 13.421875 -7 L 13.421875 -133.09375 C 13.421875 -135.550781 13.972656 -137.332031 15.078125 -138.4375 C 16.179688 -139.539062 17.96875 -140.09375 20.4375 -140.09375 L 40.671875 -140.09375 C 43.128906 -140.09375 45.234375 -139.703125 46.984375 -138.921875 C 48.742188 -138.148438 50.460938 -136.789062 52.140625 -134.84375 L 89.890625 -91.640625 L 89.890625 -133.09375 C 89.890625 -135.550781 90.441406 -137.332031 91.546875 -138.4375 C 92.648438 -139.539062 94.4375 -140.09375 96.90625 -140.09375 L 126.09375 -140.09375 C 128.550781 -140.09375 130.332031 -139.539062 131.4375 -138.4375 C 132.539062 -137.332031 133.09375 -135.550781 133.09375 -133.09375 L 133.09375 -7 C 133.09375 -4.539062 132.539062 -2.757812 131.4375 -1.65625 C 130.332031 -0.550781 128.550781 0 126.09375 0 L 96.90625 0 C 94.4375 0 92.648438 -0.550781 91.546875 -1.65625 C 90.441406 -2.757812 89.890625 -4.539062 89.890625 -7 L 89.890625 -30.9375 L 56.625 -71.21875 L 56.625 -7 C 56.625 -4.539062 56.070312 -2.757812 54.96875 -1.65625 C 53.863281 -0.550781 52.082031 0 49.625 0 Z M 49.625 0 "/></g></g></g><g fill="#5271ff" fill-opacity="1"><g transform="translate(221.329826, 365.970901)"><g><path d="M 50.59375 0 L 20.4375 0 C 17.96875 0 16.179688 -0.550781 15.078125 -1.65625 C 13.972656 -2.757812 13.421875 -4.539062 13.421875 -7 L 13.421875 -133.09375 C 13.421875 -135.550781 13.972656 -137.332031 15.078125 -138.4375 C 16.179688 -139.539062 17.96875 -140.09375 20.4375 -140.09375 L 107.21875 -140.09375 C 109.675781 -140.09375 111.457031 -139.539062 112.5625 -138.4375 C 113.664062 -137.332031 114.21875 -135.550781 114.21875 -133.09375 L 114.21875 -109.9375 C 114.21875 -107.46875 113.664062 -105.679688 112.5625 -104.578125 C 111.457031 -103.484375 109.675781 -102.9375 107.21875 -102.9375 L 57.59375 -102.9375 L 57.59375 -82.703125 L 91.453125 -82.703125 C 93.921875 -82.703125 95.703125 -82.148438 96.796875 -81.046875 C 97.898438 -79.941406 98.453125 -78.15625 98.453125 -75.6875 L 98.453125 -52.34375 C 98.453125 -49.875 97.898438 -48.085938 96.796875 -46.984375 C 95.703125 -45.890625 93.921875 -45.34375 91.453125 -45.34375 L 57.59375 -45.34375 L 57.59375 -7 C 57.59375 -4.539062 57.039062 -2.757812 55.9375 -1.65625 C 54.832031 -0.550781 53.050781 0 50.59375 0 Z M 50.59375 0 "/></g></g></g><g fill="#5271ff" fill-opacity="1"><g transform="translate(341.575586, 365.970901)"><g><path d="M 132.703125 -36.78125 C 132.703125 -30.8125 131.828125 -25.394531 130.078125 -20.53125 C 128.328125 -15.664062 125.210938 -11.515625 120.734375 -8.078125 C 116.253906 -4.640625 110.125 -1.945312 102.34375 0 C 94.5625 1.945312 84.640625 2.921875 72.578125 2.921875 C 60.515625 2.921875 50.585938 1.945312 42.796875 0 C 35.015625 -1.945312 28.882812 -4.640625 24.40625 -8.078125 C 19.9375 -11.515625 16.828125 -15.664062 15.078125 -20.53125 C 13.328125 -25.394531 12.453125 -30.8125 12.453125 -36.78125 L 12.453125 -133.09375 C 12.453125 -135.550781 13.003906 -137.332031 14.109375 -138.4375 C 15.210938 -139.539062 16.992188 -140.09375 19.453125 -140.09375 L 50 -140.09375 C 52.46875 -140.09375 54.253906 -139.539062 55.359375 -138.4375 C 56.460938 -137.332031 57.015625 -135.550781 57.015625 -133.09375 L 57.015625 -44.359375 C 57.015625 -41.765625 57.984375 -39.59375 59.921875 -37.84375 C 61.867188 -36.09375 66.21875 -35.21875 72.96875 -35.21875 C 79.84375 -35.21875 84.25 -36.09375 86.1875 -37.84375 C 88.132812 -39.59375 89.109375 -41.765625 89.109375 -44.359375 L 89.109375 -133.09375 C 89.109375 -135.550781 89.660156 -137.332031 90.765625 -138.4375 C 91.867188 -139.539062 93.65625 -140.09375 96.125 -140.09375 L 125.703125 -140.09375 C 128.160156 -140.09375 129.941406 -139.539062 131.046875 -138.4375 C 132.148438 -137.332031 132.703125 -135.550781 132.703125 -133.09375 Z M 132.703125 -36.78125 "/></g></g></g><g fill="#5271ff" fill-opacity="1"><g transform="translate(486.726618, 365.970901)"><g><path d="M 49.625 0 L 20.4375 0 C 17.96875 0 16.179688 -0.550781 15.078125 -1.65625 C 13.972656 -2.757812 13.421875 -4.539062 13.421875 -7 L 13.421875 -133.09375 C 13.421875 -135.550781 13.972656 -137.332031 15.078125 -138.4375 C 16.179688 -139.539062 17.96875 -140.09375 20.4375 -140.09375 L 40.671875 -140.09375 C 43.128906 -140.09375 45.234375 -139.703125 46.984375 -138.921875 C 48.742188 -138.148438 50.460938 -136.789062 52.140625 -134.84375 L 89.890625 -91.640625 L 89.890625 -133.09375 C 89.890625 -135.550781 90.441406 -137.332031 91.546875 -138.4375 C 92.648438 -139.539062 94.4375 -140.09375 96.90625 -140.09375 L 126.09375 -140.09375 C 128.550781 -140.09375 130.332031 -139.539062 131.4375 -138.4375 C 132.539062 -137.332031 133.09375 -135.550781 133.09375 -133.09375 L 133.09375 -7 C 133.09375 -4.539062 132.539062 -2.757812 131.4375 -1.65625 C 130.332031 -0.550781 128.550781 0 126.09375 0 L 96.90625 0 C 94.4375 0 92.648438 -0.550781 91.546875 -1.65625 C 90.441406 -2.757812 89.890625 -4.539062 89.890625 -7 L 89.890625 -30.9375 L 56.625 -71.21875 L 56.625 -7 C 56.625 -4.539062 56.070312 -2.757812 54.96875 -1.65625 C 53.863281 -0.550781 52.082031 0 49.625 0 Z M 49.625 0 "/></g></g></g><g fill="#ff0000" fill-opacity="1"><g transform="translate(216.260339, 533.453158)"><g><path d="M 50.59375 0 L 20.4375 0 C 17.96875 0 16.179688 -0.550781 15.078125 -1.65625 C 13.972656 -2.757812 13.421875 -4.539062 13.421875 -7 L 13.421875 -133.09375 C 13.421875 -135.550781 13.972656 -137.332031 15.078125 -138.4375 C 16.179688 -139.539062 17.96875 -140.09375 20.4375 -140.09375 L 107.21875 -140.09375 C 109.675781 -140.09375 111.457031 -139.539062 112.5625 -138.4375 C 113.664062 -137.332031 114.21875 -135.550781 114.21875 -133.09375 L 114.21875 -109.9375 C 114.21875 -107.46875 113.664062 -105.679688 112.5625 -104.578125 C 111.457031 -103.484375 109.675781 -102.9375 107.21875 -102.9375 L 57.59375 -102.9375 L 57.59375 -82.703125 L 91.453125 -82.703125 C 93.921875 -82.703125 95.703125 -82.148438 96.796875 -81.046875 C 97.898438 -79.941406 98.453125 -78.15625 98.453125 -75.6875 L 98.453125 -52.34375 C 98.453125 -49.875 97.898438 -48.085938 96.796875 -46.984375 C 95.703125 -45.890625 93.921875 -45.34375 91.453125 -45.34375 L 57.59375 -45.34375 L 57.59375 -7 C 57.59375 -4.539062 57.039062 -2.757812 55.9375 -1.65625 C 54.832031 -0.550781 53.050781 0 50.59375 0 Z M 50.59375 0 "/></g></g></g><g fill="#ff0000" fill-opacity="1"><g transform="translate(336.5061, 533.453158)"><g><path d="M 64.203125 -99.234375 L 55.0625 -69.65625 L 85.609375 -69.65625 L 76.46875 -99.234375 C 75.945312 -100.398438 75.394531 -101.242188 74.8125 -101.765625 C 74.226562 -102.285156 73.546875 -102.546875 72.765625 -102.546875 L 67.90625 -102.546875 C 67.125 -102.546875 66.441406 -102.285156 65.859375 -101.765625 C 65.273438 -101.242188 64.722656 -100.398438 64.203125 -99.234375 Z M 53.125 -7 C 53.125 -4.539062 52.570312 -2.757812 51.46875 -1.65625 C 50.363281 -0.550781 48.578125 0 46.109375 0 L 17.515625 0 C 15.046875 0 13.257812 -0.550781 12.15625 -1.65625 C 11.050781 -2.757812 10.5 -4.539062 10.5 -7 L 10.5 -58.375 C 10.5 -62.257812 11.113281 -66.734375 12.34375 -71.796875 C 13.582031 -76.859375 15.5 -82.757812 18.09375 -89.5 L 35.03125 -133.671875 C 35.800781 -135.878906 37 -137.5 38.625 -138.53125 C 40.25 -139.570312 42.359375 -140.09375 44.953125 -140.09375 L 97.296875 -140.09375 C 99.753906 -140.09375 101.789062 -139.570312 103.40625 -138.53125 C 105.03125 -137.5 106.234375 -135.878906 107.015625 -133.671875 L 123.953125 -89.5 C 126.546875 -82.757812 128.457031 -76.859375 129.6875 -71.796875 C 130.914062 -66.734375 131.53125 -62.257812 131.53125 -58.375 L 131.53125 -7 C 131.53125 -4.539062 130.976562 -2.757812 129.875 -1.65625 C 128.78125 -0.550781 127 0 124.53125 0 L 95.15625 0 C 92.550781 0 90.632812 -0.550781 89.40625 -1.65625 C 88.175781 -2.757812 87.5625 -4.539062 87.5625 -7 L 87.5625 -34.25 L 53.125 -34.25 Z M 53.125 -7 "/></g></g></g><g fill="#ff0000" fill-opacity="1"><g transform="translate(478.543981, 533.453158)"><g><path d="M 106.625 0 L 59.15625 0 C 42.9375 0 30.898438 -3.238281 23.046875 -9.71875 C 15.203125 -16.207031 11.28125 -26.195312 11.28125 -39.6875 L 11.28125 -100.203125 C 11.28125 -113.691406 15.203125 -123.710938 23.046875 -130.265625 C 30.898438 -136.816406 42.9375 -140.09375 59.15625 -140.09375 L 106.625 -140.09375 C 109.09375 -140.09375 110.878906 -139.539062 111.984375 -138.4375 C 113.085938 -137.332031 113.640625 -135.550781 113.640625 -133.09375 L 113.640625 -109.546875 C 113.640625 -107.078125 113.085938 -105.289062 111.984375 -104.1875 C 110.878906 -103.09375 109.09375 -102.546875 106.625 -102.546875 L 67.515625 -102.546875 C 63.492188 -102.546875 60.507812 -101.734375 58.5625 -100.109375 C 56.625 -98.484375 55.65625 -96.050781 55.65625 -92.8125 L 55.65625 -46.5 C 55.65625 -43.257812 56.625 -40.894531 58.5625 -39.40625 C 60.507812 -37.914062 63.492188 -37.171875 67.515625 -37.171875 L 106.625 -37.171875 C 109.09375 -37.171875 110.878906 -36.617188 111.984375 -35.515625 C 113.085938 -34.410156 113.640625 -32.625 113.640625 -30.15625 L 113.640625 -7 C 113.640625 -4.539062 113.085938 -2.757812 111.984375 -1.65625 C 110.878906 -0.550781 109.09375 0 106.625 0 Z M 106.625 0 "/></g></g></g><g fill="#ff0000" fill-opacity="1"><g transform="translate(600.73548, 533.453158)"><g><path d="M 79.578125 0 L 48.0625 0 C 45.59375 0 43.804688 -0.550781 42.703125 -1.65625 C 41.609375 -2.757812 41.0625 -4.539062 41.0625 -7 L 41.0625 -102.546875 L 12.453125 -102.546875 C 9.984375 -102.546875 8.195312 -103.09375 7.09375 -104.1875 C 6 -105.289062 5.453125 -107.078125 5.453125 -109.546875 L 5.453125 -133.09375 C 5.453125 -135.550781 6 -137.332031 7.09375 -138.4375 C 8.195312 -139.539062 9.984375 -140.09375 12.453125 -140.09375 L 115.1875 -140.09375 C 117.65625 -140.09375 119.4375 -139.539062 120.53125 -138.4375 C 121.632812 -137.332031 122.1875 -135.550781 122.1875 -133.09375 L 122.1875 -109.546875 C 122.1875 -107.078125 121.632812 -105.289062 120.53125 -104.1875 C 119.4375 -103.09375 117.65625 -102.546875 115.1875 -102.546875 L 86.59375 -102.546875 L 86.59375 -7 C 86.59375 -4.539062 86.039062 -2.757812 84.9375 -1.65625 C 83.832031 -0.550781 82.046875 0 79.578125 0 Z M 79.578125 0 "/></g></g></g><g fill="#00ffff" fill-opacity="1"><g transform="translate(226.399314, 523.998414)"><g><path d="M 50.59375 0 L 20.4375 0 C 17.96875 0 16.179688 -0.550781 15.078125 -1.65625 C 13.972656 -2.757812 13.421875 -4.539062 13.421875 -7 L 13.421875 -133.09375 C 13.421875 -135.550781 13.972656 -137.332031 15.078125 -138.4375 C 16.179688 -139.539062 17.96875 -140.09375 20.4375 -140.09375 L 107.21875 -140.09375 C 109.675781 -140.09375 111.457031 -139.539062 112.5625 -138.4375 C 113.664062 -137.332031 114.21875 -135.550781 114.21875 -133.09375 L 114.21875 -109.9375 C 114.21875 -107.46875 113.664062 -105.679688 112.5625 -104.578125 C 111.457031 -103.484375 109.675781 -102.9375 107.21875 -102.9375 L 57.59375 -102.9375 L 57.59375 -82.703125 L 91.453125 -82.703125 C 93.921875 -82.703125 95.703125 -82.148438 96.796875 -81.046875 C 97.898438 -79.941406 98.453125 -78.15625 98.453125 -75.6875 L 98.453125 -52.34375 C 98.453125 -49.875 97.898438 -48.085938 96.796875 -46.984375 C 95.703125 -45.890625 93.921875 -45.34375 91.453125 -45.34375 L 57.59375 -45.34375 L 57.59375 -7 C 57.59375 -4.539062 57.039062 -2.757812 55.9375 -1.65625 C 54.832031 -0.550781 53.050781 0 50.59375 0 Z M 50.59375 0 "/></g></g></g><g fill="#00ffff" fill-opacity="1"><g transform="translate(346.645075, 523.998414)"><g><path d="M 64.203125 -99.234375 L 55.0625 -69.65625 L 85.609375 -69.65625 L 76.46875 -99.234375 C 75.945312 -100.398438 75.394531 -101.242188 74.8125 -101.765625 C 74.226562 -102.285156 73.546875 -102.546875 72.765625 -102.546875 L 67.90625 -102.546875 C 67.125 -102.546875 66.441406 -102.285156 65.859375 -101.765625 C 65.273438 -101.242188 64.722656 -100.398438 64.203125 -99.234375 Z M 53.125 -7 C 53.125 -4.539062 52.570312 -2.757812 51.46875 -1.65625 C 50.363281 -0.550781 48.578125 0 46.109375 0 L 17.515625 0 C 15.046875 0 13.257812 -0.550781 12.15625 -1.65625 C 11.050781 -2.757812 10.5 -4.539062 10.5 -7 L 10.5 -58.375 C 10.5 -62.257812 11.113281 -66.734375 12.34375 -71.796875 C 13.582031 -76.859375 15.5 -82.757812 18.09375 -89.5 L 35.03125 -133.671875 C 35.800781 -135.878906 37 -137.5 38.625 -138.53125 C 40.25 -139.570312 42.359375 -140.09375 44.953125 -140.09375 L 97.296875 -140.09375 C 99.753906 -140.09375 101.789062 -139.570312 103.40625 -138.53125 C 105.03125 -137.5 106.234375 -135.878906 107.015625 -133.671875 L 123.953125 -89.5 C 126.546875 -82.757812 128.457031 -76.859375 129.6875 -71.796875 C 130.914062 -66.734375 131.53125 -62.257812 131.53125 -58.375 L 131.53125 -7 C 131.53125 -4.539062 130.976562 -2.757812 129.875 -1.65625 C 128.78125 -0.550781 127 0 124.53125 0 L 95.15625 0 C 92.550781 0 90.632812 -0.550781 89.40625 -1.65625 C 88.175781 -2.757812 87.5625 -4.539062 87.5625 -7 L 87.5625 -34.25 L 53.125 -34.25 Z M 53.125 -7 "/></g></g></g><g fill="#00ffff" fill-opacity="1"><g transform="translate(488.682956, 523.998414)"><g><path d="M 106.625 0 L 59.15625 0 C 42.9375 0 30.898438 -3.238281 23.046875 -9.71875 C 15.203125 -16.207031 11.28125 -26.195312 11.28125 -39.6875 L 11.28125 -100.203125 C 11.28125 -113.691406 15.203125 -123.710938 23.046875 -130.265625 C 30.898438 -136.816406 42.9375 -140.09375 59.15625 -140.09375 L 106.625 -140.09375 C 109.09375 -140.09375 110.878906 -139.539062 111.984375 -138.4375 C 113.085938 -137.332031 113.640625 -135.550781 113.640625 -133.09375 L 113.640625 -109.546875 C 113.640625 -107.078125 113.085938 -105.289062 111.984375 -104.1875 C 110.878906 -103.09375 109.09375 -102.546875 106.625 -102.546875 L 67.515625 -102.546875 C 63.492188 -102.546875 60.507812 -101.734375 58.5625 -100.109375 C 56.625 -98.484375 55.65625 -96.050781 55.65625 -92.8125 L 55.65625 -46.5 C 55.65625 -43.257812 56.625 -40.894531 58.5625 -39.40625 C 60.507812 -37.914062 63.492188 -37.171875 67.515625 -37.171875 L 106.625 -37.171875 C 109.09375 -37.171875 110.878906 -36.617188 111.984375 -35.515625 C 113.085938 -34.410156 113.640625 -32.625 113.640625 -30.15625 L 113.640625 -7 C 113.640625 -4.539062 113.085938 -2.757812 111.984375 -1.65625 C 110.878906 -0.550781 109.09375 0 106.625 0 Z M 106.625 0 "/></g></g></g><g fill="#00ffff" fill-opacity="1"><g transform="translate(610.874455, 523.998414)"><g><path d="M 79.578125 0 L 48.0625 0 C 45.59375 0 43.804688 -0.550781 42.703125 -1.65625 C 41.609375 -2.757812 41.0625 -4.539062 41.0625 -7 L 41.0625 -102.546875 L 12.453125 -102.546875 C 9.984375 -102.546875 8.195312 -103.09375 7.09375 -104.1875 C 6 -105.289062 5.453125 -107.078125 5.453125 -109.546875 L 5.453125 -133.09375 C 5.453125 -135.550781 6 -137.332031 7.09375 -138.4375 C 8.195312 -139.539062 9.984375 -140.09375 12.453125 -140.09375 L 115.1875 -140.09375 C 117.65625 -140.09375 119.4375 -139.539062 120.53125 -138.4375 C 121.632812 -137.332031 122.1875 -135.550781 122.1875 -133.09375 L 122.1875 -109.546875 C 122.1875 -107.078125 121.632812 -105.289062 120.53125 -104.1875 C 119.4375 -103.09375 117.65625 -102.546875 115.1875 -102.546875 L 86.59375 -102.546875 L 86.59375 -7 C 86.59375 -4.539062 86.039062 -2.757812 84.9375 -1.65625 C 83.832031 -0.550781 82.046875 0 79.578125 0 Z M 79.578125 0 "/></g></g></g><g fill="#5271ff" fill-opacity="1"><g transform="translate(221.329826, 528.725787)"><g><path d="M 50.59375 0 L 20.4375 0 C 17.96875 0 16.179688 -0.550781 15.078125 -1.65625 C 13.972656 -2.757812 13.421875 -4.539062 13.421875 -7 L 13.421875 -133.09375 C 13.421875 -135.550781 13.972656 -137.332031 15.078125 -138.4375 C 16.179688 -139.539062 17.96875 -140.09375 20.4375 -140.09375 L 107.21875 -140.09375 C 109.675781 -140.09375 111.457031 -139.539062 112.5625 -138.4375 C 113.664062 -137.332031 114.21875 -135.550781 114.21875 -133.09375 L 114.21875 -109.9375 C 114.21875 -107.46875 113.664062 -105.679688 112.5625 -104.578125 C 111.457031 -103.484375 109.675781 -102.9375 107.21875 -102.9375 L 57.59375 -102.9375 L 57.59375 -82.703125 L 91.453125 -82.703125 C 93.921875 -82.703125 95.703125 -82.148438 96.796875 -81.046875 C 97.898438 -79.941406 98.453125 -78.15625 98.453125 -75.6875 L 98.453125 -52.34375 C 98.453125 -49.875 97.898438 -48.085938 96.796875 -46.984375 C 95.703125 -45.890625 93.921875 -45.34375 91.453125 -45.34375 L 57.59375 -45.34375 L 57.59375 -7 C 57.59375 -4.539062 57.039062 -2.757812 55.9375 -1.65625 C 54.832031 -0.550781 53.050781 0 50.59375 0 Z M 50.59375 0 "/></g></g></g><g fill="#5271ff" fill-opacity="1"><g transform="translate(341.575586, 528.725787)"><g><path d="M 64.203125 -99.234375 L 55.0625 -69.65625 L 85.609375 -69.65625 L 76.46875 -99.234375 C 75.945312 -100.398438 75.394531 -101.242188 74.8125 -101.765625 C 74.226562 -102.285156 73.546875 -102.546875 72.765625 -102.546875 L 67.90625 -102.546875 C 67.125 -102.546875 66.441406 -102.285156 65.859375 -101.765625 C 65.273438 -101.242188 64.722656 -100.398438 64.203125 -99.234375 Z M 53.125 -7 C 53.125 -4.539062 52.570312 -2.757812 51.46875 -1.65625 C 50.363281 -0.550781 48.578125 0 46.109375 0 L 17.515625 0 C 15.046875 0 13.257812 -0.550781 12.15625 -1.65625 C 11.050781 -2.757812 10.5 -4.539062 10.5 -7 L 10.5 -58.375 C 10.5 -62.257812 11.113281 -66.734375 12.34375 -71.796875 C 13.582031 -76.859375 15.5 -82.757812 18.09375 -89.5 L 35.03125 -133.671875 C 35.800781 -135.878906 37 -137.5 38.625 -138.53125 C 40.25 -139.570312 42.359375 -140.09375 44.953125 -140.09375 L 97.296875 -140.09375 C 99.753906 -140.09375 101.789062 -139.570312 103.40625 -138.53125 C 105.03125 -137.5 106.234375 -135.878906 107.015625 -133.671875 L 123.953125 -89.5 C 126.546875 -82.757812 128.457031 -76.859375 129.6875 -71.796875 C 130.914062 -66.734375 131.53125 -62.257812 131.53125 -58.375 L 131.53125 -7 C 131.53125 -4.539062 130.976562 -2.757812 129.875 -1.65625 C 128.78125 -0.550781 127 0 124.53125 0 L 95.15625 0 C 92.550781 0 90.632812 -0.550781 89.40625 -1.65625 C 88.175781 -2.757812 87.5625 -4.539062 87.5625 -7 L 87.5625 -34.25 L 53.125 -34.25 Z M 53.125 -7 "/></g></g></g><g fill="#5271ff" fill-opacity="1"><g transform="translate(483.613467, 528.725787)"><g><path d="M 106.625 0 L 59.15625 0 C 42.9375 0 30.898438 -3.238281 23.046875 -9.71875 C 15.203125 -16.207031 11.28125 -26.195312 11.28125 -39.6875 L 11.28125 -100.203125 C 11.28125 -113.691406 15.203125 -123.710938 23.046875 -130.265625 C 30.898438 -136.816406 42.9375 -140.09375 59.15625 -140.09375 L 106.625 -140.09375 C 109.09375 -140.09375 110.878906 -139.539062 111.984375 -138.4375 C 113.085938 -137.332031 113.640625 -135.550781 113.640625 -133.09375 L 113.640625 -109.546875 C 113.640625 -107.078125 113.085938 -105.289062 111.984375 -104.1875 C 110.878906 -103.09375 109.09375 -102.546875 106.625 -102.546875 L 67.515625 -102.546875 C 63.492188 -102.546875 60.507812 -101.734375 58.5625 -100.109375 C 56.625 -98.484375 55.65625 -96.050781 55.65625 -92.8125 L 55.65625 -46.5 C 55.65625 -43.257812 56.625 -40.894531 58.5625 -39.40625 C 60.507812 -37.914062 63.492188 -37.171875 67.515625 -37.171875 L 106.625 -37.171875 C 109.09375 -37.171875 110.878906 -36.617188 111.984375 -35.515625 C 113.085938 -34.410156 113.640625 -32.625 113.640625 -30.15625 L 113.640625 -7 C 113.640625 -4.539062 113.085938 -2.757812 111.984375 -1.65625 C 110.878906 -0.550781 109.09375 0 106.625 0 Z M 106.625 0 "/></g></g></g><g fill="#5271ff" fill-opacity="1"><g transform="translate(605.804966, 528.725787)"><g><path d="M 79.578125 0 L 48.0625 0 C 45.59375 0 43.804688 -0.550781 42.703125 -1.65625 C 41.609375 -2.757812 41.0625 -4.539062 41.0625 -7 L 41.0625 -102.546875 L 12.453125 -102.546875 C 9.984375 -102.546875 8.195312 -103.09375 7.09375 -104.1875 C 6 -105.289062 5.453125 -107.078125 5.453125 -109.546875 L 5.453125 -133.09375 C 5.453125 -135.550781 6 -137.332031 7.09375 -138.4375 C 8.195312 -139.539062 9.984375 -140.09375 12.453125 -140.09375 L 115.1875 -140.09375 C 117.65625 -140.09375 119.4375 -139.539062 120.53125 -138.4375 C 121.632812 -137.332031 122.1875 -135.550781 122.1875 -133.09375 L 122.1875 -109.546875 C 122.1875 -107.078125 121.632812 -105.289062 120.53125 -104.1875 C 119.4375 -103.09375 117.65625 -102.546875 115.1875 -102.546875 L 86.59375 -102.546875 L 86.59375 -7 C 86.59375 -4.539062 86.039062 -2.757812 84.9375 -1.65625 C 83.832031 -0.550781 82.046875 0 79.578125 0 Z M 79.578125 0 "/></g></g></g></svg>