<svg xmlns="http://www.w3.org/2000/svg" xmlns:xlink="http://www.w3.org/1999/xlink" width="1024" zoomAndPan="magnify" viewBox="0 0 768 767.999994" height="1024" preserveAspectRatio="xMidYMid meet" version="1.0"><defs><g/><clipPath id="351dab842a"><path d="M 158 222 L 263.550781 222 L 263.550781 488 L 158 488 Z M 158 222 " clip-rule="nonzero"/></clipPath><clipPath id="f723dc963c"><path d="M 219 465 L 263.550781 465 L 263.550781 559.707031 L 219 559.707031 Z M 219 465 " clip-rule="nonzero"/></clipPath><clipPath id="3b7a12d167"><path d="M 77.136719 151.707031 L 263.550781 151.707031 L 263.550781 549.835938 L 77.136719 549.835938 Z M 77.136719 151.707031 " clip-rule="nonzero"/></clipPath></defs><g clip-path="url(#351dab842a)"><path fill="#f6b737" d="M 369.707031 335.417969 C 363.839844 361.195312 350.589844 382.871094 333.269531 402.484375 C 324.441406 412.476562 315.265625 422.371094 308.921875 434.207031 C 305.613281 440.386719 303.195312 447.011719 301.6875 453.851562 C 300.179688 460.699219 300.546875 467.542969 299.53125 474.398438 C 297.792969 486.09375 286.707031 488 276.703125 487.9375 C 262.539062 487.847656 248.351562 486.417969 234.445312 483.710938 C 233.242188 484.179688 231.605469 483.800781 231.382812 482.335938 C 230.394531 475.703125 229.429688 469.054688 228.101562 462.480469 C 225.367188 448.914062 220.882812 435.8125 212.28125 424.796875 C 204.582031 414.941406 194.964844 406.816406 186.582031 397.582031 C 170.425781 379.796875 161.117188 356.746094 159.144531 332.867188 C 157.347656 311.175781 161.710938 288.507812 173.144531 269.839844 C 185.328125 249.953125 205.019531 237.121094 227.054688 230.460938 C 251.367188 223.117188 279.21875 220.964844 304.34375 224.433594 C 328.488281 227.765625 352.660156 239.359375 364.199219 261.910156 C 375.519531 284.042969 375.101562 311.699219 369.707031 335.417969 " fill-opacity="1" fill-rule="nonzero"/></g><g clip-path="url(#f723dc963c)"><path fill="#c49261" d="M 310.25 510.246094 C 309.972656 516.347656 306.425781 522.355469 300.527344 523.496094 C 302.621094 529.421875 299.300781 535.765625 294.191406 539.394531 C 294.335938 544.988281 292.894531 550.09375 288.011719 553.910156 C 282.398438 558.296875 274.796875 559.574219 267.855469 559.628906 C 257.988281 559.703125 236.785156 555.003906 237.703125 542.050781 C 234.324219 541.207031 231 539.964844 228.507812 537.601562 C 225.933594 535.160156 224.6875 531.691406 226.140625 528.300781 C 227.105469 526.058594 228.824219 524.550781 230.816406 523.414062 C 224.972656 520.742188 220.207031 516.078125 219.3125 509.273438 C 218.539062 503.429688 221.632812 497.757812 226.824219 495.460938 C 222.375 490.171875 218.347656 484.132812 219.164062 476.914062 C 219.699219 472.1875 222.769531 468.128906 226.996094 466.582031 C 227.238281 466.160156 227.652344 465.871094 228.222656 465.941406 C 228.515625 465.976562 228.8125 466.011719 229.101562 466.046875 C 229.921875 465.921875 230.765625 465.875 231.636719 465.941406 C 232.164062 465.984375 232.582031 466.191406 232.894531 466.488281 C 241.894531 467.492188 250.921875 468.148438 259.992188 468.070312 C 270.332031 467.976562 280.359375 466.511719 290.605469 465.390625 C 297.398438 464.648438 305.074219 466.410156 307.078125 473.867188 C 308.832031 480.414062 306.984375 487.210938 303.277344 492.667969 C 308.132812 497.085938 310.550781 503.621094 310.25 510.246094 " fill-opacity="1" fill-rule="nonzero"/></g><g clip-path="url(#3b7a12d167)"><path fill="#2e2e30" d="M 291 540.859375 C 283.960938 545.699219 276.179688 546.117188 267.882812 546.101562 C 258.675781 546.085938 250.230469 544.816406 241.359375 542.472656 C 240.054688 542.125 239.15625 544.054688 240.417969 544.707031 C 249.105469 549.195312 259.902344 549.234375 269.445312 549.316406 C 277.394531 549.386719 286.832031 549.257812 292.757812 543.140625 C 293.867188 542 292.398438 539.894531 291 540.859375 Z M 296.417969 522.074219 C 291.589844 522.730469 286.867188 524.570312 282.046875 525.457031 C 276.824219 526.421875 271.53125 526.972656 266.222656 527.128906 C 255.921875 527.4375 245.769531 526.023438 235.769531 523.625 C 234.015625 523.203125 233.292969 525.808594 235.027344 526.335938 C 245.382812 529.464844 256.230469 530.75 267.042969 530.535156 C 276.714844 530.34375 288.984375 529.652344 297.699219 525.121094 C 299.527344 524.171875 298.128906 521.839844 296.417969 522.074219 Z M 266.324219 500.199219 C 276.300781 499.707031 288.503906 499.253906 297.6875 495.035156 C 298.9375 494.460938 298.328125 492.328125 296.980469 492.429688 C 292.140625 492.785156 287.363281 494.355469 282.566406 495.152344 C 276.914062 496.085938 271.207031 496.730469 265.484375 496.988281 C 254.722656 497.472656 244.367188 496 233.6875 495.3125 C 232.175781 495.214844 231.910156 497.539062 233.332031 497.921875 C 243.792969 500.738281 255.578125 500.730469 266.324219 500.199219 Z M 317.488281 331.421875 C 317.3125 330.539062 316.128906 329.917969 314.324219 329.761719 C 314.070312 329.738281 313.8125 329.726562 313.554688 329.726562 C 309.484375 329.726562 305.363281 332.410156 302.570312 335.191406 C 304.535156 335.878906 306.578125 336.234375 308.535156 336.234375 C 310.8125 336.234375 312.867188 335.757812 314.648438 334.816406 C 316.847656 333.652344 317.660156 332.273438 317.488281 331.421875 Z M 293.148438 336.101562 L 293.003906 336.050781 L 292.898438 335.960938 C 291.707031 334.945312 290.597656 333.820312 289.597656 332.609375 C 287.859375 330.53125 286.367188 328.121094 285.15625 325.441406 C 282.117188 327.527344 278.65625 328.628906 275.078125 328.628906 C 269.472656 328.628906 264.125 325.878906 260.574219 321.222656 C 256.421875 326.464844 251.375 329.339844 246.277344 329.339844 C 244.414062 329.339844 242.546875 328.957031 240.714844 328.195312 C 240.050781 331.792969 239.21875 334.703125 238.125 337.285156 C 237.902344 337.808594 237.539062 338.441406 237.148438 339.117188 C 236.625 340.015625 235.75 341.523438 235.808594 342.042969 C 235.894531 342.789062 237.335938 344.46875 238.386719 345.695312 C 239.308594 346.765625 240.171875 347.78125 240.613281 348.59375 C 241.875 350.933594 242.980469 353.621094 243.988281 356.804688 C 247.753906 368.746094 248.386719 381.699219 248.683594 392.898438 C 249.003906 405.121094 248.691406 417.558594 248.386719 429.59375 C 248.316406 432.402344 248.246094 435.207031 248.183594 438.011719 C 248.027344 445.015625 247.816406 452.304688 247.566406 459.667969 C 247.550781 460.089844 247.566406 460.851562 247.589844 461.808594 C 247.613281 462.894531 247.632812 463.980469 247.632812 465.042969 C 253.378906 465.335938 259.125 465.578125 264.917969 465.441406 C 272.019531 465.273438 279.027344 464.617188 286.042969 463.859375 C 285.453125 460.664062 285.34375 456.429688 285.328125 452.148438 C 285.328125 450.933594 285.324219 449.882812 285.285156 449.261719 C 284.460938 435.519531 284.457031 420.671875 285.269531 402.527344 C 285.421875 399.148438 285.550781 395.753906 285.679688 392.355469 C 286.101562 381.277344 286.535156 369.824219 287.792969 358.722656 C 288.257812 354.640625 288.820312 351.363281 289.574219 348.398438 C 289.8125 347.457031 290.332031 346.085938 290.933594 344.496094 C 291.808594 342.210938 293.839844 336.855469 293.148438 336.101562 Z M 236.679688 318.148438 C 236.730469 317.78125 236.785156 317.398438 236.84375 317.003906 C 237.574219 312 238.675781 304.429688 236.613281 300.855469 C 235.953125 299.714844 235.011719 299.03125 234.097656 299.03125 C 233.421875 299.03125 232.757812 299.390625 232.113281 300.101562 C 230.714844 301.640625 231.585938 305.082031 232.105469 307.136719 L 232.210938 307.578125 C 233.308594 311.992188 234.773438 315.472656 236.679688 318.148438 Z M 261.3125 310.039062 C 263.027344 307.171875 264.910156 303.785156 265.226562 300.667969 C 265.363281 299.308594 264.878906 297.082031 264.023438 296.136719 C 263.816406 295.90625 263.621094 295.792969 263.433594 295.792969 C 263.253906 295.792969 262.75 295.90625 261.976562 296.972656 C 259.515625 300.332031 260.125 305.644531 261.3125 310.039062 Z M 287.796875 315.121094 C 291.949219 309.800781 293.789062 305.542969 293.277344 302.457031 C 292.96875 300.605469 291.316406 298.984375 289.738281 298.984375 C 288.457031 298.984375 287.796875 300.089844 287.460938 301.019531 C 286.34375 304.125 286.460938 308.867188 287.796875 315.121094 Z M 226.660156 342.632812 C 225.605469 342.269531 224.503906 342.085938 223.402344 342.085938 C 221.328125 342.085938 219.496094 342.738281 218.140625 343.945312 C 219.082031 344.394531 220.074219 344.621094 221.101562 344.621094 C 223.242188 344.621094 225.183594 343.667969 226.660156 342.632812 Z M 322.738281 330.574219 C 323.222656 334.59375 320.164062 339.738281 313.554688 341.347656 C 312.105469 341.703125 310.539062 341.882812 308.894531 341.882812 C 307.847656 341.882812 306.753906 341.808594 305.652344 341.664062 C 304.972656 341.574219 303.851562 341.15625 302.550781 340.667969 C 301.285156 340.1875 299.542969 339.535156 298.910156 339.535156 C 297.484375 339.941406 295.503906 343.246094 294.042969 356.679688 L 293.949219 357.496094 C 290.339844 388.816406 289.386719 420.519531 291.121094 451.738281 C 291.140625 452.0625 291.226562 452.78125 291.335938 453.691406 C 291.730469 456.964844 292.089844 460.386719 292.09375 463.1875 C 293.324219 463.050781 294.546875 462.914062 295.78125 462.773438 C 297.714844 462.5625 298.117188 465.804688 296.234375 466.15625 C 285.980469 468.066406 275.328125 468.667969 264.917969 468.867188 C 254.574219 469.0625 243.804688 469 233.597656 467.183594 C 231.996094 466.894531 232.40625 464.339844 233.972656 464.390625 C 236.492188 464.46875 239.003906 464.589844 241.511719 464.722656 C 241.527344 459.566406 241.855469 452.425781 242.488281 442.769531 C 242.660156 440.171875 242.792969 438.117188 242.808594 437.234375 C 243.023438 425.351562 243.214844 411.335938 243.019531 397.480469 C 242.855469 385.707031 242.226562 373.15625 238.769531 361.144531 C 238.660156 360.761719 238.527344 360.273438 238.378906 359.714844 C 237.4375 356.214844 235.230469 348.015625 232.378906 346.816406 C 232.375 346.8125 232.316406 346.789062 232.175781 346.789062 C 231.332031 346.789062 229.589844 347.511719 227.90625 348.214844 C 225.46875 349.226562 222.710938 350.375 220.539062 350.375 C 220.378906 350.375 220.226562 350.367188 220.078125 350.355469 C 216.941406 350.105469 212.859375 348.808594 211.664062 345.988281 C 211.171875 344.828125 211.003906 342.9375 212.996094 340.507812 C 215.304688 337.703125 218.832031 336.15625 222.929688 336.15625 C 223.367188 336.15625 223.800781 336.175781 224.234375 336.210938 C 225.1875 336.289062 226.324219 336.746094 227.421875 337.183594 C 228.460938 337.601562 229.53125 338.035156 230.195312 338.035156 C 230.234375 338.035156 230.277344 338.03125 230.316406 338.027344 C 231.652344 337.878906 232.421875 335.933594 233.167969 334.046875 L 233.605469 332.953125 C 234.320312 331.191406 235.296875 328.785156 235.296875 327.066406 C 235.300781 324.8125 234.839844 324.265625 233.722656 322.945312 C 233.304688 322.449219 232.828125 321.882812 232.277344 321.109375 C 229.121094 316.707031 224.253906 305.582031 226.714844 298.601562 C 227.671875 295.886719 229.613281 294.105469 232.488281 293.308594 C 233.363281 293.066406 234.199219 292.941406 234.976562 292.941406 C 236.824219 292.941406 238.390625 293.617188 239.632812 294.949219 C 243.234375 298.816406 243.070312 307.25 242.835938 310.695312 C 242.777344 311.503906 242.515625 312.898438 242.214844 314.511719 C 241.769531 316.878906 240.84375 321.804688 241.34375 322.605469 C 242.21875 323.84375 243.910156 324.105469 245.175781 324.105469 C 247.667969 324.105469 250.652344 323.09375 252.097656 322.121094 C 253.851562 320.933594 255.9375 319.03125 256.632812 317.460938 C 257.425781 315.675781 257.070312 314.5 256.527344 312.71875 C 256.304688 311.980469 256.050781 311.140625 255.859375 310.164062 C 254.617188 303.78125 255.035156 298.730469 257.097656 295.167969 C 258.589844 292.597656 261.507812 290.003906 264.667969 290.003906 C 265.894531 290.003906 267.058594 290.386719 268.113281 291.144531 C 272.734375 294.4375 271.066406 301.511719 270.132812 304.394531 C 269.710938 305.710938 268.464844 307.640625 267.148438 309.6875 C 265.652344 312.007812 263.601562 315.183594 263.707031 316.375 C 263.925781 318.835938 269.183594 322.074219 271.835938 322.820312 C 272.683594 323.058594 273.785156 323.191406 274.9375 323.191406 C 278.535156 323.191406 282.621094 321.980469 283.09375 319.324219 C 283.398438 317.578125 282.757812 315.140625 282.136719 312.785156 C 281.601562 310.753906 281.046875 308.65625 281.046875 306.828125 C 281.046875 303.886719 282.011719 300.503906 283.636719 297.777344 C 285.507812 294.640625 287.914062 292.914062 290.414062 292.914062 C 292.679688 292.914062 294.835938 294.296875 296.835938 297.03125 C 299.660156 300.898438 299.484375 306.226562 296.328125 312.4375 L 292.359375 318.476562 C 291.9375 319.007812 291.566406 319.433594 291.246094 319.796875 C 289.882812 321.367188 289.800781 321.460938 290.789062 324.144531 C 291.695312 326.601562 293.738281 328.976562 294.875 330.179688 C 295.523438 330.859375 296.605469 331.996094 296.96875 331.996094 C 297.140625 331.996094 297.535156 331.726562 297.992188 331.414062 C 298.355469 331.167969 298.785156 330.875 299.328125 330.550781 C 300.402344 329.910156 301.390625 329.234375 302.351562 328.578125 C 305.125 326.675781 307.75 324.882812 311.757812 324.363281 C 312.527344 324.265625 313.28125 324.214844 313.992188 324.214844 C 319.878906 324.214844 322.367188 327.5 322.738281 330.574219 Z M 398.667969 435.546875 C 392.84375 430.71875 386.53125 426.511719 380.726562 421.640625 C 375.164062 416.984375 370.121094 411.589844 364.28125 407.285156 C 362.429688 405.917969 359.820312 408.609375 361.109375 410.460938 C 365.390625 416.589844 371.453125 421.566406 377.203125 426.277344 C 383.011719 431.027344 389.082031 435.878906 395.78125 439.292969 C 398.050781 440.449219 400.867188 437.371094 398.667969 435.546875 Z M 444.222656 380.449219 C 436.832031 375.050781 428.460938 370.894531 420.371094 366.65625 C 412.953125 362.769531 404.5 357.042969 396.148438 355.714844 C 393.878906 355.351562 391.527344 358.132812 393.65625 360.003906 C 400.054688 365.640625 409.367188 368.695312 416.929688 372.546875 C 425.105469 376.714844 433.078125 381.476562 441.515625 385.078125 C 444.675781 386.425781 447.046875 382.515625 444.222656 380.449219 Z M 400.992188 271.398438 C 408.117188 270.25 415.105469 267.765625 422.027344 265.75 C 428.945312 263.734375 436.167969 262.042969 442.851562 259.339844 C 445.824219 258.140625 444.742188 253.925781 441.519531 254.5 C 434.140625 255.824219 426.851562 258.339844 419.652344 260.40625 C 412.769531 262.382812 405.675781 264.042969 399.074219 266.84375 C 396.273438 268.027344 398.453125 271.808594 400.992188 271.398438 Z M 376.902344 179.394531 C 378.699219 176.902344 374.617188 174.617188 372.816406 177.007812 C 367.746094 183.726562 362.554688 190.363281 357.242188 196.890625 C 352.421875 202.816406 346.976562 208.46875 342.710938 214.808594 C 341.164062 217.105469 344.503906 219.398438 346.402344 217.660156 C 352.460938 212.109375 357.492188 205.011719 362.542969 198.558594 C 367.464844 192.269531 372.238281 185.875 376.902344 179.394531 Z M 264.921875 202.804688 C 265.933594 194.910156 264.609375 186.347656 264.441406 178.386719 C 264.265625 170.242188 264.34375 162.097656 264.277344 153.957031 C 264.25 150.929688 259.84375 150.992188 259.625 153.957031 C 259.011719 162.367188 258.890625 170.824219 258.929688 179.257812 C 258.964844 187.0625 258.363281 195.820312 260.242188 203.4375 C 260.941406 206.265625 264.605469 205.28125 264.921875 202.804688 Z M 155.269531 213.316406 C 150.359375 206.855469 145.695312 199.796875 140.117188 193.890625 C 138.203125 191.863281 134.851562 194.46875 136.277344 196.859375 C 140.605469 204.140625 146.351562 210.835938 151.4375 217.601562 C 156.273438 224.035156 160.835938 231.375 166.632812 236.984375 C 168.601562 238.890625 171.671875 236.484375 170.390625 234.082031 C 166.429688 226.683594 160.335938 219.988281 155.269531 213.316406 Z M 125.875 301.097656 C 131.300781 301.78125 137.007812 302.90625 142.476562 302.414062 C 145.425781 302.148438 146.207031 298.085938 143.191406 297.132812 C 138.5 295.652344 133.359375 295.410156 128.496094 294.808594 C 122.675781 294.089844 116.863281 293.320312 111.054688 292.503906 C 100.640625 291.042969 90.257812 289.082031 79.804688 287.929688 C 76.691406 287.582031 76.117188 292.589844 79.070312 293.339844 C 89.539062 295.996094 100.386719 297.484375 111.058594 299.066406 C 115.988281 299.800781 120.929688 300.476562 125.875 301.097656 Z M 150.703125 389.835938 C 143.941406 394.472656 136.402344 398.003906 129.347656 402.175781 C 122.804688 406.039062 116.191406 411.710938 109.074219 414.292969 C 106.695312 415.160156 105.351562 411.96875 106.78125 410.347656 C 109.433594 407.347656 113.242188 405.3125 116.589844 403.160156 C 120.054688 400.9375 123.550781 398.773438 127.09375 396.679688 C 134.070312 392.554688 141.199219 388.191406 148.882812 385.519531 C 151.5625 384.582031 152.765625 388.414062 150.703125 389.835938 " fill-opacity="1" fill-rule="nonzero"/></g><path fill="#ffffff" d="M 190.683594 361.753906 C 189.453125 358.246094 188.992188 354.636719 187 351.464844 C 186.511719 350.683594 185.332031 350.832031 185.0625 351.714844 C 182.839844 359.007812 186.054688 367.835938 189.703125 374.191406 C 192.703125 379.417969 197.457031 387.929688 203.980469 388.679688 C 204.78125 388.769531 205.511719 387.910156 205.496094 387.164062 C 205.351562 381.285156 198.777344 376.359375 195.773438 371.714844 C 193.746094 368.589844 191.921875 365.269531 190.683594 361.753906 Z M 211.902344 269.359375 C 203.097656 274.761719 196.839844 283.480469 193.019531 292.96875 C 188.445312 304.320312 188.8125 316.222656 186.042969 327.914062 C 185.398438 330.648438 180.761719 330.878906 180.277344 327.914062 C 178.234375 315.183594 181.300781 300.4375 186.402344 288.726562 C 191.007812 278.152344 198.550781 269.410156 208.742188 263.945312 C 212.296875 262.042969 215.34375 267.25 211.902344 269.359375 " fill-opacity="1" fill-rule="nonzero"/><path stroke-linecap="butt" transform="matrix(0.675379, 0, 0, 0.675379, 289.057049, 259.643971)" fill="none" stroke-linejoin="miter" d="M 5.196133 -16.991956 L 126.106335 -19.588879 L 126.106335 32.285964 L 52.125833 34.882888 L 52.125833 61.35531 L 110.779283 56.161464 L 110.779283 104.172733 L 54.722756 106.769657 L 54.722756 161.9991 L 5.196133 161.9991 Z M 136.719596 -16.991956 L 188.339953 -19.588879 L 187.073302 94.797204 C 187.073302 99.823321 187.154275 104.323112 187.327789 108.290794 C 187.327789 112.258477 187.750006 115.636212 188.59444 118.424 C 189.47936 121.171302 190.873255 123.236117 192.770339 124.630011 C 194.505477 126.191635 197.1024 126.972447 200.561109 126.972447 C 200.902352 126.972447 201.324569 126.891474 201.827759 126.723744 C 202.169003 126.723744 202.608572 126.723744 203.158032 126.723744 C 207.466958 126.3825 210.740585 125.514931 212.978913 124.126821 C 215.217241 122.732927 216.859839 120.749085 217.918273 118.169514 C 218.970923 115.722969 219.584005 112.512964 219.751735 108.545281 C 219.751735 104.745329 219.751735 100.158781 219.751735 94.797204 L 219.503032 -16.991956 L 270.868902 -19.588879 L 271.117605 94.294014 C 271.117605 102.778839 270.59128 110.991826 269.538629 118.932974 C 268.520682 127.082339 265.756029 134.341 261.238886 140.720524 C 256.76223 147.134751 249.943137 152.247625 240.781608 156.047577 C 231.573809 160.015259 218.84368 161.9991 202.59122 161.9991 C 187.559141 161.9991 175.713932 160.015259 167.055593 156.047577 C 158.229524 152.079895 151.583946 146.886048 147.107289 140.466037 C 142.590147 134.260027 139.738737 127.082339 138.553059 118.932974 C 137.159165 110.991826 136.465109 102.946569 136.465109 94.797204 Z M 282.245624 161.9991 L 284.58806 -16.991956 L 335.45074 -19.588879 L 362.686623 75.103387 L 362.686623 -16.991956 L 415.319144 -19.588879 L 409.87081 161.9991 L 363.4443 161.9991 L 335.45074 80.042747 L 335.45074 161.9991 Z M 282.245624 161.9991 " stroke="#5271ff" stroke-width="68.100372" stroke-opacity="1" stroke-miterlimit="4"/><g fill="#f7c548" fill-opacity="1"><g transform="translate(289.057049, 369.055295)"><g><path d="M 3.5 -120.90625 L 85.15625 -122.65625 L 85.15625 -87.609375 L 35.21875 -85.859375 L 35.21875 -67.984375 L 74.8125 -71.484375 L 74.8125 -39.078125 L 36.96875 -37.328125 L 36.96875 0 L 3.5 0 Z M 3.5 -120.90625 "/></g></g></g><g fill="#f7c548" fill-opacity="1"><g transform="translate(377.714901, 369.055295)"><g><path d="M 3.671875 -120.90625 L 38.546875 -122.65625 L 37.671875 -45.375 C 37.671875 -41.988281 37.726562 -38.953125 37.84375 -36.265625 C 37.84375 -33.578125 38.132812 -31.300781 38.71875 -29.4375 C 39.300781 -27.570312 40.238281 -26.171875 41.53125 -25.234375 C 42.695312 -24.179688 44.445312 -23.65625 46.78125 -23.65625 C 47.019531 -23.65625 47.3125 -23.710938 47.65625 -23.828125 C 47.894531 -23.828125 48.1875 -23.828125 48.53125 -23.828125 C 51.457031 -24.066406 53.675781 -24.648438 55.1875 -25.578125 C 56.707031 -26.515625 57.816406 -27.859375 58.515625 -29.609375 C 59.222656 -31.242188 59.632812 -33.40625 59.75 -36.09375 C 59.75 -38.664062 59.75 -41.757812 59.75 -45.375 L 59.578125 -120.90625 L 94.265625 -122.65625 L 94.4375 -45.734375 C 94.4375 -40.003906 94.085938 -34.457031 93.390625 -29.09375 C 92.691406 -23.59375 90.820312 -18.6875 87.78125 -14.375 C 84.75 -10.050781 80.132812 -6.601562 73.9375 -4.03125 C 67.75 -1.34375 59.164062 0 48.1875 0 C 38.019531 0 30.019531 -1.34375 24.1875 -4.03125 C 18.226562 -6.71875 13.726562 -10.222656 10.6875 -14.546875 C 7.644531 -18.742188 5.71875 -23.59375 4.90625 -29.09375 C 3.96875 -34.457031 3.5 -39.882812 3.5 -45.375 Z M 3.671875 -120.90625 "/></g></g></g><g fill="#f7c548" fill-opacity="1"><g transform="translate(475.659062, 369.055295)"><g><path d="M 4.03125 0 L 5.609375 -120.90625 L 39.953125 -122.65625 L 58.34375 -58.703125 L 58.34375 -120.90625 L 93.921875 -122.65625 L 90.234375 0 L 58.875 0 L 39.953125 -55.375 L 39.953125 0 Z M 4.03125 0 "/></g></g></g><path stroke-linecap="butt" transform="matrix(0.654276, 0, 0, 0.654276, 289.057049, 430.327295)" fill="none" stroke-linejoin="miter" d="M 5.196559 -16.990329 L 126.101986 -19.587428 L 126.101986 32.282917 L 52.12943 34.880016 L 52.12943 61.35849 L 110.776114 56.164291 L 110.776114 104.171823 L 54.720559 106.768922 L 54.720559 162.00057 L 5.196559 162.00057 Z M 133.869403 162.00057 L 175.35135 -16.990329 L 247.496981 -19.587428 L 288.978928 162.00057 L 235.842871 162.00057 L 229.568039 127.480044 L 193.280291 127.480044 L 187.071134 162.00057 Z M 225.961952 101.831448 L 217.913929 50.713367 L 204.934402 50.713367 L 196.886379 101.831448 Z M 299.641962 76.117179 C 299.641962 68.343791 299.809131 60.659959 300.149441 53.059712 C 300.31661 45.417672 301.098725 38.068179 302.495786 31.017204 C 303.719706 24.091605 305.785445 17.589901 308.698973 11.512091 C 311.654293 5.470104 315.815622 0.108735 321.176991 -4.577984 C 326.538359 -9.055742 333.380373 -12.769296 341.697061 -15.724616 C 349.804788 -18.638143 359.834965 -20.369543 371.781622 -20.918815 C 372.796581 -20.918815 373.82945 -21.0024 374.886201 -21.169569 C 375.73399 -21.169569 376.683274 -21.169569 377.740025 -21.169569 C 388.122453 -21.169569 396.952591 -19.862064 404.212529 -17.247053 C 411.305297 -14.500695 417.257729 -10.787142 422.075796 -6.100422 C 426.929686 -1.455495 430.83429 3.911844 433.78961 9.989654 C 436.535968 16.198811 438.691262 22.766189 440.249522 29.685817 C 441.646582 36.611416 442.512282 43.620599 442.846622 50.713367 C 443.186931 57.979275 443.437686 64.988458 443.610825 71.746887 L 392.24199 78.714278 C 392.24199 74.236521 392.07482 69.908021 391.734511 65.728781 C 391.227031 61.591333 390.361332 57.871809 389.137411 54.58215 C 387.913491 51.28652 386.182091 48.689421 383.943212 46.790851 C 381.704333 44.886312 378.68931 43.937027 374.886201 43.937027 L 372.545826 43.937027 C 367.685967 44.486299 363.972413 45.525138 361.399195 47.041606 C 358.778214 48.773005 356.96323 51.28652 355.948271 54.58215 C 354.724351 57.871809 354.025821 62.116723 353.858651 67.310922 C 353.691482 72.672291 353.607897 79.323253 353.607897 87.26381 C 353.607897 95.240189 353.691482 102.082203 353.858651 107.783881 C 354.025821 113.652729 354.724351 118.488707 355.948271 122.285845 C 357.130399 126.088954 359.034939 128.853223 361.649949 130.584623 C 364.055998 132.483192 367.685967 133.432477 372.545826 133.432477 C 377.399716 133.432477 381.202825 132.566777 383.943212 130.835377 C 386.564193 129.31891 388.462762 126.912862 389.64489 123.617232 C 390.868811 120.321602 391.650926 116.082658 391.991235 110.888459 C 392.158405 105.86143 392.24199 99.885116 392.24199 92.959518 L 443.610825 86.756331 C 443.437686 97.819377 442.655571 108.29136 441.26448 118.172279 C 439.915183 128.178574 436.810604 136.895276 431.956715 144.328354 C 427.096855 151.803224 420.004087 157.695953 410.67244 162.00057 C 401.173624 166.305188 388.295593 168.460482 372.038347 168.460482 C 355.781102 168.460482 342.879189 165.887264 333.33858 160.734858 C 323.666624 155.540659 316.406686 148.61506 311.552797 139.958062 C 306.56756 131.474204 303.379397 121.611196 301.988307 110.38098 C 300.424077 99.317934 299.641962 87.896667 299.641962 76.117179 Z M 454.524613 45.775893 L 454.524613 -16.990329 L 589.179742 -19.587428 L 589.943946 43.178793 L 552.569595 43.937027 L 553.333799 162.00057 L 495.254297 162.00057 L 496.52001 45.017659 Z M 454.524613 45.775893 " stroke="#5271ff" stroke-width="68.100372" stroke-opacity="1" stroke-miterlimit="4"/><g fill="#f7c548" fill-opacity="1"><g transform="translate(289.057049, 536.319939)"><g><path d="M 3.390625 -117.109375 L 82.484375 -118.8125 L 82.484375 -84.875 L 34.109375 -83.171875 L 34.109375 -65.859375 L 72.484375 -69.25 L 72.484375 -37.84375 L 35.8125 -36.15625 L 35.8125 0 L 3.390625 0 Z M 3.390625 -117.109375 "/></g></g></g><g fill="#f7c548" fill-opacity="1"><g transform="translate(374.944687, 536.319939)"><g><path d="M 1.703125 0 L 28.859375 -117.109375 L 76.046875 -118.8125 L 103.203125 0 L 68.40625 0 L 64.328125 -22.578125 L 40.5625 -22.578125 L 36.5 0 Z M 61.953125 -39.375 L 56.6875 -72.8125 L 48.203125 -72.8125 L 42.9375 -39.375 Z M 61.953125 -39.375 "/></g></g></g><g fill="#f7c548" fill-opacity="1"><g transform="translate(479.843015, 536.319939)"><g><path d="M 5.265625 -56.1875 C 5.265625 -61.269531 5.375 -66.300781 5.59375 -71.28125 C 5.707031 -76.257812 6.21875 -81.070312 7.125 -85.71875 C 7.914062 -90.238281 9.273438 -94.484375 11.203125 -98.453125 C 13.128906 -102.410156 15.84375 -105.914062 19.34375 -108.96875 C 22.851562 -111.90625 27.328125 -114.335938 32.765625 -116.265625 C 38.078125 -118.191406 44.640625 -119.320312 52.453125 -119.65625 C 53.128906 -119.65625 53.804688 -119.710938 54.484375 -119.828125 C 55.046875 -119.828125 55.671875 -119.828125 56.359375 -119.828125 C 63.140625 -119.828125 68.910156 -118.976562 73.671875 -117.28125 C 78.304688 -115.476562 82.207031 -113.046875 85.375 -109.984375 C 88.539062 -106.929688 91.085938 -103.425781 93.015625 -99.46875 C 94.828125 -95.394531 96.242188 -91.09375 97.265625 -86.5625 C 98.160156 -82.039062 98.722656 -77.457031 98.953125 -72.8125 C 99.179688 -68.0625 99.351562 -63.476562 99.46875 -59.0625 L 65.859375 -54.484375 C 65.859375 -57.421875 65.742188 -60.25 65.515625 -62.96875 C 65.179688 -65.6875 64.613281 -68.117188 63.8125 -70.265625 C 63.019531 -72.421875 61.890625 -74.117188 60.421875 -75.359375 C 58.953125 -76.609375 56.972656 -77.234375 54.484375 -77.234375 L 52.953125 -77.234375 C 49.785156 -76.890625 47.351562 -76.207031 45.65625 -75.1875 C 43.957031 -74.0625 42.769531 -72.421875 42.09375 -70.265625 C 41.300781 -68.117188 40.847656 -65.347656 40.734375 -61.953125 C 40.617188 -58.441406 40.5625 -54.085938 40.5625 -48.890625 C 40.5625 -43.679688 40.617188 -39.207031 40.734375 -35.46875 C 40.847656 -31.625 41.300781 -28.457031 42.09375 -25.96875 C 42.882812 -23.476562 44.128906 -21.664062 45.828125 -20.53125 C 47.410156 -19.289062 49.785156 -18.671875 52.953125 -18.671875 C 56.117188 -18.671875 58.609375 -19.238281 60.421875 -20.375 C 62.117188 -21.382812 63.363281 -22.96875 64.15625 -25.125 C 64.945312 -27.269531 65.457031 -30.039062 65.6875 -33.4375 C 65.800781 -36.71875 65.859375 -40.625 65.859375 -45.15625 L 99.46875 -49.21875 C 99.351562 -41.976562 98.84375 -35.132812 97.9375 -28.6875 C 97.03125 -22.125 94.992188 -16.410156 91.828125 -11.546875 C 88.660156 -6.679688 84.019531 -2.832031 77.90625 0 C 71.6875 2.832031 63.257812 4.25 52.625 4.25 C 41.976562 4.25 33.546875 2.550781 27.328125 -0.84375 C 20.992188 -4.238281 16.238281 -8.765625 13.0625 -14.421875 C 9.78125 -19.972656 7.691406 -26.425781 6.796875 -33.78125 C 5.773438 -41.019531 5.265625 -48.488281 5.265625 -56.1875 Z M 5.265625 -56.1875 "/></g></g></g><g fill="#f7c548" fill-opacity="1"><g transform="translate(583.043986, 536.319939)"><g><path d="M 3.390625 -76.046875 L 3.390625 -117.109375 L 91.484375 -118.8125 L 92 -77.734375 L 67.546875 -77.234375 L 68.0625 0 L 30.046875 0 L 30.890625 -76.546875 Z M 3.390625 -76.046875 "/></g></g></g></svg>