<svg version="1.2" xmlns="http://www.w3.org/2000/svg" viewBox="0 0 768 427" width="768" height="427"><defs><clipPath clipPathUnits="userSpaceOnUse" id="cp1"><path d="m158 77h105.55v266h-105.55z"/></clipPath><clipPath clipPathUnits="userSpaceOnUse" id="cp2"><path d="m219 320h44.55v94.71h-44.55z"/></clipPath><clipPath clipPathUnits="userSpaceOnUse" id="cp3"><path d="m77.14 6.71h186.41v398.13h-186.41z"/></clipPath></defs><style>.a{fill:#f6b737}.b{fill:#c49261}.c{fill:#2e2e30}.d{fill:#fff}.e{fill:none;stroke:#5271ff;stroke-width:46}.f{fill:#f7c548}.g{fill:none;stroke:#5271ff;stroke-width:44.6}</style><g clip-path="url(#cp1)"><path class="a" d="m369.7 190.4c-5.9 25.8-19.1 47.5-36.4 67.1-8.9 10-18 19.9-24.4 31.7-3.3 6.2-5.7 12.8-7.2 19.7-1.5 6.8-1.2 13.6-2.2 20.5-1.7 11.7-12.8 13.6-22.8 13.5-14.2-0.1-28.3-1.5-42.3-4.2-1.2 0.5-2.8 0.1-3-1.4-1-6.6-2-13.2-3.3-19.8-2.7-13.6-7.2-26.7-15.8-37.7-7.7-9.9-17.3-18-25.7-27.2-16.2-17.8-25.5-40.9-27.5-64.7-1.8-21.7 2.6-44.4 14-63.1 12.2-19.8 31.9-32.7 54-39.3 24.3-7.4 52.1-9.5 77.2-6.1 24.2 3.4 48.4 15 59.9 37.5 11.3 22.1 10.9 49.8 5.5 73.5z"/></g><g clip-path="url(#cp2)"><path class="b" d="m310.3 365.2c-0.3 6.1-3.9 12.2-9.8 13.3 2.1 5.9-1.2 12.3-6.3 15.9 0.1 5.6-1.3 10.7-6.2 14.5-5.6 4.4-13.2 5.7-20.1 5.7-9.9 0.1-31.1-4.6-30.2-17.5-3.4-0.9-6.7-2.1-9.2-4.5-2.6-2.4-3.8-5.9-2.4-9.3 1-2.2 2.7-3.7 4.7-4.9-5.8-2.7-10.6-7.3-11.5-14.1-0.8-5.9 2.3-11.5 7.5-13.8-4.4-5.3-8.5-11.4-7.6-18.6 0.5-4.7 3.6-8.8 7.8-10.3 0.2-0.4 0.7-0.7 1.2-0.7q0.5 0.1 0.9 0.1 1.2-0.1 2.5-0.1c0.6 0.1 1 0.3 1.3 0.6 9 1 18 1.6 27.1 1.6 10.3-0.1 20.4-1.6 30.6-2.7 6.8-0.8 14.5 1 16.5 8.5 1.7 6.5-0.1 13.3-3.8 18.8 4.8 4.4 7.3 10.9 6.9 17.5z"/></g><g clip-path="url(#cp3)"><path class="c" d="m291 395.9c-7 4.8-14.8 5.2-23.1 5.2-9.2 0-17.7-1.3-26.5-3.6-1.3-0.4-2.2 1.6-1 2.2 8.7 4.5 19.5 4.5 29 4.6 8 0.1 17.4 0 23.4-6.2 1.1-1.1-0.4-3.2-1.8-2.2zm5.4-18.8c-4.8 0.6-9.5 2.5-14.4 3.4q-7.8 1.4-15.8 1.6c-10.3 0.3-20.4-1.1-30.4-3.5-1.8-0.4-2.5 2.2-0.8 2.7 10.4 3.2 21.2 4.5 32 4.2 9.7-0.2 22-0.8 30.7-5.4 1.8-0.9 0.4-3.3-1.3-3zm-30.1-21.9c10-0.5 22.2-0.9 31.4-5.2 1.2-0.5 0.6-2.7-0.7-2.6-4.9 0.4-9.6 2-14.4 2.8-5.7 0.9-11.4 1.5-17.1 1.8-10.8 0.5-21.1-1-31.8-1.7-1.5-0.1-1.8 2.2-0.4 2.6 10.5 2.8 22.3 2.8 33 2.3zm56.4-169.6c0.5 4-2.5 9.1-9.1 10.7q-2.2 0.6-4.7 0.6-1.6 0-3.2-0.2c-0.7-0.1-1.8-0.5-3.1-1-1.3-0.5-3.1-1.2-3.7-1.2-1.4 0.4-3.4 3.7-4.9 17.2l-0.1 0.8c-3.6 31.3-4.5 63-2.8 94.2 0 0.4 0.1 1.1 0.2 2 0.4 3.3 0.8 6.7 0.8 9.5q1.8-0.2 3.7-0.4c1.9-0.2 2.3 3 0.4 3.4-10.2 1.9-20.9 2.5-31.3 2.7-10.3 0.2-21.1 0.1-31.3-1.7-1.6-0.3-1.2-2.9 0.4-2.8q3.8 0.1 7.5 0.3c0-5.1 0.4-12.3 1-21.9 0.2-2.6 0.3-4.7 0.3-5.6 0.2-11.8 0.4-25.9 0.2-39.7-0.1-11.8-0.8-24.3-4.2-36.4q-0.2-0.5-0.4-1.4c-1-3.5-3.2-11.7-6-12.9q0 0-0.2 0c-0.9 0-2.6 0.7-4.3 1.4-2.4 1-5.2 2.2-7.4 2.2q-0.2 0-0.4 0c-3.2-0.3-7.2-1.6-8.4-4.4-0.5-1.2-0.7-3.1 1.3-5.5 2.3-2.8 5.8-4.3 9.9-4.3q0.7 0 1.3 0c1 0.1 2.1 0.5 3.2 1 1.1 0.4 2.1 0.8 2.8 0.8q0.1 0 0.1 0c1.4-0.1 2.1-2.1 2.9-4l0.4-1c0.7-1.8 1.7-4.2 1.7-5.9 0-2.3-0.5-2.8-1.6-4.2-0.4-0.5-0.9-1-1.4-1.8-3.2-4.4-8-15.5-5.6-22.5 1-2.7 2.9-4.5 5.8-5.3q1.3-0.4 2.5-0.4 2.8 0 4.6 2c3.6 3.9 3.5 12.4 3.2 15.8 0 0.8-0.3 2.2-0.6 3.8-0.4 2.4-1.4 7.3-0.9 8.1 0.9 1.2 2.6 1.5 3.9 1.5 2.5 0 5.5-1 6.9-2 1.8-1.2 3.8-3.1 4.5-4.6 0.8-1.8 0.5-3-0.1-4.8-0.2-0.7-0.4-1.6-0.6-2.5-1.3-6.4-0.9-11.5 1.2-15 1.5-2.6 4.4-5.2 7.6-5.2q1.8 0 3.4 1.1c4.6 3.3 3 10.4 2 13.3-0.4 1.3-1.6 3.2-3 5.3-1.4 2.3-3.5 5.5-3.4 6.7 0.2 2.4 5.5 5.7 8.1 6.4 0.9 0.3 2 0.4 3.1 0.4 3.6 0 7.7-1.2 8.2-3.9 0.3-1.7-0.3-4.2-1-6.5-0.5-2-1.1-4.1-1.1-6 0-2.9 1-6.3 2.6-9 1.9-3.2 4.3-4.9 6.8-4.9q3.4 0 6.4 4.1c2.9 3.9 2.7 9.2-0.5 15.4l-3.9 6.1q-0.7 0.8-1.2 1.3c-1.3 1.6-1.4 1.7-0.4 4.3 0.9 2.5 2.9 4.9 4.1 6.1 0.6 0.7 1.7 1.8 2.1 1.8 0.1 0 0.5-0.3 1-0.6q0.5-0.4 1.3-0.8c1.1-0.7 2.1-1.4 3.1-2 2.7-1.9 5.4-3.7 9.4-4.2q1.1-0.2 2.2-0.2c5.9 0 8.4 3.3 8.7 6.4zm-29.6 5.5h-0.1l-0.1-0.1q-1.8-1.6-3.3-3.4c-1.7-2.1-3.2-4.5-4.4-7.2-3.1 2.1-6.5 3.2-10.1 3.2-5.6 0-11-2.7-14.5-7.4-4.2 5.3-9.2 8.1-14.3 8.1q-2.8 0-5.6-1.1c-0.6 3.6-1.5 6.5-2.6 9.1-0.2 0.5-0.6 1.1-1 1.8-0.5 0.9-1.3 2.4-1.3 2.9 0.1 0.8 1.5 2.5 2.6 3.7 0.9 1.1 1.8 2.1 2.2 2.9 1.3 2.3 2.4 5 3.4 8.2 3.8 11.9 4.4 24.9 4.7 36.1 0.3 12.2 0 24.7-0.3 36.7q-0.1 4.2-0.2 8.4c-0.2 7-0.4 14.3-0.6 21.7 0 0.4 0 1.2 0 2.1q0 1.6 0 3.2c5.8 0.3 11.5 0.6 17.3 0.4 7.1-0.1 14.1-0.8 21.1-1.5-0.5-3.2-0.7-7.5-0.7-11.8 0-1.2 0-2.2 0-2.8-0.8-13.8-0.8-28.6 0-46.8q0.2-5 0.4-10.1c0.4-11.1 0.8-22.6 2.1-33.7 0.5-4.1 1-7.3 1.8-10.3 0.2-0.9 0.7-2.3 1.3-3.9 0.9-2.3 2.9-7.6 2.2-8.4zm-56.4-18q0.1-0.5 0.1-1.1c0.8-5 1.9-12.6-0.2-16.1-0.6-1.2-1.6-1.9-2.5-1.9q-1 0-2 1.1c-1.4 1.5-0.5 5 0 7l0.1 0.5c1.1 4.4 2.6 7.9 4.5 10.5zm24.6-8.1c1.7-2.8 3.6-6.2 3.9-9.3 0.2-1.4-0.3-3.6-1.2-4.6q-0.3-0.3-0.6-0.3c-0.1 0-0.6 0.1-1.4 1.2-2.5 3.3-1.9 8.6-0.7 13zm26.5 5.1c4.1-5.3 6-9.6 5.5-12.6-0.3-1.9-2-3.5-3.6-3.5-1.2 0-1.9 1.1-2.2 2-1.2 3.1-1 7.9 0.3 14.1zm-61.1 27.5q-1.6-0.5-3.3-0.5c-2.1 0-3.9 0.6-5.3 1.8q1.5 0.7 3 0.7c2.1 0 4.1-0.9 5.6-2zm90.8-11.2c-0.2-0.9-1.4-1.5-3.2-1.6q-0.4-0.1-0.7-0.1c-4.1 0-8.2 2.7-11 5.5 1.9 0.7 4 1 5.9 1q3.5 0 6.1-1.4c2.2-1.1 3.1-2.5 2.9-3.4zm81.2 104.1c-5.9-4.8-12.2-9-18-13.9-5.5-4.6-10.6-10-16.4-14.3-1.9-1.4-4.5 1.3-3.2 3.2 4.3 6.1 10.4 11.1 16.1 15.8 5.8 4.7 11.9 9.6 18.6 13 2.3 1.1 5.1-1.9 2.9-3.8zm45.5-55.1c-7.4-5.3-15.7-9.5-23.8-13.7-7.4-3.9-15.9-9.7-24.3-11-2.2-0.3-4.6 2.4-2.4 4.3 6.4 5.6 15.7 8.7 23.2 12.5 8.2 4.2 16.2 9 24.6 12.6 3.2 1.3 5.5-2.6 2.7-4.7zm-43.2-109c7.1-1.1 14.1-3.6 21-5.6 6.9-2.1 14.2-3.8 20.9-6.5 2.9-1.2 1.8-5.4-1.4-4.8-7.4 1.3-14.6 3.8-21.8 5.9-6.9 2-14 3.6-20.6 6.4-2.8 1.2-0.6 5 1.9 4.6zm-24.1-92c1.8-2.5-2.3-4.8-4.1-2.4q-7.6 10.1-15.6 19.9c-4.8 5.9-10.2 11.6-14.5 17.9-1.5 2.3 1.8 4.6 3.7 2.9 6.1-5.6 11.1-12.7 16.1-19.1q7.4-9.5 14.4-19.2zm-112 23.4c1-7.9-0.3-16.5-0.5-24.4-0.1-8.2-0.1-16.3-0.1-24.4 0-3.1-4.5-3-4.7 0-0.6 8.4-0.7 16.8-0.7 25.3 0.1 7.8-0.5 16.5 1.3 24.1 0.7 2.9 4.4 1.9 4.7-0.6zm-109.6 10.5c-4.9-6.4-9.6-13.5-15.2-19.4-1.9-2-5.2 0.6-3.8 3 4.3 7.2 10.1 13.9 15.1 20.7 4.9 6.4 9.4 13.8 15.2 19.4 2 1.9 5.1-0.5 3.8-2.9-4-7.4-10.1-14.1-15.1-20.8zm-29.4 87.8c5.4 0.7 11.1 1.8 16.6 1.3 2.9-0.3 3.7-4.3 0.7-5.3-4.7-1.4-9.8-1.7-14.7-2.3q-8.7-1.1-17.4-2.3c-10.5-1.5-20.8-3.4-31.3-4.6-3.1-0.3-3.7 4.7-0.7 5.4 10.4 2.7 21.3 4.2 32 5.8q7.4 1.1 14.8 2zm24.8 88.7c-6.8 4.7-14.3 8.2-21.4 12.4-6.5 3.8-13.1 9.5-20.2 12.1-2.4 0.9-3.7-2.3-2.3-4 2.6-3 6.4-5 9.8-7.1q5.2-3.4 10.5-6.5c7-4.1 14.1-8.5 21.8-11.2 2.7-0.9 3.9 2.9 1.8 4.3z"/></g><path class="d" d="m190.7 216.8c-1.2-3.6-1.7-7.2-3.7-10.3-0.5-0.8-1.7-0.7-1.9 0.2-2.3 7.3 1 16.1 4.6 22.5 3 5.2 7.8 13.7 14.3 14.5 0.8 0.1 1.5-0.8 1.5-1.5-0.1-5.9-6.7-10.8-9.7-15.5-2.1-3.1-3.9-6.4-5.1-9.9zm21.2-92.4c-8.8 5.4-15.1 14.1-18.9 23.6-4.6 11.3-4.2 23.2-7 34.9-0.6 2.7-5.2 3-5.7 0-2.1-12.7 1-27.5 6.1-39.2 4.6-10.5 12.2-19.3 22.3-24.8 3.6-1.9 6.6 3.3 3.2 5.5z"/><path class="e" d="m292.6 103.2l81.6-1.8v35l-49.9 1.8v17.9l39.6-3.5v32.4l-37.9 1.8v37.3h-33.4zm88.8 0l34.9-1.8-0.9 77.3q0 5 0.2 9.1 0 4 0.8 6.8 0.9 2.8 2.9 4.2 1.7 1.6 5.2 1.6 0.4 0 0.9-0.2 0.3 0 0.9 0 4.3-0.3 6.6-1.7 2.3-1.4 3.3-4.1 1.1-2.4 1.3-6.5 0-3.8 0-9.2l-0.2-75.5 34.7-1.8 0.2 76.9q0 8.6-1.1 16.7-1 8.2-5.6 14.7-4.5 6.5-13.8 10.3-9.4 4-25.8 4-15.2 0-24-4-9-4-13.5-10.5-4.6-6.3-5.8-14.5-1.4-8.1-1.4-16.3zm98.3 120.8l1.6-120.8 34.3-1.8 18.4 64v-62.2l35.6-1.8-3.7 122.6h-31.4l-18.9-55.3v55.3z"/><path class="f" d="m292.6 103.1l81.6-1.7v35l-49.9 1.8v17.9l39.6-3.5v32.4l-37.9 1.7v37.4h-33.4z"/><path class="f" d="m381.4 103.1l34.9-1.7-0.9 77.3q0 5.1 0.2 9.1 0 4 0.8 6.8 0.9 2.8 2.8 4.2 1.8 1.6 5.3 1.6 0.4 0 0.9-0.2 0.3 0 0.8 0 4.4-0.3 6.7-1.7 2.3-1.4 3.3-4.1 1.1-2.4 1.3-6.4 0-3.9 0-9.3l-0.2-75.6 34.7-1.7 0.2 76.9q0 8.6-1.1 16.7-1 8.2-5.6 14.7-4.6 6.5-13.8 10.3-9.3 4.1-25.8 4.1-15.2 0-24-4.1-8.9-4-13.5-10.5-4.6-6.3-5.8-14.5-1.4-8.1-1.4-16.3z"/><path class="f" d="m479.7 224.1l1.6-121 34.3-1.7 18.4 64v-62.3l35.6-1.7-3.7 122.7h-31.4l-18.9-55.4v55.4z"/><path class="g" d="m292.5 274.2l79.1-1.7v33.9l-48.4 1.7v17.4l38.3-3.4v31.4l-36.6 1.7v36.1h-32.4zm84.1 117.1l27.2-117.1 47.2-1.7 27.1 118.8h-34.7l-4.1-22.6h-23.8l-4 22.6zm60.2-39.3l-5.3-33.5h-8.5l-5.2 33.5zm48.2-16.9q0-7.6 0.3-15 0.2-7.5 1.6-14.5 1.2-6.8 4-12.7 2.9-6 8.2-10.6 5.2-4.4 13.4-7.3 8-2.8 19.7-3.3 1 0 2-0.2 0.9 0 1.9 0 10.2 0 17.3 2.6 7 2.6 11.7 7.2 4.8 4.6 7.7 10.6 2.7 6.1 4.2 12.9 1.4 6.8 1.7 13.7 0.3 7.1 0.5 13.8l-33.6 4.5q0-4.4-0.4-8.5-0.5-4-1.7-7.3-1.2-3.2-3.4-5-2.1-1.9-5.9-1.9h-1.5q-4.8 0.5-7.3 2-2.6 1.7-3.6 4.9-1.2 3.3-1.3 8.4-0.2 5.2-0.2 13 0 7.9 0.2 13.5 0.1 5.7 1.3 9.4 1.2 3.8 3.8 5.5 2.3 1.8 7.1 1.8 4.8 0 7.4-1.7 2.6-1.4 3.8-4.7 1.2-3.2 1.5-8.3 0.2-4.9 0.2-11.7l33.6-4.1q-0.2 10.9-1.5 20.6-1.4 9.8-6.1 17.1-4.8 7.3-14 11.5-9.3 4.3-25.2 4.3-16 0-25.4-5.1-9.5-5.1-14.2-13.6-4.9-8.3-6.3-19.3-1.5-10.9-1.5-22.5zm101.3-19.8v-41.1l88.1-1.7 0.5 41.1-24.4 0.5 0.5 77.2h-38l0.8-76.5z"/><path class="f" d="m292.4 274.2l79.1-1.7v33.9l-48.3 1.7v17.4l38.3-3.4v31.4l-36.6 1.7v36.1h-32.5z"/><path class="f" d="m376.6 391.3l27.2-117.1 47.2-1.7 27.1 118.8h-34.7l-4.1-22.6h-23.8l-4.1 22.6zm60.3-39.4l-5.3-33.4h-8.5l-5.2 33.4z"/><path class="f" d="m485.1 335.1q0-7.6 0.3-15.1 0.2-7.4 1.6-14.4 1.2-6.8 4-12.7 2.9-6 8.2-10.5 5.3-4.5 13.4-7.3 8-2.9 19.7-3.4 1 0 2-0.2 0.9 0 1.9 0 10.2 0 17.3 2.5 7 2.7 11.7 7.3 4.8 4.6 7.7 10.6 2.7 6.1 4.2 12.9 1.4 6.7 1.7 13.7 0.3 7.1 0.5 13.8l-33.6 4.5q0-4.4-0.3-8.4-0.5-4.1-1.7-7.3-1.2-3.3-3.4-5.1-2.2-1.9-6-1.9h-1.5q-4.8 0.5-7.3 2-2.5 1.7-3.6 5-1.2 3.2-1.3 8.3-0.2 5.2-0.2 13 0 7.8 0.2 13.5 0.1 5.7 1.3 9.5 1.2 3.7 3.8 5.4 2.3 1.9 7.1 1.8 4.7 0 7.5-1.7 2.5-1.5 3.7-4.7 1.2-3.2 1.5-8.3 0.2-4.9 0.2-11.7l33.6-4.1q-0.2 10.9-1.5 20.5-1.4 9.9-6.1 17.2-4.8 7.3-14 11.5-9.3 4.3-25.2 4.3-16 0-25.3-5.1-9.5-5.1-14.3-13.6-4.9-8.3-6.3-19.4-1.5-10.8-1.5-22.4z"/><path class="f" d="m586.4 315.3v-41.1l88.1-1.7 0.5 41.1-24.4 0.5 0.5 77.2h-38l0.8-76.5z"/></svg>