<svg version="1.2" xmlns="http://www.w3.org/2000/svg" viewBox="0 0 375 178" width="375" height="178"><style>.a{fill:none;stroke:#e53935;stroke-width:26.7}.b{fill:#63c4a7}.c{fill:none;stroke:#e53935;stroke-width:17.8}</style><path class="a" d="m45.4 121.9l18.7-6.2 8.1 32.7-18.1 4.8zm-4.9-16.1q-1.6-5.8 0.1-8.7 1.5-2.8 7.6-4.4 3.4-0.9 5.5-0.5 2.1 0.5 3.4 1.7 1.2 1.3 1.9 3 0.6 1.8 1.1 3.6 0.5 1.9 0.8 3.9 0.2 2-0.4 3.7-0.6 1.9-2.4 3.3-1.7 1.5-5.2 2.5-3.2 0.8-5.4 0.3-2.2-0.3-3.5-1.6-1.4-1.2-2.2-3-0.8-1.8-1.3-3.8z"/><path class="a" d="m85 93.7l1.9 14.3q0.5-3 1.6-5.9 1-2.8 2.7-5.3 1.5-2.4 3.6-4 1.9-1.6 4.3-2 7.2-1.3 11.4 0.5 4.1 2 6.5 7.6 2.4 5.7 3.9 15.3 1.5 9.7 3.5 23.9l-19.9 3.7q-0.1-2.2-0.3-5.7-0.3-3.3-0.7-7.2-0.5-3.8-1.1-7.7-0.6-3.9-1.4-7.1-0.8-3-1.9-4.9-1.1-1.9-2.5-1.6-3.2 0.6-5.5 2.6-2.4 2.2-3.4 4.8l3.8 29.1-16.4 3q-1.5-8.5-3.1-17.2-1.7-8.6-3-15.5-1.6-8.3-3.1-16z"/><path class="a" d="m160.4 91.7q0-5.5 0.8-10.6 0.6-5 3.5-9.1 2.9-3.9 8.6-6.4 5.7-2.5 15.9-2.8h2.2q8.6 0.1 13.7 2.7 4.9 2.7 7.5 6.7 2.6 4.2 3.2 9.4 0.7 5.2 0.6 10.4l0.2 16.6q-0.1 5.4-0.7 10.6-0.8 5.3-3.6 9.3-2.8 4.2-8.6 6.6-5.7 2.5-15.9 2.4-9.5 0-14.7-2.6-5.4-2.6-8.1-6.8-2.7-4.1-3.5-9.4-0.7-5.2-1-10.5zm28.2-3.1q-3.7 0.3-5.4 1.2-1.9 1-2.5 3.2-0.7 2.4-0.6 6.1 0 3.9 0 9.7-0.1 3.6 0 6.3 0.1 2.8 0.8 4.8 0.7 2 2.1 3 1.4 1.1 4.1 1.1h1q3.1-0.2 4.7-1.2 1.7-0.9 2.4-2.8 0.6-1.8 0.8-4.7 0.1-2.7 0.2-6.4 0.3-5.6 0.4-9.4 0.1-3.9-0.3-6.3-0.5-2.5-1.7-3.6-1.3-1-4-1h-1q-0.5 0-1 0z"/><path class="a" d="m243.3 87.5l-2.5 14.3q1.4-2.7 3.3-5.2 1.9-2.4 4.2-4.2 2.1-1.8 4.6-2.7 2.4-0.9 4.8-0.6 7.2 0.9 10.6 3.9 3.3 3 4 9.2 0.6 6.1-0.9 15.7-1.5 9.7-3.9 23.9l-20.1-2.5q0.6-2.1 1.4-5.5 0.8-3.3 1.6-7.1 0.6-3.8 1.2-7.7 0.6-3.9 0.8-7.2 0.1-3.1-0.3-5.2-0.5-2.1-1.9-2.3-3.2-0.4-6 0.9-3 1.3-4.7 3.5l-5.2 28.9-16.5-2.1q1.1-8.5 2.2-17.3 1-8.7 1.9-15.7 0.9-8.4 1.8-16.2z"/><path class="a" d="m321.9 132.7q-1.1 4.4-2.9 8.3-1.9 3.9-5.1 6.5-3.3 2.5-8.4 3.3-5.2 0.8-13.2-1.1-7.7-1.8-11.8-5.2-4-3.4-5.5-7.6-1.7-4.2-1.2-8.9 0.3-4.7 1.5-9.4 1.1-4.6 2.6-9.2 1.5-4.4 4.6-7.8 3-3.2 8.4-4.5 5.2-1.4 13.9 0.2l1.7 0.5q7.6 1.8 11.4 5.4 3.7 3.7 5.1 8.2 1.4 4.5 1 9.2-0.4 4.9-1.3 8.9l-30.7-4.5q-0.8 3.4-1.3 5.8-0.5 2.4-0.3 4.2 0.2 1.7 1.3 2.7 1 1.1 3.4 1.6 2.3 0.6 3.8 0.2 1.4-0.3 2.3-1.5 0.9-1.2 1.5-3.1 0.6-2 1.2-4.7zm-16.1-11.3h-0.1l1-7.5q0-1.6-1-3-1-1.4-2.8-1.8-1.1-0.3-2.3-0.3-1.3 0-2.3 0.4-1.1 0.4-2 1.1-0.8 0.8-1.1 2l-1.9 7.3v0.1l12.4 1.7z"/><path class="a" d="m341.3 88.3l17.9 4.7-17.6 47.9-14-3.4zm-18.7 60.5q1.5-4.9 4.2-5.9 2.6-1.1 7.6 0.5 3 1 4.5 2.2 1.4 1.3 1.9 2.7 0.4 1.4 0.1 2.9-0.3 1.6-0.8 3-0.5 1.7-1.2 3.2-0.8 1.4-2 2.3-1.3 0.9-3.3 1.1-2.1 0.1-5.2-0.9-2.9-0.9-4.2-2.2-1.6-1.2-2-2.8-0.5-1.4-0.3-3 0.2-1.6 0.7-3.1z"/><path class="b" d="m45.4 121.9l18.7-6.2 8.1 32.7-18.1 4.8zm-4.9-16.1q-1.6-5.8 0.1-8.6 1.6-2.9 7.6-4.5 3.4-0.9 5.5-0.5 2.1 0.5 3.4 1.7 1.2 1.3 1.9 3 0.6 1.8 1.1 3.6 0.5 2 0.8 3.9 0.2 2-0.3 3.7-0.7 1.9-2.4 3.3-1.7 1.5-5.3 2.4-3.2 0.9-5.3 0.4-2.2-0.3-3.6-1.6-1.4-1.2-2.2-3-0.8-1.8-1.3-3.8z"/><path class="b" d="m85 93.7l1.9 14.3q0.5-3 1.6-5.9 1-2.9 2.7-5.3 1.5-2.4 3.6-4 1.9-1.6 4.3-2 7.2-1.3 11.4 0.5 4.1 2 6.5 7.6 2.4 5.6 4 15.3 1.4 9.7 3.4 23.9l-19.9 3.7q-0.1-2.2-0.3-5.7-0.3-3.3-0.7-7.2-0.5-3.8-1.1-7.7-0.6-3.9-1.4-7.1-0.9-3-1.9-4.9-1.1-1.9-2.5-1.6-3.2 0.6-5.5 2.6-2.4 2.2-3.4 4.8l3.8 29.1-16.4 3q-1.5-8.5-3.1-17.2-1.7-8.6-3-15.6-1.5-8.2-3.1-15.9z"/><path class="b" d="m160.4 91.7q0-5.5 0.8-10.6 0.6-5 3.5-9.1 2.9-3.9 8.6-6.4 5.7-2.5 15.8-2.8h2.3q8.6 0.1 13.7 2.7 5 2.7 7.5 6.7 2.5 4.2 3.2 9.4 0.7 5.2 0.6 10.4l0.2 16.6q0 5.4-0.7 10.6-0.8 5.3-3.5 9.3-2.9 4.2-8.6 6.6-5.8 2.5-16 2.5-9.5-0.1-14.7-2.7-5.4-2.6-8.1-6.8-2.7-4.1-3.5-9.4-0.7-5.2-1-10.5zm28.2-3.1q-3.7 0.3-5.4 1.2-1.8 1-2.5 3.3-0.7 2.3-0.6 6 0 3.9 0 9.7 0 3.5 0 6.3 0.1 2.8 0.8 4.8 0.7 2 2.1 3 1.4 1.1 4.2 1.1h0.9q3.1-0.2 4.8-1.2 1.6-0.9 2.3-2.8 0.6-1.8 0.8-4.7 0.1-2.7 0.3-6.4 0.2-5.6 0.3-9.4 0.2-3.9-0.3-6.3-0.5-2.5-1.7-3.6-1.3-1-4-1l-1-0.1q-0.5 0-1 0.1z"/><path class="b" d="m243.3 87.6l-2.5 14.2q1.4-2.7 3.3-5.2 1.9-2.4 4.1-4.2 2.2-1.8 4.7-2.7 2.3-1 4.8-0.7 7.2 1 10.6 4 3.3 3 4 9.2 0.6 6.1-0.9 15.7-1.5 9.8-3.9 23.9l-20.1-2.5q0.6-2.1 1.4-5.5 0.8-3.3 1.6-7.1 0.6-3.8 1.2-7.7 0.6-3.9 0.8-7.2 0.1-3.1-0.3-5.2-0.5-2.1-1.9-2.3-3.2-0.4-6 0.9-3 1.3-4.7 3.5l-5.2 28.9-16.5-2.1q1.1-8.6 2.2-17.3 1-8.7 1.9-15.8 0.9-8.3 1.8-16.1z"/><path class="b" d="m321.9 132.7q-1.1 4.4-2.9 8.3-1.9 3.9-5.1 6.5-3.3 2.5-8.4 3.3-5.2 0.8-13.1-1.1-7.8-1.8-11.8-5.2-4.2-3.4-5.7-7.6-1.6-4.1-1.1-8.9 0.3-4.8 1.4-9.4 1.2-4.7 2.7-9.2 1.5-4.4 4.5-7.8 3.1-3.2 8.5-4.6 5.2-1.3 13.9 0.3l1.7 0.5q7.6 1.8 11.4 5.4 3.7 3.7 5.1 8.2 1.4 4.5 1 9.2-0.4 4.8-1.3 8.9l-30.7-4.5q-0.8 3.4-1.3 5.8-0.5 2.5-0.2 4.2 0.1 1.7 1.2 2.7 1 1 3.4 1.6 2.3 0.6 3.8 0.2 1.4-0.3 2.3-1.5 0.9-1.2 1.5-3.1 0.6-2 1.2-4.7zm-16.1-11.4h-0.1l1-7.5q0.1-1.5-1-2.9-1-1.4-2.8-1.8-1-0.3-2.3-0.3-1.3 0-2.3 0.4-1.1 0.4-1.9 1.1-0.9 0.7-1.2 2l-1.9 7.3v0.1l12.4 1.6v0.1z"/><path class="b" d="m341.4 88.2l17.8 4.8-17.6 47.9-14-3.4zm-18.7 60.5q1.5-4.9 4.2-5.9 2.6-1.1 7.5 0.5 3.1 1 4.6 2.2 1.4 1.3 1.8 2.8 0.4 1.4 0.2 2.9-0.3 1.5-0.8 2.9-0.5 1.7-1.2 3.2-0.8 1.4-2.1 2.3-1.2 1-3.2 1.1-2.1 0.2-5.3-0.9-2.8-0.9-4.2-2.2-1.5-1.2-1.9-2.8-0.5-1.4-0.3-3 0.1-1.6 0.7-3.1z"/><path class="c" d="m83.5 76.7q-4.2 0.9-7.4 0.5-3.3-0.4-5.7-1.8-2.5-1.4-4.2-3.6-1.8-2.2-3.1-4.9-1.2-2.6-2.1-5.6-0.8-2.9-1.4-5.8-0.6-3-1.1-5.9-0.6-2.8-0.6-5.5 0-2.6 0.7-5 0.6-2.5 2.3-4.6 1.7-2.1 4.6-3.7 2.9-1.7 7.4-2.9l1.1-0.2q3.8-0.8 6.7-0.5 2.9 0.4 5.2 1.7 2.2 1.2 3.9 3.2 1.6 2 2.8 4.3 1.2 2.4 2 4.9 0.8 2.7 1.3 5.2l-12.3 4.5q-0.3-1.6-0.8-3.1-0.5-1.5-1.2-2.7-0.8-1.1-1.7-1.8-1-0.5-2.2-0.2l-0.6 0.1q-0.3 0-0.6 0.2-1.8 0.8-2.6 1.6-0.8 0.9-1 2.3-0.2 1.3 0.1 3.4 0.4 2.1 1.1 5.4 0.7 2.9 1.2 5 0.5 2.2 1.3 3.5 0.7 1.3 1.9 1.7 1.1 0.5 2.9 0.1 2.7-0.6 3.5-2 0.8-1.3 0.5-3.8v-0.1l-5.1 1.5q0 0.1 0-0.1-0.1-0.1-0.1-0.4l-0.4-1.5-0.3-1.8-0.4-1.6 3.7-1 8.7-2.6 5.4-1.9q0.6 2.7 0.9 5.4 0.4 2.7 0.3 5.2 0 2.6-0.7 4.9-0.8 2.3-2.5 4.2-1.7 1.9-4.4 3.4-2.8 1.5-7 2.4z"/><path class="c" d="m99.9 55.1q-0.5-3.2-0.7-6.4-0.2-3.1 0.9-5.9 1.1-2.8 4.1-5 2.9-2.1 8.8-3.2l1.4-0.2q5.6-0.8 8.8 0.4 3.3 1.3 5.2 3.7 1.8 2.5 2.5 5.6 0.7 3.2 1.2 6.2 0.5 3.3 0.5 6.4 0.1 3.2-1.2 6-1.2 2.7-4.3 4.6-3.1 2.1-8.9 2.9-5.3 0.8-8.6-0.3-3.4-1.1-5.4-3.4-2-2.1-2.9-5.2-1-3-1.4-6.2zm14.9-9.4q-1.6 0.5-2.3 1-0.8 0.6-1.1 1.6-0.2 0.9-0.1 2.2 0.1 1.4 0.4 3.5 0.3 2.1 0.6 3.7 0.3 1.5 0.9 2.5 0.5 1 1.4 1.3 0.9 0.4 2.5 0.2 1.7-0.2 2.5-0.9 0.8-0.6 1-1.7 0.3-1.1 0.2-2.7-0.3-1.5-0.6-3.6-0.3-1.9-0.4-3.4-0.2-1.4-0.6-2.4-0.3-1-1-1.5-0.7-0.4-1.9-0.2-0.6 0.1-1.5 0.4z"/><path class="c" d="m132.1 33.9l6.3-0.7-1.4-13.1 13.1-2.8 0.6 14.2 8.9-1.3 0.6 13-8.3 0.9 1.8 20.7-12.8 1.2-1.2-20.6-6.2 0.9z"/><path class="c" d="m185.8 41.5l13.1-0.9-0.3 22.6-12.5 0.1zm-0.4-11.3q-0.1-4 1.5-5.6 1.5-1.6 5.7-1.6 2.3 0 3.6 0.6 1.3 0.7 1.9 1.7 0.6 1 0.8 2.2 0.1 1.3 0.1 2.5 0 1.4-0.2 2.7-0.2 1.3-0.8 2.4-0.8 1.1-2.1 1.7-1.4 0.7-3.8 0.7-2.3 0-3.6-0.7-1.3-0.6-2-1.6-0.7-1-0.9-2.4-0.2-1.3-0.2-2.6z"/><path class="c" d="m201 30.3l6.4 0.1 0.2-13.1 13.4-1.2-1.2 14.2 9.1-0.3-1 13-8.4-0.2-0.7 20.9-12.9-0.5 1.3-20.5-6.3 0.2z"/><path class="b" d="m83.5 76.7q-4.2 0.9-7.4 0.5-3.2-0.4-5.7-1.8-2.5-1.4-4.2-3.6-1.8-2.2-3-4.9-1.3-2.6-2.2-5.6-0.8-2.9-1.4-5.8-0.6-3-1.1-5.9-0.6-2.8-0.6-5.5 0-2.6 0.7-5 0.6-2.5 2.3-4.6 1.7-2.1 4.6-3.7 2.9-1.7 7.4-2.9l1.1-0.2q3.8-0.8 6.7-0.5 2.9 0.4 5.2 1.7 2.2 1.2 3.9 3.2 1.6 2 2.8 4.3 1.1 2.4 2 4.9 0.8 2.7 1.3 5.2l-12.3 4.5q-0.3-1.6-0.8-3.1-0.5-1.5-1.2-2.7-0.8-1.1-1.7-1.8-1-0.5-2.2-0.2l-0.6 0.1q-0.3 0-0.6 0.2-1.8 0.8-2.6 1.7-0.9 0.8-1 2.2-0.2 1.4 0.1 3.4 0.4 2.1 1.1 5.4 0.6 2.9 1.2 5.1 0.5 2.1 1.3 3.4 0.7 1.3 1.9 1.7 1 0.5 2.9 0.1 2.7-0.6 3.5-2 0.8-1.2 0.6-3.8v-0.1l-5.2 1.5q0 0.1-0.1-0.1 0-0.1 0-0.4l-0.4-1.5-0.4-1.8-0.3-1.6 3.8-1 8.6-2.7 5.4-1.8q0.6 2.7 0.9 5.4 0.4 2.7 0.3 5.2 0 2.6-0.7 4.9-0.8 2.3-2.5 4.2-1.7 1.9-4.4 3.4-2.8 1.5-7 2.4z"/><path class="b" d="m99.9 55.1q-0.5-3.2-0.7-6.4-0.2-3.1 1-5.9 1-2.8 4-5 2.9-2.1 8.7-3.2l1.5-0.2q5.5-0.9 8.8 0.4 3.3 1.3 5.2 3.7 1.8 2.5 2.5 5.6 0.7 3.2 1.2 6.2 0.5 3.3 0.5 6.4 0.1 3.2-1.2 6-1.2 2.7-4.3 4.6-3.1 2.1-8.9 2.9-5.3 0.8-8.6-0.3-3.4-1.1-5.4-3.4-2-2.1-2.9-5.2-1-3-1.4-6.2zm14.9-9.4q-1.6 0.5-2.3 1-0.8 0.6-1.1 1.5-0.2 1-0.1 2.3 0.1 1.4 0.4 3.5 0.3 2.1 0.6 3.7 0.3 1.5 0.9 2.5 0.5 1 1.4 1.3 0.9 0.5 2.5 0.2 1.7-0.2 2.5-0.9 0.8-0.6 1.1-1.7 0.2-1.1 0-2.6-0.2-1.6-0.5-3.7-0.3-1.9-0.4-3.4-0.2-1.4-0.6-2.4-0.3-1-1-1.5-0.7-0.4-1.9-0.2-0.6 0.1-1.5 0.4z"/><path class="b" d="m132.1 33.8l6.3-0.6-1.4-13.1 13.1-2.8 0.6 14.2 8.9-1.3 0.6 13-8.3 0.8 1.8 20.8-12.8 1.2-1.2-20.6-6.2 0.9z"/><path class="b" d="m185.8 41.5l13.1-0.9-0.3 22.6h-12.5zm-0.4-11.2q-0.1-4 1.5-5.6 1.5-1.6 5.7-1.6 2.3 0 3.6 0.6 1.3 0.7 1.9 1.7 0.6 1 0.8 2.2 0.1 1.3 0.1 2.5 0 1.4-0.2 2.7-0.2 1.3-0.8 2.4-0.8 1.1-2.1 1.7-1.4 0.7-3.8 0.7-2.3 0-3.6-0.7-1.3-0.6-2-1.6-0.7-1-0.9-2.4-0.2-1.3-0.2-2.6z"/><path class="b" d="m201 30.3l6.4 0.1 0.2-13.1 13.4-1.2-1.2 14.2 9.1-0.3-1 13-8.4-0.2-0.7 20.9-12.9-0.5 1.3-20.5-6.3 0.2z"/></svg>