<svg xmlns="http://www.w3.org/2000/svg" xmlns:xlink="http://www.w3.org/1999/xlink" width="500" zoomAndPan="magnify" viewBox="0 0 375 374.999991" height="500" preserveAspectRatio="xMidYMid meet" version="1.0"><defs><g/></defs><path stroke-linecap="butt" transform="matrix(0.724753, -0.192957, 0.192957, 0.724753, 29.451699, 133.543849)" fill="none" stroke-linejoin="miter" d="M 2.976789 71.645171 L 29.132597 70.02835 L 28.305119 115.001222 L 3.372897 114.998103 Z M 2.183405 49.158043 C 2.179605 43.848113 3.220182 40.142118 5.292388 38.047445 C 7.27704 35.977969 11.067756 34.939093 16.666888 34.942223 C 19.729315 34.938315 22.120911 35.34868 23.844356 36.163252 C 25.56012 37.067405 26.831442 38.203565 27.648255 39.569052 C 28.43755 40.916433 28.936695 42.402156 29.132942 44.033606 C 29.219182 45.754342 29.267152 47.416381 29.264105 49.02711 C 29.268182 50.833767 29.175619 52.598525 29.002855 54.320371 C 28.71639 56.125131 28.118826 57.701541 27.216538 59.045908 C 26.225387 60.50136 24.823458 61.637247 23.015784 62.454908 C 21.206803 63.358457 18.683365 63.807691 15.444128 63.807644 C 12.468929 63.807827 10.119591 63.360205 8.398794 62.454712 C 6.589461 61.638832 5.236631 60.545648 4.333929 59.178854 C 3.430901 57.833531 2.842143 56.259273 2.580402 54.448693 C 2.316013 52.729034 2.18111 50.968393 2.183405 49.158043 Z M 2.183405 49.158043 " stroke="#e53935" stroke-width="35.556675" stroke-opacity="1" stroke-miterlimit="4"/><path stroke-linecap="butt" transform="matrix(0.737878, -0.134296, 0.134296, 0.737878, 57.366699, 125.668746)" fill="none" stroke-linejoin="miter" d="M 28.834873 47.275194 L 27.910458 66.519658 C 28.816518 63.984677 29.981573 61.539186 31.416805 59.179924 C 32.784018 56.84534 34.371539 54.725551 36.177503 52.830805 C 37.872579 51.021756 39.771166 49.577968 41.863014 48.497575 C 43.848649 47.419026 45.921301 46.88041 48.081903 46.876603 C 54.587463 46.880094 59.512669 48.004132 62.862644 50.249649 C 66.107317 52.608349 68.352017 56.447333 69.608858 61.75822 C 70.802804 67.094717 71.297216 74.093233 71.096287 82.759826 C 70.832452 91.510259 70.437824 102.259156 69.90821 115.000458 L 42.924921 115.002163 C 43.211756 113.106215 43.531305 110.623304 43.882635 107.558556 C 44.148699 104.584166 44.419929 101.377786 44.707505 97.936156 C 44.883744 94.495437 45.017596 91.025828 45.104869 87.521272 C 45.196805 83.991096 45.150327 80.785125 44.972424 77.894043 C 44.708321 75.098445 44.259656 72.793351 43.619437 70.988077 C 42.980152 69.177679 42.032779 68.274698 40.773128 68.273075 C 37.888134 68.272094 35.263886 68.990895 32.901317 70.424352 C 30.476305 71.968203 28.627965 73.775828 27.346049 75.84536 L 25.328928 114.997159 L 3.110328 114.997851 C 3.108902 107.326739 3.109824 99.55547 3.107035 91.688236 C 3.021307 83.927666 2.977841 76.894757 2.976637 70.58951 C 2.890396 63.093541 2.798518 55.861242 2.71125 48.894476 Z M 28.834873 47.275194 " stroke="#e53935" stroke-width="35.556675" stroke-opacity="1" stroke-miterlimit="4"/><path stroke-linecap="butt" transform="matrix(0.749971, 0.00655773, -0.00655773, 0.749971, 158.698177, 111.496164)" fill="none" stroke-linejoin="miter" d="M 2.713125 57.561726 C 2.712165 52.686547 3.030495 47.990875 3.668115 43.47471 C 4.201709 38.97508 5.734019 34.91986 8.264999 31.303841 C 10.801961 27.776315 14.594568 24.888877 19.642774 22.636317 C 24.690844 20.368134 31.736938 19.056475 40.775846 18.701386 L 43.749919 18.701424 C 51.422094 18.70205 57.515488 19.825898 62.035354 22.078131 C 66.467592 24.4353 69.853116 27.411021 72.186716 31.005338 C 74.458775 34.709573 75.906612 38.863739 76.519855 43.473138 C 77.159093 48.0771 77.480681 52.689048 77.479273 57.293404 L 77.876708 79.51474 C 77.876894 84.30138 77.610646 88.996597 77.083216 93.605552 C 76.441936 98.298839 74.900121 102.458313 72.452471 106.073603 C 69.943052 109.77277 66.151219 112.748747 61.076972 115.001534 C 55.940182 117.24966 48.855992 118.374144 39.813987 118.375079 C 31.417836 118.375576 24.866081 117.250527 20.174346 114.999797 C 15.388865 112.749886 11.7846 109.776078 9.356297 106.07321 C 6.913098 102.453809 5.324642 98.300872 4.596046 93.603937 C 3.868224 88.995541 3.374403 84.34343 3.109377 79.64765 Z M 40.243198 53.09278 C 36.979793 53.360908 34.578143 53.897552 33.03834 54.713131 C 31.426397 55.617884 30.345258 57.064893 29.794876 59.048948 C 29.156913 61.143148 28.888938 63.853929 29.001368 67.181198 C 29.088759 70.623275 29.131447 74.909524 29.134684 80.04511 C 29.131214 83.222345 29.176502 86.018932 29.265429 88.44533 C 29.355312 90.9811 29.717675 93.108222 30.357725 94.82665 C 30.972508 96.633844 31.921904 97.990178 33.200704 98.895698 C 34.458671 99.8014 36.295988 100.248894 38.723207 100.253713 L 39.947209 100.253428 C 42.747638 100.051851 44.87312 99.501995 46.328818 98.598607 C 47.764641 97.804772 48.800546 96.545667 49.436581 94.826498 C 49.990059 93.196596 50.310417 91.11559 50.39761 88.578272 C 50.485805 86.155533 50.575519 83.310889 50.661545 80.044387 C 50.836933 75.084329 50.972096 70.88507 51.056619 67.446699 C 51.146532 64.029115 50.970996 61.228459 50.530055 59.049939 C 50.068419 56.887226 49.294188 55.310602 48.212568 54.320021 C 47.048347 53.413499 45.283945 52.965367 42.924477 52.965164 L 41.565017 52.961426 C 41.127534 52.965251 40.685161 53.005579 40.243198 53.09278 Z M 40.243198 53.09278 " stroke="#e53935" stroke-width="35.556675" stroke-opacity="1" stroke-miterlimit="4"/><path stroke-linecap="butt" transform="matrix(0.744086, 0.0939998, -0.0939998, 0.744086, 226.296465, 112.657896)" fill="none" stroke-linejoin="miter" d="M 28.835642 47.277381 L 27.911825 66.518852 C 28.814868 63.984646 29.980953 61.537953 31.415248 59.178122 C 32.784327 56.842279 34.370108 54.725797 36.177758 52.828024 C 37.876353 51.022773 39.773104 49.58097 41.867359 48.497446 C 43.846628 47.417949 45.920275 46.877751 48.083132 46.877505 C 54.587859 46.879975 59.51196 48.000828 62.861906 50.249744 C 66.105408 52.611852 68.353386 56.443655 69.607798 61.760654 C 70.801509 67.095821 71.297117 74.094097 71.10044 82.759999 C 70.835393 91.508033 70.434719 102.257599 69.908098 115.002224 L 42.924051 114.998775 C 43.209695 113.104286 43.531393 110.622521 43.88463 107.559303 C 44.148829 104.580828 44.421129 101.375592 44.711212 97.937121 C 44.885657 94.497509 45.019362 91.026296 45.106506 87.518967 C 45.196207 83.990317 45.148081 80.783562 44.972464 77.897397 C 44.707808 75.095977 44.259041 72.790291 43.61648 70.986812 C 42.978434 69.177513 42.029547 68.273688 40.774988 68.274684 C 37.887297 68.272003 35.264127 68.991866 32.904171 70.423939 C 30.479108 71.963982 28.628704 73.772661 27.347139 75.845462 L 25.332422 115.000477 L 3.110154 114.999195 C 3.107224 107.32971 3.10674 99.554921 3.110007 91.685163 C 3.022333 83.926639 2.973721 76.892893 2.975161 70.587785 C 2.889121 63.091541 2.800203 55.863397 2.712919 48.897532 Z M 28.835642 47.277381 " stroke="#e53935" stroke-width="35.556675" stroke-opacity="1" stroke-miterlimit="4"/><path stroke-linecap="butt" transform="matrix(0.729424, 0.174473, -0.174473, 0.729424, 287.699254, 120.852854)" fill="none" stroke-linejoin="miter" d="M 67.590109 86.427107 C 67.505778 90.48514 67.09482 94.364248 66.368579 98.067073 C 65.551715 101.861193 64.020695 105.199568 61.771668 108.088477 C 59.415273 110.976291 56.116107 113.280966 51.884302 115.000078 C 47.540399 116.810267 41.752991 117.712602 34.523289 117.71215 C 27.400954 117.712793 21.759671 116.673706 17.590518 114.602377 C 13.362011 112.529181 10.164519 109.818439 8.003107 106.46894 C 5.733453 103.204239 4.286035 99.459037 3.669773 95.225845 C 3.031162 91.078327 2.712666 86.881015 2.711863 82.62378 C 2.712053 78.393084 2.88546 74.147731 3.239574 69.896641 C 3.612854 65.748072 4.795205 61.914728 6.779136 58.38769 C 8.762191 54.946546 11.926648 52.10108 16.267441 49.852505 C 20.501086 47.581361 26.544058 46.269805 34.391292 45.919048 L 36.70436 45.917369 C 43.651054 45.921252 49.164607 47.097996 53.242377 49.458945 C 57.207057 51.884431 60.275067 54.904618 62.435063 58.516863 C 64.505311 62.134509 65.861668 66.013953 66.500279 70.161471 C 67.142861 74.415145 67.505281 78.393094 67.592605 82.094109 L 26.424607 85.734472 C 26.423468 88.819371 26.467452 91.443636 26.555345 93.602201 C 26.643574 95.851725 26.953121 97.705575 27.477709 99.159897 C 27.94316 100.590878 28.75877 101.627498 29.929603 102.268547 C 31.0086 102.995825 32.638287 103.361106 34.822515 103.358113 C 36.981415 103.361179 38.644647 103.038319 39.814633 102.399664 C 40.983744 101.846903 41.844387 100.94486 42.395353 99.688469 C 42.946654 98.523037 43.265032 97.033096 43.351699 95.223711 C 43.439578 93.419391 43.486583 91.287467 43.485006 88.840493 Z M 43.219997 76.67248 L 43.086091 76.672378 L 41.99575 66.651091 C 41.71156 65.283859 40.9858 64.107932 39.816047 63.113178 C 38.647506 62.12349 37.249064 61.627923 35.615656 61.627689 C 34.625237 61.628959 33.585493 61.759844 32.507765 62.022984 C 31.424753 62.308809 30.478186 62.7173 29.663 63.249668 C 28.76049 63.797568 28.029665 64.481126 27.480655 65.297918 C 26.86216 66.115264 26.552672 67.10504 26.553402 68.272311 L 26.422183 78.291248 L 26.422081 78.425154 L 43.086091 76.672378 L 43.091054 76.805072 Z M 43.219997 76.67248 " stroke="#e53935" stroke-width="35.556675" stroke-opacity="1" stroke-miterlimit="4"/><path stroke-linecap="butt" transform="matrix(0.713655, 0.230644, -0.230644, 0.713655, 343.405969, 134.935978)" fill="none" stroke-linejoin="miter" d="M 4.067974 21.545105 L 28.704367 20.189549 L 25.993093 88.182896 L 6.779369 89.668826 Z M 5.157837 105.940388 C 5.158071 101.419132 6.151423 98.34488 8.13629 96.712677 C 10.028899 95.082922 13.284439 94.266137 17.888043 94.267125 C 20.777066 94.263939 23.027319 94.587614 24.633997 95.223282 C 26.177246 95.950606 27.313655 96.858678 28.040022 97.937586 C 28.771345 99.014892 29.223081 100.226346 29.396832 101.576903 C 29.575388 102.942328 29.663437 104.298689 29.664334 105.639427 C 29.660066 107.184357 29.575505 108.684081 29.399137 110.136845 C 29.134015 111.569031 28.593773 112.8274 27.776812 113.906996 C 26.962299 115.078851 25.738462 115.983423 24.105302 116.620712 C 22.385685 117.346151 20.040191 117.710087 17.063865 117.714121 C 14.441708 117.713163 12.369718 117.348297 10.847895 116.619522 C 9.213234 115.98195 7.991122 115.079681 7.175003 113.909362 C 6.359731 112.826345 5.81779 111.572888 5.55749 110.140831 C 5.290028 108.771298 5.161183 107.373386 5.157837 105.940388 Z M 5.157837 105.940388 " stroke="#e53935" stroke-width="35.556675" stroke-opacity="1" stroke-miterlimit="4"/><g fill="#63c4a7" fill-opacity="1"><g transform="translate(51.641785, 216.890481)"><g><path d="M -6.203125 -32 L 12.4375 -38.21875 L 20.515625 -5.46875 L 2.46875 -0.65625 Z M -11.140625 -48.140625 C -12.171875 -52.003906 -12.128906 -54.882812 -11.015625 -56.78125 C -9.972656 -58.675781 -7.425781 -60.164062 -3.375 -61.25 C -1.144531 -61.84375 0.664062 -62.003906 2.0625 -61.734375 C 3.476562 -61.410156 4.609375 -60.835938 5.453125 -60.015625 C 6.304688 -59.179688 6.960938 -58.195312 7.421875 -57.0625 C 7.804688 -55.832031 8.160156 -54.625 8.484375 -53.4375 C 8.828125 -52.132812 9.097656 -50.847656 9.296875 -49.578125 C 9.453125 -48.210938 9.332031 -46.953125 8.9375 -45.796875 C 8.488281 -44.554688 7.691406 -43.46875 6.546875 -42.53125 C 5.410156 -41.53125 3.664062 -40.71875 1.3125 -40.09375 C -0.84375 -39.519531 -2.632812 -39.394531 -4.0625 -39.71875 C -5.519531 -39.945312 -6.707031 -40.472656 -7.625 -41.296875 C -8.539062 -42.097656 -9.269531 -43.125 -9.8125 -44.375 C -10.351562 -45.570312 -10.796875 -46.828125 -11.140625 -48.140625 Z M -11.140625 -48.140625 "/></g></g></g><g fill="#63c4a7" fill-opacity="1"><g transform="translate(72.810714, 210.524758)"><g><path d="M 12.203125 -53.84375 L 14.0625 -39.53125 C 14.394531 -41.507812 14.9375 -43.46875 15.6875 -45.40625 C 16.375 -47.320312 17.257812 -49.097656 18.34375 -50.734375 C 19.363281 -52.296875 20.566406 -53.613281 21.953125 -54.6875 C 23.265625 -55.757812 24.722656 -56.441406 26.328125 -56.734375 C 31.117188 -57.609375 34.90625 -57.4375 37.6875 -56.21875 C 40.394531 -54.914062 42.578125 -52.382812 44.234375 -48.625 C 45.816406 -44.863281 47.125 -39.765625 48.15625 -33.328125 C 49.125 -26.835938 50.265625 -18.859375 51.578125 -9.390625 L 31.6875 -5.765625 C 31.625 -7.210938 31.523438 -9.085938 31.390625 -11.390625 C 31.191406 -13.628906 30.957031 -16.03125 30.6875 -18.59375 C 30.363281 -21.15625 30 -23.742188 29.59375 -26.359375 C 29.1875 -28.960938 28.722656 -31.320312 28.203125 -33.4375 C 27.617188 -35.457031 26.976562 -37.09375 26.28125 -38.34375 C 25.5625 -39.59375 24.734375 -40.128906 23.796875 -39.953125 C 21.671875 -39.566406 19.835938 -38.679688 18.296875 -37.296875 C 16.703125 -35.835938 15.582031 -34.257812 14.9375 -32.5625 L 18.6875 -3.40625 L 2.3125 -0.421875 C 1.28125 -6.085938 0.238281 -11.816406 -0.8125 -17.609375 C -1.925781 -23.335938 -2.910156 -28.535156 -3.765625 -33.203125 C -4.828125 -38.710938 -5.863281 -44.023438 -6.875 -49.140625 Z M 12.203125 -53.84375 "/></g></g></g><g fill="#63c4a7" fill-opacity="1"><g transform="translate(124.967885, 201.383568)"><g/></g></g><g fill="#63c4a7" fill-opacity="1"><g transform="translate(157.944038, 197.742854)"><g><path d="M 2.40625 -43.0625 C 2.4375 -46.71875 2.707031 -50.234375 3.21875 -53.609375 C 3.65625 -56.992188 4.832031 -60.035156 6.75 -62.734375 C 8.664062 -65.359375 11.53125 -67.5 15.34375 -69.15625 C 19.144531 -70.820312 24.429688 -71.757812 31.203125 -71.96875 L 33.4375 -71.953125 C 39.195312 -71.898438 43.765625 -71.007812 47.140625 -69.28125 C 50.453125 -67.488281 52.972656 -65.234375 54.703125 -62.515625 C 56.367188 -59.722656 57.425781 -56.597656 57.875 -53.140625 C 58.3125 -49.671875 58.515625 -46.210938 58.484375 -42.765625 L 58.65625 -26.109375 C 58.625 -22.515625 58.390625 -18.992188 57.953125 -15.546875 C 57.441406 -12.023438 56.265625 -8.921875 54.421875 -6.234375 C 52.492188 -3.472656 49.625 -1.257812 45.8125 0.40625 C 41.945312 2.0625 36.628906 2.863281 29.859375 2.8125 C 23.554688 2.75 18.648438 1.851562 15.140625 0.125 C 11.554688 -1.601562 8.867188 -3.859375 7.078125 -6.640625 C 5.265625 -9.367188 4.101562 -12.492188 3.59375 -16.015625 C 3.082031 -19.484375 2.742188 -22.976562 2.578125 -26.5 Z M 30.578125 -46.15625 C 28.140625 -45.976562 26.335938 -45.585938 25.171875 -44.984375 C 23.953125 -44.316406 23.128906 -43.238281 22.703125 -41.75 C 22.222656 -40.207031 22.003906 -38.179688 22.046875 -35.671875 C 22.097656 -33.097656 22.109375 -29.882812 22.078125 -26.03125 C 22.054688 -23.65625 22.066406 -21.550781 22.109375 -19.71875 C 22.171875 -17.820312 22.425781 -16.226562 22.875 -14.9375 C 23.34375 -13.582031 24.050781 -12.5625 25 -11.875 C 25.9375 -11.1875 27.320312 -10.835938 29.15625 -10.828125 L 30.0625 -10.8125 C 32.164062 -10.925781 33.765625 -11.320312 34.859375 -12 C 35.941406 -12.59375 36.722656 -13.53125 37.203125 -14.8125 C 37.617188 -16.03125 37.875 -17.585938 37.96875 -19.484375 C 38.050781 -21.304688 38.140625 -23.441406 38.234375 -25.890625 C 38.398438 -29.609375 38.523438 -32.753906 38.609375 -35.328125 C 38.703125 -37.898438 38.582031 -40 38.25 -41.625 C 37.9375 -43.25 37.375 -44.441406 36.5625 -45.203125 C 35.6875 -45.890625 34.367188 -46.238281 32.609375 -46.25 L 31.59375 -46.265625 C 31.257812 -46.265625 30.921875 -46.226562 30.578125 -46.15625 Z M 30.578125 -46.15625 "/></g></g></g><g fill="#63c4a7" fill-opacity="1"><g transform="translate(215.486484, 198.227777)"><g><path d="M 27.828125 -47.671875 L 25.3125 -33.46875 C 26.226562 -35.257812 27.332031 -36.960938 28.625 -38.578125 C 29.851562 -40.203125 31.226562 -41.625 32.75 -42.84375 C 34.195312 -44.03125 35.742188 -44.929688 37.390625 -45.546875 C 38.972656 -46.171875 40.570312 -46.382812 42.1875 -46.1875 C 47.019531 -45.570312 50.570312 -44.265625 52.84375 -42.265625 C 55.039062 -40.222656 56.363281 -37.15625 56.8125 -33.0625 C 57.1875 -29 56.898438 -23.742188 55.953125 -17.296875 C 54.921875 -10.816406 53.609375 -2.863281 52.015625 6.5625 L 31.953125 4.03125 C 32.335938 2.644531 32.804688 0.828125 33.359375 -1.421875 C 33.835938 -3.609375 34.34375 -5.96875 34.875 -8.5 C 35.332031 -11.03125 35.753906 -13.609375 36.140625 -16.234375 C 36.546875 -18.835938 36.816406 -21.222656 36.953125 -23.390625 C 37.015625 -25.492188 36.894531 -27.25 36.59375 -28.65625 C 36.289062 -30.050781 35.671875 -30.8125 34.734375 -30.9375 C 32.578125 -31.207031 30.5625 -30.914062 28.6875 -30.0625 C 26.71875 -29.15625 25.164062 -27.984375 24.03125 -26.546875 L 18.84375 2.375 L 2.328125 0.296875 C 3.046875 -5.421875 3.773438 -11.195312 4.515625 -17.03125 C 5.171875 -22.832031 5.796875 -28.082031 6.390625 -32.78125 C 7.035156 -38.363281 7.648438 -43.75 8.234375 -48.9375 Z M 27.828125 -47.671875 "/></g></g></g><g fill="#63c4a7" fill-opacity="1"><g transform="translate(267.63484, 204.736587)"><g><path d="M 54.28125 -9.046875 C 53.507812 -6.097656 52.539062 -3.34375 51.375 -0.78125 C 50.113281 1.84375 48.410156 4.015625 46.265625 5.734375 C 44.046875 7.421875 41.238281 8.523438 37.84375 9.046875 C 34.363281 9.609375 29.992188 9.257812 24.734375 8 C 19.523438 6.75 15.585938 5.007812 12.921875 2.78125 C 10.179688 0.53125 8.3125 -2.007812 7.3125 -4.84375 C 6.238281 -7.601562 5.84375 -10.582031 6.125 -13.78125 C 6.375 -16.925781 6.867188 -20.046875 7.609375 -23.140625 C 8.359375 -26.242188 9.238281 -29.3125 10.25 -32.34375 C 11.226562 -35.300781 12.75 -37.890625 14.8125 -40.109375 C 16.863281 -42.273438 19.664062 -43.800781 23.21875 -44.6875 C 26.707031 -45.59375 31.351562 -45.492188 37.15625 -44.390625 L 38.828125 -43.984375 C 43.898438 -42.773438 47.710938 -40.960938 50.265625 -38.546875 C 52.734375 -36.054688 54.445312 -33.3125 55.40625 -30.3125 C 56.289062 -27.3125 56.597656 -24.238281 56.328125 -21.09375 C 56.054688 -17.894531 55.628906 -14.9375 55.046875 -12.21875 L 24.375 -16.71875 C 23.832031 -14.488281 23.40625 -12.578125 23.09375 -10.984375 C 22.769531 -9.316406 22.679688 -7.910156 22.828125 -6.765625 C 22.898438 -5.628906 23.3125 -4.726562 24.0625 -4.0625 C 24.71875 -3.351562 25.835938 -2.804688 27.421875 -2.421875 C 29.003906 -2.046875 30.285156 -1.984375 31.265625 -2.234375 C 32.203125 -2.429688 32.976562 -2.945312 33.59375 -3.78125 C 34.195312 -4.539062 34.691406 -5.566406 35.078125 -6.859375 C 35.453125 -8.160156 35.851562 -9.707031 36.28125 -11.5 Z M 38.203125 -20.4375 L 38.109375 -20.453125 L 39.078125 -27.9375 C 39.109375 -28.988281 38.785156 -29.972656 38.109375 -30.890625 C 37.421875 -31.828125 36.484375 -32.4375 35.296875 -32.71875 C 34.578125 -32.894531 33.789062 -32.972656 32.9375 -32.953125 C 32.101562 -32.953125 31.347656 -32.828125 30.671875 -32.578125 C 29.921875 -32.335938 29.273438 -31.96875 28.734375 -31.46875 C 28.128906 -30.988281 27.722656 -30.316406 27.515625 -29.453125 L 25.671875 -22.171875 L 25.640625 -22.078125 L 38.109375 -20.453125 L 38.09375 -20.359375 Z M 38.203125 -20.4375 "/></g></g></g><g fill="#63c4a7" fill-opacity="1"><g transform="translate(316.881882, 217.006279)"><g><path d="M 24.46875 -65.765625 L 42.359375 -61.03125 L 24.75 -13.140625 L 10.671875 -16.515625 Z M 5.765625 -5.296875 C 6.804688 -8.515625 8.222656 -10.472656 10.015625 -11.171875 C 11.742188 -11.898438 14.25 -11.734375 17.53125 -10.671875 C 19.59375 -10.003906 21.132812 -9.253906 22.15625 -8.421875 C 23.082031 -7.554688 23.679688 -6.648438 23.953125 -5.703125 C 24.210938 -4.765625 24.253906 -3.796875 24.078125 -2.796875 C 23.890625 -1.785156 23.640625 -0.796875 23.328125 0.171875 C 22.972656 1.265625 22.566406 2.304688 22.109375 3.296875 C 21.578125 4.265625 20.894531 5.046875 20.0625 5.640625 C 19.207031 6.285156 18.128906 6.644531 16.828125 6.71875 C 15.441406 6.84375 13.679688 6.5625 11.546875 5.875 C 9.679688 5.269531 8.285156 4.53125 7.359375 3.65625 C 6.335938 2.832031 5.675781 1.910156 5.375 0.890625 C 5.039062 -0.078125 4.945312 -1.109375 5.09375 -2.203125 C 5.207031 -3.234375 5.429688 -4.265625 5.765625 -5.296875 Z M 5.765625 -5.296875 "/></g></g></g><path stroke-linecap="butt" transform="matrix(1.372366, -0.294565, 0.294565, 1.372366, 51.547007, 87.496729)" fill="none" stroke-linejoin="miter" d="M 14.434464 41.159317 C 12.399588 41.158044 10.655384 40.903214 9.196993 40.390939 C 7.74638 39.868948 6.520524 39.161798 5.521176 38.261324 C 4.518709 37.388644 3.728163 36.35082 3.145649 35.15271 C 2.529699 33.964502 2.060924 32.674104 1.738154 31.286959 C 1.414402 29.930913 1.206512 28.52573 1.112348 27.068105 C 1.016431 25.618644 0.968908 24.182416 0.968611 22.764864 C 0.968899 21.34459 1.000086 19.939489 1.063341 18.544116 C 1.095484 17.187608 1.24151 15.884007 1.502005 14.630593 C 1.759964 13.402251 2.162507 12.256179 2.706914 11.19179 C 3.228385 10.128171 3.987725 9.189613 4.987653 8.376702 C 5.987967 7.575258 7.245382 6.928621 8.759314 6.439513 C 10.280241 5.957598 12.154858 5.671147 14.387054 5.575301 L 15.1556 5.575173 C 16.999992 5.57541 18.579768 5.800639 19.894928 6.250861 C 21.218821 6.73996 22.35004 7.384103 23.287416 8.188731 C 24.193692 8.992376 24.940345 9.929694 25.521346 11.00224 C 26.065993 12.098292 26.498082 13.241343 26.82364 14.429842 C 27.114781 15.659341 27.322724 16.905139 27.448056 18.164515 C 27.551606 19.459065 27.603271 20.716861 27.603051 21.937904 L 18.392696 23.248538 C 18.394904 22.469109 18.361925 21.707744 18.298616 20.968333 C 18.204208 20.227939 18.042332 19.549916 17.815709 18.934848 C 17.594528 18.320947 17.28934 17.819948 16.905588 17.433018 C 16.509384 17.077573 16.009131 16.901885 15.403276 16.899931 L 14.964968 16.899782 C 14.830656 16.902263 14.684478 16.933507 14.528571 16.99682 C 13.621372 17.19205 12.945459 17.436923 12.495973 17.727551 C 12.005075 18.051985 11.651354 18.519717 11.430922 19.135606 C 11.20408 19.74158 11.071051 20.547011 11.041167 21.548209 C 11.008562 22.548823 10.992958 23.8548 10.993187 25.471584 C 10.993484 26.889136 11.009006 28.116404 11.040922 29.147944 C 11.073807 30.188233 11.202578 31.04701 11.429957 31.724861 C 11.651895 32.401544 12.005092 32.904309 12.494022 33.225576 C 12.945243 33.550135 13.621989 33.712471 14.527567 33.710446 C 15.819555 33.711661 16.72406 33.436155 17.235639 32.882758 C 17.75712 32.362796 18.07774 31.492314 18.206245 30.270344 L 18.204706 30.224471 L 14.386957 30.506571 C 14.385975 30.53767 14.387926 30.515318 14.387953 30.435625 C 14.387396 30.358654 14.387821 30.250583 14.38534 30.116272 L 14.385506 29.054614 L 14.387518 27.70587 L 14.385388 26.535558 L 17.140071 26.392463 L 23.536049 25.861082 L 27.602274 25.376143 C 27.602797 26.699814 27.552204 28.009667 27.44836 29.302397 C 27.353263 30.594159 27.161392 31.819607 26.870024 32.978157 C 26.578644 34.176554 26.161155 35.259645 25.616974 36.230152 C 25.034301 37.220861 24.258662 38.076222 23.287922 38.79293 C 22.286268 39.534312 21.077274 40.11449 19.658219 40.53288 C 18.208066 40.950287 16.467203 41.157285 14.434464 41.159317 Z M 14.434464 41.159317 " stroke="#e53935" stroke-width="12.71151" stroke-opacity="1" stroke-miterlimit="4"/><path stroke-linecap="butt" transform="matrix(1.388979, -0.202223, 0.202223, 1.388979, 92.782902, 78.798504)" fill="none" stroke-linejoin="miter" d="M 0.970161 28.426372 C 0.96831 26.913076 1.031404 25.397985 1.157491 23.875192 C 1.291734 22.392958 1.713379 21.022876 2.422828 19.762191 C 3.133373 18.532602 4.262899 17.515877 5.816912 16.712819 C 7.330016 15.900993 9.488062 15.430549 12.2934 15.304642 L 13.311177 15.306581 C 15.991417 15.305888 18.058964 15.708148 19.516973 16.511009 C 20.966214 17.354777 22.047693 18.406548 22.755501 19.668274 C 23.433713 20.959439 23.839665 22.36283 23.973757 23.875694 C 24.099081 25.429466 24.161222 26.91498 24.162935 28.332638 C 24.163024 29.915986 24.063675 31.448297 23.867642 32.929971 C 23.678215 34.443543 23.194031 35.798895 22.411935 36.998381 C 21.641256 38.196718 20.461917 39.149943 18.879425 39.858861 C 17.303539 40.599675 15.123726 40.968519 12.342339 40.968547 C 9.797095 40.969208 7.778264 40.599351 6.288601 39.859378 C 4.776906 39.116197 3.632625 38.148089 2.862067 36.950347 C 2.050495 35.783195 1.533774 34.445234 1.312705 32.930956 C 1.084072 31.449325 0.968054 29.94753 0.970161 28.426372 Z M 12.447398 23.344982 C 11.666999 23.47041 11.084081 23.630214 10.698245 23.827148 C 10.279657 24.055874 9.98794 24.379004 9.823095 24.796538 C 9.635417 25.216372 9.524184 25.74858 9.492151 26.393562 C 9.460119 27.038543 9.444483 27.879963 9.446048 28.912311 C 9.44376 29.913164 9.460318 30.784581 9.493367 31.523407 C 9.523261 32.264587 9.633389 32.879644 9.82375 33.36858 C 9.988471 33.879093 10.280295 34.250621 10.696868 34.48001 C 11.083846 34.738837 11.666774 34.868703 12.448409 34.87001 C 13.252876 34.869016 13.862479 34.738408 14.279969 34.478587 C 14.706819 34.251063 15.014015 33.879565 15.201155 33.366846 C 15.398456 32.880917 15.513456 32.264889 15.545351 31.524268 C 15.546151 30.784745 15.543764 29.912578 15.546051 28.911726 C 15.545722 28.006112 15.5593 27.198141 15.592292 26.488615 C 15.591436 25.779786 15.545799 25.185368 15.449874 24.704557 C 15.34689 24.214282 15.151106 23.839862 14.859768 23.580897 C 14.57589 23.328643 14.141727 23.200749 13.559231 23.203125 C 13.266807 23.202735 12.897114 23.250155 12.447398 23.344982 Z M 12.447398 23.344982 " stroke="#e53935" stroke-width="12.71151" stroke-opacity="1" stroke-miterlimit="4"/><path stroke-linecap="butt" transform="matrix(1.39824, -0.122804, 0.122804, 1.39824, 129.328647, 73.613117)" fill="none" stroke-linejoin="miter" d="M 0.485952 16.665257 L 5.036818 16.570466 L 4.846727 7.22005 L 14.326964 6.060776 L 13.843392 16.178958 L 20.286334 15.789385 L 19.894971 25.080352 L 13.95016 25.142114 L 13.949973 39.998945 L 4.739069 40.000143 L 5.178238 25.329932 L 0.719665 25.61442 Z M 0.485952 16.665257 " stroke="#e53935" stroke-width="12.71151" stroke-opacity="1" stroke-miterlimit="4"/><path stroke-linecap="butt" transform="matrix(1.403595, -0.00869701, 0.00869701, 1.403595, 184.094553, 70.120373)" fill="none" stroke-linejoin="miter" d="M 1.063784 24.503346 L 10.415576 23.923978 L 10.118372 39.999707 L 1.207103 40.000152 Z M 0.779633 16.464191 C 0.780278 14.563385 1.150267 13.240954 1.892415 12.491351 C 2.601116 11.74989 3.955962 11.379793 5.956954 11.381059 C 7.053478 11.379505 7.909739 11.526745 8.522989 11.817197 C 9.138815 12.141061 9.589932 12.547396 9.881904 13.036236 C 10.165579 13.516675 10.343176 14.049334 10.414711 14.631431 C 10.447078 15.246681 10.462868 15.842348 10.462099 16.415648 C 10.460864 17.064086 10.429138 17.692855 10.366886 18.307519 C 10.265466 18.955337 10.053246 19.518977 9.730226 19.99844 C 9.373553 20.51944 8.872875 20.925443 8.228191 21.21645 C 7.580536 21.538051 6.677833 21.69944 5.520085 21.700615 C 4.456974 21.699594 3.617496 21.538543 3.00167 21.214678 C 2.355025 20.924019 1.87041 20.534175 1.547825 20.045146 C 1.225189 19.564466 1.01717 19.001004 0.920985 18.354745 C 0.827376 17.741898 0.781198 17.109864 0.779633 16.464191 Z M 0.779633 16.464191 " stroke="#e53935" stroke-width="12.71151" stroke-opacity="1" stroke-miterlimit="4"/><path stroke-linecap="butt" transform="matrix(1.402837, 0.0469614, -0.0469614, 1.402837, 201.138858, 69.903504)" fill="none" stroke-linejoin="miter" d="M 0.483959 16.665131 L 5.036317 16.571212 L 4.845754 7.218763 L 14.327309 6.060428 L 13.841815 16.17898 L 20.286154 15.790608 L 19.895482 25.081762 L 13.949714 25.141576 L 13.948679 39.999898 L 4.740189 39.999078 L 5.176359 25.329461 L 0.722213 25.612225 Z M 0.483959 16.665131 " stroke="#e53935" stroke-width="12.71151" stroke-opacity="1" stroke-miterlimit="4"/><g fill="#63c4a7" fill-opacity="1"><g transform="translate(63.329613, 142.391352)"><g><path d="M 20.140625 -2.65625 C 17.347656 -2.050781 14.882812 -1.894531 12.75 -2.1875 C 10.601562 -2.457031 8.707031 -3.070312 7.0625 -4.03125 C 5.425781 -4.925781 4.039062 -6.101562 2.90625 -7.5625 C 1.707031 -9.03125 0.6875 -10.671875 -0.15625 -12.484375 C -1.019531 -14.242188 -1.726562 -16.101562 -2.28125 -18.0625 C -2.84375 -20.03125 -3.332031 -21.988281 -3.75 -23.9375 C -4.164062 -25.882812 -4.53125 -27.820312 -4.84375 -29.75 C -5.207031 -31.625 -5.394531 -33.457031 -5.40625 -35.25 C -5.414062 -37.03125 -5.195312 -38.722656 -4.75 -40.328125 C -4.363281 -41.953125 -3.601562 -43.46875 -2.46875 -44.875 C -1.332031 -46.257812 0.195312 -47.515625 2.125 -48.640625 C 4.082031 -49.742188 6.570312 -50.691406 9.59375 -51.484375 L 10.671875 -51.71875 C 13.191406 -52.257812 15.425781 -52.410156 17.375 -52.171875 C 19.320312 -51.910156 21.054688 -51.359375 22.578125 -50.515625 C 24.066406 -49.679688 25.363281 -48.617188 26.46875 -47.328125 C 27.539062 -45.984375 28.476562 -44.539062 29.28125 -43 C 30.039062 -41.40625 30.691406 -39.757812 31.234375 -38.0625 C 31.765625 -36.3125 32.207031 -34.597656 32.5625 -32.921875 L 20.3125 -28.40625 C 20.082031 -29.476562 19.8125 -30.515625 19.5 -31.515625 C 19.15625 -32.503906 18.738281 -33.382812 18.25 -34.15625 C 17.757812 -34.925781 17.191406 -35.523438 16.546875 -35.953125 C 15.910156 -36.328125 15.171875 -36.421875 14.328125 -36.234375 L 13.734375 -36.109375 C 13.554688 -36.066406 13.363281 -35.976562 13.15625 -35.84375 C 11.976562 -35.3125 11.117188 -34.773438 10.578125 -34.234375 C 10.003906 -33.660156 9.660156 -32.921875 9.546875 -32.015625 C 9.410156 -31.097656 9.46875 -29.945312 9.71875 -28.5625 C 9.957031 -27.1875 10.316406 -25.390625 10.796875 -23.171875 C 11.210938 -21.222656 11.601562 -19.539062 11.96875 -18.125 C 12.3125 -16.71875 12.738281 -15.585938 13.25 -14.734375 C 13.75 -13.867188 14.378906 -13.28125 15.140625 -12.96875 C 15.859375 -12.664062 16.835938 -12.648438 18.078125 -12.921875 C 19.847656 -13.296875 21.007812 -13.9375 21.5625 -14.84375 C 22.113281 -15.707031 22.304688 -17 22.140625 -18.71875 L 22.125 -18.78125 L 16.9375 -17.265625 C 16.945312 -17.210938 16.9375 -17.242188 16.90625 -17.359375 C 16.882812 -17.472656 16.859375 -17.613281 16.828125 -17.78125 L 16.515625 -19.25 L 16.109375 -21.109375 L 15.765625 -22.703125 L 19.53125 -23.71875 L 28.125 -26.34375 L 33.578125 -28.203125 C 33.972656 -26.378906 34.285156 -24.570312 34.515625 -22.78125 C 34.765625 -20.96875 34.863281 -19.226562 34.8125 -17.5625 C 34.757812 -15.832031 34.503906 -14.21875 34.046875 -12.71875 C 33.535156 -11.175781 32.71875 -9.78125 31.59375 -8.53125 C 30.445312 -7.21875 28.960938 -6.0625 27.140625 -5.0625 C 25.265625 -4.050781 22.929688 -3.25 20.140625 -2.65625 Z M 20.140625 -2.65625 "/></g></g></g><g fill="#63c4a7" fill-opacity="1"><g transform="translate(100.87183, 134.357647)"><g><path d="M -1 -16.28125 C -1.300781 -18.382812 -1.519531 -20.503906 -1.65625 -22.640625 C -1.769531 -24.734375 -1.457031 -26.71875 -0.71875 -28.59375 C 0.0078125 -30.445312 1.375 -32.085938 3.375 -33.515625 C 5.300781 -34.953125 8.203125 -36.046875 12.078125 -36.796875 L 13.5 -37 C 17.21875 -37.539062 20.171875 -37.398438 22.359375 -36.578125 C 24.546875 -35.703125 26.265625 -34.460938 27.515625 -32.859375 C 28.710938 -31.203125 29.550781 -29.332031 30.03125 -27.25 C 30.519531 -25.125 30.910156 -23.070312 31.203125 -21.09375 C 31.523438 -18.894531 31.707031 -16.742188 31.75 -14.640625 C 31.769531 -12.503906 31.363281 -10.523438 30.53125 -8.703125 C 29.695312 -6.890625 28.253906 -5.328125 26.203125 -4.015625 C 24.160156 -2.671875 21.207031 -1.71875 17.34375 -1.15625 C 13.8125 -0.632812 10.9375 -0.742188 8.71875 -1.484375 C 6.457031 -2.203125 4.671875 -3.3125 3.359375 -4.8125 C 1.992188 -6.269531 1.003906 -8.023438 0.390625 -10.078125 C -0.222656 -12.097656 -0.6875 -14.164062 -1 -16.28125 Z M 13.90625 -25.640625 C 12.863281 -25.316406 12.09375 -24.976562 11.59375 -24.625 C 11.0625 -24.21875 10.722656 -23.710938 10.578125 -23.109375 C 10.390625 -22.472656 10.34375 -21.707031 10.4375 -20.8125 C 10.507812 -19.90625 10.65625 -18.738281 10.875 -17.3125 C 11.070312 -15.914062 11.269531 -14.707031 11.46875 -13.6875 C 11.664062 -12.65625 11.945312 -11.828125 12.3125 -11.203125 C 12.644531 -10.515625 13.125 -10.054688 13.75 -9.828125 C 14.34375 -9.546875 15.175781 -9.484375 16.25 -9.640625 C 17.375 -9.804688 18.203125 -10.113281 18.734375 -10.5625 C 19.265625 -10.957031 19.613281 -11.535156 19.78125 -12.296875 C 19.945312 -13.003906 19.972656 -13.875 19.859375 -14.90625 C 19.710938 -15.9375 19.539062 -17.148438 19.34375 -18.546875 C 19.15625 -19.796875 19.015625 -20.921875 18.921875 -21.921875 C 18.773438 -22.898438 18.59375 -23.722656 18.375 -24.390625 C 18.144531 -25.035156 17.796875 -25.507812 17.328125 -25.8125 C 16.867188 -26.101562 16.238281 -26.1875 15.4375 -26.0625 C 15.039062 -26.007812 14.53125 -25.867188 13.90625 -25.640625 Z M 13.90625 -25.640625 "/></g></g></g><g fill="#63c4a7" fill-opacity="1"><g transform="translate(134.240814, 129.542715)"><g><path d="M -2.171875 -32.703125 L 4.15625 -33.390625 L 2.734375 -46.4375 L 15.875 -49.21875 L 16.4375 -35.015625 L 25.40625 -36.34375 L 26 -23.296875 L 17.671875 -22.5 L 19.5 -1.71875 L 6.625 -0.578125 L 5.4375 -21.15625 L -0.75 -20.203125 Z M -2.171875 -32.703125 "/></g></g></g><g fill="#63c4a7" fill-opacity="1"><g transform="translate(161.892809, 127.143977)"><g/></g></g><g fill="#63c4a7" fill-opacity="1"><g transform="translate(184.442433, 126.264191)"><g><path d="M 1.359375 -21.765625 L 14.46875 -22.65625 L 14.203125 -0.09375 L 1.703125 -0.015625 Z M 0.890625 -33.03125 C 0.867188 -35.707031 1.378906 -37.570312 2.421875 -38.625 C 3.398438 -39.675781 5.296875 -40.207031 8.109375 -40.21875 C 9.648438 -40.226562 10.851562 -40.035156 11.71875 -39.640625 C 12.582031 -39.179688 13.21875 -38.613281 13.625 -37.9375 C 14.039062 -37.269531 14.296875 -36.523438 14.390625 -35.703125 C 14.441406 -34.847656 14.472656 -34.007812 14.484375 -33.1875 C 14.484375 -32.28125 14.441406 -31.398438 14.359375 -30.546875 C 14.222656 -29.640625 13.929688 -28.84375 13.484375 -28.15625 C 12.992188 -27.425781 12.300781 -26.859375 11.40625 -26.453125 C 10.5 -25.984375 9.226562 -25.742188 7.59375 -25.734375 C 6.09375 -25.722656 4.914062 -25.945312 4.0625 -26.40625 C 3.144531 -26.800781 2.457031 -27.335938 2 -28.015625 C 1.539062 -28.691406 1.242188 -29.484375 1.109375 -30.390625 C 0.960938 -31.242188 0.890625 -32.125 0.890625 -33.03125 Z M 0.890625 -33.03125 "/></g></g></g><g fill="#63c4a7" fill-opacity="1"><g transform="translate(199.260403, 126.016968)"><g><path d="M 1.78125 -32.734375 L 8.15625 -32.640625 L 8.34375 -45.75 L 21.703125 -46.9375 L 20.546875 -32.765625 L 29.609375 -33.015625 L 28.625 -19.984375 L 20.265625 -20.1875 L 19.5625 0.65625 L 6.65625 0.21875 L 7.953125 -20.328125 L 1.6875 -20.140625 Z M 1.78125 -32.734375 "/></g></g></g></svg>