<svg xmlns="http://www.w3.org/2000/svg" xmlns:xlink="http://www.w3.org/1999/xlink" width="500" zoomAndPan="magnify" viewBox="0 0 375 374.999991" height="500" preserveAspectRatio="xMidYMid meet" version="1.0"><defs><g/></defs><g fill="#ffffff" fill-opacity="1"><g transform="translate(31.650511, 182.583686)"><g><path d="M 1.734375 0 L 2.40625 -51.9375 L 17.171875 -52.703125 L 25.0625 -25.21875 L 25.0625 -51.9375 L 40.34375 -52.703125 L 38.765625 0 L 25.296875 0 L 17.171875 -23.78125 L 17.171875 0 Z M 1.734375 0 "/></g></g></g><g fill="#ffffff" fill-opacity="1"><g transform="translate(73.876747, 182.583686)"><g><path d="M 1.578125 -51.9375 L 16.5625 -52.703125 L 16.1875 -19.5 C 16.1875 -18.039062 16.210938 -16.734375 16.265625 -15.578125 C 16.265625 -14.429688 16.390625 -13.453125 16.640625 -12.640625 C 16.890625 -11.835938 17.289062 -11.238281 17.84375 -10.84375 C 18.34375 -10.382812 19.09375 -10.15625 20.09375 -10.15625 C 20.195312 -10.15625 20.320312 -10.179688 20.46875 -10.234375 C 20.570312 -10.234375 20.703125 -10.234375 20.859375 -10.234375 C 22.109375 -10.335938 23.0625 -10.585938 23.71875 -10.984375 C 24.363281 -11.390625 24.835938 -11.96875 25.140625 -12.71875 C 25.441406 -13.425781 25.617188 -14.359375 25.671875 -15.515625 C 25.671875 -16.617188 25.671875 -17.945312 25.671875 -19.5 L 25.59375 -51.9375 L 40.5 -52.703125 L 40.578125 -19.640625 C 40.578125 -17.179688 40.425781 -14.800781 40.125 -12.5 C 39.820312 -10.132812 39.019531 -8.023438 37.71875 -6.171875 C 36.414062 -4.316406 34.429688 -2.835938 31.765625 -1.734375 C 29.109375 -0.578125 25.421875 0 20.703125 0 C 16.335938 0 12.898438 -0.578125 10.390625 -1.734375 C 7.828125 -2.890625 5.894531 -4.394531 4.59375 -6.25 C 3.289062 -8.050781 2.460938 -10.132812 2.109375 -12.5 C 1.703125 -14.800781 1.5 -17.132812 1.5 -19.5 Z M 1.578125 -51.9375 "/></g></g></g><g fill="#ffffff" fill-opacity="1"><g transform="translate(115.952436, 182.583686)"><g><path d="M 2.859375 -51.9375 L 22.0625 -52.703125 C 22.0625 -52.847656 22.257812 -51.867188 22.65625 -49.765625 C 23.0625 -47.648438 23.585938 -44.863281 24.234375 -41.40625 C 24.890625 -37.894531 25.644531 -33.953125 26.5 -29.578125 C 27.300781 -25.160156 28.15625 -20.796875 29.0625 -16.484375 L 34.9375 -51.9375 L 55.25 -52.703125 L 57.734375 0 L 42.390625 0 L 39.90625 -33.125 L 35.609375 -0.75 L 26.34375 -0.21875 L 18.140625 -33.125 L 17.546875 0 L 1.5 0 Z M 2.859375 -51.9375 "/></g></g></g><g fill="#ffffff" fill-opacity="1"><g transform="translate(175.189592, 182.583686)"><g><path d="M 1.5 0 L 1.5 -51.9375 L 36.59375 -52.703125 L 36.59375 -37.9375 L 15.125 -37.1875 L 15.125 -30.71875 L 32.140625 -32.21875 L 32.140625 -18.296875 L 15.0625 -17.546875 L 15.0625 -10.984375 L 36.59375 -12.5 L 36.59375 0 Z M 1.5 0 "/></g></g></g><g fill="#ffffff" fill-opacity="1"><g transform="translate(213.275996, 182.583686)"><g><path d="M 28.078125 0 L 28.078125 -6.78125 C 28.078125 -10.539062 27.648438 -13.222656 26.796875 -14.828125 C 25.890625 -16.429688 24.257812 -17.234375 21.90625 -17.234375 C 20.445312 -17.234375 18.539062 -16.9375 16.1875 -16.34375 L 16.1875 0 L 1.5 0 L 1.5 -51.9375 L 25.75 -52.703125 C 28.050781 -52.703125 30.15625 -52.472656 32.0625 -52.015625 C 33.925781 -51.515625 35.5625 -50.738281 36.96875 -49.6875 C 38.320312 -48.632812 39.398438 -47.253906 40.203125 -45.546875 C 41.003906 -43.835938 41.503906 -41.753906 41.703125 -39.296875 L 41.78125 -36.515625 C 41.78125 -34.910156 41.578125 -33.40625 41.171875 -32 C 40.773438 -30.539062 40.148438 -29.257812 39.296875 -28.15625 C 38.441406 -27.050781 37.363281 -26.171875 36.0625 -25.515625 C 34.707031 -24.816406 33.125 -24.390625 31.3125 -24.234375 C 34.125 -24.085938 36.304688 -23.515625 37.859375 -22.515625 C 39.421875 -21.503906 40.601562 -20.019531 41.40625 -18.0625 C 42.15625 -16.0625 42.628906 -13.578125 42.828125 -10.609375 C 43.035156 -7.597656 43.140625 -4.0625 43.140625 0 Z M 15.515625 -39.671875 L 15.515625 -26.796875 L 21.296875 -26.796875 C 21.554688 -26.796875 21.9375 -26.847656 22.4375 -26.953125 C 22.9375 -27.003906 23.4375 -27.179688 23.9375 -27.484375 C 24.4375 -27.734375 24.890625 -28.15625 25.296875 -28.75 C 25.648438 -29.300781 25.828125 -30.054688 25.828125 -31.015625 L 25.828125 -36.4375 C 25.773438 -37.738281 25.445312 -38.691406 24.84375 -39.296875 C 24.238281 -39.847656 23.4375 -40.125 22.4375 -40.125 Z M 15.515625 -39.671875 "/></g></g></g><g fill="#ffffff" fill-opacity="1"><g transform="translate(257.910858, 182.583686)"><g><path d="M 1.578125 -51.9375 L 16.5625 -52.703125 L 16.1875 -19.5 C 16.1875 -18.039062 16.210938 -16.734375 16.265625 -15.578125 C 16.265625 -14.429688 16.390625 -13.453125 16.640625 -12.640625 C 16.890625 -11.835938 17.289062 -11.238281 17.84375 -10.84375 C 18.34375 -10.382812 19.09375 -10.15625 20.09375 -10.15625 C 20.195312 -10.15625 20.320312 -10.179688 20.46875 -10.234375 C 20.570312 -10.234375 20.703125 -10.234375 20.859375 -10.234375 C 22.109375 -10.335938 23.0625 -10.585938 23.71875 -10.984375 C 24.363281 -11.390625 24.835938 -11.96875 25.140625 -12.71875 C 25.441406 -13.425781 25.617188 -14.359375 25.671875 -15.515625 C 25.671875 -16.617188 25.671875 -17.945312 25.671875 -19.5 L 25.59375 -51.9375 L 40.5 -52.703125 L 40.578125 -19.640625 C 40.578125 -17.179688 40.425781 -14.800781 40.125 -12.5 C 39.820312 -10.132812 39.019531 -8.023438 37.71875 -6.171875 C 36.414062 -4.316406 34.429688 -2.835938 31.765625 -1.734375 C 29.109375 -0.578125 25.421875 0 20.703125 0 C 16.335938 0 12.898438 -0.578125 10.390625 -1.734375 C 7.828125 -2.890625 5.894531 -4.394531 4.59375 -6.25 C 3.289062 -8.050781 2.460938 -10.132812 2.109375 -12.5 C 1.703125 -14.800781 1.5 -17.132812 1.5 -19.5 Z M 1.578125 -51.9375 "/></g></g></g><g fill="#ffffff" fill-opacity="1"><g transform="translate(299.986547, 182.583686)"><g><path d="M 21.75 -5.1875 C 22.851562 -5.1875 23.804688 -5.265625 24.609375 -5.421875 C 25.367188 -5.566406 26 -6.019531 26.5 -6.78125 C 27 -7.476562 27.347656 -8.554688 27.546875 -10.015625 C 27.703125 -11.472656 27.703125 -13.476562 27.546875 -16.03125 L 20.859375 -16.03125 C 19.242188 -16.03125 17.835938 -16.054688 16.640625 -16.109375 C 15.429688 -16.109375 14.328125 -16.1875 13.328125 -16.34375 C 12.273438 -16.4375 11.320312 -16.609375 10.46875 -16.859375 C 9.5625 -17.066406 8.609375 -17.367188 7.609375 -17.765625 C 5.148438 -18.671875 3.414062 -20.203125 2.40625 -22.359375 C 1.351562 -24.515625 0.828125 -27.601562 0.828125 -31.625 C 0.828125 -32.570312 0.800781 -33.75 0.75 -35.15625 C 0.695312 -36.5625 0.796875 -38.039062 1.046875 -39.59375 C 1.253906 -41.15625 1.679688 -42.738281 2.328125 -44.34375 C 2.984375 -45.894531 4.015625 -47.347656 5.421875 -48.703125 C 7.023438 -50.265625 9.132812 -51.546875 11.75 -52.546875 C 14.351562 -53.503906 17.914062 -53.984375 22.4375 -53.984375 C 24.84375 -53.984375 26.972656 -53.753906 28.828125 -53.296875 C 30.640625 -52.796875 32.25 -52.144531 33.65625 -51.34375 C 35.0625 -50.488281 36.265625 -49.535156 37.265625 -48.484375 C 38.210938 -47.378906 39.015625 -46.195312 39.671875 -44.9375 C 40.722656 -42.9375 41.425781 -40.851562 41.78125 -38.6875 C 42.082031 -36.53125 42.234375 -34.550781 42.234375 -32.75 C 42.179688 -30.632812 41.976562 -28.578125 41.625 -26.578125 L 26.796875 -26.578125 L 26.796875 -33.203125 C 26.796875 -35.203125 26.570312 -36.753906 26.125 -37.859375 C 25.625 -38.960938 24.492188 -39.515625 22.734375 -39.515625 C 22.328125 -39.515625 21.898438 -39.492188 21.453125 -39.453125 C 21.003906 -39.347656 20.503906 -39.242188 19.953125 -39.140625 C 18.691406 -38.835938 17.8125 -38.3125 17.3125 -37.5625 C 16.757812 -36.8125 16.4375 -35.910156 16.34375 -34.859375 C 16.1875 -33.804688 16.160156 -32.675781 16.265625 -31.46875 C 16.359375 -30.207031 16.40625 -29.003906 16.40625 -27.859375 C 16.40625 -26.347656 16.832031 -25.191406 17.6875 -24.390625 C 18.488281 -23.535156 19.617188 -23.109375 21.078125 -23.109375 C 22.234375 -23.109375 23.335938 -23.132812 24.390625 -23.1875 C 25.390625 -23.1875 26.394531 -23.1875 27.40625 -23.1875 C 29.664062 -23.1875 31.722656 -23.085938 33.578125 -22.890625 C 35.429688 -22.640625 37.035156 -22.132812 38.390625 -21.375 C 39.742188 -20.570312 40.800781 -19.394531 41.5625 -17.84375 C 42.257812 -16.289062 42.609375 -14.15625 42.609375 -11.4375 C 42.609375 -9.332031 42.234375 -7.550781 41.484375 -6.09375 C 40.679688 -4.644531 39.648438 -3.441406 38.390625 -2.484375 C 37.085938 -1.484375 35.632812 -0.707031 34.03125 -0.15625 C 32.425781 0.394531 30.816406 0.796875 29.203125 1.046875 C 27.546875 1.304688 25.96875 1.457031 24.46875 1.5 C 22.90625 1.601562 21.597656 1.65625 20.546875 1.65625 C 17.992188 1.65625 15.785156 1.429688 13.921875 0.984375 C 12.015625 0.523438 10.382812 -0.0507812 9.03125 -0.75 C 7.675781 -1.457031 6.570312 -2.285156 5.71875 -3.234375 C 4.8125 -4.140625 4.109375 -5.066406 3.609375 -6.015625 C 2.359375 -8.273438 1.804688 -10.835938 1.953125 -13.703125 L 17.234375 -12.5 C 17.234375 -11.34375 17.285156 -10.3125 17.390625 -9.40625 C 17.441406 -8.507812 17.617188 -7.757812 17.921875 -7.15625 C 18.222656 -6.5 18.671875 -6.019531 19.265625 -5.71875 C 19.816406 -5.363281 20.597656 -5.1875 21.609375 -5.1875 Z M 21.75 -5.1875 "/></g></g></g></svg>