<svg version="1.2" xmlns="http://www.w3.org/2000/svg" viewBox="0 0 375 151" width="375" height="151"><style>.a{fill:none;stroke:#8e44ad;stroke-width:20.4}.b{fill:#f7c548}.c{fill:none;stroke:#8e44ad;stroke-width:13.6}</style><path class="a" d="m36.2 96.2l6.8-2.6-5.4-14 13.6-6.9 4.8 15.5 9.5-4.1 4.5 14.2-8.9 3.3 8.1 22.4-13.8 5-7.4-22.3-6.6 2.9z"/><path class="a" d="m80.3 63.9l5.7 26.4q0.1-2.5 0.8-4.9 0.6-2.5 1.7-4.6 1-2.1 2.6-3.6 1.5-1.5 3.5-2 5.4-1.4 8.7-0.1 3.2 1.5 5.4 5.8 2.2 4.3 3.9 11.7 1.7 7.4 3.9 18.2l-15 3.8q-0.1-1.7-0.5-4.3-0.4-2.6-0.9-5.7-0.6-2.9-1.3-6.1-0.7-3-1.5-5.4-0.9-2.4-1.8-3.9-0.9-1.4-2-1.1-2.6 0.7-4.3 2.6-1.7 2.1-2.2 4.1l4.8 22.2-12.4 3.1-1.8-7.1q-1-3.9-2.1-8.1-1.1-4.2-2.2-8.6l-2.1-8.3q-2.6-9.6-5.2-19.5z"/><path class="a" d="m152.7 89q0.4 3.4 0.2 6.7-0.2 3.3-1.8 6-1.6 2.7-5 4.7-3.5 2.1-9.6 3-6.1 0.8-9.9-0.5-3.8-1.2-6.1-3.8-2.3-2.5-3.3-6-1.1-3.5-1.6-7.1-0.5-3.6-0.7-7.3-0.2-3.5 1.1-6.8 1.2-3.1 4.7-5.6 3.3-2.4 9.9-3.7l1.3-0.1q5.9-0.9 9.7 0.6 3.7 1.6 5.9 4.4 2.2 2.9 3.3 6.3 1 3.6 1.6 6.7l-23.1 5.4q0.4 2.6 0.7 4.4 0.4 1.9 1 3.1 0.5 1.2 1.6 1.6 1 0.4 2.9 0.2 1.8-0.3 2.7-1 1-0.6 1.3-1.7 0.3-1.1 0.2-2.6-0.2-1.6-0.5-3.6zm-14.6-3.6h-0.1l-1.4-5.6q-0.4-1.1-1.5-1.8-1.1-0.7-2.5-0.5-0.8 0.1-1.7 0.4-0.9 0.4-1.5 0.9-0.7 0.6-1.1 1.4-0.4 0.8-0.3 1.7l0.7 5.7v0.1l9.3-2.3 0.1 0.1z"/><path class="a" d="m184.1 50.3l15.3-0.3-2.5 24.5q0.8-1.8 1.7-3.6 1-1.7 2.3-3 1.3-1.3 3-2.1 1.7-0.8 4.1-0.7 5.6 0.2 8.7 2.1 3 1.8 4.3 4.6 1.3 2.8 1.5 6.2 0.1 3.5-0.1 7-0.1 3.8-0.6 7.4-0.5 3.7-2.1 6.4-1.7 2.8-4.8 4.4-3.1 1.7-8.6 1.4-3.9-0.1-6.4-1.3-2.6-1.2-4.3-3.3l-0.2 4.2-13.3-0.6zm17.7 26.7q-1.9 0.2-3 0.7-1.1 0.5-1.7 1.5-0.5 0.9-0.6 2.5-0.1 1.5-0.2 4-0.1 2.4-0.1 4.2 0 1.8 0.4 3 0.4 1.2 1.5 1.8 1 0.7 3 0.8 2.1 0.1 3.2-0.5 1.2-0.5 1.7-1.7 0.6-1.2 0.7-3 0.1-1.7 0.2-4.1 0.1-2.2 0.2-3.9 0.1-1.7-0.2-2.9-0.2-1.2-0.9-1.8-0.7-0.7-2.2-0.7-0.8-0.1-2 0.1z"/><path class="a" d="m261.9 95q-0.6 3.4-1.7 6.4-1.2 3.2-3.5 5.3-2.4 2.2-6.2 3.1-3.9 0.9-10 0-6.1-0.9-9.4-3.2-3.3-2.3-4.7-5.4-1.5-3.1-1.5-6.8 0-3.6 0.6-7.2 0.5-3.6 1.4-7.2 0.8-3.4 3-6.2 2.1-2.6 6.1-4 3.9-1.4 10.6-0.7l1.3 0.2q5.9 0.9 9 3.5 3.1 2.6 4.5 5.9 1.3 3.3 1.3 6.9 0 3.7-0.4 6.9l-23.7-1.5q-0.4 2.6-0.6 4.5-0.2 1.9 0.1 3.2 0.2 1.3 1.1 2 0.8 0.7 2.7 1 1.8 0.3 2.9-0.1 1-0.3 1.7-1.3 0.6-0.9 0.9-2.5 0.3-1.5 0.6-3.6zm-12.9-7.6h-0.1l0.2-5.8q0-1.2-0.9-2.2-0.9-1-2.2-1.2-0.9-0.1-1.8 0-1 0.1-1.8 0.4-0.8 0.4-1.4 1-0.6 0.6-0.7 1.6l-1 5.7v0.1l9.6 0.4v0.1z"/><path class="a" d="m288.1 90.9q0.2-0.8-0.2-1.9-0.5-1-1.8-1.4-0.3-0.1-0.7-0.1-0.4 0-0.8 0.1-1 0.1-1.6 0.6-0.6 0.6-1 1.5-0.5 1.1-0.7 2.4-0.4 1.4-0.8 2.9-0.3 1.2-0.2 1.8 0.1 0.8 0.4 1.3 0.2 0.4 0.7 0.6 0.3 0.3 0.6 0.3 0.3 0.1 0.4 0.1h0.2l5 1.3q2.9 0.8 5.3 1.7 2.3 0.8 3.9 2 1.5 1.3 2.1 3.1 0.4 1.9-0.3 4.7-0.9 3.3-3.3 4.7-2.6 1.5-5.7 1.8-3.1 0.3-6.4-0.2-3.3-0.6-5.7-1.3-3-0.7-5.1-1.8-2.1-1.1-3.5-2.3-1.5-1.3-2.4-2.6-0.9-1.4-1.5-2.7-1.2-2.9-0.7-6.3l14.1 4.5q-0.3 1.2-0.5 2.1-0.3 0.8-0.3 1.6-0.1 0.7 0.4 1.1 0.3 0.5 1.4 0.8l0.6 0.1q1.4 0.3 2.2 0.3 0.8 0 1.4-0.5 0.4-0.6 0.8-2.1 0.4-1.4 1-4.1l-4.1-1.1q-1.9-0.5-3.3-0.9-1.4-0.4-2.6-0.9-1.4-0.4-2.7-1-1.4-0.6-3-1.4-2.9-1.5-3.5-4.2-0.8-2.6 0.3-6.8 0.3-1 0.8-2.6 0.5-1.4 1.5-3 1-1.5 2.5-3 1.6-1.3 4.1-2.1 2.4-0.8 5.8-0.8 3.5 0 8.1 1.2 3.6 1 6 2.4 2.3 1.5 3.8 3.2 1.5 1.9 2.1 3.8 0.7 2 0.9 3.9 0.3 4.5-1.5 9.6l-14.1-3.7z"/><path class="a" d="m309.1 85.8l6.9 2.4 4.9-14.2 14.9 3.5-6.3 15 9.9 3-5.8 13.7-8.9-3.2-8.3 22.3-13.8-5.1 8.8-21.8-6.9-2z"/><path class="a" d="m349.5 84l13.1 5.1-17.3 34.9-10.4-3.8zm-19.2 44.4q1.6-3.5 3.7-4.1 2.1-0.6 5.7 1 2.2 1 3.3 2.1 0.9 1.1 1.1 2.2 0.2 1.1-0.1 2.2-0.4 1.1-0.8 2.2-0.6 1.2-1.2 2.3-0.7 1-1.8 1.6-1 0.6-2.5 0.5-1.6 0-3.9-1.1-2.1-0.9-3-2-1.1-1.1-1.3-2.3-0.3-1.1 0-2.3 0.3-1.2 0.8-2.3z"/><path class="b" d="m36.2 96.2l6.8-2.6-5.4-14 13.6-6.9 4.8 15.5 9.5-4.1 4.5 14.1-8.9 3.4 8.1 22.4-13.8 5-7.4-22.3-6.6 2.9z"/><path class="b" d="m80.3 63.9l5.7 26.4q0.1-2.4 0.7-5 0.7-2.4 1.8-4.5 1-2.1 2.6-3.6 1.5-1.5 3.5-2 5.4-1.4 8.7-0.1 3.2 1.5 5.4 5.8 2.2 4.3 3.9 11.7 1.7 7.5 3.9 18.2l-15 3.8q-0.1-1.7-0.5-4.3-0.4-2.6-0.9-5.7-0.6-2.9-1.3-6-0.7-3.1-1.5-5.5-0.9-2.4-1.8-3.9-0.9-1.3-2-1.1-2.6 0.7-4.3 2.6-1.7 2.1-2.2 4.1l4.8 22.2-12.4 3.1-1.8-7.1q-1-3.9-2.1-8.1-1.1-4.2-2.2-8.6l-2.1-8.3q-2.6-9.6-5.2-19.5z"/><path class="b" d="m152.7 88.9q0.4 3.5 0.2 6.8-0.2 3.3-1.8 6-1.6 2.8-5 4.7-3.5 2.1-9.6 2.9-6.1 0.9-9.9-0.4-3.8-1.2-6.1-3.8-2.3-2.5-3.3-6-1.1-3.5-1.6-7.1-0.5-3.6-0.7-7.3-0.2-3.5 1.1-6.8 1.2-3.1 4.7-5.6 3.3-2.4 9.9-3.7l1.4-0.1q5.9-0.9 9.6 0.6 3.7 1.6 5.9 4.4 2.3 2.9 3.3 6.3 1 3.6 1.6 6.7l-23.1 5.4q0.3 2.6 0.7 4.4 0.3 1.9 1 3.1 0.5 1.2 1.6 1.6 1 0.4 2.9 0.2 1.8-0.3 2.7-0.9 1-0.7 1.3-1.8 0.3-1.1 0.2-2.6-0.2-1.6-0.5-3.6zm-14.6-3.6h-0.1l-1.4-5.6q-0.4-1.1-1.5-1.8-1.1-0.7-2.5-0.5-0.8 0.1-1.7 0.5-0.9 0.3-1.5 0.9-0.7 0.6-1.1 1.3-0.5 0.8-0.3 1.8l0.7 5.7v0.1l9.3-2.4v0.1z"/><path class="b" d="m184.1 50.3l15.3-0.3-2.5 24.5q0.8-1.8 1.7-3.6 1-1.7 2.3-3.1 1.2-1.2 3-2 1.7-0.8 4.1-0.7 5.6 0.2 8.6 2.1 3.1 1.8 4.5 4.6 1.2 2.8 1.4 6.2 0.1 3.5-0.1 7-0.1 3.8-0.6 7.4-0.5 3.7-2.1 6.4-1.7 2.8-4.8 4.4-3.2 1.7-8.6 1.4-3.9-0.1-6.4-1.3-2.6-1.2-4.3-3.3l-0.2 4.2-13.3-0.6zm17.7 26.7q-1.9 0.3-3 0.7-1.2 0.5-1.7 1.5-0.5 0.9-0.6 2.5-0.2 1.5-0.3 4-0.1 2.4-0.1 4.2 0 1.8 0.5 3 0.4 1.2 1.5 1.8 1 0.7 3 0.8 2 0.1 3.3-0.5 1-0.5 1.6-1.7 0.6-1.2 0.7-3 0.1-1.7 0.2-4.1 0.1-2.2 0.2-3.9 0.1-1.7-0.2-2.9-0.2-1.2-0.9-1.8-0.7-0.7-2.2-0.7-0.8-0.1-2 0.1z"/><path class="b" d="m261.9 95q-0.6 3.4-1.7 6.4-1.2 3.2-3.5 5.3-2.4 2.2-6.2 3.1-3.9 1-10 0-6.1-0.9-9.3-3.2-3.4-2.3-4.8-5.4-1.5-3.1-1.5-6.8 0-3.6 0.6-7.2 0.5-3.6 1.4-7.2 0.8-3.4 3-6.2 2.1-2.6 6.1-4 3.9-1.4 10.6-0.7l1.3 0.2q5.9 0.9 9.1 3.5 3 2.6 4.4 5.9 1.3 3.3 1.3 7 0 3.6-0.4 6.8l-23.7-1.5q-0.4 2.6-0.6 4.5-0.2 1.9 0.1 3.2 0.2 1.3 1.1 2 0.8 0.7 2.6 1 1.9 0.3 3-0.1 1.1-0.3 1.7-1.3 0.6-0.9 0.9-2.5 0.3-1.5 0.6-3.5zm-13-7.7l0.2-5.8q0-1.1-0.9-2.1-0.9-1.1-2.3-1.3-0.8-0.1-1.7 0-1 0.1-1.8 0.5-0.8 0.3-1.4 0.9-0.6 0.6-0.8 1.6l-0.9 5.7v0.1l9.6 0.4v0.1z"/><path class="b" d="m288.1 90.9q0.2-0.8-0.3-1.9-0.4-1-1.7-1.4-0.4-0.1-0.7-0.1-0.3 0-0.8 0-1 0.2-1.6 0.7-0.6 0.6-1 1.5-0.5 1.1-0.7 2.4-0.4 1.4-0.8 2.9-0.3 1.2-0.2 1.8 0.1 0.8 0.4 1.3 0.2 0.4 0.7 0.6 0.3 0.3 0.6 0.4 0.3 0 0.4 0h0.2l5 1.4q2.9 0.7 5.3 1.6 2.3 0.8 3.9 2 1.5 1.3 2.1 3.1 0.4 1.9-0.3 4.7-0.9 3.3-3.3 4.8-2.6 1.4-5.7 1.7-3.1 0.3-6.4-0.2-3.3-0.6-5.7-1.2-3-0.8-5.1-1.9-2.1-1.1-3.5-2.3-1.6-1.3-2.4-2.6-1-1.3-1.5-2.7-1.2-3-0.7-6.3l14.1 4.5q-0.3 1.2-0.5 2-0.3 0.9-0.4 1.7 0 0.7 0.5 1.1 0.3 0.5 1.4 0.8l0.6 0.1q1.4 0.3 2.2 0.3 0.8 0 1.4-0.5 0.4-0.6 0.8-2.1 0.4-1.4 1-4.1l-4.1-1.1q-1.9-0.5-3.3-0.9-1.4-0.4-2.6-0.9-1.4-0.4-2.7-1-1.3-0.6-3-1.4-2.9-1.5-3.5-4.2-0.8-2.7 0.3-6.8 0.3-1 0.8-2.6 0.5-1.4 1.5-3 1-1.5 2.5-3 1.6-1.3 4.1-2.1 2.4-0.8 5.8-0.8 3.5 0 8.2 1.2 3.5 1 5.9 2.4 2.3 1.5 3.8 3.2 1.4 1.9 2.1 3.8 0.6 2 0.9 3.9 0.3 4.5-1.5 9.6l-14.1-3.7z"/><path class="b" d="m309.1 85.8l6.9 2.4 4.9-14.2 14.9 3.5-6.3 15 9.9 2.9-5.8 13.8-8.9-3.2-8.3 22.3-13.8-5.1 8.8-21.8-6.9-2z"/><path class="b" d="m349.5 84l13.2 5.1-17.4 34.9-10.4-3.8zm-19.2 44.4q1.6-3.6 3.7-4.1 2.1-0.6 5.7 1 2.2 1 3.3 2.1 0.9 1.1 1.1 2.2 0.2 1.1-0.1 2.2-0.4 1.1-0.8 2.2-0.6 1.2-1.2 2.3-0.7 1-1.8 1.6-1 0.6-2.5 0.5-1.6 0-4-1.1-2-0.9-3-2-1-1.1-1.2-2.3-0.3-1.1 0-2.3 0.3-1.2 0.8-2.3z"/><path class="c" d="m76.3 64.3q1.1-0.3 1.8-0.7 0.8-0.4 1-1.3 0.3-0.8 0.1-2.3-0.3-1.5-1.2-4l-4.4 1.4q-1.6 0.5-2.8 0.8-1.2 0.3-2.3 0.5-1.1 0.2-2 0.2-0.9 0.1-2 0-2.7-0.2-4.4-2-1.7-1.8-2.9-5.8-0.3-1-0.7-2.3-0.5-1.4-0.7-3-0.3-1.6-0.1-3.4 0.1-1.8 1.1-3.5 1.2-2 3.4-3.8 2.3-1.7 6.8-3.1 2.4-0.7 4.4-0.8 1.9-0.1 3.5 0.3 1.7 0.4 3 1.2 1.3 0.8 2.3 1.8 1.6 1.7 2.6 3.7 1 2.1 1.5 3.9 0.6 2.1 0.9 4.2l-9.8 2.9-1.4-4.3q-0.6-2-1.3-3-0.9-0.9-2.6-0.4-0.4 0.1-0.8 0.3-0.5 0.2-1 0.5-1.1 0.7-1.4 1.6-0.3 0.9-0.1 2 0.2 1 0.6 2.2 0.5 1.2 0.9 2.3 0.4 1.5 1.5 2.1 1 0.6 2.5 0.2 1.1-0.4 2.2-0.8 0.9-0.3 1.9-0.6 2.3-0.6 4.2-1 1.9-0.3 3.5 0 1.5 0.4 2.7 1.7 1.2 1.4 2 4 0.7 2.1 0.3 3.8-0.3 1.7-1.3 3-1 1.4-2.4 2.4-1.4 1-2.9 1.8-1.6 0.7-3.1 1.2-1.5 0.6-2.5 0.9-2.5 0.8-4.5 0.9-2 0.1-3.6-0.2-1.5-0.3-2.7-1-1.1-0.6-1.9-1.4-1.9-1.8-2.7-4.7l10.4-2.3q0.3 1.2 0.7 2 0.3 0.9 0.8 1.4 0.5 0.6 1.2 0.7 0.6 0.2 1.6-0.1z"/><path class="c" d="m113.1 47.3q0.5 2.3 0.6 4.5 0 2.2-0.9 4.1-0.9 1.9-3.1 3.4-2.2 1.6-6.2 2.6-4 0.9-6.6 0.3-2.6-0.7-4.3-2.2-1.7-1.6-2.6-3.9-0.9-2.2-1.4-4.6-0.6-2.4-0.9-4.8-0.4-2.4 0.3-4.6 0.7-2.2 2.8-4 2.1-1.8 6.4-3l0.9-0.2q3.9-0.9 6.5-0.1 2.5 0.8 4.2 2.5 1.6 1.8 2.5 4 0.9 2.3 1.5 4.4l-15.1 4.9q0.4 1.7 0.7 2.9 0.4 1.3 0.9 2 0.4 0.8 1.1 1 0.7 0.3 2 0 1.2-0.3 1.7-0.8 0.6-0.5 0.8-1.3 0.1-0.7-0.1-1.7-0.1-1-0.5-2.4zm-9.9-1.5h-0.1l-1.2-3.7q-0.4-0.7-1.2-1.1-0.7-0.4-1.6-0.2-0.6 0.1-1.2 0.4-0.5 0.3-0.9 0.7-0.5 0.5-0.7 1-0.2 0.5-0.1 1.2l0.9 3.7v0.1l6-2.1h0.1z"/><path class="c" d="m114.3 45.1q-0.4-2.4-0.6-4.8-0.2-2.4 0.6-4.4 0.8-2 3-3.7 2.3-1.5 6.6-2.5l0.9-0.1q3.9-0.7 6.4 0.2 2.5 0.9 4 2.6 1.5 1.7 2.2 3.9 0.7 2.4 1.2 4.5l-9 2.1q-0.1-0.9-0.4-1.8-0.2-0.8-0.6-1.5-0.4-0.7-0.9-1-0.6-0.4-1.5-0.2-0.4 0.1-0.6 0.2-1.2 0.4-1.7 0.8-0.6 0.5-0.8 1.2-0.2 0.8 0 1.8 0.1 1.1 0.4 2.8 0.2 1.6 0.5 2.9 0.3 1.2 0.7 2 0.4 0.7 1.1 1 0.7 0.3 1.9 0.1 1.2-0.2 1.8-0.6 0.6-0.5 0.8-1.3 0.1-0.7 0-1.9-0.1-1.1-0.4-2.5l9-2.4q0.3 2.4 0.3 4.7-0.1 2.3-1.1 4.2-1.1 2-3.3 3.4-2.2 1.4-6.3 2.1-4 0.7-6.5-0.2-2.6-0.7-4.2-2.5-1.6-1.8-2.3-4.2-0.8-2.4-1.2-4.9z"/><path class="c" d="m140.2 41.3q-0.3-2.4-0.3-4.9-0.1-2.4 0.9-4.5 0.9-2.1 3.2-3.6 2.3-1.6 6.8-2.2l1.1-0.2q4.3-0.4 6.7 0.6 2.5 1.1 3.8 3 1.3 2 1.8 4.4 0.5 2.5 0.7 4.7 0.3 2.6 0.2 5-0.1 2.4-1.1 4.5-1 2-3.5 3.4-2.4 1.4-6.8 1.9-4.1 0.4-6.6-0.5-2.5-0.9-4-2.7-1.5-1.7-2.1-4.1-0.6-2.4-0.8-4.8zm11.6-6.7q-1.2 0.3-1.8 0.7-0.6 0.5-0.8 1.1-0.2 0.7-0.2 1.8 0.1 1 0.3 2.7 0.1 1.6 0.3 2.8 0.2 1.1 0.6 1.9 0.3 0.8 1 1.1 0.7 0.3 1.9 0.2 1.3-0.1 1.9-0.6 0.7-0.5 0.9-1.3 0.2-0.8 0.2-2-0.2-1.2-0.3-2.8-0.2-1.5-0.3-2.6-0.1-1.1-0.3-1.9-0.2-0.7-0.8-1.1-0.5-0.4-1.4-0.3-0.5 0.1-1.2 0.3z"/><path class="c" d="m176 24.7l-0.1 7.3q0.5-1.4 1.2-2.8 0.8-1.4 1.8-2.5 0.9-1.1 2.1-1.8 1.1-0.6 2.3-0.7 3.8-0.1 5.7 1.1 1.9 1.3 2.8 4.3 0.8 3 0.9 8 0 5 0 12.4l-10.3 0.4q0.1-1.1 0.2-2.9 0.1-1.7 0.2-3.7 0-2 0-4 0-2-0.2-3.7-0.2-1.6-0.6-2.6-0.4-1-1.2-1-1.6 0.1-2.9 1-1.4 0.9-2.1 2.1l-0.2 15-8.5 0.4q-0.1-4.4-0.3-8.9-0.2-4.5-0.4-8.1-0.2-4.3-0.4-8.3z"/><path class="c" d="m193.2 36.2q0.1-2.4 0.6-4.7 0.4-2.3 1.6-4 1.2-1.7 3.3-2.7 2.1-1 5.4-0.9 1.5 0 2.5 0.4 1 0.3 1.6 0.8 0.7 0.5 1.1 1.1 0.4 0.7 0.8 1.5h0.3l0.1-13.1 10.5-0.3-0.7 24q0 2.8 0 5-0.1 2.2-0.1 3.9 0 1.9 0 3.4l-9-0.2 0.8-6q-0.4 2-1.4 3.2-0.9 1.2-2 1.8-1.1 0.6-2.2 0.7-1.2 0.2-2 0.2l-0.7-0.1q-0.1 0-0.2 0-2.8-0.1-4.7-1.2-1.8-1-2.9-2.6-1.2-1.5-1.8-3.3-1-3-0.9-6.9zm10 1.2q-0.1 1.8-0.1 3 0.1 1.3 0.4 2.1 0.3 0.8 1 1.3 0.7 0.4 2.1 0.4 1.4 0.1 2.2-0.3 0.8-0.4 1.2-1.2 0.3-0.9 0.4-2.1 0.1-1.2 0.1-3l0.1-2.4q0-1.1-0.1-1.8-0.2-0.7-0.5-1.1-0.5-0.3-1.4-0.3-0.7 0-1.7 0.1-1.4 0.2-2.1 0.4-0.7 0.3-1.1 0.8-0.3 0.5-0.4 1.5-0.1 0.9-0.1 2.6z"/><path class="c" d="m223 25.1l2.7-4.5q-1.2-0.4-1.5-1.1-0.5-0.7-0.4-1.4 0.1-1.7 0.9-2.5 0.8-0.8 3.1-0.6 1.8 0.1 2.4 1 0.6 1 0.5 2 0 0.9-0.1 1.2-0.1 0.4-0.4 0.9l-1 1.7q-0.7 1.2-2 3.6z"/><path class="c" d="m245.8 35.1q0.1-0.6-0.3-1.2-0.4-0.7-1.3-0.8-0.2 0-0.4 0-0.3 0-0.6 0.1-0.7 0.2-1 0.6-0.3 0.4-0.5 1.1-0.2 0.7-0.2 1.6-0.1 1-0.3 2 0 0.8 0.1 1.2 0.1 0.5 0.4 0.8 0.2 0.3 0.5 0.4 0.2 0.1 0.4 0.1 0.2 0.1 0.3 0h0.1l3.5 0.4q2 0.2 3.6 0.6 1.6 0.3 2.8 1 1.1 0.7 1.7 1.8 0.5 1.2 0.3 3.1-0.3 2.3-1.8 3.5-1.5 1.2-3.5 1.7-2.1 0.5-4.3 0.5-2.2-0.1-3.9-0.3-2-0.2-3.5-0.7-1.6-0.5-2.6-1.2-1.2-0.7-1.8-1.5-0.8-0.8-1.3-1.6-1.1-1.8-1.1-4.1l9.8 1.6q-0.1 0.8-0.1 1.4-0.2 0.6-0.1 1.1 0 0.5 0.4 0.7 0.3 0.3 1 0.4h0.4q1 0 1.5 0 0.5-0.1 0.8-0.5 0.3-0.4 0.4-1.5 0.1-0.9 0.2-2.7l-2.8-0.4q-1.3-0.1-2.2-0.3-1-0.1-1.9-0.3-0.9-0.1-1.8-0.4-1-0.2-2.1-0.6-2.1-0.7-2.8-2.4-0.7-1.7-0.4-4.6 0-0.7 0.3-1.8 0.1-1 0.6-2.1 0.5-1.1 1.4-2.2 0.9-1.1 2.5-1.9 1.5-0.7 3.8-1 2.3-0.4 5.5 0 2.4 0.3 4.2 1 1.6 0.7 2.8 1.7 1.1 1.1 1.8 2.3 0.6 1.3 0.9 2.5 0.7 3 0 6.5l-9.7-1.1z"/><path class="b" d="m76.3 64.4q1.1-0.4 1.8-0.8 0.8-0.3 1-1.2 0.3-0.9 0.1-2.4-0.3-1.5-1.2-4l-4.5 1.4q-1.5 0.4-2.8 0.8-1.1 0.3-2.2 0.5-1.1 0.2-2 0.2-0.9 0.1-2 0-2.7-0.2-4.4-2-1.7-1.8-2.9-5.8-0.3-0.9-0.7-2.3-0.5-1.4-0.7-3-0.3-1.6-0.1-3.4 0.2-1.7 1.1-3.5 1.1-2 3.4-3.8 2.3-1.7 6.8-3.1 2.4-0.7 4.4-0.8 1.9-0.1 3.5 0.3 1.7 0.4 3 1.2 1.3 0.8 2.3 1.8 1.6 1.7 2.6 3.7 1 2.1 1.5 3.9 0.6 2.1 0.8 4.1l-9.7 3-1.4-4.3q-0.6-2-1.3-3-0.9-0.9-2.6-0.4-0.4 0.1-0.8 0.3-0.5 0.2-1 0.5-1.1 0.7-1.4 1.6-0.3 0.9-0.1 2 0.2 1 0.6 2.2 0.5 1.2 0.9 2.4 0.4 1.4 1.5 2 1 0.6 2.5 0.1 1.1-0.3 2.1-0.7 1-0.2 2-0.5 2.3-0.7 4.2-1.1 1.9-0.3 3.5 0.1 1.5 0.3 2.8 1.6 1.1 1.4 1.9 4.1 0.6 2.1 0.3 3.7-0.3 1.7-1.3 3-0.9 1.4-2.4 2.4-1.4 1.1-2.9 1.8-1.6 0.7-3.1 1.2-1.5 0.6-2.5 0.9-2.6 0.8-4.5 0.9-2 0.1-3.6-0.2-1.5-0.3-2.7-1-1.1-0.6-1.9-1.4-1.9-1.8-2.7-4.7l10.4-2.3q0.3 1.2 0.7 2 0.3 0.9 0.8 1.4 0.5 0.6 1.2 0.7 0.6 0.2 1.6-0.1z"/><path class="b" d="m113.1 47.3q0.5 2.3 0.6 4.5 0 2.2-0.9 4.1-0.9 1.9-3.1 3.4-2.2 1.6-6.2 2.5-4 1-6.6 0.3-2.6-0.5-4.3-2.1-1.7-1.6-2.6-3.9-0.9-2.2-1.4-4.6-0.6-2.4-0.9-4.8-0.4-2.4 0.3-4.6 0.7-2.2 2.8-4 2.1-1.8 6.4-3l0.9-0.2q3.9-0.9 6.5-0.1 2.5 0.8 4.2 2.5 1.6 1.8 2.5 4 0.9 2.3 1.4 4.4l-15 4.9q0.4 1.7 0.7 2.9 0.4 1.3 0.9 2 0.4 0.8 1.1 1 0.7 0.2 2 0 1.2-0.3 1.8-0.8 0.5-0.5 0.7-1.2 0.1-0.8-0.1-1.8-0.2-1-0.5-2.4zm-9.9-1.5h-0.1l-1.2-3.6q-0.4-0.8-1.1-1.2-0.8-0.4-1.8-0.2-0.5 0.2-1.1 0.5-0.6 0.3-0.9 0.7-0.5 0.4-0.7 0.9-0.2 0.6-0.1 1.2l0.8 3.7 0.1 0.1 6-2.1z"/><path class="b" d="m114.3 45.1q-0.4-2.4-0.6-4.8-0.2-2.4 0.6-4.4 0.8-2 3-3.7 2.2-1.5 6.6-2.5l0.9-0.1q3.9-0.7 6.4 0.2 2.5 0.9 3.9 2.5 1.6 1.8 2.3 4.1 0.7 2.2 1.2 4.4l-9 2.1q-0.2-0.9-0.3-1.8-0.3-0.8-0.7-1.5-0.4-0.6-0.9-1-0.6-0.4-1.5-0.2-0.4 0-0.6 0.1-1.2 0.5-1.7 0.9-0.6 0.5-0.8 1.2-0.2 0.7 0 1.8 0.1 1.1 0.4 2.8 0.2 1.6 0.5 2.9 0.2 1.2 0.7 2 0.4 0.7 1.1 1 0.7 0.3 1.9 0.1 1.2-0.2 1.8-0.6 0.6-0.5 0.8-1.3 0.2-0.7 0-1.9-0.1-1-0.4-2.5l8.9-2.4q0.4 2.4 0.4 4.7-0.1 2.3-1.1 4.2-1 2-3.3 3.4-2.2 1.4-6.3 2.1-4 0.7-6.5-0.2-2.6-0.7-4.2-2.5-1.6-1.8-2.3-4.2-0.8-2.4-1.2-4.9z"/><path class="b" d="m140.2 41.3q-0.3-2.4-0.3-4.9-0.1-2.4 0.8-4.5 1-2.1 3.3-3.6 2.3-1.6 6.8-2.3l1.1-0.1q4.3-0.4 6.7 0.6 2.5 1.1 3.8 3 1.3 2 1.8 4.4 0.5 2.4 0.7 4.7 0.3 2.5 0.2 5-0.1 2.4-1.1 4.5-1.1 2-3.5 3.4-2.4 1.5-6.8 1.9-4.1 0.4-6.6-0.5-2.5-0.9-4-2.7-1.5-1.7-2.1-4.1-0.6-2.4-0.8-4.8zm11.6-6.7q-1.2 0.4-1.8 0.7-0.6 0.5-0.8 1.2-0.3 0.6-0.2 1.7 0.1 1 0.2 2.7 0.2 1.6 0.4 2.8 0.2 1.1 0.6 1.9 0.3 0.8 1 1.1 0.7 0.3 1.9 0.2 1.3-0.1 1.9-0.6 0.7-0.5 0.9-1.3 0.2-0.8 0.1-2-0.1-1.2-0.3-2.8-0.1-1.4-0.2-2.6-0.1-1.1-0.3-1.9-0.2-0.7-0.8-1.1-0.5-0.4-1.4-0.3-0.5 0.1-1.2 0.3z"/><path class="b" d="m176 24.7l-0.1 7.3q0.5-1.4 1.2-2.8 0.8-1.4 1.7-2.5 1-1.1 2.1-1.8 1.2-0.7 2.4-0.7 3.7-0.1 5.7 1.1 1.9 1.2 2.8 4.3 0.8 3 0.9 8 0 5 0 12.4l-10.3 0.4q0.1-1.1 0.2-2.9 0.1-1.7 0.2-3.7 0-2 0-4 0-2-0.2-3.7-0.2-1.6-0.6-2.6-0.4-1-1.2-1-1.6 0.1-2.9 1-1.4 0.9-2.1 2.1l-0.2 15-8.5 0.4q-0.1-4.4-0.3-8.9-0.2-4.5-0.4-8.1-0.2-4.3-0.4-8.3z"/><path class="b" d="m193.2 36.2q0.1-2.4 0.6-4.7 0.4-2.3 1.6-4 1.2-1.7 3.3-2.7 2.1-1 5.4-0.9 1.5 0 2.5 0.4 1 0.3 1.6 0.8 0.7 0.5 1.1 1.2 0.4 0.6 0.8 1.4h0.3l0.1-13.1 10.4-0.3-0.6 24q0 2.8 0 5-0.1 2.2-0.1 3.9 0 1.9 0 3.4l-8.9-0.2 0.7-6q-0.4 2-1.3 3.2-1 1.2-2.1 1.8-1.1 0.6-2.2 0.7-1.2 0.2-1.9 0.2l-0.8-0.1q-0.1 0-0.2 0-2.8-0.1-4.7-1.2-1.8-1-2.9-2.6-1.2-1.5-1.8-3.3-1-3-0.9-6.9zm10 1.3q-0.1 1.7-0.1 2.9 0.1 1.3 0.4 2.1 0.3 0.8 1 1.3 0.7 0.4 2.1 0.4 1.4 0.1 2.2-0.3 0.8-0.4 1.2-1.2 0.3-0.8 0.4-2.1 0.1-1.2 0.1-3l0.1-2.4q0-1.1-0.1-1.8-0.1-0.7-0.5-1.1-0.5-0.3-1.5-0.3-0.6 0-1.6 0.1-1.4 0.2-2.1 0.4-0.7 0.3-1 0.8-0.4 0.5-0.5 1.5-0.1 0.9-0.1 2.7z"/><path class="b" d="m223 25.1l2.7-4.5q-1.2-0.4-1.5-1.1-0.5-0.7-0.4-1.4 0.1-1.7 0.9-2.5 0.8-0.8 3-0.6 1.9 0.1 2.5 1 0.6 1 0.5 2 0 0.9-0.1 1.2-0.1 0.4-0.4 0.9l-1 1.7q-0.7 1.2-2 3.6z"/><path class="b" d="m245.8 35.1q0.1-0.6-0.3-1.3-0.4-0.6-1.3-0.7-0.2 0-0.4 0-0.3 0-0.6 0.1-0.7 0.2-1 0.6-0.3 0.4-0.5 1.1-0.2 0.7-0.2 1.6-0.1 1-0.3 2 0 0.8 0.1 1.3 0.1 0.4 0.3 0.7 0.3 0.3 0.6 0.4 0.2 0.1 0.4 0.1 0.2 0.1 0.3 0h0.1l3.4 0.4q2.1 0.3 3.7 0.6 1.6 0.3 2.8 1 1.1 0.7 1.7 1.8 0.5 1.2 0.3 3.1-0.3 2.3-1.8 3.5-1.5 1.2-3.6 1.7-2 0.5-4.2 0.5-2.2-0.1-3.9-0.3-2-0.2-3.6-0.7-1.5-0.5-2.5-1.2-1.1-0.7-1.8-1.5-0.8-0.8-1.3-1.6-1.1-1.8-1.1-4.1l9.8 1.6q-0.1 0.8-0.2 1.4-0.1 0.6 0 1.1 0 0.5 0.4 0.7 0.2 0.3 1 0.4h0.4q1 0 1.5 0 0.5-0.1 0.9-0.5 0.2-0.4 0.3-1.4 0.1-1 0.2-2.9l-2.8-0.3q-1.3-0.1-2.2-0.3-1-0.1-1.9-0.3-0.9-0.1-1.8-0.4-1-0.2-2.1-0.6-2.1-0.7-2.8-2.4-0.8-1.7-0.4-4.6 0-0.7 0.3-1.8 0.1-1 0.6-2.1 0.5-1.1 1.4-2.2 0.9-1.1 2.5-1.9 1.5-0.7 3.8-1 2.3-0.4 5.5 0 2.4 0.2 4.2 1 1.6 0.7 2.8 1.7 1.1 1.1 1.8 2.4 0.6 1.2 0.9 2.4 0.6 3-0.1 6.5l-9.6-1.1z"/></svg>