<svg xmlns="http://www.w3.org/2000/svg" xmlns:xlink="http://www.w3.org/1999/xlink" width="500" zoomAndPan="magnify" viewBox="0 0 375 374.999991" height="500" preserveAspectRatio="xMidYMid meet" version="1.0"><defs><g/></defs><path stroke-linecap="butt" transform="matrix(0.784741, -0.285926, 0.285926, 0.784741, 25.935457, 151.426632)" fill="none" stroke-linejoin="miter" d="M 0.931319 33.23126 L 9.659893 33.04661 L 9.298094 15.104375 L 27.490051 12.882284 L 26.557867 32.299349 L 38.920991 31.552402 L 38.17043 49.378051 L 26.764305 49.493069 L 26.761362 77.999605 L 9.095468 77.999159 L 9.933309 49.851579 L 1.381119 50.399161 Z M 0.931319 33.23126 " stroke="#8e44ad" stroke-width="24.386774" stroke-opacity="1" stroke-miterlimit="4"/><path stroke-linecap="butt" transform="matrix(0.809341, -0.206251, 0.206251, 0.809341, 61.612961, 138.439443)" fill="none" stroke-linejoin="miter" d="M 19.77937 12.972837 L 18.575152 45.292815 C 19.136039 43.43277 19.9134 41.613412 20.914079 39.826831 C 21.892989 38.087794 23.005027 36.508171 24.245661 35.086807 C 25.485227 33.650692 26.844865 32.500978 28.329108 31.63882 C 29.826947 30.780127 31.37502 30.349311 32.977859 30.347526 C 37.436963 30.349659 40.816953 31.177225 43.114363 32.843819 C 45.339976 34.58382 46.881486 37.34162 47.74227 41.122907 C 48.559956 44.902864 48.899443 49.820663 48.762956 55.886524 C 48.579904 61.964651 48.310289 69.3673 47.945046 78.092162 L 29.440463 78.091935 C 29.636952 76.7906 29.853412 75.088931 30.098907 72.989239 C 30.277486 70.886974 30.466007 68.594185 30.663315 66.115402 C 30.787757 63.695274 30.873896 61.21712 30.937637 58.675341 C 30.995428 56.194789 30.968278 53.933914 30.845969 51.894939 C 30.665808 49.8557 30.353529 48.183388 29.917041 46.884845 C 29.475757 45.642998 28.827458 45.024099 27.964233 45.021307 C 25.802173 45.020548 23.884703 45.613029 22.203912 46.79191 C 20.463852 48.03291 19.195134 49.394026 18.393225 50.874103 L 17.373712 77.999616 L 2.131502 78.000616 L 2.130796 69.177671 C 2.130693 65.958397 2.133425 62.614358 2.132152 59.153463 C 2.073116 55.673021 2.040381 52.146191 2.041944 48.560531 L 2.041238 38.241383 C 1.979452 30.377816 1.92192 22.327102 1.859578 14.08693 Z M 19.77937 12.972837 " stroke="#8e44ad" stroke-width="24.386774" stroke-opacity="1" stroke-miterlimit="4"/><path stroke-linecap="butt" transform="matrix(0.826988, -0.116886, 0.116886, 0.826988, 107.54268, 127.076243)" fill="none" stroke-linejoin="miter" d="M 46.358294 58.40396 C 46.300262 61.187325 46.018488 63.849321 45.518258 66.385971 C 44.961245 68.990171 43.910339 71.278944 42.368862 73.262208 C 40.748004 75.238976 38.488941 76.818515 35.587042 78.000171 C 32.60586 79.241474 28.635584 79.861186 23.680844 79.859962 C 18.796877 79.859294 14.924499 79.151379 12.065021 77.726956 C 9.162555 76.305904 6.969147 74.446594 5.489426 72.149681 C 3.930424 69.912415 2.943056 67.340277 2.517406 64.436592 C 2.078616 61.592453 1.862014 58.71359 1.858992 55.794063 C 1.857982 52.893713 1.981304 49.982596 2.223673 47.064687 C 2.479379 44.219516 3.290341 41.589804 4.647953 39.169611 C 6.010949 36.811585 8.180828 34.860457 11.156935 33.320859 C 14.060257 31.761527 18.206721 30.864415 23.588375 30.618954 L 25.175138 30.621222 C 29.936737 30.618765 33.71931 31.42735 36.518227 33.046323 C 39.235194 34.710394 41.336982 36.783481 42.819616 39.260297 C 44.240084 41.742497 45.172683 44.401362 45.611472 47.245501 C 46.049051 50.165043 46.296515 52.892394 46.35784 55.432838 L 18.122652 57.927427 C 18.121171 60.043329 18.150306 61.842363 18.214687 63.325184 C 18.275189 64.868861 18.48344 66.135842 18.847391 67.136699 C 19.166996 68.117117 19.722991 68.828645 20.525292 69.26796 C 21.26749 69.764909 22.384352 70.017234 23.881818 70.016328 C 25.364736 70.01809 26.506027 69.796798 27.309667 69.357738 C 28.109429 68.979535 28.697836 68.358904 29.074232 67.500475 C 29.456667 66.69958 29.672092 65.676696 29.733746 64.438416 C 29.796054 63.195504 29.82696 61.740322 29.823795 60.058322 Z M 29.642713 51.714708 L 29.553416 51.711534 L 28.805041 44.84176 C 28.607199 43.902168 28.107282 43.094651 27.305945 42.414575 C 26.504608 41.734499 25.547015 41.391322 24.427225 41.39365 C 23.747277 41.392016 23.03506 41.485014 22.296514 41.664037 C 21.55535 41.861583 20.901618 42.142339 20.345235 42.502983 C 19.724722 42.882903 19.224057 43.350615 18.847218 43.911403 C 18.423414 44.470277 18.214092 45.149211 18.213964 45.952182 L 18.121012 52.825854 L 18.122469 52.915806 L 29.553416 51.711534 L 29.554218 51.806117 Z M 29.642713 51.714708 " stroke="#8e44ad" stroke-width="24.386774" stroke-opacity="1" stroke-miterlimit="4"/><path stroke-linecap="butt" transform="matrix(0.834493, 0.0345568, -0.0345568, 0.834493, 183.045638, 119.558488)" fill="none" stroke-linejoin="miter" d="M 1.858899 13.994198 L 20.162446 12.885165 L 18.394979 42.322194 C 18.95163 40.843355 19.574864 39.389845 20.255528 37.966724 C 20.935804 36.534257 21.772583 35.263825 22.770729 34.159907 C 23.751926 33.09882 24.928362 32.23093 26.285825 31.552145 C 27.647768 30.868494 29.258067 30.530314 31.116334 30.528258 C 35.638168 30.528246 39.139766 31.211777 41.620742 32.569507 C 44.097239 33.932103 45.930521 35.700495 47.106762 37.879937 C 48.21194 40.038916 48.893563 42.482251 49.146762 45.205463 C 49.332189 47.987653 49.419483 50.773907 49.423051 53.57299 C 49.421888 56.596957 49.301579 59.569685 49.057257 62.486696 C 48.74049 65.462879 47.991573 68.063754 46.815179 70.289129 C 45.571593 72.587501 43.751605 74.418238 41.345674 75.777055 C 38.867492 77.199716 35.456271 77.907376 31.11707 77.909187 C 27.957394 77.908963 25.355658 77.478389 23.316536 76.617271 C 21.215891 75.739976 19.48411 74.501013 18.121 72.89571 L 18.028986 77.908177 L 2.132472 77.911122 Z M 24.334551 45.020574 C 22.795149 45.262199 21.58634 45.574392 20.707928 45.95248 C 19.84605 46.390735 19.225756 47.010908 18.847044 47.812996 C 18.487024 48.614311 18.271808 49.634316 18.210744 50.872626 C 18.149872 52.115609 18.122787 53.722309 18.120722 55.707133 C 18.120621 57.626343 18.15232 59.296143 18.211147 60.716727 C 18.274647 62.137118 18.48268 63.317474 18.849264 64.257215 C 19.226936 65.238626 19.846112 65.947901 20.706986 66.389712 C 21.5842 66.887019 22.792866 67.13655 24.337657 67.138114 C 26.013291 67.134259 27.31379 66.888484 28.238573 66.38677 C 29.11447 65.947934 29.763798 65.237621 30.18656 64.25583 C 30.564333 63.318032 30.786988 62.138565 30.845179 60.717816 C 30.8471 59.294716 30.843439 57.623755 30.84354 55.704545 C 30.846515 53.967776 30.875923 52.417151 30.936629 51.05715 C 30.936393 49.694993 30.814216 48.55321 30.574769 47.631609 C 30.315857 46.69209 29.906965 45.974108 29.348093 45.477661 C 28.789608 44.990561 27.894999 44.751429 26.673224 44.750532 C 26.050557 44.748231 25.272686 44.841296 24.334551 45.020574 Z M 24.334551 45.020574 " stroke="#8e44ad" stroke-width="24.386774" stroke-opacity="1" stroke-miterlimit="4"/><path stroke-linecap="butt" transform="matrix(0.825663, 0.125907, -0.125907, 0.825663, 230.961815, 121.896203)" fill="none" stroke-linejoin="miter" d="M 46.361087 58.405943 C 46.298024 61.187953 46.017506 63.846998 45.520239 66.387702 C 44.961374 68.989841 43.910082 71.279126 42.36707 73.26018 C 40.747966 75.238643 38.491465 76.822276 35.586206 77.998618 C 32.605479 79.23851 28.635981 79.858021 23.678417 79.861775 C 18.795535 79.858872 14.925939 79.147918 12.065004 77.729618 C 9.161048 76.308417 6.97062 74.447235 5.489098 72.146777 C 3.932108 69.909869 2.939514 67.340881 2.51594 64.439107 C 2.077709 61.59634 1.860702 58.715108 1.860296 55.796114 C 1.857382 52.891696 1.981419 49.982113 2.222453 47.06415 C 2.479392 44.219458 3.289338 41.588493 4.647667 39.17196 C 6.009834 36.811614 8.182189 34.862329 11.159404 33.320186 C 14.063036 31.760877 18.203225 30.864592 23.587808 30.620672 L 25.177272 30.619574 C 29.937122 30.622315 33.716987 31.42738 36.514358 33.049345 C 39.237359 34.711037 41.341106 36.77941 42.821679 39.259793 C 44.240736 41.740094 45.172044 44.403587 45.610275 47.246353 C 46.05054 50.164506 46.301172 52.893949 46.356844 55.430762 L 18.119775 57.929439 C 18.120534 60.0441 18.153359 61.841623 18.214332 63.327336 C 18.274519 64.869941 18.486902 66.138592 18.846859 67.133993 C 19.167008 68.116541 19.725397 68.830938 20.525241 69.267231 C 21.268816 69.768878 22.385025 70.014997 23.885232 70.018048 C 25.365535 70.014672 26.505825 69.798207 27.309316 69.358701 C 28.108103 68.981416 28.699549 68.361348 29.074407 67.499907 C 29.453808 66.699277 29.671711 65.67726 29.733445 64.437774 C 29.795178 63.198288 29.823069 61.736873 29.823151 60.06207 Z M 29.642538 51.710929 L 29.55328 51.715078 L 28.8032 44.841705 C 28.607805 43.901636 28.110701 43.092735 27.307265 42.415707 C 26.507747 41.733349 25.547408 41.392496 24.426249 41.393146 C 23.74495 41.392956 23.034729 41.482335 22.296293 41.665906 C 21.555349 41.864054 20.902482 42.143391 20.342316 42.503212 C 19.723454 42.881447 19.22715 43.349806 18.848779 43.908996 C 18.423468 44.470612 18.210284 45.151274 18.21385 45.950277 L 18.121906 52.824315 L 18.121431 52.914277 L 29.55328 51.715078 L 29.552806 51.80504 Z M 29.642538 51.710929 " stroke="#8e44ad" stroke-width="24.386774" stroke-opacity="1" stroke-miterlimit="4"/><path stroke-linecap="butt" transform="matrix(0.80783, 0.212091, -0.212091, 0.80783, 275.603072, 128.9888)" fill="none" stroke-linejoin="miter" d="M 27.488141 45.953496 C 27.488056 45.271715 27.214229 44.560258 26.67237 43.822462 C 26.114565 43.079181 25.273025 42.710193 24.15561 42.708599 C 23.913986 42.709175 23.665918 42.740455 23.405694 42.799105 C 23.102381 42.859396 22.792623 42.950392 22.47642 43.072093 C 21.675677 43.374197 21.121483 43.804991 20.81836 44.363287 C 20.443819 44.925827 20.192046 45.606035 20.073275 46.40606 C 19.950888 47.284402 19.920563 48.273966 19.9823 49.374754 C 19.981894 50.496693 19.980248 51.705997 19.983072 53.006001 C 19.982771 53.944163 20.101152 54.652912 20.345114 55.140107 C 20.525237 55.697252 20.775417 56.134459 21.091129 56.452916 C 21.393043 56.755654 21.735496 56.936532 22.113965 56.996738 C 22.417172 57.120223 22.693517 57.178229 22.954423 57.177426 C 23.196046 57.176851 23.347702 57.146705 23.404868 57.088177 L 23.588644 57.088283 L 29.826797 57.089722 C 32.244216 57.088492 34.446141 57.187358 36.426859 57.382984 C 38.404015 57.565038 40.138708 57.965486 41.617368 58.587889 C 43.037674 59.264296 44.154282 60.257376 44.954581 61.555933 C 45.709137 62.919691 46.08683 64.745052 46.086699 67.046777 C 46.085849 69.769378 45.279755 71.929713 43.659368 73.530159 C 41.99612 75.151528 39.985773 76.390149 37.624993 77.251732 C 35.267775 78.126886 32.788856 78.685837 30.188236 78.928585 C 27.525246 79.173202 25.177271 79.291594 23.131928 79.291848 C 20.714509 79.293078 18.574781 79.081173 16.717267 78.654946 C 14.853536 78.278706 13.24437 77.748592 11.886435 77.070316 C 10.464941 76.389385 9.290835 75.619327 8.368639 74.758953 C 7.370956 73.942576 6.532561 73.069872 5.85012 72.146553 C 4.309427 70.109133 3.377614 67.75712 3.060392 65.093849 L 20.819252 66.026022 C 20.819912 66.949427 20.820625 67.780943 20.82139 68.520571 C 20.745026 69.261107 20.775362 69.910768 20.912397 70.469555 C 21.03015 71.028569 21.30487 71.43032 21.726321 71.672661 C 22.104403 71.98925 22.726817 72.149816 23.586663 72.146501 L 24.336526 72.147884 C 25.513763 72.027391 26.415335 71.90674 27.03672 71.787119 C 27.653353 71.649403 28.115607 71.310444 28.417769 70.766907 C 28.676616 70.205729 28.803299 69.306917 28.80568 68.063573 C 28.806593 66.88831 28.744945 65.216912 28.621924 63.0539 L 23.588551 63.055295 C 22.045736 63.054171 20.686244 63.014588 19.50555 62.937733 C 18.325764 62.938008 17.213379 62.881903 16.170543 62.759184 C 15.052447 62.699743 13.932482 62.577931 12.81636 62.397085 C 11.63668 62.213584 10.333725 61.965737 8.915356 61.646647 C 6.374473 61.085528 4.580032 59.849722 3.538706 57.927806 C 2.42025 56.006798 1.861405 53.344103 1.858833 49.945433 C 1.860042 49.084399 1.918749 48.000344 2.041854 46.701127 C 2.103269 45.461625 2.353037 44.129153 2.787821 42.709422 C 3.22877 41.331592 3.906592 39.935092 4.829146 38.513023 C 5.753569 37.153325 7.086658 35.913601 8.82389 34.79504 C 10.560161 33.691237 12.762893 32.798617 15.42185 32.11503 C 18.081996 31.435967 21.333744 31.094801 25.17376 31.097244 C 28.093708 31.094636 30.634976 31.399373 32.79519 32.002409 C 34.897504 32.698014 36.687632 33.567456 38.171286 34.61407 C 39.668231 35.729728 40.87849 36.969007 41.802063 38.331909 C 42.677518 39.750964 43.389666 41.17421 43.93161 42.593787 C 45.109671 46.012653 45.519056 49.855762 45.158578 54.118591 L 27.691988 54.115465 Z M 27.488141 45.953496 " stroke="#8e44ad" stroke-width="24.386774" stroke-opacity="1" stroke-miterlimit="4"/><path stroke-linecap="butt" transform="matrix(0.783728, 0.288692, -0.288692, 0.783728, 317.975784, 140.489698)" fill="none" stroke-linejoin="miter" d="M 0.931796 33.228473 L 9.662371 33.047879 L 9.297977 15.104443 L 27.48982 12.884142 L 26.556488 32.297458 L 38.921327 31.550708 L 38.17079 49.376512 L 26.764321 49.491125 L 26.764325 78.000699 L 9.095083 77.99993 L 9.936517 49.853273 L 1.384468 50.396746 Z M 0.931796 33.228473 " stroke="#8e44ad" stroke-width="24.386774" stroke-opacity="1" stroke-miterlimit="4"/><path stroke-linecap="butt" transform="matrix(0.762106, 0.341712, -0.341712, 0.762106, 352.076787, 153.438038)" fill="none" stroke-linejoin="miter" d="M 2.791611 13.904 L 19.689468 12.975264 L 17.825647 59.608214 L 4.648278 60.626844 Z M 3.537108 71.78632 C 3.535959 68.685846 4.219507 66.575146 5.579217 65.458047 C 6.880502 64.33639 9.110594 63.777266 12.269493 63.780674 C 14.2521 63.778444 15.791908 64.000384 16.895536 64.438399 C 17.954726 64.937345 18.734607 65.556402 19.235179 66.295569 C 19.731483 67.03665 20.043839 67.870461 20.164152 68.79038 C 20.283583 69.731196 20.345031 70.657006 20.343785 71.580173 C 20.342993 72.641527 20.285098 73.666979 20.163478 74.664621 C 19.979606 75.649172 19.612503 76.510855 19.05172 77.24923 C 18.494475 78.052652 17.654068 78.670376 16.534327 79.110937 C 15.353517 79.609634 13.743552 79.859952 11.702519 79.857626 C 9.904162 79.859251 8.480613 79.610812 7.440407 79.108479 C 6.322062 78.671936 5.481402 78.054504 4.920781 77.25 C 4.363698 76.510543 3.991885 75.64701 3.809169 74.667937 C 3.628959 73.728745 3.537487 72.770266 3.537108 71.78632 Z M 3.537108 71.78632 " stroke="#8e44ad" stroke-width="24.386774" stroke-opacity="1" stroke-miterlimit="4"/><g fill="#f7c548" fill-opacity="1"><g transform="translate(48.237652, 212.636443)"><g><path d="M -12.078125 -35.40625 L -5.28125 -38.0625 L -10.6875 -52.015625 L 2.953125 -58.96875 L 7.78125 -43.453125 L 17.265625 -47.578125 L 21.78125 -33.390625 L 12.84375 -30.046875 L 21 -7.65625 L 7.15625 -2.609375 L -0.25 -24.9375 L -6.796875 -22.046875 Z M -12.078125 -35.40625 "/></g></g></g><g fill="#f7c548" fill-opacity="1"><g transform="translate(77.700543, 201.568032)"><g><path d="M 2.609375 -56.703125 L 8.28125 -30.296875 C 8.363281 -31.910156 8.613281 -33.550781 9.03125 -35.21875 C 9.488281 -36.820312 10.070312 -38.328125 10.78125 -39.734375 C 11.476562 -41.140625 12.34375 -42.347656 13.375 -43.359375 C 14.394531 -44.367188 15.554688 -45.039062 16.859375 -45.375 C 20.460938 -46.289062 23.367188 -46.304688 25.578125 -45.421875 C 27.734375 -44.484375 29.554688 -42.578125 31.046875 -39.703125 C 32.472656 -36.804688 33.757812 -32.890625 34.90625 -27.953125 C 36.007812 -22.992188 37.3125 -16.945312 38.8125 -9.8125 L 23.84375 -6 C 23.738281 -7.082031 23.566406 -8.503906 23.328125 -10.265625 C 23.046875 -12.003906 22.722656 -13.898438 22.359375 -15.953125 C 21.960938 -17.921875 21.53125 -19.941406 21.0625 -22.015625 C 20.601562 -24.046875 20.113281 -25.867188 19.59375 -27.484375 C 19.007812 -29.097656 18.40625 -30.390625 17.78125 -31.359375 C 17.1875 -32.265625 16.539062 -32.628906 15.84375 -32.453125 C 14.082031 -32.003906 12.644531 -31.132812 11.53125 -29.84375 C 10.394531 -28.476562 9.648438 -27.113281 9.296875 -25.75 L 14.0625 -3.578125 L 1.71875 -0.4375 L -0.109375 -7.578125 C -0.765625 -10.179688 -1.453125 -12.890625 -2.171875 -15.703125 C -2.929688 -18.492188 -3.679688 -21.34375 -4.421875 -24.25 L -6.546875 -32.59375 C -8.222656 -38.957031 -9.9375 -45.460938 -11.6875 -52.109375 Z M 2.609375 -56.703125 "/></g></g></g><g fill="#f7c548" fill-opacity="1"><g transform="translate(116.65975, 191.581343)"><g><path d="M 36.046875 -21.640625 C 36.328125 -19.316406 36.40625 -17.078125 36.28125 -14.921875 C 36.125 -12.703125 35.523438 -10.6875 34.484375 -8.875 C 33.378906 -7.039062 31.691406 -5.46875 29.421875 -4.15625 C 27.117188 -2.789062 23.914062 -1.816406 19.8125 -1.234375 C 15.757812 -0.660156 12.476562 -0.796875 9.96875 -1.640625 C 7.382812 -2.484375 5.34375 -3.765625 3.84375 -5.484375 C 2.300781 -7.148438 1.1875 -9.160156 0.5 -11.515625 C -0.195312 -13.816406 -0.71875 -16.171875 -1.0625 -18.578125 C -1.40625 -20.984375 -1.640625 -23.410156 -1.765625 -25.859375 C -1.890625 -28.222656 -1.535156 -30.492188 -0.703125 -32.671875 C 0.148438 -34.765625 1.71875 -36.625 4 -38.25 C 6.21875 -39.875 9.546875 -41.101562 13.984375 -41.9375 L 15.296875 -42.125 C 19.234375 -42.6875 22.453125 -42.460938 24.953125 -41.453125 C 27.390625 -40.390625 29.363281 -38.921875 30.875 -37.046875 C 32.351562 -35.160156 33.4375 -33.066406 34.125 -30.765625 C 34.832031 -28.398438 35.359375 -26.175781 35.703125 -24.09375 L 12.625 -18.703125 C 12.863281 -16.960938 13.097656 -15.484375 13.328125 -14.265625 C 13.566406 -12.992188 13.898438 -11.96875 14.328125 -11.1875 C 14.703125 -10.414062 15.242188 -9.894531 15.953125 -9.625 C 16.628906 -9.300781 17.578125 -9.226562 18.796875 -9.40625 C 20.023438 -9.570312 20.953125 -9.878906 21.578125 -10.328125 C 22.203125 -10.734375 22.613281 -11.3125 22.8125 -12.0625 C 23.019531 -12.789062 23.082031 -13.664062 23 -14.6875 C 22.90625 -15.71875 22.757812 -16.925781 22.5625 -18.3125 Z M 21.421875 -25.203125 L 21.34375 -25.1875 L 19.9375 -30.796875 C 19.6875 -31.535156 19.1875 -32.140625 18.4375 -32.609375 C 17.675781 -33.085938 16.835938 -33.265625 15.921875 -33.140625 C 15.359375 -33.054688 14.78125 -32.894531 14.1875 -32.65625 C 13.59375 -32.40625 13.09375 -32.09375 12.6875 -31.71875 C 12.21875 -31.34375 11.859375 -30.90625 11.609375 -30.40625 C 11.304688 -29.894531 11.203125 -29.300781 11.296875 -28.625 L 12.03125 -22.9375 L 12.03125 -22.859375 L 21.34375 -25.1875 L 21.359375 -25.109375 Z M 21.421875 -25.203125 "/></g></g></g><g fill="#f7c548" fill-opacity="1"><g transform="translate(154.929146, 186.393186)"><g/></g></g><g fill="#f7c548" fill-opacity="1"><g transform="translate(180.350209, 184.648914)"><g><path d="M 3.765625 -53.359375 L 19.078125 -53.640625 L 16.578125 -29.125 C 17.097656 -30.34375 17.671875 -31.535156 18.296875 -32.703125 C 18.898438 -33.878906 19.640625 -34.914062 20.515625 -35.8125 C 21.367188 -36.644531 22.378906 -37.328125 23.546875 -37.859375 C 24.710938 -38.378906 26.070312 -38.609375 27.625 -38.546875 C 31.382812 -38.390625 34.273438 -37.695312 36.296875 -36.46875 C 38.316406 -35.25 39.785156 -33.710938 40.703125 -31.859375 C 41.554688 -30.015625 42.039062 -27.945312 42.15625 -25.65625 C 42.207031 -23.34375 42.1875 -21.019531 42.09375 -18.6875 C 41.988281 -16.15625 41.78125 -13.675781 41.46875 -11.25 C 41.101562 -8.78125 40.394531 -6.632812 39.34375 -4.8125 C 38.226562 -2.945312 36.640625 -1.488281 34.578125 -0.4375 C 32.453125 0.664062 29.585938 1.144531 25.984375 1 C 23.335938 0.882812 21.175781 0.4375 19.5 -0.34375 C 17.78125 -1.144531 16.375 -2.242188 15.28125 -3.640625 L 15.03125 0.546875 L 1.78125 0 Z M 21.453125 -26.671875 C 20.148438 -26.515625 19.128906 -26.300781 18.390625 -26.03125 C 17.648438 -25.707031 17.113281 -25.210938 16.78125 -24.546875 C 16.4375 -23.890625 16.21875 -23.046875 16.125 -22.015625 C 16.03125 -20.984375 15.945312 -19.640625 15.875 -17.984375 C 15.8125 -16.378906 15.78125 -14.984375 15.78125 -13.796875 C 15.78125 -12.597656 15.921875 -11.601562 16.203125 -10.8125 C 16.484375 -9.976562 16.976562 -9.363281 17.6875 -8.96875 C 18.394531 -8.519531 19.394531 -8.269531 20.6875 -8.21875 C 22.082031 -8.164062 23.179688 -8.332031 23.984375 -8.71875 C 24.710938 -9.050781 25.273438 -9.617188 25.671875 -10.421875 C 26.015625 -11.179688 26.238281 -12.160156 26.34375 -13.359375 C 26.394531 -14.546875 26.453125 -15.941406 26.515625 -17.546875 C 26.578125 -18.992188 26.660156 -20.285156 26.765625 -21.421875 C 26.804688 -22.554688 26.738281 -23.515625 26.5625 -24.296875 C 26.382812 -25.078125 26.070312 -25.679688 25.625 -26.109375 C 25.1875 -26.546875 24.445312 -26.785156 23.40625 -26.828125 C 22.894531 -26.847656 22.242188 -26.796875 21.453125 -26.671875 Z M 21.453125 -26.671875 "/></g></g></g><g fill="#f7c548" fill-opacity="1"><g transform="translate(221.141047, 186.297922)"><g><path d="M 40.75 -10.34375 C 40.34375 -8.050781 39.773438 -5.890625 39.046875 -3.859375 C 38.265625 -1.773438 37.101562 -0.015625 35.5625 1.421875 C 33.988281 2.859375 31.925781 3.878906 29.375 4.484375 C 26.769531 5.128906 23.421875 5.140625 19.328125 4.515625 C 15.285156 3.898438 12.179688 2.820312 10.015625 1.28125 C 7.773438 -0.257812 6.191406 -2.066406 5.265625 -4.140625 C 4.265625 -6.179688 3.765625 -8.429688 3.765625 -10.890625 C 3.773438 -13.285156 3.960938 -15.6875 4.328125 -18.09375 C 4.691406 -20.5 5.160156 -22.890625 5.734375 -25.265625 C 6.296875 -27.578125 7.289062 -29.648438 8.71875 -31.484375 C 10.144531 -33.242188 12.179688 -34.582031 14.828125 -35.5 C 17.429688 -36.40625 20.972656 -36.625 25.453125 -36.15625 L 26.765625 -35.953125 C 30.691406 -35.359375 33.707031 -34.222656 35.8125 -32.546875 C 37.84375 -30.804688 39.316406 -28.820312 40.234375 -26.59375 C 41.109375 -24.375 41.539062 -22.054688 41.53125 -19.640625 C 41.53125 -17.179688 41.394531 -14.898438 41.125 -12.796875 L 17.484375 -14.296875 C 17.210938 -12.554688 17.007812 -11.066406 16.875 -9.828125 C 16.726562 -8.535156 16.75 -7.457031 16.9375 -6.59375 C 17.070312 -5.738281 17.4375 -5.085938 18.03125 -4.640625 C 18.59375 -4.128906 19.484375 -3.78125 20.703125 -3.59375 C 21.929688 -3.40625 22.910156 -3.441406 23.640625 -3.703125 C 24.359375 -3.898438 24.921875 -4.335938 25.328125 -5.015625 C 25.734375 -5.628906 26.039062 -6.441406 26.25 -7.453125 C 26.457031 -8.472656 26.664062 -9.671875 26.875 -11.046875 Z M 27.78125 -17.96875 L 27.703125 -17.984375 L 27.9375 -23.765625 C 27.914062 -24.546875 27.613281 -25.269531 27.03125 -25.9375 C 26.445312 -26.613281 25.695312 -27.019531 24.78125 -27.15625 C 24.21875 -27.238281 23.617188 -27.25 22.984375 -27.1875 C 22.335938 -27.125 21.769531 -26.972656 21.28125 -26.734375 C 20.707031 -26.515625 20.234375 -26.195312 19.859375 -25.78125 C 19.429688 -25.375 19.164062 -24.832031 19.0625 -24.15625 L 18.125 -18.515625 L 18.109375 -18.4375 L 27.703125 -17.984375 L 27.6875 -17.90625 Z M 27.78125 -17.96875 "/></g></g></g><g fill="#f7c548" fill-opacity="1"><g transform="translate(259.059977, 191.999552)"><g><path d="M 29.015625 -20.0625 C 29.160156 -20.613281 29.082031 -21.242188 28.78125 -21.953125 C 28.5 -22.671875 27.90625 -23.148438 27 -23.390625 C 26.789062 -23.441406 26.582031 -23.46875 26.375 -23.46875 C 26.125 -23.476562 25.859375 -23.472656 25.578125 -23.453125 C 24.859375 -23.367188 24.316406 -23.140625 23.953125 -22.765625 C 23.523438 -22.390625 23.179688 -21.890625 22.921875 -21.265625 C 22.628906 -20.585938 22.394531 -19.796875 22.21875 -18.890625 C 21.976562 -17.984375 21.71875 -17.003906 21.4375 -15.953125 C 21.238281 -15.203125 21.1875 -14.601562 21.28125 -14.15625 C 21.3125 -13.65625 21.421875 -13.25 21.609375 -12.9375 C 21.785156 -12.613281 22.019531 -12.390625 22.3125 -12.265625 C 22.53125 -12.097656 22.742188 -11.988281 22.953125 -11.9375 C 23.140625 -11.894531 23.269531 -11.882812 23.34375 -11.90625 L 23.5 -11.875 L 28.53125 -10.546875 C 30.476562 -10.035156 32.234375 -9.5 33.796875 -8.9375 C 35.359375 -8.363281 36.675781 -7.671875 37.75 -6.859375 C 38.75 -6.003906 39.4375 -4.96875 39.8125 -3.75 C 40.125 -2.5 40.035156 -0.945312 39.546875 0.90625 C 38.960938 3.113281 37.847656 4.703125 36.203125 5.671875 C 34.523438 6.617188 32.640625 7.1875 30.546875 7.375 C 28.460938 7.582031 26.34375 7.507812 24.1875 7.15625 C 21.976562 6.800781 20.050781 6.40625 18.40625 5.96875 C 16.457031 5.457031 14.78125 4.828125 13.375 4.078125 C 11.957031 3.378906 10.769531 2.613281 9.8125 1.78125 C 8.789062 0.914062 8 0.0390625 7.4375 -0.84375 C 6.800781 -1.707031 6.3125 -2.59375 5.96875 -3.5 C 5.15625 -5.46875 4.90625 -7.554688 5.21875 -9.765625 L 19.359375 -5.28125 C 19.160156 -4.519531 18.984375 -3.84375 18.828125 -3.25 C 18.617188 -2.65625 18.5 -2.117188 18.46875 -1.640625 C 18.457031 -1.171875 18.601562 -0.789062 18.90625 -0.5 C 19.132812 -0.164062 19.597656 0.0859375 20.296875 0.265625 L 20.890625 0.421875 C 21.867188 0.578125 22.628906 0.671875 23.171875 0.703125 C 23.691406 0.734375 24.132812 0.5625 24.5 0.1875 C 24.820312 -0.21875 25.113281 -0.921875 25.375 -1.921875 C 25.625 -2.867188 25.929688 -4.234375 26.296875 -6.015625 L 22.234375 -7.09375 C 20.984375 -7.414062 19.890625 -7.722656 18.953125 -8.015625 C 18.003906 -8.265625 17.117188 -8.550781 16.296875 -8.875 C 15.410156 -9.15625 14.535156 -9.492188 13.671875 -9.890625 C 12.765625 -10.285156 11.765625 -10.757812 10.671875 -11.3125 C 8.734375 -12.3125 7.546875 -13.695312 7.109375 -15.46875 C 6.617188 -17.257812 6.734375 -19.53125 7.453125 -22.28125 C 7.628906 -22.976562 7.90625 -23.835938 8.28125 -24.859375 C 8.59375 -25.847656 9.078125 -26.867188 9.734375 -27.921875 C 10.378906 -28.929688 11.226562 -29.914062 12.28125 -30.875 C 13.320312 -31.769531 14.660156 -32.484375 16.296875 -33.015625 C 17.929688 -33.554688 19.894531 -33.820312 22.1875 -33.8125 C 24.488281 -33.789062 27.191406 -33.375 30.296875 -32.5625 C 32.640625 -31.945312 34.625 -31.15625 36.25 -30.1875 C 37.800781 -29.195312 39.066406 -28.117188 40.046875 -26.953125 C 41.003906 -25.734375 41.71875 -24.46875 42.1875 -23.15625 C 42.570312 -21.832031 42.84375 -20.539062 43 -19.28125 C 43.226562 -16.28125 42.738281 -13.085938 41.53125 -9.703125 L 27.421875 -13.40625 Z M 29.015625 -20.0625 "/></g></g></g><g fill="#f7c548" fill-opacity="1"><g transform="translate(295.457847, 201.620475)"><g><path d="M 13.65625 -34.828125 L 20.546875 -32.46875 L 25.4375 -46.609375 L 40.34375 -43.09375 L 34 -28.140625 L 43.921875 -25.171875 L 38.1875 -11.421875 L 29.203125 -14.640625 L 20.96875 7.71875 L 7.140625 2.625 L 15.90625 -19.1875 L 9.046875 -21.21875 Z M 13.65625 -34.828125 "/></g></g></g><g fill="#f7c548" fill-opacity="1"><g transform="translate(325.423248, 212.882276)"><g><path d="M 24.03125 -47.90625 L 37.234375 -42.828125 L 19.875 -7.921875 L 9.46875 -11.671875 Z M 4.8125 -3.546875 C 5.875 -5.898438 7.113281 -7.265625 8.53125 -7.640625 C 9.90625 -8.054688 11.800781 -7.722656 14.21875 -6.640625 C 15.71875 -5.960938 16.820312 -5.269531 17.53125 -4.5625 C 18.15625 -3.820312 18.53125 -3.082031 18.65625 -2.34375 C 18.789062 -1.601562 18.742188 -0.863281 18.515625 -0.125 C 18.296875 0.632812 18.023438 1.363281 17.703125 2.0625 C 17.347656 2.875 16.953125 3.632812 16.515625 4.34375 C 16.035156 5.039062 15.453125 5.570312 14.765625 5.9375 C 14.066406 6.363281 13.21875 6.554688 12.21875 6.515625 C 11.15625 6.472656 9.84375 6.101562 8.28125 5.40625 C 6.914062 4.789062 5.910156 4.117188 5.265625 3.390625 C 4.578125 2.679688 4.15625 1.925781 4 1.125 C 3.84375 0.375 3.859375 -0.414062 4.046875 -1.25 C 4.222656 -2.019531 4.476562 -2.785156 4.8125 -3.546875 Z M 4.8125 -3.546875 "/></g></g></g><path stroke-linecap="butt" transform="matrix(1.026019, -0.310797, 0.310797, 1.026019, 50.561744, 112.077943)" fill="none" stroke-linejoin="miter" d="M 13.994747 36.653819 C 14.70601 36.656069 15.314451 36.608136 15.827045 36.512134 C 16.316603 36.416768 16.724669 36.125393 17.047755 35.636954 C 17.369684 35.190042 17.594898 34.496825 17.719912 33.556245 C 17.813859 32.617677 17.815202 31.331253 17.721512 29.692431 L 13.416209 29.69035 C 12.384556 29.690036 11.480338 29.671217 10.700068 29.632835 C 9.926672 29.634608 9.217623 29.587343 8.569434 29.489984 C 7.891134 29.429189 7.279294 29.312383 6.727258 29.148971 C 6.153141 29.020748 5.541504 28.82786 4.893404 28.566818 C 3.30872 27.991614 2.194539 27.00689 1.547376 25.611589 C 0.870521 24.22633 0.531006 22.242734 0.531262 19.665343 C 0.530458 19.052142 0.516429 18.294069 0.483259 17.385524 C 0.453575 16.478035 0.516137 15.52996 0.672001 14.53781 C 0.807998 13.535835 1.082948 12.515037 1.50034 11.47647 C 1.918686 10.472458 2.581137 9.542389 3.487375 8.674744 C 4.517866 7.673415 5.874896 6.85095 7.552545 6.201749 C 9.23115 5.587102 11.524574 5.280523 14.432816 5.282013 C 15.978553 5.281955 17.350796 5.427317 18.549544 5.718099 C 19.707719 6.042278 20.738254 6.461044 21.646012 6.983485 C 22.55092 7.527905 23.326177 8.135847 23.973159 8.815341 C 24.580624 9.524743 25.096161 10.286251 25.520828 11.096376 C 26.198624 12.390547 26.649447 13.73018 26.868753 15.117706 C 27.066079 16.502382 27.163535 17.776854 27.166722 18.935206 C 27.13379 20.288204 27.00216 21.615113 26.775001 22.90547 L 17.234291 22.905104 L 17.236589 18.649361 C 17.235502 17.358394 17.08915 16.358457 16.797532 15.649549 C 16.475904 14.939165 15.749176 14.585777 14.622947 14.583465 C 14.363634 14.584867 14.088577 14.600535 13.79429 14.629414 C 13.504445 14.693903 13.181102 14.755859 12.826692 14.819827 C 12.020665 15.017303 11.457164 15.356774 11.13619 15.838239 C 10.783093 16.325203 10.572132 16.908522 10.507851 17.585766 C 10.41599 18.266077 10.399053 18.988121 10.461903 19.760982 C 10.526763 20.564911 10.555059 21.338727 10.555877 22.07757 C 10.555028 23.048147 10.831539 23.794357 11.382978 24.311658 C 11.897331 24.863411 12.620775 25.139661 13.560285 25.142521 C 14.299128 25.141703 15.009755 25.120917 15.687622 25.082592 C 16.33189 25.079777 16.978589 25.081505 17.625288 25.083233 C 19.07645 25.081178 20.400394 25.147187 21.597117 25.281262 C 22.786447 25.439746 23.81898 25.763938 24.695774 26.250348 C 25.56866 26.762226 26.248936 27.520335 26.72614 28.521505 C 27.176822 29.522256 27.401409 30.892346 27.402333 32.636319 C 27.402899 33.99185 27.162515 35.137336 26.680127 36.076262 C 26.160753 37.0116 25.498708 37.789505 24.696106 38.403002 C 23.85293 39.049896 22.913473 39.549602 21.880166 39.906663 C 20.847916 40.260237 19.815232 40.514693 18.784547 40.674575 C 17.721738 40.839955 16.702035 40.938441 15.73347 40.968659 C 14.732361 41.030899 13.892924 41.06216 13.215158 41.062443 C 11.570303 41.062933 10.151989 40.918844 8.961271 40.626687 C 7.732513 40.334429 6.683702 39.963427 5.814837 39.513683 C 4.94143 39.06637 4.227046 38.533975 3.675174 37.917556 C 3.10122 37.336328 2.651215 36.735537 2.33002 36.124272 C 1.517583 34.671293 1.158661 33.028272 1.254309 31.191722 L 11.087171 31.962073 C 11.087989 32.700915 11.11902 33.365152 11.182378 33.947808 C 11.214669 34.532475 11.327153 35.015797 11.525747 35.403373 C 11.715891 35.818846 12.006832 36.127794 12.400684 36.323241 C 12.756075 36.54511 13.255904 36.654637 13.902603 36.656365 Z M 13.994747 36.653819 " stroke="#8e44ad" stroke-width="12.71151" stroke-opacity="1" stroke-miterlimit="4"/><path stroke-linecap="butt" transform="matrix(1.044282, -0.242454, 0.242454, 1.044282, 80.675339, 103.059543)" fill="none" stroke-linejoin="miter" d="M 24.162236 29.784466 C 24.131898 31.23626 23.985576 32.623719 23.726818 33.947667 C 23.434151 35.304889 22.884164 36.497631 22.083131 37.531091 C 21.237859 38.561761 20.059401 39.384153 18.547757 39.998266 C 16.994282 40.647555 14.926166 40.967884 12.340938 40.9699 C 9.797224 40.970334 7.777551 40.598676 6.289017 39.856573 C 4.77754 39.116626 3.633422 38.147758 2.860214 36.950794 C 2.050372 35.782731 1.53462 34.443549 1.313782 32.929699 C 1.084705 31.451341 0.970093 29.947191 0.967475 28.427897 C 0.971131 26.913799 1.031323 25.397866 1.160346 23.875469 C 1.290953 22.394587 1.714184 21.022791 2.422118 19.761983 C 3.134107 18.532041 4.264211 17.515133 5.81598 16.712083 C 7.328706 15.899969 9.487143 15.432283 12.295665 15.3063 L 13.122908 15.303852 C 15.602988 15.303607 17.573159 15.727363 19.030697 16.570746 C 20.449698 17.435107 21.545326 18.516157 22.318404 19.810346 C 23.058715 21.100669 23.54436 22.48897 23.772614 23.970876 C 23.999726 25.489924 24.132467 26.91599 24.162661 28.235953 L 9.443764 29.539266 C 9.44557 30.643164 9.460437 31.578028 9.493817 32.352602 C 9.524153 33.156395 9.632514 33.817457 9.822451 34.336612 C 9.987542 34.849999 10.279272 35.22072 10.69764 35.448775 C 11.085648 35.710928 11.669379 35.838974 12.447185 35.840011 C 13.221442 35.840223 13.816968 35.724127 14.232941 35.495272 C 14.648596 35.300009 14.959551 34.975699 15.153508 34.526971 C 15.351521 34.109109 15.467206 33.578617 15.497837 32.931123 C 15.528469 32.283628 15.543955 31.52414 15.545122 30.649108 Z M 15.451507 26.29949 L 15.402895 26.299425 L 15.011116 22.718478 C 14.911813 22.227846 14.65019 21.808006 14.231446 21.452683 C 13.81625 21.098183 13.314788 20.921908 12.731434 20.92113 C 12.376123 20.92093 12.00655 20.966046 11.621066 21.063577 C 11.234759 21.164658 10.894275 21.310043 10.603163 21.500557 C 10.281184 21.695126 10.02195 21.941668 9.823561 22.232262 C 9.602228 22.525011 9.494154 22.87772 9.494142 23.296666 L 9.444031 26.879755 L 9.44479 26.924819 L 15.402895 26.299425 L 15.40283 26.348038 Z M 15.451507 26.29949 " stroke="#8e44ad" stroke-width="12.71151" stroke-opacity="1" stroke-miterlimit="4"/><path stroke-linecap="butt" transform="matrix(1.057321, -0.177147, 0.177147, 1.057321, 108.308126, 96.694594)" fill="none" stroke-linejoin="miter" d="M 0.970813 27.990139 C 0.970932 26.445867 1.033328 24.926807 1.157398 23.436553 C 1.292814 21.988839 1.71504 20.68154 2.424076 19.514656 C 3.131908 18.35496 4.243315 17.388492 5.757693 16.618846 C 7.276248 15.868372 9.425903 15.430526 12.19947 15.304103 L 13.074635 15.306647 C 15.494674 15.305716 17.428577 15.692536 18.876947 16.463511 C 20.303718 17.275202 21.388286 18.277088 22.131254 19.465577 C 22.871193 20.694198 23.355853 22.035217 23.582244 23.484438 C 23.805606 24.97379 23.93258 26.398966 23.975152 27.754583 L 15.403292 28.331912 C 15.404988 27.748469 15.384501 27.187171 15.343036 26.64083 C 15.280009 26.090876 15.172015 25.588806 15.014256 25.141204 C 14.817569 24.683385 14.569894 24.309386 14.27902 24.016816 C 13.955164 23.766749 13.522182 23.638788 12.978871 23.640122 C 12.720094 23.641099 12.507431 23.653497 12.343273 23.685105 C 11.601579 23.812063 11.035952 23.990688 10.650589 24.217986 C 10.232883 24.439866 9.942684 24.760693 9.775194 25.187052 C 9.585521 25.635555 9.476017 26.200936 9.443691 26.878998 C 9.414958 27.557663 9.398642 28.426826 9.397734 29.490683 C 9.398652 30.521596 9.412853 31.429123 9.444534 32.210271 C 9.47802 32.980638 9.588291 33.62348 9.775946 34.135203 C 9.943225 34.658289 10.232819 35.046701 10.651313 35.305235 C 11.037465 35.558351 11.599835 35.685823 12.34262 35.684659 C 13.088998 35.684098 13.672536 35.574975 14.090242 35.353096 C 14.509152 35.124029 14.816736 34.787642 15.014198 34.336749 C 15.201481 33.880456 15.313996 33.297107 15.343952 32.589092 C 15.384067 31.90864 15.401512 31.120945 15.404075 30.223616 L 23.973753 29.394696 C 23.935948 30.877237 23.787362 32.315355 23.535183 33.710256 C 23.245845 35.128487 22.694287 36.369784 21.88051 37.434146 C 21.046337 38.532035 19.866126 39.402003 18.346461 40.048845 C 16.834586 40.693298 14.80004 41.017429 12.247019 41.018246 C 9.731138 41.017896 7.730743 40.63102 6.242242 39.857016 C 4.729751 39.115936 3.585879 38.115197 2.814219 36.8554 C 2.033546 35.627344 1.534549 34.239589 1.313032 32.695129 C 1.081938 31.141674 0.967664 29.574542 0.970813 27.990139 Z M 0.970813 27.990139 " stroke="#8e44ad" stroke-width="12.71151" stroke-opacity="1" stroke-miterlimit="4"/><path stroke-linecap="butt" transform="matrix(1.06628, -0.111157, 0.111157, 1.06628, 135.974321, 92.098794)" fill="none" stroke-linejoin="miter" d="M 0.969664 28.425711 C 0.96986 26.912732 1.032799 25.395303 1.158102 23.877049 C 1.290877 22.392545 1.715759 21.022751 2.422254 19.762911 C 3.132974 18.532818 4.264826 17.515145 5.817432 16.713516 C 7.330929 15.900484 9.489787 15.433149 12.294761 15.304265 L 13.30958 15.303818 C 15.991099 15.304938 18.059285 15.707376 19.517763 16.51151 C 20.968461 17.355131 22.045938 18.405295 22.757064 19.666382 C 23.435419 20.960686 23.838864 22.361879 23.974268 23.874341 C 24.097892 25.429535 24.163082 26.912696 24.161459 28.33394 C 24.161332 29.916532 24.063888 31.44868 23.865503 32.930008 C 23.678213 34.445464 23.192855 35.797963 22.411921 36.998755 C 21.642236 38.197057 20.462446 39.147454 18.879043 39.85795 C 17.303489 40.598571 15.121837 40.96828 12.341336 40.967831 C 9.79504 40.969818 7.77857 40.598415 6.287923 39.856869 C 4.775154 39.11668 3.63425 38.147827 2.861585 36.94993 C 2.048902 35.784496 1.532804 34.444828 1.31329 32.930926 C 1.083128 31.448884 0.968334 29.949562 0.969664 28.425711 Z M 12.449502 23.343323 C 11.666917 23.470556 11.086145 23.629819 10.699183 23.827602 C 10.27945 24.058604 9.989498 24.380067 9.824946 24.798862 C 9.635026 25.215012 9.524373 25.749329 9.493744 26.394565 C 9.45949 27.039422 9.445078 27.88051 9.444014 28.909825 C 9.445595 29.913771 9.461154 30.783628 9.493938 31.523396 C 9.522721 32.266411 9.634716 32.87889 9.821922 33.367325 C 9.988362 33.87924 10.279392 34.250279 10.698634 34.480819 C 11.085484 34.740953 11.669027 34.871392 12.449639 34.868509 C 13.251996 34.867894 13.862362 34.741024 14.281493 34.480652 C 14.704849 34.250028 15.014587 33.87934 15.203457 33.36783 C 15.400933 32.879199 15.51265 32.264398 15.545854 31.524181 C 15.546064 30.784189 15.545379 29.91222 15.54342 28.911897 C 15.546513 28.003687 15.560771 27.199218 15.590953 26.487994 C 15.591765 25.777372 15.543869 25.182565 15.450889 24.703953 C 15.34817 24.213334 15.152499 23.841246 14.861008 23.580062 C 14.576009 23.326882 14.142186 23.201062 13.55954 23.202601 C 13.266593 23.20137 12.895121 23.250567 12.449502 23.343323 Z M 12.449502 23.343323 " stroke="#8e44ad" stroke-width="12.71151" stroke-opacity="1" stroke-miterlimit="4"/><path stroke-linecap="butt" transform="matrix(1.071208, -0.0426988, 0.0426988, 1.071208, 164.241059, 89.178628)" fill="none" stroke-linejoin="miter" d="M 10.307785 15.789508 L 9.978889 22.668443 C 10.299443 21.762281 10.717137 20.889164 11.228476 20.045305 C 11.717535 19.211499 12.28743 18.453846 12.930734 17.775697 C 13.539964 17.12901 14.216932 16.612653 14.965277 16.226772 C 15.673427 15.842935 16.414226 15.646375 17.187236 15.648015 C 19.513695 15.649584 21.273558 16.051572 22.470467 16.854124 C 23.629226 17.698915 24.435195 19.069337 24.884586 20.968888 C 25.308201 22.874704 25.485638 25.37604 25.416895 28.472897 C 25.32136 31.601505 25.179032 35.446625 24.9902 40.000975 L 15.345047 39.999407 C 15.445001 39.32148 15.560509 38.436318 15.688075 37.340134 C 15.781567 36.275411 15.878252 35.130591 15.982061 33.898537 C 16.045531 32.672168 16.091377 31.43051 16.123096 30.177349 C 16.155105 28.916907 16.138925 27.767588 16.077907 26.736819 C 15.982962 25.73387 15.822507 24.91064 15.592903 24.266982 C 15.363443 23.619683 15.026262 23.296283 14.574077 23.296492 C 13.542135 23.295471 12.605616 23.553514 11.761172 24.063195 C 10.896783 24.615841 10.232795 25.263992 9.776635 26.004299 L 9.054654 40.000284 L 1.112366 40.000954 C 1.112275 37.258719 1.109995 34.479931 1.112806 31.66488 C 1.081109 28.892212 1.064594 26.379057 1.06326 24.125415 C 1.031576 21.443912 0.999614 18.860856 0.967664 16.368966 Z M 10.307785 15.789508 " stroke="#8e44ad" stroke-width="12.71151" stroke-opacity="1" stroke-miterlimit="4"/><path stroke-linecap="butt" transform="matrix(1.071699, 0.0277767, -0.0277767, 1.071699, 193.987492, 88.040913)" fill="none" stroke-linejoin="miter" d="M -0.000821922 27.222163 C -0.000216874 25.698573 0.129385 24.229958 0.391532 22.812581 C 0.649942 21.391657 1.134885 20.132527 1.84253 19.028002 C 2.554101 17.934309 3.555732 17.062728 4.847518 16.416901 C 6.099236 15.772113 7.760217 15.448405 9.823176 15.445965 C 10.759951 15.4472 11.538912 15.547292 12.15268 15.74279 C 12.766258 15.931002 13.282812 16.172758 13.702247 16.464415 C 14.118795 16.785305 14.47427 17.140584 14.764936 17.526701 C 15.023858 17.953735 15.268493 18.392074 15.498748 18.838075 L 15.830496 18.840412 L 15.592046 6.687157 L 25.319866 6.106985 L 25.321316 28.523172 C 25.321883 30.232623 25.336509 31.781332 25.368741 33.165565 C 25.368474 34.561574 25.385342 35.774893 25.415796 36.80926 C 25.446573 37.996704 25.481519 39.063758 25.520351 39.999495 L 17.140748 40.001631 L 17.673143 34.385598 C 17.443362 35.645404 17.057442 36.646824 16.515288 37.386213 C 15.930275 38.159518 15.300192 38.740811 14.6213 39.126543 C 13.946052 39.512181 13.267121 39.755762 12.588151 39.857193 C 11.880702 39.984876 11.280922 40.047806 10.792454 40.045886 L 10.118219 40.048782 C 10.026214 40.014717 9.945607 39.998582 9.883685 40.000187 C 8.134168 40.001792 6.678762 39.678668 5.52111 39.030718 C 4.35338 38.415834 3.417973 37.623617 2.707605 36.654257 C 1.965493 35.725814 1.403333 34.708873 1.017483 33.60353 C 0.338528 31.736706 -0.000907335 29.609584 -0.000821922 27.222163 Z M 9.291806 28.133106 C 9.290422 29.204746 9.310665 30.126385 9.348891 30.898116 C 9.383475 31.669942 9.509554 32.315469 9.727127 32.834697 C 9.926298 33.347113 10.249841 33.736023 10.697566 33.994142 C 11.156312 34.255621 11.801163 34.384704 12.635854 34.38494 C 13.543395 34.383287 14.236274 34.255981 14.717945 33.995643 C 15.206901 33.735116 15.56133 33.346859 15.781325 32.834514 C 15.979277 32.31545 16.09379 31.670977 16.12477 30.897452 C 16.155751 30.123927 16.172027 29.204987 16.169674 28.129798 L 16.171648 25.815226 C 16.173056 25.166395 16.12247 24.620969 16.030629 24.17138 C 15.928428 23.743929 15.74883 23.424186 15.498837 23.201036 C 15.205795 23.004516 14.769509 22.906476 14.186336 22.907012 C 13.799952 22.906091 13.283571 22.952279 12.637289 23.049218 C 11.802448 23.183848 11.15375 23.328233 10.698575 23.485827 C 10.247232 23.650612 9.925546 23.895869 9.729782 24.21805 C 9.509369 24.573675 9.382945 25.039856 9.350415 25.61295 C 9.311733 26.229944 9.293379 27.06875 9.291806 28.133106 Z M 9.291806 28.133106 " stroke="#8e44ad" stroke-width="12.71151" stroke-opacity="1" stroke-miterlimit="4"/><path stroke-linecap="butt" transform="matrix(1.069479, 0.0743183, -0.0743183, 1.069479, 223.190747, 89.022445)" fill="none" stroke-linejoin="miter" d="M 0.969253 15.883946 L 3.143505 11.536159 C 2.402726 11.335615 1.903059 11.030657 1.644001 10.614014 C 1.351217 10.185105 1.204083 9.749727 1.205729 9.300357 C 1.206944 8.266622 1.451458 7.475305 1.93902 6.922772 C 2.389375 6.413003 3.306529 6.155688 4.694368 6.154211 C 5.826752 6.155876 6.605549 6.43048 7.020109 6.982417 C 7.440071 7.559545 7.646836 8.16975 7.647926 8.816163 C 7.647445 9.334848 7.632972 9.704754 7.600874 9.926134 C 7.536566 10.157056 7.425158 10.446039 7.259886 10.800856 L 6.442604 12.442825 C 6.056427 13.192851 5.526182 14.340051 4.848236 15.884678 Z M 0.969253 15.883946 " stroke="#8e44ad" stroke-width="12.71151" stroke-opacity="1" stroke-miterlimit="4"/><path stroke-linecap="butt" transform="matrix(1.065526, 0.118169, -0.118169, 1.065526, 233.335916, 89.56851)" fill="none" stroke-linejoin="miter" d="M 14.326092 23.297913 C 14.32697 22.94221 14.187019 22.572798 13.902215 22.186456 C 13.610168 21.800917 13.174432 21.607283 12.591386 21.605955 C 12.463028 21.605526 12.333056 21.623606 12.200667 21.652953 C 12.042928 21.68511 11.879553 21.732557 11.714163 21.794892 C 11.295254 21.95133 11.008714 22.177408 10.850519 22.469904 C 10.655306 22.759174 10.526069 23.114447 10.462407 23.532103 C 10.399541 23.989996 10.383339 24.505037 10.414203 25.080847 C 10.412875 25.663893 10.413147 26.29442 10.415019 26.972428 C 10.414113 27.46011 10.47721 27.830714 10.604309 28.084238 C 10.698808 28.374373 10.827119 28.605767 10.995682 28.770374 C 11.152576 28.928944 11.327994 29.023137 11.525556 29.052551 C 11.682872 29.115757 11.829332 29.147173 11.961312 29.1472 C 12.08967 29.147629 12.16854 29.13155 12.198322 29.102585 L 12.293284 29.099386 L 15.545305 29.101668 C 16.806359 29.101124 17.952322 29.15367 18.986413 29.255283 C 20.01608 29.350055 20.918974 29.557869 21.691875 29.882748 C 22.431374 30.236994 23.012704 30.751756 23.429025 31.43146 C 23.822807 32.139325 24.020178 33.0926 24.021137 34.291285 C 24.020843 35.710071 23.599321 36.834631 22.757372 37.672209 C 21.890073 38.512598 20.840133 39.160612 19.610373 39.608608 C 18.381817 40.067467 17.090524 40.357315 15.733678 40.485795 C 14.347056 40.610246 13.122204 40.672764 12.05912 40.673349 C 10.798066 40.673892 9.682294 40.563008 8.712205 40.344316 C 7.744526 40.147352 6.903612 39.870342 6.193488 39.516505 C 5.453989 39.162259 4.840849 38.757339 4.362111 38.308186 C 3.842326 37.885581 3.403425 37.43201 3.049431 36.950692 C 2.2457 35.885028 1.76149 34.659284 1.596801 33.273458 L 10.852208 33.757422 C 10.850499 34.237861 10.851214 34.67404 10.853549 35.058714 C 10.812024 35.444586 10.827646 35.783794 10.900416 36.076338 C 10.96192 36.366466 11.102307 36.574525 11.325199 36.700113 C 11.523537 36.86875 11.844215 36.950499 12.295281 36.9518 L 12.683577 36.949064 C 13.300033 36.88803 13.769622 36.824953 14.092343 36.759835 C 14.414662 36.691095 14.655321 36.514098 14.810698 36.229246 C 14.946762 35.935538 15.012446 35.47 15.013788 34.820964 C 15.011902 34.208946 14.9811 33.336181 14.918562 32.210313 L 12.293446 32.208161 C 11.4907 32.209202 10.780909 32.188936 10.168095 32.150584 C 9.552054 32.149249 8.973038 32.118146 8.427425 32.057677 C 7.844386 32.023354 7.262157 31.963279 6.679533 31.866588 C 6.064316 31.773511 5.386335 31.643403 4.645591 31.476263 C 3.323034 31.186679 2.38965 30.538657 1.842622 29.539841 C 1.262197 28.537396 0.96915 27.151142 0.970322 25.376654 C 0.968402 24.929611 1.001112 24.365081 1.06523 23.687087 C 1.096347 23.04208 1.224447 22.345992 1.453956 21.605664 C 1.682253 20.887465 2.037704 20.158832 2.516687 19.420164 C 2.998883 18.710468 3.693521 18.065197 4.600201 17.480729 C 5.504062 16.903905 6.651338 16.439396 8.038008 16.08398 C 9.425079 15.732186 11.12114 15.555088 13.122571 15.553087 C 14.643963 15.553 15.966548 15.710603 17.093947 16.025496 C 18.189951 16.387863 19.123777 16.841537 19.895426 17.386517 C 20.674713 17.96731 21.30752 18.615672 21.785801 19.325164 C 22.245567 20.066038 22.61359 20.806088 22.897515 21.548132 C 23.512786 23.327577 23.724023 25.331465 23.537665 27.55175 L 14.435061 27.553086 Z M 14.326092 23.297913 " stroke="#8e44ad" stroke-width="12.71151" stroke-opacity="1" stroke-miterlimit="4"/><g fill="#f7c548" fill-opacity="1"><g transform="translate(62.993606, 153.118702)"><g><path d="M 13.328125 -7.765625 C 14.054688 -7.984375 14.664062 -8.226562 15.15625 -8.5 C 15.625 -8.738281 15.945312 -9.160156 16.125 -9.765625 C 16.320312 -10.328125 16.34375 -11.113281 16.1875 -12.125 C 15.988281 -13.101562 15.585938 -14.429688 14.984375 -16.109375 L 10.546875 -14.765625 C 9.492188 -14.441406 8.5625 -14.171875 7.75 -13.953125 C 6.957031 -13.710938 6.21875 -13.539062 5.53125 -13.4375 C 4.8125 -13.300781 4.144531 -13.226562 3.53125 -13.21875 C 2.90625 -13.164062 2.222656 -13.171875 1.484375 -13.234375 C -0.328125 -13.347656 -1.785156 -14.019531 -2.890625 -15.25 C -4.003906 -16.457031 -4.960938 -18.382812 -5.765625 -21.03125 C -5.960938 -21.65625 -6.21875 -22.425781 -6.53125 -23.34375 C -6.84375 -24.257812 -7.066406 -25.257812 -7.203125 -26.34375 C -7.390625 -27.40625 -7.425781 -28.535156 -7.3125 -29.734375 C -7.195312 -30.890625 -6.8125 -32.050781 -6.15625 -33.21875 C -5.414062 -34.5625 -4.28125 -35.828125 -2.75 -37.015625 C -1.226562 -38.171875 1.019531 -39.203125 4 -40.109375 C 5.59375 -40.585938 7.046875 -40.863281 8.359375 -40.9375 C 9.660156 -40.96875 10.851562 -40.863281 11.9375 -40.625 C 13.039062 -40.320312 14.023438 -39.925781 14.890625 -39.4375 C 15.753906 -38.894531 16.523438 -38.28125 17.203125 -37.59375 C 18.296875 -36.476562 19.175781 -35.25 19.84375 -33.90625 C 20.46875 -32.53125 20.960938 -31.242188 21.328125 -30.046875 C 21.703125 -28.648438 21.976562 -27.257812 22.15625 -25.875 L 12.375 -22.90625 L 11.046875 -27.265625 C 10.648438 -28.585938 10.191406 -29.566406 9.671875 -30.203125 C 9.117188 -30.835938 8.257812 -30.976562 7.09375 -30.625 C 6.832031 -30.539062 6.554688 -30.441406 6.265625 -30.328125 C 5.992188 -30.171875 5.679688 -30 5.328125 -29.8125 C 4.566406 -29.375 4.09375 -28.851562 3.90625 -28.25 C 3.707031 -27.644531 3.675781 -26.984375 3.8125 -26.265625 C 3.914062 -25.535156 4.125 -24.785156 4.4375 -24.015625 C 4.75 -23.210938 5.023438 -22.425781 5.265625 -21.65625 C 5.566406 -20.664062 6.078125 -19.988281 6.796875 -19.625 C 7.492188 -19.226562 8.320312 -19.175781 9.28125 -19.46875 C 10.050781 -19.695312 10.773438 -19.929688 11.453125 -20.171875 C 12.117188 -20.367188 12.78125 -20.566406 13.4375 -20.765625 C 14.9375 -21.222656 16.316406 -21.578125 17.578125 -21.828125 C 18.859375 -22.015625 20.019531 -21.992188 21.0625 -21.765625 C 22.113281 -21.515625 23.046875 -20.953125 23.859375 -20.078125 C 24.628906 -19.191406 25.285156 -17.851562 25.828125 -16.0625 C 26.242188 -14.664062 26.347656 -13.414062 26.140625 -12.3125 C 25.910156 -11.195312 25.472656 -10.195312 24.828125 -9.3125 C 24.179688 -8.382812 23.378906 -7.582031 22.421875 -6.90625 C 21.472656 -6.207031 20.5 -5.617188 19.5 -5.140625 C 18.4375 -4.648438 17.421875 -4.238281 16.453125 -3.90625 C 15.441406 -3.519531 14.585938 -3.222656 13.890625 -3.015625 C 12.191406 -2.503906 10.691406 -2.210938 9.390625 -2.140625 C 8.035156 -2.054688 6.84375 -2.113281 5.8125 -2.3125 C 4.78125 -2.507812 3.882812 -2.832031 3.125 -3.28125 C 2.351562 -3.695312 1.703125 -4.171875 1.171875 -4.703125 C -0.0976562 -5.929688 -0.972656 -7.507812 -1.453125 -9.4375 L 8.875 -11.6875 C 9.101562 -10.9375 9.34375 -10.265625 9.59375 -9.671875 C 9.8125 -9.097656 10.078125 -8.640625 10.390625 -8.296875 C 10.722656 -7.921875 11.113281 -7.691406 11.5625 -7.609375 C 12.007812 -7.492188 12.5625 -7.535156 13.21875 -7.734375 Z M 13.328125 -7.765625 "/></g></g></g><g fill="#f7c548" fill-opacity="1"><g transform="translate(90.373516, 144.830828)"><g><path d="M 22.75 -16.53125 C 23.0625 -15 23.25 -13.507812 23.3125 -12.0625 C 23.34375 -10.582031 23.0625 -9.207031 22.46875 -7.9375 C 21.832031 -6.644531 20.796875 -5.5 19.359375 -4.5 C 17.898438 -3.457031 15.820312 -2.625 13.125 -2 C 10.46875 -1.375 8.273438 -1.269531 6.546875 -1.6875 C 4.785156 -2.082031 3.351562 -2.8125 2.25 -3.875 C 1.125 -4.894531 0.257812 -6.164062 -0.34375 -7.6875 C -0.945312 -9.1875 -1.4375 -10.726562 -1.8125 -12.3125 C -2.175781 -13.894531 -2.46875 -15.492188 -2.6875 -17.109375 C -2.914062 -18.691406 -2.8125 -20.234375 -2.375 -21.734375 C -1.9375 -23.179688 -1 -24.515625 0.4375 -25.734375 C 1.820312 -26.941406 3.960938 -27.953125 6.859375 -28.765625 L 7.71875 -28.96875 C 10.3125 -29.5625 12.46875 -29.597656 14.1875 -29.078125 C 15.882812 -28.515625 17.289062 -27.648438 18.40625 -26.484375 C 19.5 -25.328125 20.34375 -24 20.9375 -22.5 C 21.539062 -20.96875 22.019531 -19.515625 22.375 -18.140625 L 7.328125 -13.21875 C 7.585938 -12.070312 7.828125 -11.09375 8.046875 -10.28125 C 8.273438 -9.457031 8.554688 -8.796875 8.890625 -8.296875 C 9.179688 -7.796875 9.570312 -7.476562 10.0625 -7.34375 C 10.53125 -7.175781 11.171875 -7.1875 11.984375 -7.375 C 12.785156 -7.5625 13.382812 -7.820312 13.78125 -8.15625 C 14.175781 -8.457031 14.414062 -8.863281 14.5 -9.375 C 14.601562 -9.875 14.585938 -10.457031 14.453125 -11.125 C 14.328125 -11.8125 14.160156 -12.609375 13.953125 -13.515625 Z M 12.8125 -18.0625 L 12.75 -18.046875 L 11.484375 -21.6875 C 11.265625 -22.175781 10.894531 -22.550781 10.375 -22.8125 C 9.84375 -23.082031 9.273438 -23.148438 8.671875 -23.015625 C 8.296875 -22.921875 7.914062 -22.773438 7.53125 -22.578125 C 7.144531 -22.390625 6.832031 -22.160156 6.59375 -21.890625 C 6.300781 -21.609375 6.085938 -21.285156 5.953125 -20.921875 C 5.785156 -20.566406 5.753906 -20.171875 5.859375 -19.734375 L 6.671875 -16 L 6.6875 -15.953125 L 12.75 -18.046875 L 12.765625 -18 Z M 12.8125 -18.0625 "/></g></g></g><g fill="#f7c548" fill-opacity="1"><g transform="translate(115.394024, 138.987446)"><g><path d="M -1.109375 -12.875 C -1.378906 -14.5 -1.578125 -16.109375 -1.703125 -17.703125 C -1.816406 -19.265625 -1.601562 -20.722656 -1.0625 -22.078125 C -0.519531 -23.429688 0.484375 -24.65625 1.953125 -25.75 C 3.410156 -26.800781 5.597656 -27.640625 8.515625 -28.265625 L 9.453125 -28.421875 C 12.003906 -28.847656 14.117188 -28.78125 15.796875 -28.21875 C 17.441406 -27.613281 18.757812 -26.753906 19.75 -25.640625 C 20.757812 -24.460938 21.515625 -23.125 22.015625 -21.625 C 22.503906 -20.101562 22.882812 -18.625 23.15625 -17.1875 L 14.203125 -15.0625 C 14.097656 -15.664062 13.984375 -16.257812 13.859375 -16.84375 C 13.691406 -17.414062 13.484375 -17.925781 13.234375 -18.375 C 12.953125 -18.8125 12.632812 -19.160156 12.28125 -19.421875 C 11.882812 -19.640625 11.394531 -19.703125 10.8125 -19.609375 C 10.539062 -19.566406 10.320312 -19.515625 10.15625 -19.453125 C 9.394531 -19.171875 8.832031 -18.878906 8.46875 -18.578125 C 8.070312 -18.265625 7.820312 -17.875 7.71875 -17.40625 C 7.59375 -16.894531 7.570312 -16.273438 7.65625 -15.546875 C 7.738281 -14.828125 7.875 -13.898438 8.0625 -12.765625 C 8.238281 -11.679688 8.421875 -10.734375 8.609375 -9.921875 C 8.773438 -9.109375 9.007812 -8.441406 9.3125 -7.921875 C 9.570312 -7.410156 9.945312 -7.054688 10.4375 -6.859375 C 10.882812 -6.648438 11.5 -6.613281 12.28125 -6.75 C 13.070312 -6.882812 13.671875 -7.109375 14.078125 -7.421875 C 14.472656 -7.722656 14.738281 -8.132812 14.875 -8.65625 C 15 -9.15625 15.015625 -9.785156 14.921875 -10.546875 C 14.816406 -11.265625 14.6875 -12.101562 14.53125 -13.0625 L 23.453125 -15.46875 C 23.679688 -13.882812 23.785156 -12.335938 23.765625 -10.828125 C 23.710938 -9.273438 23.351562 -7.863281 22.6875 -6.59375 C 22 -5.28125 20.90625 -4.148438 19.40625 -3.203125 C 17.925781 -2.242188 15.832031 -1.539062 13.125 -1.09375 C 10.46875 -0.644531 8.285156 -0.703125 6.578125 -1.265625 C 4.835938 -1.773438 3.445312 -2.628906 2.40625 -3.828125 C 1.363281 -4.984375 0.59375 -6.363281 0.09375 -7.96875 C -0.425781 -9.5625 -0.828125 -11.195312 -1.109375 -12.875 Z M -1.109375 -12.875 "/></g></g></g><g fill="#f7c548" fill-opacity="1"><g transform="translate(140.420597, 134.750001)"><g><path d="M -0.25 -12.453125 C -0.414062 -14.066406 -0.515625 -15.6875 -0.546875 -17.3125 C -0.585938 -18.914062 -0.296875 -20.425781 0.328125 -21.84375 C 0.953125 -23.238281 2.046875 -24.445312 3.609375 -25.46875 C 5.140625 -26.507812 7.390625 -27.253906 10.359375 -27.703125 L 11.453125 -27.8125 C 14.304688 -28.101562 16.554688 -27.898438 18.203125 -27.203125 C 19.835938 -26.472656 21.101562 -25.472656 22 -24.203125 C 22.863281 -22.898438 23.445312 -21.445312 23.75 -19.84375 C 24.070312 -18.21875 24.3125 -16.648438 24.46875 -15.140625 C 24.644531 -13.453125 24.710938 -11.800781 24.671875 -10.1875 C 24.628906 -8.550781 24.265625 -7.050781 23.578125 -5.6875 C 22.867188 -4.332031 21.71875 -3.1875 20.125 -2.25 C 18.519531 -1.28125 16.234375 -0.644531 13.265625 -0.34375 C 10.554688 -0.0625 8.367188 -0.234375 6.703125 -0.859375 C 5.003906 -1.484375 3.671875 -2.382812 2.703125 -3.5625 C 1.710938 -4.71875 1.019531 -6.085938 0.625 -7.671875 C 0.207031 -9.242188 -0.0820312 -10.835938 -0.25 -12.453125 Z M 11.40625 -19.15625 C 10.601562 -18.914062 10.003906 -18.675781 9.609375 -18.4375 C 9.179688 -18.144531 8.90625 -17.765625 8.78125 -17.296875 C 8.613281 -16.835938 8.550781 -16.253906 8.59375 -15.546875 C 8.632812 -14.859375 8.710938 -13.96875 8.828125 -12.875 C 8.941406 -11.800781 9.054688 -10.867188 9.171875 -10.078125 C 9.285156 -9.296875 9.472656 -8.660156 9.734375 -8.171875 C 9.960938 -7.640625 10.316406 -7.273438 10.796875 -7.078125 C 11.242188 -6.835938 11.878906 -6.765625 12.703125 -6.859375 C 13.566406 -6.941406 14.207031 -7.148438 14.625 -7.484375 C 15.03125 -7.765625 15.3125 -8.191406 15.46875 -8.765625 C 15.625 -9.296875 15.675781 -9.960938 15.625 -10.765625 C 15.539062 -11.554688 15.441406 -12.488281 15.328125 -13.5625 C 15.222656 -14.519531 15.15625 -15.378906 15.125 -16.140625 C 15.039062 -16.898438 14.921875 -17.53125 14.765625 -18.03125 C 14.609375 -18.539062 14.359375 -18.914062 14.015625 -19.15625 C 13.679688 -19.40625 13.203125 -19.492188 12.578125 -19.421875 C 12.265625 -19.390625 11.875 -19.300781 11.40625 -19.15625 Z M 11.40625 -19.15625 "/></g></g></g><g fill="#f7c548" fill-opacity="1"><g transform="translate(165.949009, 132.026943)"><g><path d="M 10.015625 -26.375 L 9.9375 -18.984375 C 10.25 -19.972656 10.660156 -20.929688 11.171875 -21.859375 C 11.660156 -22.773438 12.234375 -23.609375 12.890625 -24.359375 C 13.523438 -25.078125 14.226562 -25.660156 15 -26.109375 C 15.75 -26.554688 16.535156 -26.796875 17.359375 -26.828125 C 19.847656 -26.921875 21.753906 -26.5625 23.078125 -25.75 C 24.359375 -24.90625 25.285156 -23.472656 25.859375 -21.453125 C 26.390625 -19.429688 26.679688 -16.753906 26.734375 -13.421875 C 26.765625 -10.066406 26.773438 -5.945312 26.765625 -1.0625 L 16.4375 -0.65625 C 16.507812 -1.382812 16.59375 -2.34375 16.6875 -3.53125 C 16.738281 -4.664062 16.789062 -5.898438 16.84375 -7.234375 C 16.863281 -8.546875 16.863281 -9.867188 16.84375 -11.203125 C 16.832031 -12.554688 16.769531 -13.785156 16.65625 -14.890625 C 16.507812 -15.960938 16.300781 -16.84375 16.03125 -17.53125 C 15.75 -18.207031 15.367188 -18.535156 14.890625 -18.515625 C 13.785156 -18.472656 12.789062 -18.15625 11.90625 -17.5625 C 11.007812 -16.9375 10.332031 -16.21875 9.875 -15.40625 L 9.6875 -0.390625 L 1.1875 -0.046875 C 1.070312 -2.984375 0.953125 -5.957031 0.828125 -8.96875 C 0.679688 -11.9375 0.5625 -14.632812 0.46875 -17.0625 C 0.320312 -19.925781 0.171875 -22.691406 0.015625 -25.359375 Z M 10.015625 -26.375 "/></g></g></g><g fill="#f7c548" fill-opacity="1"><g transform="translate(192.876423, 130.908857)"><g><path d="M 0.359375 -13.703125 C 0.398438 -15.328125 0.582031 -16.894531 0.90625 -18.40625 C 1.207031 -19.925781 1.753906 -21.257812 2.546875 -22.40625 C 3.335938 -23.5625 4.4375 -24.46875 5.84375 -25.125 C 7.21875 -25.78125 9.007812 -26.082031 11.21875 -26.03125 C 12.226562 -26 13.054688 -25.867188 13.703125 -25.640625 C 14.359375 -25.421875 14.90625 -25.148438 15.34375 -24.828125 C 15.78125 -24.472656 16.148438 -24.082031 16.453125 -23.65625 C 16.722656 -23.195312 16.972656 -22.722656 17.203125 -22.234375 L 17.5625 -22.234375 L 17.640625 -35.265625 L 28.0625 -35.609375 L 27.4375 -11.59375 C 27.394531 -9.757812 27.375 -8.097656 27.375 -6.609375 C 27.332031 -5.128906 27.316406 -3.832031 27.328125 -2.71875 C 27.316406 -1.4375 27.320312 -0.296875 27.34375 0.703125 L 18.375 0.46875 L 19.109375 -5.53125 C 18.828125 -4.1875 18.382812 -3.125 17.78125 -2.34375 C 17.132812 -1.53125 16.441406 -0.925781 15.703125 -0.53125 C 14.960938 -0.132812 14.226562 0.101562 13.5 0.1875 C 12.738281 0.300781 12.097656 0.351562 11.578125 0.34375 L 10.84375 0.328125 C 10.738281 0.296875 10.65625 0.28125 10.59375 0.28125 C 8.71875 0.226562 7.171875 -0.15625 5.953125 -0.875 C 4.710938 -1.570312 3.726562 -2.445312 3 -3.5 C 2.226562 -4.53125 1.648438 -5.640625 1.265625 -6.828125 C 0.585938 -8.847656 0.285156 -11.140625 0.359375 -13.703125 Z M 10.296875 -12.453125 C 10.265625 -11.304688 10.253906 -10.320312 10.265625 -9.5 C 10.273438 -8.664062 10.398438 -7.972656 10.640625 -7.421875 C 10.828125 -6.859375 11.160156 -6.429688 11.640625 -6.140625 C 12.117188 -5.847656 12.804688 -5.691406 13.703125 -5.671875 C 14.671875 -5.640625 15.421875 -5.757812 15.953125 -6.03125 C 16.472656 -6.300781 16.863281 -6.707031 17.125 -7.25 C 17.34375 -7.789062 17.476562 -8.476562 17.53125 -9.3125 C 17.59375 -10.132812 17.640625 -11.117188 17.671875 -12.265625 L 17.734375 -14.75 C 17.753906 -15.445312 17.71875 -16.035156 17.625 -16.515625 C 17.53125 -16.972656 17.347656 -17.328125 17.078125 -17.578125 C 16.765625 -17.796875 16.296875 -17.914062 15.671875 -17.9375 C 15.253906 -17.945312 14.703125 -17.910156 14.015625 -17.828125 C 13.117188 -17.703125 12.421875 -17.5625 11.921875 -17.40625 C 11.441406 -17.238281 11.09375 -16.988281 10.875 -16.65625 C 10.613281 -16.269531 10.460938 -15.769531 10.421875 -15.15625 C 10.367188 -14.5 10.328125 -13.597656 10.296875 -12.453125 Z M 10.296875 -12.453125 "/></g></g></g><g fill="#f7c548" fill-opacity="1"><g transform="translate(220.218014, 131.801621)"><g><path d="M 2.828125 -25.703125 L 5.46875 -30.203125 C 4.707031 -30.460938 4.203125 -30.828125 3.953125 -31.296875 C 3.671875 -31.773438 3.546875 -32.253906 3.578125 -32.734375 C 3.648438 -33.835938 3.96875 -34.671875 4.53125 -35.234375 C 5.050781 -35.742188 6.050781 -35.945312 7.53125 -35.84375 C 8.75 -35.757812 9.5625 -35.414062 9.96875 -34.8125 C 10.375 -34.15625 10.550781 -33.476562 10.5 -32.78125 C 10.46875 -32.226562 10.425781 -31.832031 10.375 -31.59375 C 10.28125 -31.351562 10.132812 -31.046875 9.9375 -30.671875 L 8.9375 -28.96875 C 8.46875 -28.21875 7.8125 -27.035156 6.96875 -25.421875 Z M 2.828125 -25.703125 "/></g></g></g><g fill="#f7c548" fill-opacity="1"><g transform="translate(228.609169, 132.189551)"><g><path d="M 17.234375 -16.109375 C 17.273438 -16.492188 17.164062 -16.90625 16.90625 -17.34375 C 16.644531 -17.78125 16.207031 -18.035156 15.59375 -18.109375 C 15.445312 -18.117188 15.304688 -18.117188 15.171875 -18.109375 C 14.992188 -18.097656 14.816406 -18.0625 14.640625 -18 C 14.171875 -17.875 13.832031 -17.675781 13.625 -17.40625 C 13.382812 -17.113281 13.207031 -16.742188 13.09375 -16.296875 C 12.96875 -15.828125 12.890625 -15.28125 12.859375 -14.65625 C 12.785156 -14.03125 12.710938 -13.363281 12.640625 -12.65625 C 12.578125 -12.132812 12.601562 -11.726562 12.71875 -11.4375 C 12.78125 -11.113281 12.882812 -10.859375 13.03125 -10.671875 C 13.1875 -10.472656 13.367188 -10.347656 13.578125 -10.296875 C 13.734375 -10.203125 13.882812 -10.148438 14.03125 -10.140625 C 14.164062 -10.117188 14.25 -10.125 14.28125 -10.15625 L 14.390625 -10.140625 L 17.828125 -9.765625 C 19.179688 -9.609375 20.398438 -9.425781 21.484375 -9.21875 C 22.578125 -9 23.515625 -8.664062 24.296875 -8.21875 C 25.054688 -7.757812 25.617188 -7.140625 25.984375 -6.359375 C 26.316406 -5.554688 26.410156 -4.519531 26.265625 -3.25 C 26.097656 -1.726562 25.515625 -0.570312 24.515625 0.21875 C 23.492188 1 22.300781 1.554688 20.9375 1.890625 C 19.582031 2.234375 18.171875 2.394531 16.703125 2.375 C 15.210938 2.351562 13.898438 2.28125 12.765625 2.15625 C 11.429688 2.007812 10.253906 1.753906 9.234375 1.390625 C 8.234375 1.066406 7.375 0.675781 6.65625 0.21875 C 5.914062 -0.257812 5.3125 -0.757812 4.84375 -1.28125 C 4.34375 -1.789062 3.929688 -2.328125 3.609375 -2.890625 C 2.867188 -4.117188 2.5 -5.484375 2.5 -6.984375 L 12.28125 -5.375 C 12.226562 -4.863281 12.175781 -4.398438 12.125 -3.984375 C 12.050781 -3.566406 12.03125 -3.203125 12.0625 -2.890625 C 12.09375 -2.578125 12.222656 -2.335938 12.453125 -2.171875 C 12.640625 -1.972656 12.976562 -1.847656 13.46875 -1.796875 L 13.875 -1.75 C 14.53125 -1.75 15.039062 -1.765625 15.40625 -1.796875 C 15.75 -1.828125 16.03125 -1.984375 16.25 -2.265625 C 16.414062 -2.554688 16.535156 -3.046875 16.609375 -3.734375 C 16.679688 -4.390625 16.75 -5.328125 16.8125 -6.546875 L 14.03125 -6.859375 C 13.164062 -6.953125 12.410156 -7.050781 11.765625 -7.15625 C 11.109375 -7.226562 10.488281 -7.332031 9.90625 -7.46875 C 9.289062 -7.570312 8.675781 -7.710938 8.0625 -7.890625 C 7.4375 -8.054688 6.734375 -8.269531 5.953125 -8.53125 C 4.585938 -9 3.664062 -9.800781 3.1875 -10.9375 C 2.6875 -12.070312 2.546875 -13.582031 2.765625 -15.46875 C 2.816406 -15.957031 2.914062 -16.554688 3.0625 -17.265625 C 3.175781 -17.953125 3.394531 -18.671875 3.71875 -19.421875 C 4.039062 -20.148438 4.507812 -20.882812 5.125 -21.625 C 5.726562 -22.320312 6.539062 -22.929688 7.5625 -23.453125 C 8.601562 -23.960938 9.878906 -24.320312 11.390625 -24.53125 C 12.910156 -24.757812 14.738281 -24.753906 16.875 -24.515625 C 18.488281 -24.335938 19.878906 -24.003906 21.046875 -23.515625 C 22.171875 -23.003906 23.113281 -22.414062 23.875 -21.75 C 24.625 -21.039062 25.21875 -20.269531 25.65625 -19.4375 C 26.050781 -18.601562 26.359375 -17.773438 26.578125 -16.953125 C 27.015625 -14.984375 27 -12.828125 26.53125 -10.484375 L 16.84375 -11.5625 Z M 17.234375 -16.109375 "/></g></g></g></svg>