<svg version="1.2" xmlns="http://www.w3.org/2000/svg" viewBox="0 0 375 155" width="375" height="155"><style>.a{fill:none;stroke:#f7c548;stroke-width:18.9}.b{fill:#f57d45}.c{fill:none;stroke:#f7c548;stroke-width:12.7}</style><path class="a" d="m13.5 85.7l12.8-6.2 7.4 21.7q-0.1-1.8 0-3.7 0.1-1.8 0.7-3.4 0.6-1.6 1.8-2.9 1.2-1.4 3.2-2.2 4.8-2 8.1-1.6 3.3 0.4 5.5 2.2 2.2 1.9 3.6 4.7 1.4 2.9 2.7 5.9 1.3 3.3 2.3 6.5 1 3.4 0.7 6.3-0.3 3-2.3 5.6-2.1 2.6-6.8 4.5-3.4 1.4-6 1.3-2.6 0-4.8-1.1l1.4 3.6-11.4 4.7zm25.2 15.7q-1.5 1-2.3 1.7-0.7 0.9-0.8 1.9 0 1.1 0.4 2.4 0.5 1.4 1.4 3.5 0.8 2.1 1.5 3.6 0.7 1.5 1.5 2.4 0.9 0.8 2 0.9 1.1 0.2 2.8-0.5 1.8-0.7 2.6-1.7 0.7-0.8 0.8-2.1 0-1.1-0.6-2.7-0.6-1.5-1.5-3.6-0.7-1.9-1.3-3.4-0.6-1.4-1.2-2.3-0.7-0.9-1.5-1.2-0.8-0.3-2.2 0.2-0.6 0.3-1.6 0.9z"/><path class="a" d="m58.6 83.4l12.2-4.3 4.9 18.9q0.6 2 1.1 3.6 0.5 1.6 1.1 2.6 0.7 1 1.6 1.3 0.9 0.5 2.3 0.1 0.1-0.1 0.3-0.2 0.1 0 0.4-0.1 1.6-0.6 2.4-1.4 0.7-0.8 0.9-2 0.1-1.1-0.3-2.7-0.4-1.5-1-3.7l-5.1-18 12.1-4.3 5.1 18q1 3.4 1.5 6.7 0.5 3.4-0.5 6.4-0.9 3.1-3.9 5.6-2.9 2.5-8.9 4.2-5.5 1.5-9.2 0.9-3.7-0.7-6.1-2.8-2.4-2.1-3.8-5.2-1.4-3-2.3-6.3z"/><path class="a" d="m111.4 69.1l0.9 10.4q0.4-2 1.3-4.1 0.8-2 2.1-3.6 1.1-1.7 2.7-2.8 1.4-1.1 3.1-1.3 5.8-0.8 8.7 1.2 2.9 1.9 4.3 7.1 0.5-2 1.4-3.9 0.9-1.9 2.1-3.5 1.1-1.6 2.6-2.6 1.5-1 3.1-1.2 5.2-0.7 8 0.7 2.9 1.6 4.4 5.6 1.5 4.1 2.3 11 0.7 7 1.6 17.1l-14.2 1.9q0-1.5-0.1-4-0.1-2.4-0.2-5.1-0.2-2.8-0.5-5.6-0.3-2.8-0.8-5-0.5-2.2-1.2-3.6-0.6-1.3-1.6-1.2-2 0.2-3.4 1.3-1.6 1.1-2.6 2.4 0.7 4.1 1.3 9.5 0.5 5.4 1.1 12.4l-14.2 1.8q0-1.5 0-4-0.1-2.3-0.3-5.1-0.2-2.7-0.5-5.5-0.3-2.8-0.7-5.1-0.5-2.2-1.2-3.6-0.7-1.3-1.7-1.2-2.4 0.3-4.1 1.7-1.7 1.5-2.5 3.2l1.7 20.9-11.7 1.5q-0.9-6.1-1.7-12.3-0.9-6.1-1.5-11.2-0.9-5.9-1.7-11.5z"/><path class="a" d="m187.1 65.2l6.8 0.4 0.7-13.9 14.2-0.7-1.8 14.9 9.6 0.2-1.5 13.7-8.9-0.5-1.6 22.1-13.7-1 2.2-21.8h-6.6z"/><path class="a" d="m218.4 79.6l13.9 1.1-3.8 23.6-13.2-1.8zm1.3-12q0.6-4.2 2.5-5.6 1.8-1.4 6.2-0.8 2.4 0.4 3.7 1.2 1.2 0.9 1.7 2.1 0.5 1.1 0.5 2.4-0.1 1.4-0.3 2.7-0.2 1.4-0.5 2.8-0.5 1.4-1.3 2.3-1 1.1-2.5 1.5-1.5 0.5-4.1 0.2-2.4-0.4-3.6-1.3-1.4-0.8-1.9-2-0.6-1.2-0.6-2.6 0-1.4 0.2-2.9z"/><path class="a" d="m252.8 71.8l-3.1 9.9q1.2-1.7 2.8-3.3 1.5-1.5 3.3-2.6 1.7-1 3.5-1.5 1.8-0.5 3.4 0 5.6 1.4 7.6 4.3 2 2.9 1.3 8.2 1.3-1.7 2.9-3.1 1.4-1.4 3.1-2.5 1.7-1 3.5-1.4 1.7-0.4 3.3 0.1 5 1.3 7.2 3.7 2 2.4 1.9 6.8-0.1 4.4-2 11-2 6.7-4.9 16.5l-13.9-3.6q0.6-1.4 1.5-3.7 0.8-2.3 1.7-4.9 0.8-2.6 1.6-5.3 0.7-2.7 1.2-5 0.3-2.2 0.2-3.7-0.1-1.5-1.1-1.8-1.9-0.5-3.7 0-1.8 0.4-3.2 1.3-0.9 4-2.4 9.2-1.5 5.2-3.6 11.9l-13.9-3.6q0.6-1.4 1.5-3.7 0.8-2.2 1.7-4.8 0.8-2.7 1.6-5.4 0.8-2.7 1.2-4.9 0.4-2.3 0.2-3.8-0.1-1.5-1.1-1.8-2.3-0.6-4.4 0.1-2.1 0.7-3.5 2l-6.3 20-11.4-3q1.5-5.9 3.1-12 1.5-6 2.7-11 1.5-5.8 2.8-11.3z"/><path class="a" d="m325.1 118.2q-1.3 3-3 5.5-1.7 2.5-4.3 4-2.6 1.4-6.2 1.4-3.8 0-9.1-2.3-5.3-2.1-7.7-4.9-2.5-2.9-3.1-6-0.7-3.1 0.2-6.4 0.8-3.3 2.1-6.4 1.3-3.1 2.8-6.2 1.6-2.9 4.1-4.9 2.5-1.9 6.4-2.3 3.9-0.4 9.8 1.8l1.1 0.5q5.1 2.1 7.4 5.1 2.2 3 2.7 6.3 0.4 3.3-0.4 6.6-0.8 3.3-1.9 6.1l-21-6.6q-0.9 2.2-1.5 3.9-0.7 1.6-0.7 2.9-0.1 1.2 0.6 2 0.5 0.9 2.1 1.5 1.6 0.7 2.7 0.6 1-0.1 1.8-0.8 0.8-0.7 1.4-2 0.6-1.3 1.4-3.1zm-10-9.8h-0.1l1.5-5.2q0.2-1.1-0.3-2.2-0.6-1.1-1.8-1.6-0.7-0.3-1.6-0.4-0.9-0.1-1.7 0-0.8 0.1-1.5 0.6-0.7 0.4-1 1.3l-2.1 4.9h-0.1l8.6 2.6z"/><path class="a" d="m343.8 89.2l12 5.4-17.7 31.6-9.5-4zm-19.9 40.3q1.6-3.2 3.6-3.6 2-0.5 5.3 1.2 2 1 2.9 2.1 0.9 1.1 1 2.1 0.1 1-0.2 2-0.4 1.1-0.9 2-0.6 1.1-1.2 2.1-0.7 0.9-1.7 1.4-1 0.5-2.4 0.4-1.5-0.1-3.6-1.2-1.9-0.9-2.7-2-0.9-1.1-1.1-2.2-0.2-1 0.2-2.2 0.3-1 0.8-2.1z"/><path class="b" d="m13.5 85.7l12.8-6.2 7.4 21.7q-0.1-1.8 0-3.7 0.1-1.8 0.7-3.4 0.6-1.6 1.8-3 1.1-1.3 3.2-2.1 4.8-2 8.1-1.6 3.3 0.4 5.5 2.2 2.2 1.9 3.6 4.7 1.5 2.9 2.7 5.9 1.3 3.3 2.3 6.5 1 3.4 0.7 6.3-0.3 3-2.3 5.5-2.1 2.7-6.8 4.6-3.4 1.4-5.9 1.3-2.7 0-4.9-1.1l1.4 3.6-11.4 4.7zm25.2 15.7q-1.5 1-2.3 1.7-0.7 0.9-0.8 1.9 0 1 0.4 2.4 0.5 1.4 1.4 3.5 0.8 2.1 1.5 3.6 0.7 1.5 1.5 2.3 0.9 0.9 2 1 1.1 0.2 2.8-0.5 1.8-0.7 2.6-1.7 0.8-0.8 0.8-2.1 0-1.1-0.6-2.7-0.6-1.5-1.5-3.6-0.7-1.9-1.2-3.4-0.6-1.5-1.3-2.4-0.7-0.9-1.5-1.1-0.8-0.3-2.2 0.2-0.6 0.3-1.6 0.9z"/><path class="b" d="m58.6 83.4l12.2-4.4 4.9 19q0.6 2 1.1 3.6 0.5 1.6 1.1 2.6 0.7 1 1.6 1.3 0.9 0.5 2.3 0.1 0.1-0.1 0.3-0.2 0.1 0 0.3-0.1 1.7-0.6 2.5-1.4 0.7-0.9 0.9-2 0.1-1.1-0.3-2.7-0.4-1.5-1-3.7l-5.1-18 12.1-4.3 5.1 18q1 3.4 1.5 6.7 0.5 3.4-0.5 6.4-0.9 3.1-3.9 5.6-3 2.5-8.9 4.2-5.5 1.5-9.1 0.9-3.8-0.7-6.2-2.8-2.4-2-3.8-5.2-1.4-3-2.3-6.3z"/><path class="b" d="m111.4 69.1l0.9 10.4q0.4-2.1 1.3-4.1 0.8-2.1 2.1-3.7 1.2-1.6 2.7-2.7 1.4-1.1 3.1-1.3 5.8-0.8 8.7 1.2 2.9 1.9 4.3 7.1 0.5-2 1.5-3.9 0.8-1.9 2-3.5 1.1-1.6 2.6-2.6 1.5-1 3.1-1.2 5.2-0.7 8.1 0.7 2.8 1.6 4.3 5.6 1.5 4.1 2.3 11 0.7 7 1.6 17.1l-14.2 1.9q0-1.5 0-4-0.1-2.4-0.3-5.1-0.2-2.8-0.5-5.6-0.3-2.8-0.8-5-0.5-2.2-1.1-3.6-0.8-1.3-1.7-1.2-2 0.2-3.4 1.3-1.6 1.1-2.6 2.4 0.7 4.1 1.3 9.5 0.5 5.4 1.1 12.4l-14.2 1.8q0-1.5 0-4-0.1-2.3-0.3-5.1-0.2-2.7-0.5-5.5-0.3-2.8-0.7-5.1-0.6-2.2-1.2-3.6-0.7-1.3-1.7-1.2-2.4 0.3-4.1 1.7-1.7 1.5-2.5 3.3l1.7 20.8-11.7 1.5q-0.9-6.1-1.7-12.3-0.8-6.1-1.5-11.2-0.9-6-1.7-11.5z"/><path class="b" d="m187.1 65.2l6.8 0.4 0.7-13.9 14.2-0.8-1.8 15 9.6 0.2-1.5 13.8-8.9-0.6-1.6 22.1-13.7-1 2.3-21.8h-6.7z"/><path class="b" d="m218.4 79.6l13.9 1.1-3.8 23.6-13.2-1.8zm1.3-12q0.6-4.2 2.4-5.6 1.9-1.4 6.3-0.8 2.4 0.4 3.7 1.2 1.2 0.9 1.7 2.1 0.5 1.1 0.5 2.4-0.2 1.4-0.3 2.7-0.2 1.4-0.6 2.7-0.4 1.4-1.2 2.4-1 1.1-2.5 1.5-1.5 0.5-4.1 0.1-2.4-0.3-3.6-1.2-1.4-0.8-1.9-2-0.6-1.2-0.6-2.7 0-1.3 0.2-2.8z"/><path class="b" d="m252.8 71.8l-3.1 9.9q1.2-1.7 2.8-3.3 1.5-1.5 3.3-2.6 1.7-1 3.5-1.5 1.8-0.5 3.4 0 5.6 1.4 7.6 4.3 2 2.9 1.3 8.2 1.3-1.7 2.9-3.1 1.5-1.4 3.1-2.5 1.7-1 3.4-1.4 1.8-0.4 3.4 0.1 5 1.3 7.2 3.7 2 2.4 1.9 6.8-0.1 4.4-2 11-2 6.8-4.9 16.5l-13.9-3.6q0.6-1.4 1.5-3.7 0.8-2.3 1.7-4.9 0.8-2.6 1.6-5.3 0.7-2.7 1.2-5 0.3-2.2 0.2-3.7-0.2-1.5-1.1-1.8-1.9-0.5-3.7 0-1.8 0.4-3.2 1.3-0.9 4-2.4 9.2-1.5 5.2-3.6 11.9l-13.9-3.6q0.6-1.4 1.5-3.7 0.8-2.2 1.7-4.9 0.8-2.6 1.6-5.3 0.8-2.7 1.2-4.9 0.4-2.3 0.2-3.8-0.1-1.5-1.1-1.8-2.3-0.6-4.4 0.1-2.1 0.7-3.5 2l-6.2 20-11.5-3q1.5-5.9 3.1-12 1.5-6 2.7-11 1.5-5.8 2.8-11.3z"/><path class="b" d="m325.1 118.2q-1.3 3-3 5.5-1.7 2.5-4.3 4-2.6 1.4-6.2 1.3-3.8 0-9.1-2.2-5.3-2.1-7.7-5-2.5-2.8-3.1-5.9-0.7-3.1 0.2-6.4 0.8-3.3 2.1-6.4 1.3-3.2 2.9-6.2 1.5-2.9 4-4.9 2.5-1.9 6.4-2.3 3.9-0.3 9.8 1.8l1.1 0.5q5.1 2.1 7.4 5.1 2.2 3 2.7 6.3 0.4 3.3-0.4 6.6-0.8 3.3-1.9 6.1l-21-6.6q-0.9 2.2-1.5 3.8-0.7 1.8-0.7 3-0.1 1.2 0.6 2 0.5 0.9 2.1 1.5 1.6 0.7 2.7 0.6 1 0 1.8-0.8 0.8-0.7 1.4-2 0.6-1.3 1.4-3.1zm-10-9.8h-0.1l1.5-5.2q0.3-1.1-0.3-2.2-0.6-1-1.8-1.5-0.7-0.3-1.6-0.5-0.9-0.1-1.7 0-0.8 0.2-1.4 0.6-0.7 0.4-1.1 1.3l-2.1 4.9 8.5 2.6z"/><path class="b" d="m343.8 89.2l12 5.3-17.7 31.7-9.5-4zm-19.9 40.3q1.6-3.2 3.6-3.6 2-0.5 5.3 1.2 2 1 2.9 2.1 0.9 1 1 2.1 0.1 1-0.3 2-0.3 1.1-0.8 2-0.6 1.1-1.2 2.1-0.7 0.9-1.7 1.4-1 0.5-2.4 0.4-1.5-0.1-3.6-1.2-1.9-1-2.7-2-0.9-1.1-1.1-2.2-0.2-1.1 0.2-2.2 0.3-1.1 0.8-2.1z"/><path class="c" d="m74.4 62.2q1-0.3 1.7-0.7 0.6-0.3 0.9-1.2 0.3-0.8 0-2.2-0.2-1.3-1.1-3.7l-4.1 1.3q-1.4 0.4-2.6 0.7-1.1 0.3-2.1 0.4-1 0.2-1.8 0.2-0.9 0.1-1.9 0-2.5-0.2-4.1-1.9-1.5-1.7-2.6-5.4-0.3-0.9-0.7-2.2-0.4-1.2-0.6-2.7-0.3-1.5-0.1-3.2 0.2-1.6 1.1-3.2 1.1-1.9 3.2-3.5 2.1-1.6 6.3-2.9 2.2-0.6 4.1-0.7 1.8 0 3.3 0.3 1.5 0.4 2.7 1.1 1.2 0.8 2.2 1.8 1.5 1.5 2.4 3.4 0.9 1.9 1.3 3.6 0.6 1.9 0.8 3.9l-9.1 2.7-1.2-4.1q-0.6-1.8-1.3-2.7-0.8-0.9-2.4-0.4-0.4 0.1-0.8 0.3-0.3 0.2-0.8 0.4-1.1 0.6-1.4 1.5-0.3 0.8-0.1 1.8 0.2 1 0.6 2.1 0.4 1.1 0.7 2.2 0.5 1.4 1.5 1.9 0.9 0.6 2.3 0.2 1-0.3 2-0.7 0.9-0.3 1.9-0.5 2-0.7 3.8-1 1.8-0.2 3.2 0.1 1.5 0.3 2.6 1.6 1.1 1.2 1.8 3.7 0.6 2 0.3 3.5-0.3 1.6-1.2 2.8-1 1.3-2.3 2.2-1.3 1-2.7 1.6-1.5 0.7-2.9 1.2-1.4 0.5-2.3 0.8-2.4 0.7-4.2 0.8-1.9 0.1-3.4-0.2-1.4-0.3-2.5-0.9-1-0.6-1.8-1.4-1.7-1.7-2.4-4.4l9.7-2q0.3 1 0.6 1.9 0.3 0.8 0.7 1.3 0.5 0.5 1.1 0.6 0.6 0.2 1.6-0.1z"/><path class="c" d="m97.6 59.4q-3 0.7-5 0.1-2.1-0.6-3.5-2.2-1.4-1.6-2.2-3.9-0.9-2.3-1.5-5-0.6-2.8-0.3-5.1 0.3-2.2 1.5-3.8 1.1-1.6 3-2.7 2-1 4.6-1.6 3.1-0.7 6.3-1 3.2-0.3 6.3-0.2l6.9 31.3-8.1 1.8-2.2-9.9q-3.2 1.6-5.8 2.2zm-1-18.2q-1.1 0.5-1.6 1-0.6 0.4-0.8 1.1-0.1 0.7 0.1 1.7 0.1 1 0.5 2.6 0.3 1.6 0.6 2.7 0.3 1.1 0.8 1.8 0.5 0.7 1.2 0.9 0.7 0.2 1.8 0 1.2-0.3 1.8-0.8 0.6-0.5 0.7-1.3 0.1-0.9-0.1-2-0.3-1.1-0.6-2.7-0.3-1.4-0.5-2.4-0.3-1.1-0.6-1.9-0.3-0.7-0.8-1-0.5-0.3-1.4-0.1-0.5 0.1-1.1 0.4z"/><path class="c" d="m109.4 32.8l8.5-1.9 1.7 13q0.3 1.4 0.5 2.4 0.1 1.1 0.5 1.9 0.4 0.7 1 1 0.5 0.3 1.5 0.2 0 0 0.2-0.1 0.1 0 0.2 0 1.2-0.3 1.8-0.8 0.5-0.5 0.7-1.2 0.2-0.7 0-1.9-0.1-1-0.3-2.5l-2-12.3 8.4-1.9 2 12.3q0.3 2.4 0.4 4.6 0 2.3-0.8 4.2-0.9 2-3.1 3.4-2.1 1.5-6.2 2.1-3.8 0.6-6.2-0.2-2.4-0.7-3.8-2.3-1.5-1.5-2.1-3.7-0.7-2.2-1.1-4.4z"/><path class="c" d="m159.2 40.1q0.1 2.2-0.1 4.2-0.2 2-1.3 3.7-1.1 1.6-3.3 2.8-2.2 1.1-6 1.5-3.8 0.3-6.1-0.6-2.4-0.9-3.7-2.5-1.4-1.7-1.9-3.9-0.6-2.2-0.8-4.4-0.2-2.3-0.2-4.6 0-2.2 0.9-4.2 0.9-1.9 3.1-3.3 2.1-1.4 6.3-2l0.8-0.1q3.7-0.3 6 0.8 2.2 1.1 3.5 2.9 1.3 1.8 1.9 4 0.5 2.2 0.7 4.2l-14.4 2.6q0.1 1.6 0.3 2.8 0.1 1.2 0.5 1.9 0.3 0.8 0.9 1.1 0.6 0.3 1.8 0.2 1.2-0.1 1.7-0.5 0.6-0.4 0.9-1.1 0.2-0.6 0.2-1.6-0.1-0.9-0.2-2.2zm-9-2.7l-0.7-3.5q-0.2-0.7-0.9-1.2-0.7-0.5-1.5-0.4-0.6 0-1.1 0.2-0.6 0.2-1 0.6-0.5 0.3-0.7 0.8-0.3 0.4-0.2 1l0.2 3.6v0.1l5.9-1.2z"/><path class="c" d="m160.7 44.6q0-1.4 0.5-2.4 0.5-1 1.3-1.6 0.9-0.6 2.1-0.9 1.1-0.3 2.4-0.3 2.3-0.1 4.7 0.4 2.2 0.5 3.8 1.1l-0.2-6.2-13.8 1.6-0.3-10.2q4.4-0.1 8.4-0.1 3.9-0.1 6.9 0 3.4 0 6.4 0.1l0.4 23.4-7.3 0.3-0.3-3.4q-1.6 1.6-3.8 2.6-2.3 1-4.4 1-1.7 0.1-3-0.4-1.2-0.4-2-1.1-0.8-0.8-1.3-1.8-0.4-1-0.5-2.1zm6.3 0.1q0 0.8 0.7 1.2 0.7 0.4 1.8 0.4 0.5 0 1.1-0.3 0.6-0.3 1-0.6 0.5-0.4 1-0.9-0.5-0.5-1-0.8-0.5-0.4-1.1-0.6-0.6-0.3-1.1-0.2-1.1 0-1.8 0.5-0.7 0.5-0.6 1.3z"/><path class="c" d="m195.4 16l-1.5 19q0.1 0 0.3 0 0.2 0.1 0.5 0.1 0.6 0.1 1.3-0.2 0.6-0.2 1.2-1.1 0.6-0.9 1.1-2.5 0.4-1.7 0.5-4.5l11.8-0.5q-0.1 0.4-0.4 1.5-0.4 1-0.9 2.3-0.6 1.4-1.4 2.8-0.9 1.4-2.1 2.5-1.1 1.2-2.6 1.9-1.5 0.7-3.4 0.7 2.2 0 3.8 0.6 1.5 0.6 2.6 1.4 1 0.9 1.7 2 0.6 1.1 0.9 2.3 0.7 2.7 0.2 6l-9.6-0.3 0.1-6.7q0.1-1-0.1-1.6-0.2-0.6-0.6-0.9-0.3-0.3-0.8-0.4-0.4 0-0.9-0.1-1.5 0-2.6 0.5-1 0.6-1.1 2.4l-0.4 6.6-8.8-0.3 1-33.2z"/><path class="c" d="m210.1 50.6l2.5 2.3q0.1 0 0.2 0.1h0.1q0.5 0.5 1.4 0.6 0.7 0.1 1.3-0.2 0.6-0.3 1.1-0.8 0.5-0.6 0.9-1.3 0.3-0.6 0.7-1.2l0.1-1q-0.9-2.3-2-5.2-1.1-3-2.2-6.1-1.1-3.1-2.2-6-1.1-3-2-5.1l10.7 0.6 3.7 14.8q0.3-0.6 0.6-1.7 0.3-1 0.8-2.6 0.5-1.6 1.4-3.9 0.8-2.2 2.2-5.3l10.1 0.6-13 24.3q-0.9 1.6-2.2 3.1-1.2 1.5-2.8 2.5-1.6 1.1-3.4 1.7-1.9 0.5-4 0.3-1.7-0.2-2.9-0.8-1.2-0.7-2-1.3-0.4-0.4-0.9-1.2-0.5-0.7-1-1.5z"/><path class="b" d="m74.4 62.2q1-0.3 1.7-0.7 0.6-0.3 0.9-1.2 0.2-0.8 0.1-2.2-0.3-1.3-1.1-3.7l-4.2 1.3q-1.4 0.4-2.6 0.7-1.1 0.3-2 0.4-1.1 0.2-1.9 0.2-0.9 0.1-1.9 0-2.5-0.2-4.1-1.9-1.5-1.7-2.6-5.4-0.3-0.9-0.7-2.2-0.4-1.2-0.6-2.7-0.2-1.5-0.1-3.2 0.2-1.6 1.1-3.2 1.1-1.9 3.2-3.6 2.2-1.5 6.3-2.8 2.2-0.6 4.1-0.7 1.8 0 3.3 0.3 1.5 0.4 2.7 1.1 1.2 0.8 2.2 1.8 1.5 1.5 2.4 3.4 0.8 1.9 1.3 3.6 0.6 2 0.8 3.9l-9.1 2.7-1.2-4.1q-0.6-1.8-1.3-2.7-0.8-0.9-2.4-0.4-0.3 0.1-0.8 0.2-0.3 0.3-0.8 0.5-1.1 0.6-1.4 1.5-0.3 0.8-0.1 1.8 0.2 1 0.6 2.1 0.4 1.1 0.7 2.2 0.5 1.4 1.5 1.9 0.9 0.6 2.3 0.2 1-0.3 2-0.7 0.9-0.2 1.9-0.5 2-0.6 3.8-1 1.8-0.2 3.2 0.1 1.5 0.4 2.6 1.6 1.1 1.2 1.8 3.7 0.6 2 0.3 3.5-0.3 1.6-1.2 2.8-1 1.3-2.3 2.2-1.3 1-2.7 1.6-1.5 0.7-2.9 1.2-1.4 0.5-2.4 0.8-2.3 0.7-4.1 0.8-1.9 0.1-3.4-0.2-1.4-0.3-2.5-0.9-1-0.6-1.8-1.4-1.7-1.7-2.4-4.4l9.6-2q0.4 1.1 0.7 1.9 0.3 0.8 0.7 1.3 0.5 0.5 1.1 0.6 0.6 0.2 1.6-0.1z"/><path class="b" d="m97.6 59.4q-3 0.7-5 0.1-2.1-0.7-3.5-2.2-1.4-1.6-2.2-3.9-0.8-2.3-1.4-5-0.7-2.8-0.4-5 0.3-2.3 1.5-3.9 1.1-1.6 3-2.7 2-1 4.6-1.6 3.1-0.7 6.3-1 3.1-0.3 6.3-0.2l6.9 31.3-8.1 1.8-2.2-9.9q-3.2 1.7-5.8 2.2zm-1-18.2q-1.1 0.5-1.6 1-0.6 0.4-0.8 1.1-0.1 0.7 0.1 1.8 0.1 0.9 0.5 2.5 0.3 1.5 0.6 2.7 0.3 1.1 0.8 1.8 0.4 0.7 1.2 0.9 0.7 0.2 1.8 0 1.2-0.3 1.8-0.8 0.5-0.5 0.7-1.3 0.1-0.8-0.1-2-0.3-1.1-0.6-2.7-0.3-1.3-0.5-2.4-0.3-1.1-0.6-1.9-0.3-0.7-0.8-1-0.5-0.3-1.4-0.1-0.5 0.1-1.1 0.4z"/><path class="b" d="m109.4 32.8l8.5-1.9 1.7 13q0.2 1.3 0.5 2.4 0.1 1.1 0.5 1.9 0.4 0.7 1 1 0.5 0.4 1.4 0.2 0.1 0 0.3-0.1 0.1 0 0.2 0 1.2-0.3 1.8-0.8 0.5-0.5 0.7-1.2 0.2-0.7 0-1.8-0.1-1.1-0.3-2.6l-2-12.3 8.4-1.9 1.9 12.3q0.4 2.4 0.5 4.6 0 2.3-0.8 4.2-0.9 2-3.1 3.4-2.1 1.4-6.2 2.1-3.8 0.6-6.2-0.2-2.4-0.7-3.8-2.3-1.5-1.5-2.2-3.7-0.6-2.2-1-4.4z"/><path class="b" d="m159.2 40.1q0.1 2.2-0.1 4.2-0.2 2-1.3 3.7-1.1 1.6-3.3 2.8-2.2 1.1-6 1.5-3.8 0.3-6.1-0.6-2.4-0.9-3.7-2.5-1.4-1.7-1.9-3.9-0.6-2.2-0.8-4.4-0.2-2.3-0.2-4.6 0-2.2 0.9-4.2 0.9-1.9 3.1-3.3 2.1-1.4 6.3-2h0.8q3.7-0.4 6 0.7 2.2 1.1 3.5 2.9 1.3 1.8 1.9 4 0.5 2.2 0.7 4.2l-14.5 2.6q0.2 1.6 0.3 2.8 0.2 1.2 0.6 2 0.3 0.7 0.9 1 0.7 0.3 1.8 0.2 1.1-0.1 1.7-0.5 0.6-0.4 0.9-1.1 0.2-0.6 0.2-1.6-0.1-1-0.2-2.3zm-8.9-2.6h-0.1l-0.7-3.5q-0.2-0.7-0.9-1.2-0.7-0.5-1.5-0.4-0.6 0-1.1 0.2-0.6 0.2-1 0.6-0.4 0.3-0.7 0.8-0.3 0.4-0.2 1l0.2 3.6 5.9-1.1z"/><path class="b" d="m160.7 44.6q0-1.4 0.5-2.4 0.5-1 1.3-1.6 0.9-0.6 2-0.9 1.2-0.3 2.5-0.3 2.3-0.1 4.7 0.4 2.2 0.5 3.8 1.1l-0.2-6.2-13.8 1.6-0.3-10.2q4.4-0.1 8.4-0.1 3.9-0.1 6.9 0 3.4 0 6.4 0.1l0.4 23.5-7.3 0.2-0.3-3.4q-1.6 1.6-3.8 2.6-2.3 1-4.4 1-1.7 0.1-2.9-0.4-1.3-0.4-2.1-1.1-0.9-0.8-1.3-1.8-0.4-1-0.5-2.1zm6.3 0.1q0 0.8 0.7 1.2 0.7 0.4 1.8 0.4 0.6 0 1.1-0.3 0.6-0.3 1-0.6 0.5-0.4 1-0.9-0.5-0.5-1-0.8-0.5-0.4-1.1-0.6-0.5-0.2-1.1-0.2-1.1 0-1.8 0.4-0.7 0.6-0.6 1.4z"/><path class="b" d="m195.4 16l-1.5 19q0.1 0 0.3 0 0.3 0.1 0.5 0.1 0.6 0.1 1.3-0.2 0.6-0.2 1.2-1.1 0.6-0.9 1-2.5 0.5-1.7 0.6-4.5l11.8-0.5q-0.1 0.4-0.4 1.5-0.4 1-1 2.3-0.5 1.4-1.3 2.8-0.9 1.4-2.1 2.5-1.1 1.2-2.6 1.9-1.5 0.7-3.4 0.7 2.2 0 3.7 0.6 1.6 0.6 2.7 1.4 1 0.9 1.7 2 0.6 1.1 0.8 2.3 0.8 2.7 0.3 6l-9.6-0.3 0.1-6.7q0-1-0.1-1.6-0.2-0.6-0.6-0.9-0.3-0.3-0.8-0.4-0.5 0-0.9-0.1-1.5 0-2.6 0.5-1 0.6-1.1 2.4l-0.4 6.6-8.8-0.3 1-33.2z"/><path class="b" d="m210.1 50.6l2.5 2.3q0.1 0 0.2 0.1h0.1q0.5 0.5 1.3 0.6 0.8 0.1 1.4-0.2 0.6-0.3 1.1-0.8 0.5-0.6 0.9-1.3 0.3-0.6 0.7-1.2l0.1-1q-0.9-2.3-2-5.2-1.1-3-2.2-6.1-1.1-3-2.2-6-1.1-3-2-5.1l10.7 0.6 3.6 14.8q0.3-0.6 0.7-1.6 0.3-1.1 0.8-2.7 0.5-1.6 1.4-3.9 0.8-2.2 2.3-5.3l10 0.6-13 24.3q-0.9 1.6-2.2 3.1-1.2 1.5-2.8 2.5-1.6 1.1-3.4 1.7-1.9 0.5-4 0.3-1.7-0.2-2.9-0.8-1.2-0.6-1.9-1.3-0.5-0.5-1-1.2-0.5-0.7-1-1.5z"/></svg>