<svg xmlns="http://www.w3.org/2000/svg" xmlns:xlink="http://www.w3.org/1999/xlink" width="500" zoomAndPan="magnify" viewBox="0 0 375 374.999991" height="500" preserveAspectRatio="xMidYMid meet" version="1.0"><defs><g/></defs><path stroke-linecap="butt" transform="matrix(0.719374, -0.292733, 0.292733, 0.719374, 8.042439, 159.149901)" fill="none" stroke-linejoin="miter" d="M 1.859724 13.993245 L 20.165015 12.884385 L 18.394378 42.322463 C 18.954264 40.839825 19.570921 39.391148 20.252799 37.969011 C 20.935705 36.531003 21.771701 35.263893 22.771133 34.1556 C 23.75437 33.100448 24.927966 32.23136 26.285367 31.551098 C 27.649322 30.868074 29.258734 30.529285 31.115496 30.530073 C 35.638799 30.529936 39.140929 31.21113 41.61723 32.57176 C 44.100085 33.929626 45.926696 35.699207 47.108275 37.879636 C 48.211525 40.03905 48.889991 42.481734 49.150227 45.204924 C 49.331649 47.988354 49.418709 50.776825 49.420723 53.57413 C 49.422313 56.599325 49.300016 59.568677 49.058489 62.484081 C 48.740912 65.466279 47.992239 68.06671 46.810574 70.290032 C 45.571494 72.587732 43.752402 74.415915 41.346745 75.777347 C 38.866932 77.200913 35.45646 77.909105 31.118092 77.908475 C 27.957473 77.909259 25.357002 77.480943 23.313914 76.616974 C 21.21579 75.74147 19.484107 74.499223 18.121626 72.896789 L 18.03105 77.909894 L 2.132727 77.90764 Z M 24.338061 45.023475 C 22.795545 45.264594 21.583248 45.574927 20.707725 45.951711 C 19.845855 46.388353 19.223854 47.009485 18.848278 47.812344 C 18.483915 48.614337 18.274214 49.636738 18.211755 50.871097 C 18.152058 52.112011 18.120979 53.722954 18.123175 55.705823 C 18.122932 57.627968 18.150357 59.295299 18.212875 60.716267 C 18.275392 62.137234 18.484102 63.319038 18.847455 64.254256 C 19.223595 65.238118 19.847005 65.947927 20.706475 66.38455 C 21.58236 66.887583 22.795059 67.136711 24.338019 67.134696 C 26.014506 67.138146 27.317051 66.886258 28.237205 66.386453 C 29.114947 65.95084 29.763648 65.237402 30.190732 64.25459 C 30.567115 63.316307 30.785206 62.139848 30.848795 60.715896 C 30.845105 59.297147 30.84666 57.625318 30.846904 55.703173 C 30.847914 53.965963 30.876775 52.413847 30.936249 51.053382 C 30.935 49.695356 30.812909 48.55423 30.574633 47.631899 C 30.316855 46.690772 29.907359 45.975699 29.349936 45.477365 C 28.786825 44.993006 27.897246 44.750474 26.669985 44.750634 C 26.051696 44.748818 25.275941 44.840397 24.338061 45.023475 Z M 24.338061 45.023475 " stroke="#f7c548" stroke-width="24.386774" stroke-opacity="1" stroke-miterlimit="4"/><path stroke-linecap="butt" transform="matrix(0.747583, -0.210503, 0.210503, 0.747583, 49.559927, 142.579167)" fill="none" stroke-linejoin="miter" d="M 2.881721 32.66269 L 19.503289 31.548242 L 19.049743 56.726046 C 19.050407 58.523692 19.082144 60.136757 19.14284 61.554194 C 19.144829 62.976001 19.294554 64.188599 19.593379 65.187147 C 19.912181 66.170419 20.415195 66.907726 21.094853 67.407389 C 21.710492 67.967402 22.645619 68.246388 23.882984 68.249942 C 24.003877 68.247406 24.153678 68.216434 24.337227 68.158389 C 24.45812 68.155854 24.614266 68.15802 24.813231 68.156567 C 26.356874 68.037355 27.526703 67.724056 28.329674 67.229082 C 29.145054 66.727151 29.737172 66.016049 30.096346 65.093051 C 30.473663 64.216962 30.693101 63.066511 30.753298 61.646539 C 30.754316 60.28828 30.756328 58.648143 30.754492 56.724762 L 30.66376 32.663418 L 47.19621 31.550002 L 47.291783 55.612709 C 47.287531 58.652562 47.101894 61.594315 46.72519 64.435241 C 46.361176 67.342442 45.43153 69.938844 43.932162 72.23897 C 42.448681 74.538344 40.188244 76.368137 37.150851 77.728347 C 34.12751 79.149991 29.946303 79.858942 24.605867 79.860042 C 19.725547 79.860072 15.854642 79.151548 12.994516 77.729628 C 10.092932 76.306486 7.899888 74.445382 6.420225 72.147679 C 4.860655 69.911079 3.871151 67.338605 3.448985 64.439941 C 3.006982 61.593168 2.788012 58.715142 2.789959 55.794819 Z M 2.881721 32.66269 " stroke="#f7c548" stroke-width="24.386774" stroke-opacity="1" stroke-miterlimit="4"/><path stroke-linecap="butt" transform="matrix(0.769951, -0.101819, 0.101819, 0.769951, 92.968374, 129.98031)" fill="none" stroke-linejoin="miter" d="M 19.778582 31.366559 L 19.139855 44.751903 C 19.762567 43.07379 20.563092 41.393824 21.546416 39.712665 C 22.483627 38.111655 23.574255 36.693281 24.813972 35.451898 C 25.977578 34.210596 27.279352 33.190501 28.71431 32.390953 C 30.075875 31.647653 31.494674 31.277205 32.976354 31.275282 C 37.937896 31.276936 41.556084 32.267819 43.840892 34.249251 C 46.080165 36.229735 47.507872 39.513295 48.13032 44.090618 C 48.808539 42.414772 49.640381 40.804901 50.620861 39.260347 C 51.562192 37.781643 52.619977 36.419807 53.798541 35.180483 C 54.964206 34.000334 56.232478 33.041762 57.609001 32.300441 C 58.96764 31.617635 60.361879 31.279453 61.782406 31.279589 C 66.242404 31.275799 69.615076 32.051573 71.897416 33.591295 C 74.133643 35.211167 75.683291 37.841167 76.545702 41.486282 C 77.350628 45.144088 77.690138 49.942737 77.56856 55.887875 C 77.388548 61.891239 77.108964 69.261394 76.729809 77.998339 L 58.242356 77.998909 C 58.424426 76.698835 58.644287 74.997889 58.90194 72.89607 C 59.085541 70.855486 59.264652 68.657034 59.444919 66.296386 C 59.583977 63.940436 59.680797 61.558607 59.740365 59.151558 C 59.801252 56.734537 59.772633 54.533981 59.648862 52.554217 C 59.451699 50.630702 59.1429 49.052633 58.718798 47.80938 C 58.283404 46.57478 57.630302 45.950636 56.767486 45.953224 C 55.093694 45.950035 53.573193 46.322254 52.211628 47.065554 C 50.78957 47.805927 49.579732 48.706272 48.582773 49.761603 C 48.705541 53.28354 48.703277 57.367307 48.581629 62.008579 C 48.401836 66.667527 48.189193 71.996891 47.948028 78.002315 L 29.440631 78.000247 C 29.637659 76.702151 29.852534 75.000546 30.095228 72.896749 C 30.27883 70.856165 30.468572 68.654046 30.663797 66.295376 C 30.782911 63.936788 30.874745 61.5543 30.93864 59.152896 C 30.994541 56.735215 30.965921 54.53466 30.847796 52.550569 C 30.664932 50.634018 30.356793 49.050964 29.917072 47.810718 C 29.477352 46.570473 28.828577 45.951974 27.965761 45.954562 C 25.921384 45.953101 24.09623 46.442307 22.474681 47.425188 C 20.873158 48.486818 19.6341 49.723216 18.756189 51.144352 L 17.371468 77.99725 L 2.130557 78.000981 C 2.131224 72.73998 2.131151 67.407853 2.129676 62.009587 C 2.072117 56.690152 2.040638 51.825697 2.038907 47.426852 C 1.983201 42.28523 1.921352 37.305144 1.859008 32.482267 Z M 19.778582 31.366559 " stroke="#f7c548" stroke-width="24.386774" stroke-opacity="1" stroke-miterlimit="4"/><path stroke-linecap="butt" transform="matrix(0.774637, 0.0559325, -0.0559325, 0.774637, 188.242492, 122.444517)" fill="none" stroke-linejoin="miter" d="M 0.931592 33.230587 L 9.662489 33.048973 L 9.299967 15.108075 L 27.489549 12.881976 L 26.556724 32.298099 L 38.917919 31.5518 L 38.172711 49.376016 L 26.76422 49.488745 L 26.765453 77.999977 L 9.095899 78.000004 L 9.932754 49.851844 L 1.384537 50.398468 Z M 0.931592 33.230587 " stroke="#f7c548" stroke-width="24.386774" stroke-opacity="1" stroke-miterlimit="4"/><path stroke-linecap="butt" transform="matrix(0.769007, 0.108719, -0.108719, 0.769007, 222.038529, 125.223786)" fill="none" stroke-linejoin="miter" d="M 2.039392 48.266131 L 19.980501 47.151974 L 19.414347 77.999168 L 2.311335 77.999237 Z M 1.494877 32.845245 C 1.497327 29.197744 2.20519 26.65946 3.627724 25.224004 C 4.991201 23.801977 7.592719 23.088771 11.432983 23.089366 C 13.531289 23.092412 15.175396 23.367935 16.351771 23.928006 C 17.531615 24.548543 18.403948 25.329385 18.963086 26.266257 C 19.505171 27.1903 19.847247 28.208656 19.980057 29.32771 C 20.040226 30.507831 20.074139 31.645947 20.073243 32.753427 C 20.070732 33.993205 20.012788 35.200183 19.890154 36.38075 C 19.694881 37.622382 19.28361 38.701526 18.667007 39.621754 C 17.985559 40.622264 17.024182 41.403289 15.78715 41.959146 C 14.54433 42.581857 12.81544 42.892315 10.59052 42.891931 C 8.548402 42.8911 6.939912 42.580065 5.760068 41.959528 C 4.523228 41.402925 3.58897 40.651156 2.969368 39.717753 C 2.351173 38.79431 1.94944 37.713275 1.769148 36.473943 C 1.586641 35.2908 1.497347 34.084319 1.494877 32.845245 Z M 1.494877 32.845245 " stroke="#f7c548" stroke-width="24.386774" stroke-opacity="1" stroke-miterlimit="4"/><path stroke-linecap="butt" transform="matrix(0.752039, 0.193981, -0.193981, 0.752039, 244.004638, 127.348146)" fill="none" stroke-linejoin="miter" d="M 19.776742 31.366677 L 19.140983 44.749931 C 19.762814 43.072826 20.565151 41.390715 21.545637 39.714594 C 22.482755 38.11199 23.571294 36.69368 24.813612 35.448666 C 25.975494 34.214011 27.275598 33.193026 28.71518 32.39058 C 30.077148 31.649707 31.497984 31.278021 32.97769 31.275523 C 37.938998 31.27877 41.559676 32.266708 43.842236 34.249077 C 46.077195 36.228142 47.510647 39.509927 48.126724 44.09333 C 48.810766 42.415761 49.641687 40.80419 50.625613 39.262231 C 51.562403 37.779178 52.619672 36.420875 53.799779 35.176326 C 54.96087 33.999012 56.234574 33.036778 57.607539 32.298263 C 58.969971 31.619601 60.361741 31.27619 61.780492 31.279025 C 66.241601 31.276244 69.614247 32.047673 71.898428 33.59331 C 74.133115 35.20885 75.684937 37.841992 76.54651 41.48425 C 77.349641 45.141582 77.689201 49.941748 77.565188 55.884748 C 77.3843 61.889166 77.108679 69.258126 76.729844 77.99901 L 58.243661 77.999062 C 58.427931 76.699727 58.643353 74.997596 58.900923 72.895027 C 59.08088 70.854032 59.266983 68.655625 59.448233 66.29745 C 59.581884 63.935969 59.680032 61.557676 59.740166 59.152828 C 59.801401 56.732113 59.769137 54.532896 59.648244 52.553919 C 59.453352 50.63039 59.145152 49.052934 58.721132 47.811811 C 58.282501 46.574457 57.633759 45.952274 56.771292 45.951388 C 55.093957 45.952922 53.574306 46.324125 52.212338 47.064997 C 50.788159 47.806334 49.581072 48.704637 48.581335 49.762418 C 48.70032 53.284567 48.703931 57.366285 48.582426 62.010085 C 48.402479 66.66896 48.187264 71.996597 47.949035 78.000223 L 29.442115 78.00043 C 29.636125 76.698582 29.857674 75.000065 30.099378 72.896395 C 30.279335 70.8554 30.470307 68.655737 30.661298 66.295049 C 30.785208 63.936081 30.87723 61.554173 30.93862 59.154195 C 30.994985 56.734737 30.967591 54.534263 30.845442 52.550417 C 30.662803 50.634115 30.353347 49.051789 29.914716 47.814435 C 29.474829 46.572211 28.826087 45.950028 27.964876 45.954012 C 25.92276 45.950947 24.096597 46.442766 22.475389 47.42711 C 20.873025 48.484507 19.634321 49.723394 18.754408 51.145028 L 17.37621 78.001385 L 2.131272 78.001656 C 2.134711 72.739034 2.131559 67.410586 2.130302 62.008932 C 2.072322 56.689432 2.043352 51.824735 2.041036 47.425836 C 1.981936 42.283229 1.917947 37.302904 1.85881 32.482348 Z M 19.776742 31.366677 " stroke="#f7c548" stroke-width="24.386774" stroke-opacity="1" stroke-miterlimit="4"/><path stroke-linecap="butt" transform="matrix(0.717333, 0.2977, -0.2977, 0.717333, 309.2522, 145.504078)" fill="none" stroke-linejoin="miter" d="M 46.359603 58.402298 C 46.301117 61.187449 46.016861 63.848476 45.518055 66.386168 C 44.958417 68.987224 43.910959 71.278852 42.369107 73.258333 C 40.75258 75.241578 38.488197 76.818445 35.586386 78.000943 C 32.604023 79.238652 28.63673 79.86136 23.680649 79.859775 C 18.796526 79.861 14.923198 79.148677 12.067239 77.725524 C 9.163688 76.305785 6.969933 74.444445 5.487903 72.146149 C 3.933822 69.910428 2.94237 67.337745 2.517405 64.437391 C 2.077272 61.592341 1.8581 58.715492 1.860677 55.795623 C 1.859747 52.893547 1.981085 49.984293 2.222763 47.063215 C 2.481351 44.222247 3.289032 41.589042 4.649661 39.172891 C 6.010988 36.810906 8.179951 34.85978 11.15655 33.319513 C 14.060054 31.760572 18.206868 30.861877 23.59042 30.620711 L 25.175514 30.621789 C 29.940087 30.621169 33.716558 31.428143 36.518073 33.048148 C 39.2379 34.7075 41.340048 36.781114 42.820664 39.259699 C 44.242468 41.74091 45.173436 44.40404 45.611641 47.244445 C 46.048963 50.161452 46.300839 52.894038 46.358765 55.434837 L 18.123754 57.927931 C 18.121147 60.047321 18.152658 61.842156 18.212852 63.325584 C 18.275671 64.867823 18.486282 66.136352 18.846614 67.135815 C 19.167506 68.118973 19.724012 68.830093 20.527352 69.269963 C 21.267932 69.768552 22.384536 70.018514 23.881807 70.01792 C 25.363215 70.018466 26.50641 69.794523 27.305956 69.359238 C 28.108128 68.982765 28.699789 68.361479 29.076295 67.497308 C 29.452708 66.698521 29.671198 65.676662 29.733692 64.436375 C 29.796186 63.196089 29.822235 61.73677 29.823057 60.059209 Z M 29.64372 51.714861 L 29.551253 51.715118 L 28.806137 44.841707 C 28.60821 43.905536 28.108331 43.094679 27.308427 42.41378 C 26.508523 41.732881 25.54487 41.392216 24.428686 41.392574 C 23.747758 41.391999 23.035357 41.486168 22.294202 41.668507 C 21.552257 41.862066 20.905753 42.141262 20.343472 42.505307 C 19.726236 42.881267 19.224161 43.351018 18.846537 43.910704 C 18.425967 44.471877 18.211446 45.149021 18.213404 45.954146 L 18.124385 52.825217 L 18.122713 52.913039 L 29.551253 51.715118 L 29.554227 51.801012 Z M 29.64372 51.714861 " stroke="#f7c548" stroke-width="24.386774" stroke-opacity="1" stroke-miterlimit="4"/><path stroke-linecap="butt" transform="matrix(0.692022, 0.352559, -0.352559, 0.692022, 346.740743, 161.630469)" fill="none" stroke-linejoin="miter" d="M 2.789088 13.902148 L 19.686075 12.976208 L 17.826575 59.606046 L 4.648525 60.629907 Z M 3.53599 71.786144 C 3.537359 68.68651 4.218764 66.578217 5.577921 65.456782 C 6.880846 64.335771 9.110284 63.781361 12.27063 63.780024 C 14.252326 63.780826 15.79255 64.000896 16.895785 64.437951 C 17.956742 64.936057 18.735194 65.55551 19.231142 66.29631 C 19.733854 67.039308 20.043776 67.869235 20.163192 68.790574 C 20.284976 69.72764 20.341481 70.658451 20.343953 71.582921 C 20.34516 72.637863 20.283202 73.668539 20.164758 74.6659 C 19.983235 75.650241 19.609593 76.512316 19.050598 77.254322 C 18.492027 78.05256 17.650944 78.672979 16.536314 79.111012 C 15.356913 79.610267 13.746009 79.860847 11.701318 79.858271 C 9.901844 79.860593 8.482875 79.612617 7.437645 79.112142 C 6.320881 78.670691 5.481717 78.053945 4.920067 77.250658 C 4.363407 76.512566 3.990234 75.647126 3.81188 74.665499 C 3.627101 73.726658 3.538886 72.766845 3.53599 71.786144 Z M 3.53599 71.786144 " stroke="#f7c548" stroke-width="24.386774" stroke-opacity="1" stroke-miterlimit="4"/><g fill="#f57d45" fill-opacity="1"><g transform="translate(30.875621, 215.261073)"><g><path d="M -17.40625 -46.59375 L -4.5625 -52.75 L 2.796875 -31.03125 C 2.753906 -32.269531 2.773438 -33.503906 2.859375 -34.734375 C 2.929688 -35.960938 3.15625 -37.117188 3.53125 -38.203125 C 3.9375 -39.242188 4.535156 -40.21875 5.328125 -41.125 C 6.085938 -42.007812 7.140625 -42.722656 8.484375 -43.265625 C 11.734375 -44.585938 14.453125 -45.117188 16.640625 -44.859375 C 18.828125 -44.617188 20.65625 -43.882812 22.125 -42.65625 C 23.5625 -41.425781 24.773438 -39.867188 25.765625 -37.984375 C 26.710938 -36.023438 27.59375 -34.046875 28.40625 -32.046875 C 29.300781 -29.859375 30.078125 -27.679688 30.734375 -25.515625 C 31.390625 -23.285156 31.617188 -21.195312 31.421875 -19.25 C 31.203125 -17.226562 30.421875 -15.382812 29.078125 -13.71875 C 27.710938 -11.96875 25.472656 -10.457031 22.359375 -9.1875 C 20.085938 -8.269531 18.09375 -7.816406 16.375 -7.828125 C 14.59375 -7.835938 12.984375 -8.222656 11.546875 -8.984375 L 12.9375 -5.359375 L 1.5 -0.703125 Z M 7.859375 -30.84375 C 6.804688 -30.207031 6.03125 -29.628906 5.53125 -29.109375 C 5.03125 -28.554688 4.757812 -27.929688 4.71875 -27.234375 C 4.695312 -26.554688 4.84375 -25.757812 5.15625 -24.84375 C 5.488281 -23.9375 5.941406 -22.769531 6.515625 -21.34375 C 7.078125 -19.96875 7.582031 -18.773438 8.03125 -17.765625 C 8.5 -16.753906 9.003906 -15.96875 9.546875 -15.40625 C 10.097656 -14.8125 10.753906 -14.476562 11.515625 -14.40625 C 12.265625 -14.300781 13.203125 -14.476562 14.328125 -14.9375 C 15.535156 -15.425781 16.398438 -15.984375 16.921875 -16.609375 C 17.421875 -17.191406 17.679688 -17.898438 17.703125 -18.734375 C 17.691406 -19.503906 17.5 -20.414062 17.125 -21.46875 C 16.707031 -22.488281 16.21875 -23.6875 15.65625 -25.0625 C 15.144531 -26.320312 14.71875 -27.445312 14.375 -28.4375 C 13.976562 -29.425781 13.550781 -30.21875 13.09375 -30.8125 C 12.644531 -31.40625 12.144531 -31.796875 11.59375 -31.984375 C 11.050781 -32.171875 10.332031 -32.082031 9.4375 -31.71875 C 9 -31.539062 8.472656 -31.25 7.859375 -30.84375 Z M 7.859375 -30.84375 "/></g></g></g><g fill="#f57d45" fill-opacity="1"><g transform="translate(65.979155, 200.890634)"><g><path d="M -7.390625 -34.515625 L 4.8125 -38.84375 L 9.765625 -19.921875 C 10.148438 -18.578125 10.507812 -17.375 10.84375 -16.3125 C 11.132812 -15.25 11.503906 -14.378906 11.953125 -13.703125 C 12.390625 -13.023438 12.914062 -12.570312 13.53125 -12.34375 C 14.113281 -12.070312 14.875 -12.066406 15.8125 -12.328125 C 15.894531 -12.347656 16 -12.40625 16.125 -12.5 C 16.207031 -12.519531 16.320312 -12.550781 16.46875 -12.59375 C 17.601562 -13 18.414062 -13.476562 18.90625 -14.03125 C 19.414062 -14.570312 19.707031 -15.222656 19.78125 -15.984375 C 19.875 -16.722656 19.800781 -17.628906 19.5625 -18.703125 C 19.269531 -19.710938 18.921875 -20.9375 18.515625 -22.375 L 13.375 -40.359375 L 25.5 -44.671875 L 30.640625 -26.6875 C 31.285156 -24.425781 31.765625 -22.191406 32.078125 -19.984375 C 32.410156 -17.722656 32.257812 -15.578125 31.625 -13.546875 C 31 -11.523438 29.695312 -9.6875 27.71875 -8.03125 C 25.75 -6.320312 22.773438 -4.910156 18.796875 -3.796875 C 15.140625 -2.765625 12.097656 -2.476562 9.671875 -2.9375 C 7.179688 -3.394531 5.144531 -4.320312 3.5625 -5.71875 C 1.925781 -7.0625 0.644531 -8.773438 -0.28125 -10.859375 C -1.195312 -12.910156 -1.960938 -15.023438 -2.578125 -17.203125 Z M -7.390625 -34.515625 "/></g></g></g><g fill="#f57d45" fill-opacity="1"><g transform="translate(100.910257, 190.036488)"><g><path d="M 10.5 -37.921875 L 11.34375 -27.5625 C 11.644531 -28.914062 12.097656 -30.285156 12.703125 -31.671875 C 13.253906 -33.015625 13.941406 -34.222656 14.765625 -35.296875 C 15.554688 -36.359375 16.457031 -37.269531 17.46875 -38.03125 C 18.4375 -38.75 19.488281 -39.1875 20.625 -39.34375 C 24.445312 -39.84375 27.34375 -39.445312 29.3125 -38.15625 C 31.226562 -36.851562 32.65625 -34.472656 33.59375 -31.015625 C 33.957031 -32.359375 34.441406 -33.679688 35.046875 -34.984375 C 35.609375 -36.222656 36.28125 -37.382812 37.0625 -38.46875 C 37.84375 -39.488281 38.71875 -40.347656 39.6875 -41.046875 C 40.664062 -41.722656 41.703125 -42.132812 42.796875 -42.28125 C 46.234375 -42.726562 48.914062 -42.472656 50.84375 -41.515625 C 52.726562 -40.492188 54.1875 -38.625 55.21875 -35.90625 C 56.21875 -33.175781 56.972656 -29.515625 57.484375 -24.921875 C 57.953125 -20.273438 58.484375 -14.570312 59.078125 -7.8125 L 44.84375 -5.9375 C 44.851562 -6.945312 44.851562 -8.28125 44.84375 -9.9375 C 44.78125 -11.519531 44.695312 -13.226562 44.59375 -15.0625 C 44.445312 -16.882812 44.269531 -18.726562 44.0625 -20.59375 C 43.863281 -22.46875 43.617188 -24.160156 43.328125 -25.671875 C 42.992188 -27.128906 42.597656 -28.316406 42.140625 -29.234375 C 41.671875 -30.128906 41.109375 -30.535156 40.453125 -30.453125 C 39.160156 -30.285156 38.023438 -29.847656 37.046875 -29.140625 C 36.035156 -28.410156 35.195312 -27.597656 34.53125 -26.703125 C 34.976562 -23.992188 35.394531 -20.84375 35.78125 -17.25 C 36.101562 -13.65625 36.476562 -9.53125 36.90625 -4.875 L 22.671875 -3 C 22.679688 -4.019531 22.675781 -5.351562 22.65625 -7 C 22.59375 -8.582031 22.515625 -10.296875 22.421875 -12.140625 C 22.273438 -13.953125 22.101562 -15.796875 21.90625 -17.671875 C 21.695312 -19.535156 21.445312 -21.222656 21.15625 -22.734375 C 20.8125 -24.191406 20.410156 -25.378906 19.953125 -26.296875 C 19.492188 -27.203125 18.929688 -27.609375 18.265625 -27.515625 C 16.691406 -27.304688 15.335938 -26.742188 14.203125 -25.828125 C 13.054688 -24.859375 12.226562 -23.773438 11.71875 -22.578125 L 13.390625 -1.765625 L 1.640625 -0.21875 C 1.097656 -4.28125 0.554688 -8.378906 0.015625 -12.515625 C -0.566406 -16.609375 -1.082031 -20.347656 -1.53125 -23.734375 C -2.101562 -27.703125 -2.664062 -31.535156 -3.21875 -35.234375 Z M 10.5 -37.921875 "/></g></g></g><g fill="#f57d45" fill-opacity="1"><g transform="translate(159.99277, 183.223294)"><g/></g></g><g fill="#f57d45" fill-opacity="1"><g transform="translate(183.879757, 182.866241)"><g><path d="M 3.21875 -34.640625 L 10 -34.28125 L 10.71875 -48.203125 L 24.9375 -48.921875 L 23.15625 -33.921875 L 32.75 -33.8125 L 31.171875 -20.015625 L 22.328125 -20.59375 L 20.734375 1.5 L 7.0625 0.515625 L 9.28125 -21.234375 L 2.625 -21.296875 Z M 3.21875 -34.640625 "/></g></g></g><g fill="#f57d45" fill-opacity="1"><g transform="translate(213.558422, 185.206331)"><g><path d="M 4.8125 -22.640625 L 18.71875 -21.546875 L 14.921875 2.109375 L 1.78125 0.25 Z M 6.046875 -34.5625 C 6.441406 -37.375 7.265625 -39.25 8.515625 -40.1875 C 9.722656 -41.132812 11.800781 -41.394531 14.75 -40.96875 C 16.375 -40.75 17.609375 -40.363281 18.453125 -39.8125 C 19.296875 -39.195312 19.878906 -38.503906 20.203125 -37.734375 C 20.523438 -36.953125 20.675781 -36.128906 20.65625 -35.265625 C 20.5625 -34.347656 20.457031 -33.460938 20.34375 -32.609375 C 20.207031 -31.660156 20.03125 -30.742188 19.8125 -29.859375 C 19.53125 -28.929688 19.101562 -28.132812 18.53125 -27.46875 C 17.894531 -26.78125 17.070312 -26.289062 16.0625 -26 C 15.039062 -25.664062 13.671875 -25.617188 11.953125 -25.859375 C 10.378906 -26.085938 9.175781 -26.5 8.34375 -27.09375 C 7.457031 -27.65625 6.828125 -28.328125 6.453125 -29.109375 C 6.078125 -29.898438 5.882812 -30.78125 5.875 -31.75 C 5.851562 -32.675781 5.910156 -33.613281 6.046875 -34.5625 Z M 6.046875 -34.5625 "/></g></g></g><g fill="#f57d45" fill-opacity="1"><g transform="translate(228.874084, 186.007202)"><g><path d="M 23.9375 -31.234375 L 20.84375 -21.296875 C 21.625 -22.441406 22.550781 -23.550781 23.625 -24.625 C 24.644531 -25.644531 25.738281 -26.5 26.90625 -27.1875 C 28.03125 -27.882812 29.207031 -28.398438 30.4375 -28.734375 C 31.613281 -29.023438 32.753906 -29.03125 33.859375 -28.75 C 37.585938 -27.78125 40.125 -26.332031 41.46875 -24.40625 C 42.757812 -22.476562 43.191406 -19.738281 42.765625 -16.1875 C 43.609375 -17.300781 44.550781 -18.34375 45.59375 -19.3125 C 46.582031 -20.25 47.640625 -21.066406 48.765625 -21.765625 C 49.878906 -22.429688 51.015625 -22.910156 52.171875 -23.203125 C 53.335938 -23.441406 54.457031 -23.425781 55.53125 -23.15625 C 58.875 -22.289062 61.257812 -21.050781 62.6875 -19.4375 C 64.050781 -17.800781 64.703125 -15.523438 64.640625 -12.609375 C 64.535156 -9.703125 63.863281 -6.023438 62.625 -1.578125 C 61.320312 2.910156 59.679688 8.398438 57.703125 14.890625 L 43.796875 11.296875 C 44.191406 10.359375 44.6875 9.117188 45.28125 7.578125 C 45.820312 6.085938 46.390625 4.46875 46.984375 2.71875 C 47.535156 0.988281 48.066406 -0.773438 48.578125 -2.578125 C 49.097656 -4.398438 49.503906 -6.0625 49.796875 -7.5625 C 50.023438 -9.039062 50.097656 -10.289062 50.015625 -11.3125 C 49.921875 -12.320312 49.554688 -12.910156 48.921875 -13.078125 C 47.648438 -13.398438 46.429688 -13.421875 45.265625 -13.140625 C 44.046875 -12.847656 42.960938 -12.40625 42.015625 -11.8125 C 41.421875 -9.144531 40.625 -6.070312 39.625 -2.59375 C 38.59375 0.863281 37.398438 4.828125 36.046875 9.296875 L 22.15625 5.71875 C 22.539062 4.769531 23.03125 3.53125 23.625 2 C 24.15625 0.5 24.722656 -1.117188 25.328125 -2.859375 C 25.867188 -4.597656 26.398438 -6.367188 26.921875 -8.171875 C 27.429688 -9.992188 27.832031 -11.65625 28.125 -13.15625 C 28.363281 -14.632812 28.441406 -15.882812 28.359375 -16.90625 C 28.273438 -17.914062 27.90625 -18.503906 27.25 -18.671875 C 25.71875 -19.066406 24.25 -19.050781 22.84375 -18.625 C 21.414062 -18.144531 20.238281 -17.457031 19.3125 -16.5625 L 13.078125 3.375 L 1.609375 0.40625 C 2.628906 -3.5625 3.660156 -7.566406 4.703125 -11.609375 C 5.691406 -15.617188 6.613281 -19.28125 7.46875 -22.59375 C 8.414062 -26.476562 9.332031 -30.238281 10.21875 -33.875 Z M 23.9375 -31.234375 "/></g></g></g><g fill="#f57d45" fill-opacity="1"><g transform="translate(286.031593, 201.456035)"><g><path d="M 39.078125 -0.265625 C 38.210938 1.722656 37.222656 3.550781 36.109375 5.21875 C 34.929688 6.914062 33.492188 8.242188 31.796875 9.203125 C 30.054688 10.148438 27.96875 10.613281 25.53125 10.59375 C 23.03125 10.59375 20.003906 9.859375 16.453125 8.390625 C 12.941406 6.929688 10.367188 5.265625 8.734375 3.390625 C 7.078125 1.503906 6.054688 -0.484375 5.671875 -2.578125 C 5.222656 -4.628906 5.273438 -6.765625 5.828125 -8.984375 C 6.367188 -11.160156 7.070312 -13.296875 7.9375 -15.390625 C 8.800781 -17.472656 9.765625 -19.519531 10.828125 -21.53125 C 11.835938 -23.5 13.191406 -25.144531 14.890625 -26.46875 C 16.566406 -27.757812 18.703125 -28.515625 21.296875 -28.734375 C 23.847656 -28.972656 27.09375 -28.378906 31.03125 -26.953125 L 32.15625 -26.484375 C 35.582031 -25.066406 38.054688 -23.363281 39.578125 -21.375 C 41.035156 -19.363281 41.925781 -17.253906 42.25 -15.046875 C 42.53125 -12.835938 42.40625 -10.648438 41.875 -8.484375 C 41.320312 -6.265625 40.6875 -4.234375 39.96875 -2.390625 L 18.96875 -9 C 18.34375 -7.488281 17.832031 -6.191406 17.4375 -5.109375 C 17.007812 -3.972656 16.78125 -3 16.75 -2.1875 C 16.695312 -1.375 16.890625 -0.695312 17.328125 -0.15625 C 17.710938 0.414062 18.4375 0.925781 19.5 1.375 C 20.570312 1.820312 21.457031 2.015625 22.15625 1.953125 C 22.851562 1.921875 23.460938 1.644531 23.984375 1.125 C 24.484375 0.65625 24.941406 -0.0078125 25.359375 -0.875 C 25.773438 -1.75 26.234375 -2.785156 26.734375 -3.984375 Z M 29.078125 -10.03125 L 29.03125 -10.0625 L 30.546875 -15.21875 C 30.691406 -15.9375 30.570312 -16.660156 30.1875 -17.390625 C 29.8125 -18.109375 29.222656 -18.632812 28.421875 -18.96875 C 27.929688 -19.175781 27.390625 -19.328125 26.796875 -19.421875 C 26.222656 -19.503906 25.675781 -19.492188 25.15625 -19.390625 C 24.59375 -19.304688 24.097656 -19.128906 23.671875 -18.859375 C 23.203125 -18.578125 22.847656 -18.144531 22.609375 -17.5625 L 20.5 -12.65625 L 20.46875 -12.609375 L 29.03125 -10.0625 L 29 -10 Z M 29.078125 -10.03125 "/></g></g></g><g fill="#f57d45" fill-opacity="1"><g transform="translate(319.241176, 215.608168)"><g><path d="M 24.53125 -43.375 L 36.5625 -38.078125 L 18.828125 -6.421875 L 9.34375 -10.390625 Z M 4.625 -3.0625 C 5.71875 -5.207031 6.9375 -6.421875 8.28125 -6.703125 C 9.570312 -7.023438 11.316406 -6.628906 13.515625 -5.515625 C 14.878906 -4.816406 15.863281 -4.125 16.46875 -3.4375 C 17.03125 -2.71875 17.351562 -2.015625 17.4375 -1.328125 C 17.519531 -0.628906 17.4375 0.0625 17.1875 0.75 C 16.945312 1.425781 16.664062 2.085938 16.34375 2.734375 C 15.96875 3.460938 15.5625 4.148438 15.125 4.796875 C 14.644531 5.410156 14.085938 5.878906 13.453125 6.203125 C 12.773438 6.554688 11.972656 6.6875 11.046875 6.59375 C 10.054688 6.519531 8.859375 6.125 7.453125 5.40625 C 6.203125 4.769531 5.300781 4.097656 4.75 3.390625 C 4.132812 2.691406 3.773438 1.96875 3.671875 1.21875 C 3.546875 0.507812 3.585938 -0.21875 3.796875 -0.96875 C 4.003906 -1.6875 4.28125 -2.382812 4.625 -3.0625 Z M 4.625 -3.0625 "/></g></g></g><path stroke-linecap="butt" transform="matrix(0.719284, -0.21244, 0.21244, 0.719284, 50.657524, 114.179604)" fill="none" stroke-linejoin="miter" d="M 18.605711 48.555698 C 19.546565 48.551179 20.356979 48.491843 21.04138 48.362704 C 21.691384 48.239699 22.229999 47.850273 22.660744 47.200896 C 23.086727 46.60442 23.386104 45.682721 23.553879 44.434324 C 23.677267 43.18911 23.677442 41.478476 23.555877 39.297426 L 17.832307 39.295939 C 16.462914 39.298797 15.259031 39.274507 14.222133 39.218075 C 13.195457 39.218969 12.252327 39.157646 11.39274 39.034106 C 10.489907 38.94667 9.675612 38.798492 8.942819 38.576632 C 8.177337 38.410286 7.362578 38.153355 6.503538 37.807316 C 4.400503 37.039557 2.918258 35.732858 2.059752 33.877228 C 1.158905 32.036247 0.705135 29.398651 0.706959 25.972388 C 0.708469 25.158221 0.686689 24.1471 0.646613 22.940499 C 0.600066 21.737417 0.68497 20.475406 0.896329 19.15299 C 1.071248 17.825242 1.439602 16.467733 1.994922 15.083982 C 2.550473 13.754608 3.432177 12.516132 4.636513 11.362083 C 6.007706 10.029224 7.807461 8.936985 10.038729 8.075378 C 12.273179 7.258157 15.32104 6.849529 19.187308 6.850969 C 21.240659 6.84918 23.061881 7.044939 24.652449 7.43325 C 26.193299 7.861185 27.564108 8.423544 28.771348 9.116807 C 29.976207 9.836521 31.007843 10.646273 31.864781 11.551058 C 32.673476 12.490472 33.357759 13.501756 33.924103 14.581391 C 34.823916 16.297159 35.421205 18.08107 35.713925 19.921656 C 35.977245 21.769851 36.108184 23.459471 36.108788 25.001982 C 36.065599 26.803097 35.894013 28.560858 35.587563 30.278788 L 22.911228 30.282063 L 22.909997 24.62286 C 22.906651 22.905755 22.713878 21.572594 22.328727 20.633366 C 21.897145 19.685855 20.933313 19.216544 19.433713 19.21896 C 19.092471 19.215928 18.722398 19.236965 18.334958 19.280027 C 17.952176 19.36248 17.520014 19.44664 17.049935 19.530464 C 15.97799 19.794956 15.232093 20.242638 14.804298 20.882025 C 14.329167 21.534585 14.052593 22.305527 13.970152 23.209836 C 13.8448 24.112333 13.821962 25.072261 13.903683 26.101085 C 13.990062 27.169301 14.028872 28.196314 14.031579 29.180079 C 14.03159 30.467169 14.396994 31.454872 15.13131 32.149657 C 15.810912 32.882591 16.777799 33.249621 18.021979 33.247797 C 19.009263 33.251561 19.951023 33.225587 20.852254 33.17135 C 21.710807 33.169677 22.569359 33.168004 23.426436 33.171327 C 25.354575 33.170572 27.114486 33.26133 28.707644 33.438607 C 30.29195 33.645854 31.663202 34.078006 32.824348 34.725071 C 33.986633 35.405057 34.889897 36.410417 35.527669 37.74467 C 36.124005 39.072116 36.421151 40.897717 36.422057 43.211484 C 36.421778 45.01441 36.102027 46.538335 35.462803 47.783258 C 34.774197 49.029889 33.893609 50.062327 32.822512 50.875575 C 31.703742 51.739912 30.454404 52.402764 29.083014 52.872076 C 27.710148 53.346383 26.339199 53.685487 24.968691 53.894384 C 23.550846 54.116453 22.203943 54.24543 20.91504 54.288352 C 19.581414 54.372373 18.467105 54.412554 17.565642 54.412414 C 15.377088 54.412287 13.490024 54.218805 11.909447 53.833444 C 10.275968 53.443321 8.884504 52.950892 7.73006 52.354684 C 6.570622 51.756999 5.621752 51.053154 4.886403 50.233156 C 4.121316 49.458683 3.525258 48.663532 3.093235 47.84623 C 2.016423 45.920693 1.538631 43.732185 1.666899 41.293648 L 14.741221 42.314852 C 14.737457 43.302137 14.78261 44.178962 14.863738 44.952366 C 14.905476 45.730429 15.057882 46.372824 15.318007 46.889543 C 15.5728 47.442701 15.957673 47.849633 16.482615 48.11329 C 16.955795 48.405104 17.618426 48.551934 18.476979 48.550262 Z M 18.605711 48.555698 " stroke="#f7c548" stroke-width="16.896154" stroke-opacity="1" stroke-miterlimit="4"/><path stroke-linecap="butt" transform="matrix(0.731913, -0.163718, 0.163718, 0.731913, 78.753595, 105.965369)" fill="none" stroke-linejoin="miter" d="M 13.905232 52.936319 C 11.161963 52.936449 8.971842 52.467899 7.337144 51.520503 C 5.663456 50.580396 4.371575 49.293394 3.472803 47.656687 C 2.572895 46.025063 1.996476 44.140239 1.743546 42.002215 C 1.439788 39.852822 1.286507 37.555629 1.291058 35.101607 C 1.289055 32.486008 1.62833 30.229611 2.310555 28.348801 C 3.001207 26.501899 4.014545 24.978018 5.340403 23.774884 C 6.628341 22.621975 8.2181 21.766073 10.103459 21.211121 C 11.991091 20.646004 14.135937 20.362578 16.54816 20.363116 C 19.376164 20.365929 22.2039 20.560815 25.031368 20.947775 C 27.827203 21.332996 30.57823 21.846957 33.280502 22.483439 L 33.077338 65.289115 L 22.07771 65.289034 L 22.138921 51.773321 C 19.051095 52.550306 16.306153 52.939666 13.905232 52.936319 Z M 17.898817 28.926982 C 16.861873 29.148681 16.063283 29.402349 15.505854 29.699286 C 14.909435 30.003514 14.482887 30.431131 14.219989 30.986084 C 13.967189 31.59133 13.824336 32.349259 13.778457 33.246293 C 13.726358 34.147274 13.702146 35.305334 13.70074 36.719336 C 13.704417 38.134474 13.729829 39.357005 13.778113 40.381843 C 13.820178 41.410628 13.970385 42.266132 14.221377 42.957383 C 14.482535 43.650909 14.912293 44.163329 15.509513 44.499726 C 16.062661 44.842276 16.861786 45.015692 17.896723 45.017699 C 19.007366 45.015293 19.867418 44.844755 20.472932 44.499866 C 21.028154 44.165075 21.431094 43.652122 21.681754 42.961005 C 21.943716 42.267079 22.098005 41.410304 22.140674 40.384463 C 22.141545 39.354608 22.141547 38.137762 22.13787 36.722624 C 22.139611 35.474145 22.159809 34.357884 22.203549 33.374978 C 22.200407 32.386922 22.141689 31.551883 22.013284 30.861367 C 21.889962 30.171988 21.65288 29.633286 21.304847 29.256561 C 20.917223 28.913677 20.316391 28.736583 19.498941 28.740528 C 19.030059 28.73705 18.492159 28.803526 17.898817 28.926982 Z M 17.898817 28.926982 " stroke="#f7c548" stroke-width="16.896154" stroke-opacity="1" stroke-miterlimit="4"/><path stroke-linecap="butt" transform="matrix(0.740984, -0.115944, 0.115944, 0.740984, 105.428282, 100.0439)" fill="none" stroke-linejoin="miter" d="M 1.995892 21.587659 L 13.513057 20.822457 L 13.199069 38.259581 C 13.198637 39.508908 13.219139 40.624447 13.260575 41.606196 C 13.259236 42.591796 13.365187 43.430761 13.578431 44.123091 C 13.793285 44.80513 14.140039 45.318026 14.613548 45.660974 C 15.042985 46.049743 15.687144 46.245427 16.546831 46.24288 C 16.630773 46.245472 16.734178 46.22475 16.862192 46.18152 C 16.941793 46.17816 17.052269 46.179631 17.189278 46.179983 C 18.25707 46.094021 19.070168 45.883859 19.625035 45.5384 C 20.190998 45.189406 20.599721 44.699831 20.852813 44.059382 C 21.111366 43.451419 21.261895 42.657858 21.30601 41.668408 C 21.305249 40.729925 21.30421 39.591073 21.306428 38.26295 L 21.242671 21.589105 L 32.697282 20.819387 L 32.76104 37.493232 C 32.76396 39.5971 32.630047 41.632112 32.368785 43.605024 C 32.117325 45.616372 31.471606 47.418422 30.437579 49.006832 C 29.407893 50.601193 27.844069 51.869478 25.735816 52.810076 C 23.641704 53.79506 20.743814 54.290527 17.0489 54.286991 C 13.664025 54.289794 10.984084 53.796653 9.003128 52.811909 C 6.990492 51.82748 5.47402 50.535852 4.446954 48.946512 C 3.366331 47.396236 2.680706 45.612552 2.388469 43.605749 C 2.08545 41.634162 1.933758 39.638808 1.933393 37.619686 Z M 1.995892 21.587659 " stroke="#f7c548" stroke-width="16.896154" stroke-opacity="1" stroke-miterlimit="4"/><path stroke-linecap="butt" transform="matrix(0.746865, -0.0685071, 0.0685071, 0.746865, 132.495728, 95.868078)" fill="none" stroke-linejoin="miter" d="M 32.116864 39.425401 C 32.076165 41.351611 31.880868 43.195648 31.536634 44.952801 C 31.14615 46.758013 30.420107 48.344159 29.352842 49.715948 C 28.233236 51.088167 26.663061 52.183698 24.653167 52.998306 C 22.591836 53.860498 19.838165 54.28784 16.40205 54.28647 C 13.022987 54.290333 10.337962 53.798227 8.357349 52.811102 C 6.350327 51.826785 4.831597 50.536834 3.800684 48.946436 C 2.724472 47.393724 2.035106 45.614986 1.743436 43.605987 C 1.438063 41.632342 1.28643 39.636188 1.288537 37.617525 C 1.290169 35.604048 1.37055 33.587334 1.540055 31.568335 C 1.715651 29.596966 2.280145 27.776334 3.223642 26.1003 C 4.163332 24.465759 5.668171 23.113186 7.732496 22.047291 C 9.74072 20.96579 12.611491 20.345211 16.340571 20.174706 L 17.438788 20.176067 C 20.739101 20.175441 23.360413 20.734926 25.297062 21.859234 C 27.184177 23.010379 28.637245 24.445982 29.667114 26.16181 C 30.649828 27.878542 31.296227 29.726562 31.59689 31.694544 C 31.903168 33.715344 32.075165 35.603531 32.117591 37.36477 L 12.554801 39.095503 C 12.556443 40.560109 12.578067 41.80688 12.619671 42.835815 C 12.657946 43.901056 12.807181 44.782958 13.05748 45.475382 C 13.27761 46.154579 13.666705 46.645297 14.219102 46.952246 C 14.731387 47.297357 15.510705 47.468215 16.546207 47.469054 C 17.571336 47.468941 18.364591 47.316805 18.920784 47.012169 C 19.473171 46.749025 19.883758 46.321199 20.142648 45.722553 C 20.407628 45.171537 20.556266 44.463403 20.598458 43.60429 C 20.640649 42.745178 20.660332 41.732325 20.662216 40.571393 Z M 20.538641 34.791149 L 20.475926 34.790627 L 19.955906 30.025288 C 19.821569 29.380112 19.47544 28.820113 18.917521 28.345291 C 18.364312 27.876131 17.695862 27.63699 16.92159 27.639192 C 16.450994 27.637868 15.958653 27.702541 15.445044 27.828026 C 14.930483 27.963884 14.483777 28.158269 14.094552 28.410228 C 13.662883 28.668753 13.318863 28.998082 13.058733 29.382176 C 12.761345 29.773314 12.619032 30.241438 12.615282 30.795495 L 12.554836 35.559892 L 12.554314 35.622607 L 20.475926 34.790627 L 20.475404 34.853341 Z M 20.538641 34.791149 " stroke="#f7c548" stroke-width="16.896154" stroke-opacity="1" stroke-miterlimit="4"/><path stroke-linecap="butt" transform="matrix(0.749674, -0.0221274, 0.0221274, 0.749674, 158.760155, 93.506617)" fill="none" stroke-linejoin="miter" d="M 1.289321 45.538624 C 1.290987 44.246444 1.525832 43.174781 1.994162 42.313223 C 2.467546 41.457025 3.092194 40.772031 3.862901 40.258087 C 4.628401 39.74399 5.530317 39.374605 6.568494 39.155139 C 7.595951 38.945778 8.688014 38.842536 9.850043 38.84036 C 11.902923 38.843636 13.964661 39.07644 16.029742 39.549031 C 18.036327 40.061579 19.729626 40.596145 21.104433 41.152573 L 21.104378 32.857294 L 2.575153 34.457153 L 2.57642 20.821045 C 6.524923 20.859431 10.259055 20.922752 13.778817 21.011009 C 17.246672 21.092524 20.31243 21.203856 22.97104 21.339644 C 26.062521 21.462156 28.919422 21.588165 31.536537 21.717518 L 31.222904 52.997923 L 21.369628 52.998888 L 21.182978 48.553946 C 19.673071 49.926663 17.932291 51.000772 15.965842 51.776427 C 13.940897 52.592039 11.96974 52.997602 10.041806 52.998014 C 8.582724 53.001843 7.296844 52.786729 6.1736 52.357569 C 5.064745 51.970519 4.163536 51.43328 3.475026 50.751212 C 2.750228 50.062862 2.216228 49.26551 1.867667 48.364209 C 1.482664 47.461832 1.286309 46.523339 1.289321 45.538624 Z M 9.585793 45.851241 C 9.583721 46.627559 9.890363 47.183723 10.494998 47.529837 C 11.093198 47.917447 11.884655 48.112757 12.86937 48.115769 C 13.380025 48.11521 13.899728 47.984652 14.423427 47.718737 C 14.893374 47.508553 15.343727 47.256104 15.774791 46.950981 C 16.195444 46.64555 16.617941 46.277647 17.047333 45.85263 C 16.617111 45.423084 16.195917 45.040699 15.773341 44.705169 C 15.344636 44.400722 14.894493 44.116484 14.422911 43.852456 C 13.902784 43.644311 13.379583 43.540288 12.868928 43.540848 C 11.884059 43.543042 11.091643 43.733288 10.496578 44.122151 C 9.889872 44.552355 9.586328 45.126983 9.585793 45.851241 Z M 9.585793 45.851241 " stroke="#f7c548" stroke-width="16.896154" stroke-opacity="1" stroke-miterlimit="4"/><path stroke-linecap="butt" transform="matrix(0.749551, 0.0259483, -0.0259483, 0.749551, 184.749309, 92.749871)" fill="none" stroke-linejoin="miter" d="M 14.485666 7.889141 L 13.385763 33.1715 C 13.470848 33.220669 13.576034 33.248296 13.701139 33.249176 C 13.964644 33.33386 14.226706 33.376903 14.487147 33.373098 C 14.956157 33.372496 15.493716 33.244446 16.089232 32.984103 C 16.644728 32.772049 17.179362 32.258453 17.693134 31.443314 C 18.218578 30.664252 18.648305 29.528913 18.982135 28.032092 C 19.327457 26.566142 19.498782 24.590281 19.501497 22.109535 L 35.273558 20.818292 C 35.182788 21.207082 35.007875 21.874992 34.759049 22.816456 C 34.452965 23.759902 34.067922 24.831157 33.593691 26.035786 C 33.124304 27.229824 32.54723 28.474493 31.867313 29.759202 C 31.130318 31.051099 30.274124 32.211625 29.288499 33.246345 C 28.293726 34.317862 27.156589 35.19106 25.877269 35.871146 C 24.546257 36.563444 23.047016 36.912398 21.368774 36.907959 C 23.297047 36.908954 24.967061 37.127348 26.383662 37.552549 C 27.80709 38.024418 29.011018 38.62896 29.995267 39.36097 C 30.938955 40.125653 31.708549 40.979747 32.304048 41.923251 C 32.859528 42.915043 33.289902 43.905954 33.594991 44.89078 C 34.369815 47.250803 34.582516 49.93255 34.238301 52.93584 L 21.371307 52.938303 L 21.246254 44.057103 C 21.246491 43.160725 21.153956 42.444748 20.974395 41.924607 C 20.768987 41.410573 20.510828 41.028651 20.20494 40.773456 C 19.862436 40.514318 19.501994 40.339183 19.123975 40.258463 C 18.695166 40.215982 18.282692 40.193781 17.896966 40.1915 C 16.568194 40.195809 15.430435 40.448866 14.489433 40.966107 C 13.532636 41.478684 13.059105 42.553002 13.058249 44.184216 L 12.871329 52.935507 L 1.098692 52.936564 L 0.894709 8.656692 Z M 14.485666 7.889141 " stroke="#f7c548" stroke-width="16.896154" stroke-opacity="1" stroke-miterlimit="4"/><path stroke-linecap="butt" transform="matrix(0.746174, 0.0756589, -0.0756589, 0.746174, 212.921827, 93.777356)" fill="none" stroke-linejoin="miter" d="M 1.602909 53.187737 L 5.28112 55.955805 C 5.364553 55.95258 5.424705 55.977891 5.466757 56.031213 L 5.592695 56.034148 C 6.158684 56.453148 6.802635 56.660076 7.525075 56.660114 C 8.174444 56.662326 8.759313 56.493087 9.269845 56.158629 C 9.783528 55.855262 10.234361 55.448332 10.621817 54.932657 C 11.009273 54.416982 11.348445 53.838147 11.643988 53.190446 C 11.902806 52.593584 12.166806 51.996196 12.430806 51.398808 L 12.429976 50.048252 C 11.431278 48.149731 10.317096 45.938347 9.082249 43.414626 C 7.835009 40.923571 6.589201 38.343376 5.340694 35.684929 C 4.05441 33.066957 2.809127 30.491943 1.600714 27.970777 C 0.369019 25.478146 -0.751323 23.309267 -1.744766 21.462563 L 12.554909 20.818832 L 19.37411 40.004837 C 19.583738 39.439137 19.779632 38.686369 19.956086 37.741875 C 20.122177 36.798433 20.380653 35.578635 20.726331 34.083009 C 21.028526 32.623202 21.457802 30.867818 22.012583 28.80131 C 22.567889 26.739985 23.340322 24.290191 24.325753 21.462817 L 37.709162 20.817761 L 23.743709 54.806211 C 23.104246 56.347331 22.29056 57.822356 21.308358 59.235942 C 20.320975 60.650053 19.186183 61.901119 17.897751 62.979303 C 16.60729 64.089103 15.167772 64.967969 13.574015 65.616428 C 11.953299 66.25715 10.19014 66.577273 8.294901 66.575746 C 6.79768 66.575742 5.496551 66.341218 4.385807 65.867519 C 3.26372 65.43685 2.33644 64.965488 1.603965 64.453433 C 1.129291 64.108935 0.660632 63.617246 0.187626 62.979417 C -0.323156 62.382063 -0.815839 61.756699 -1.289896 61.108506 Z M 1.602909 53.187737 " stroke="#f7c548" stroke-width="16.896154" stroke-opacity="1" stroke-miterlimit="4"/><g fill="#f57d45" fill-opacity="1"><g transform="translate(61.916827, 152.30165)"><g><path d="M 12.4375 -7.140625 C 13.125 -7.335938 13.695312 -7.554688 14.15625 -7.796875 C 14.582031 -8.023438 14.878906 -8.421875 15.046875 -8.984375 C 15.234375 -9.503906 15.265625 -10.226562 15.140625 -11.15625 C 14.953125 -12.082031 14.585938 -13.316406 14.046875 -14.859375 L 9.921875 -13.640625 C 8.929688 -13.347656 8.0625 -13.109375 7.3125 -12.921875 C 6.570312 -12.703125 5.878906 -12.550781 5.234375 -12.46875 C 4.566406 -12.332031 3.941406 -12.269531 3.359375 -12.28125 C 2.785156 -12.226562 2.148438 -12.234375 1.453125 -12.296875 C -0.222656 -12.421875 -1.566406 -13.046875 -2.578125 -14.171875 C -3.609375 -15.316406 -4.488281 -17.125 -5.21875 -19.59375 C -5.394531 -20.175781 -5.628906 -20.898438 -5.921875 -21.765625 C -6.203125 -22.609375 -6.410156 -23.53125 -6.546875 -24.53125 C -6.691406 -25.53125 -6.710938 -26.578125 -6.609375 -27.671875 C -6.492188 -28.765625 -6.128906 -29.851562 -5.515625 -30.9375 C -4.804688 -32.175781 -3.742188 -33.347656 -2.328125 -34.453125 C -0.878906 -35.503906 1.226562 -36.441406 4 -37.265625 C 5.476562 -37.703125 6.832031 -37.945312 8.0625 -38 C 9.25 -38.03125 10.347656 -37.925781 11.359375 -37.6875 C 12.378906 -37.414062 13.296875 -37.046875 14.109375 -36.578125 C 14.898438 -36.066406 15.609375 -35.484375 16.234375 -34.828125 C 17.253906 -33.796875 18.0625 -32.644531 18.65625 -31.375 C 19.238281 -30.101562 19.691406 -28.914062 20.015625 -27.8125 C 20.367188 -26.5 20.617188 -25.191406 20.765625 -23.890625 L 11.65625 -21.203125 L 10.453125 -25.28125 C 10.085938 -26.519531 9.664062 -27.4375 9.1875 -28.03125 C 8.675781 -28.625 7.882812 -28.757812 6.8125 -28.4375 C 6.5625 -28.363281 6.296875 -28.269531 6.015625 -28.15625 C 5.765625 -28.007812 5.476562 -27.851562 5.15625 -27.6875 C 4.4375 -27.28125 3.992188 -26.796875 3.828125 -26.234375 C 3.617188 -25.671875 3.582031 -25.054688 3.71875 -24.390625 C 3.8125 -23.710938 4 -23.015625 4.28125 -22.296875 C 4.5625 -21.546875 4.804688 -20.816406 5.015625 -20.109375 C 5.296875 -19.179688 5.769531 -18.550781 6.4375 -18.21875 C 7.082031 -17.832031 7.859375 -17.769531 8.765625 -18.03125 C 9.472656 -18.238281 10.148438 -18.457031 10.796875 -18.6875 C 11.410156 -18.863281 12.023438 -19.039062 12.640625 -19.21875 C 14.023438 -19.632812 15.3125 -19.953125 16.5 -20.171875 C 17.675781 -20.359375 18.75 -20.335938 19.71875 -20.109375 C 20.695312 -19.867188 21.5625 -19.335938 22.3125 -18.515625 C 23.019531 -17.679688 23.617188 -16.4375 24.109375 -14.78125 C 24.492188 -13.476562 24.585938 -12.3125 24.390625 -11.28125 C 24.160156 -10.238281 23.742188 -9.3125 23.140625 -8.5 C 22.535156 -7.632812 21.785156 -6.890625 20.890625 -6.265625 C 20.003906 -5.628906 19.09375 -5.097656 18.15625 -4.671875 C 17.1875 -4.203125 16.242188 -3.816406 15.328125 -3.515625 C 14.378906 -3.171875 13.578125 -2.90625 12.921875 -2.71875 C 11.359375 -2.25 9.960938 -1.988281 8.734375 -1.9375 C 7.472656 -1.863281 6.367188 -1.921875 5.421875 -2.109375 C 4.453125 -2.285156 3.617188 -2.597656 2.921875 -3.046875 C 2.210938 -3.421875 1.613281 -3.859375 1.125 -4.359375 C -0.0507812 -5.515625 -0.851562 -6.988281 -1.28125 -8.78125 L 8.328125 -10.8125 C 8.535156 -10.101562 8.757812 -9.476562 9 -8.9375 C 9.1875 -8.394531 9.425781 -7.960938 9.71875 -7.640625 C 10.019531 -7.304688 10.382812 -7.097656 10.8125 -7.015625 C 11.21875 -6.898438 11.734375 -6.929688 12.359375 -7.109375 Z M 12.4375 -7.140625 "/></g></g></g><g fill="#f57d45" fill-opacity="1"><g transform="translate(87.430666, 144.756744)"><g><path d="M 10.15625 -2.328125 C 8.15625 -1.878906 6.484375 -1.863281 5.140625 -2.28125 C 3.753906 -2.707031 2.597656 -3.4375 1.671875 -4.46875 C 0.742188 -5.519531 0.0078125 -6.804688 -0.53125 -8.328125 C -1.09375 -9.867188 -1.570312 -11.53125 -1.96875 -13.3125 C -2.40625 -15.226562 -2.53125 -16.925781 -2.34375 -18.40625 C -2.132812 -19.875 -1.644531 -21.15625 -0.875 -22.25 C -0.113281 -23.3125 0.90625 -24.203125 2.1875 -24.921875 C 3.476562 -25.640625 5.003906 -26.191406 6.765625 -26.578125 C 8.835938 -27.046875 10.941406 -27.367188 13.078125 -27.546875 C 15.171875 -27.734375 17.257812 -27.8125 19.34375 -27.78125 L 26.234375 3.578125 L 18.171875 5.390625 L 16 -4.53125 C 13.863281 -3.445312 11.914062 -2.710938 10.15625 -2.328125 Z M 9.15625 -20.53125 C 8.4375 -20.207031 7.894531 -19.890625 7.53125 -19.578125 C 7.144531 -19.273438 6.90625 -18.894531 6.8125 -18.4375 C 6.71875 -17.957031 6.726562 -17.378906 6.84375 -16.703125 C 6.957031 -16.046875 7.128906 -15.203125 7.359375 -14.171875 C 7.597656 -13.140625 7.816406 -12.238281 8.015625 -11.46875 C 8.210938 -10.726562 8.46875 -10.128906 8.78125 -9.671875 C 9.070312 -9.210938 9.460938 -8.90625 9.953125 -8.75 C 10.421875 -8.59375 11.03125 -8.597656 11.78125 -8.765625 C 12.59375 -8.953125 13.191406 -9.21875 13.578125 -9.5625 C 13.929688 -9.90625 14.148438 -10.347656 14.234375 -10.890625 C 14.304688 -11.429688 14.273438 -12.082031 14.140625 -12.84375 C 13.972656 -13.613281 13.769531 -14.515625 13.53125 -15.546875 C 13.332031 -16.453125 13.164062 -17.269531 13.03125 -18 C 12.875 -18.726562 12.691406 -19.332031 12.484375 -19.8125 C 12.273438 -20.289062 12.007812 -20.640625 11.6875 -20.859375 C 11.363281 -21.054688 10.898438 -21.085938 10.296875 -20.953125 C 9.953125 -20.878906 9.570312 -20.738281 9.15625 -20.53125 Z M 9.15625 -20.53125 "/></g></g></g><g fill="#f57d45" fill-opacity="1"><g transform="translate(111.573292, 139.31604)"><g><path d="M -2.15625 -23.5 L 6.28125 -25.40625 L 8.0625 -12.4375 C 8.195312 -11.53125 8.335938 -10.707031 8.484375 -9.96875 C 8.597656 -9.238281 8.78125 -8.632812 9.03125 -8.15625 C 9.269531 -7.664062 9.585938 -7.320312 9.984375 -7.125 C 10.335938 -6.882812 10.832031 -6.816406 11.46875 -6.921875 C 11.53125 -6.929688 11.601562 -6.957031 11.6875 -7 C 11.75 -7.007812 11.832031 -7.023438 11.9375 -7.046875 C 12.71875 -7.234375 13.300781 -7.488281 13.6875 -7.8125 C 14.050781 -8.125 14.296875 -8.535156 14.421875 -9.046875 C 14.535156 -9.523438 14.550781 -10.128906 14.46875 -10.859375 C 14.351562 -11.566406 14.222656 -12.40625 14.078125 -13.375 L 12.09375 -25.734375 L 20.484375 -27.640625 L 22.46875 -15.28125 C 22.707031 -13.726562 22.847656 -12.207031 22.890625 -10.71875 C 22.941406 -9.1875 22.671875 -7.78125 22.078125 -6.5 C 21.503906 -5.1875 20.5 -4.0625 19.0625 -3.125 C 17.613281 -2.15625 15.523438 -1.457031 12.796875 -1.03125 C 10.285156 -0.632812 8.238281 -0.6875 6.65625 -1.1875 C 5.050781 -1.675781 3.769531 -2.457031 2.8125 -3.53125 C 1.84375 -4.539062 1.128906 -5.78125 0.671875 -7.25 C 0.222656 -8.664062 -0.113281 -10.117188 -0.34375 -11.609375 Z M -2.15625 -23.5 "/></g></g></g><g fill="#f57d45" fill-opacity="1"><g transform="translate(136.126602, 135.4519)"><g><path d="M 23.046875 -12.34375 C 23.148438 -10.894531 23.140625 -9.5 23.015625 -8.15625 C 22.847656 -6.789062 22.410156 -5.5625 21.703125 -4.46875 C 20.953125 -3.363281 19.851562 -2.4375 18.40625 -1.6875 C 16.9375 -0.90625 14.921875 -0.394531 12.359375 -0.15625 C 9.828125 0.0703125 7.785156 -0.113281 6.234375 -0.71875 C 4.660156 -1.3125 3.429688 -2.171875 2.546875 -3.296875 C 1.648438 -4.378906 1.019531 -5.660156 0.65625 -7.140625 C 0.300781 -8.597656 0.0546875 -10.078125 -0.078125 -11.578125 C -0.222656 -13.078125 -0.300781 -14.59375 -0.3125 -16.125 C -0.320312 -17.601562 -0.0351562 -19 0.546875 -20.3125 C 1.140625 -21.59375 2.171875 -22.707031 3.640625 -23.65625 C 5.078125 -24.582031 7.1875 -25.238281 9.96875 -25.625 L 10.78125 -25.6875 C 13.25 -25.914062 15.238281 -25.6875 16.75 -25 C 18.238281 -24.257812 19.425781 -23.285156 20.3125 -22.078125 C 21.175781 -20.867188 21.789062 -19.535156 22.15625 -18.078125 C 22.507812 -16.578125 22.757812 -15.179688 22.90625 -13.890625 L 8.40625 -11.234375 C 8.507812 -10.148438 8.609375 -9.222656 8.703125 -8.453125 C 8.816406 -7.660156 8.992188 -7.007812 9.234375 -6.5 C 9.453125 -6.019531 9.78125 -5.679688 10.21875 -5.484375 C 10.625 -5.273438 11.210938 -5.207031 11.984375 -5.28125 C 12.742188 -5.34375 13.320312 -5.503906 13.71875 -5.765625 C 14.113281 -6.003906 14.390625 -6.351562 14.546875 -6.8125 C 14.691406 -7.238281 14.753906 -7.773438 14.734375 -8.421875 C 14.710938 -9.078125 14.664062 -9.835938 14.59375 -10.703125 Z M 14.078125 -15 L 14.03125 -15 L 13.328125 -18.53125 C 13.179688 -19 12.882812 -19.390625 12.4375 -19.703125 C 11.988281 -20.015625 11.476562 -20.144531 10.90625 -20.09375 C 10.550781 -20.0625 10.1875 -19.984375 9.8125 -19.859375 C 9.425781 -19.722656 9.097656 -19.546875 8.828125 -19.328125 C 8.535156 -19.097656 8.300781 -18.832031 8.125 -18.53125 C 7.925781 -18.21875 7.847656 -17.859375 7.890625 -17.453125 L 8.171875 -13.890625 L 8.171875 -13.84375 L 14.03125 -15 L 14.03125 -14.953125 Z M 14.078125 -15 "/></g></g></g><g fill="#f57d45" fill-opacity="1"><g transform="translate(159.932906, 133.239313)"><g><path d="M 0.796875 -5.625 C 0.773438 -6.59375 0.929688 -7.40625 1.265625 -8.0625 C 1.597656 -8.71875 2.046875 -9.242188 2.609375 -9.640625 C 3.179688 -10.046875 3.847656 -10.335938 4.609375 -10.515625 C 5.378906 -10.703125 6.203125 -10.8125 7.078125 -10.84375 C 8.617188 -10.882812 10.164062 -10.753906 11.71875 -10.453125 C 13.238281 -10.109375 14.519531 -9.738281 15.5625 -9.34375 L 15.375 -15.578125 L 1.53125 -13.96875 L 1.21875 -24.1875 C 4.1875 -24.226562 6.988281 -24.253906 9.625 -24.265625 C 12.226562 -24.285156 14.53125 -24.28125 16.53125 -24.25 C 18.832031 -24.21875 20.972656 -24.179688 22.953125 -24.140625 L 23.390625 -0.6875 L 16.03125 -0.46875 L 15.78125 -3.796875 C 14.6875 -2.734375 13.40625 -1.894531 11.9375 -1.28125 C 10.445312 -0.613281 8.976562 -0.257812 7.53125 -0.21875 C 6.4375 -0.1875 5.46875 -0.320312 4.625 -0.625 C 3.769531 -0.882812 3.082031 -1.265625 2.5625 -1.765625 C 1.988281 -2.265625 1.566406 -2.847656 1.296875 -3.515625 C 0.992188 -4.179688 0.828125 -4.882812 0.796875 -5.625 Z M 7.03125 -5.578125 C 7.050781 -4.992188 7.289062 -4.582031 7.75 -4.34375 C 8.207031 -4.0625 8.804688 -3.929688 9.546875 -3.953125 C 9.929688 -3.960938 10.316406 -4.066406 10.703125 -4.265625 C 11.046875 -4.441406 11.375 -4.644531 11.6875 -4.875 C 12.007812 -5.113281 12.328125 -5.398438 12.640625 -5.734375 C 12.304688 -6.046875 11.972656 -6.320312 11.640625 -6.5625 C 11.316406 -6.78125 10.972656 -6.984375 10.609375 -7.171875 C 10.222656 -7.316406 9.835938 -7.382812 9.453125 -7.375 C 8.710938 -7.351562 8.117188 -7.191406 7.671875 -6.890625 C 7.222656 -6.554688 7.007812 -6.117188 7.03125 -5.578125 Z M 7.03125 -5.578125 "/></g></g></g><g fill="#f57d45" fill-opacity="1"><g transform="translate(183.374047, 132.47607)"><g><path d="M 12.03125 -33.4375 L 10.5625 -14.5 C 10.625 -14.46875 10.703125 -14.445312 10.796875 -14.4375 C 10.984375 -14.375 11.175781 -14.335938 11.375 -14.328125 C 11.726562 -14.316406 12.128906 -14.398438 12.578125 -14.578125 C 13.003906 -14.722656 13.414062 -15.097656 13.8125 -15.703125 C 14.226562 -16.253906 14.578125 -17.09375 14.859375 -18.21875 C 15.160156 -19.3125 15.34375 -20.789062 15.40625 -22.65625 L 27.265625 -23.203125 C 27.191406 -22.921875 27.046875 -22.425781 26.828125 -21.71875 C 26.578125 -21.019531 26.257812 -20.222656 25.875 -19.328125 C 25.488281 -18.441406 25.023438 -17.523438 24.484375 -16.578125 C 23.898438 -15.628906 23.222656 -14.78125 22.453125 -14.03125 C 21.679688 -13.257812 20.804688 -12.632812 19.828125 -12.15625 C 18.816406 -11.675781 17.6875 -11.460938 16.4375 -11.515625 C 17.882812 -11.460938 19.128906 -11.253906 20.171875 -10.890625 C 21.210938 -10.503906 22.097656 -10.023438 22.828125 -9.453125 C 23.515625 -8.847656 24.070312 -8.179688 24.5 -7.453125 C 24.894531 -6.703125 25.1875 -5.953125 25.375 -5.203125 C 25.90625 -3.410156 26 -1.394531 25.65625 0.84375 L 16.015625 0.5 L 16.140625 -6.15625 C 16.160156 -6.832031 16.113281 -7.363281 16 -7.75 C 15.863281 -8.144531 15.679688 -8.441406 15.453125 -8.640625 C 15.203125 -8.835938 14.929688 -8.976562 14.640625 -9.0625 C 14.328125 -9.101562 14.023438 -9.128906 13.734375 -9.140625 C 12.742188 -9.179688 11.890625 -9.019531 11.171875 -8.65625 C 10.453125 -8.289062 10.070312 -7.492188 10.03125 -6.265625 L 9.65625 0.28125 L 0.828125 -0.015625 L 1.828125 -33.21875 Z M 12.03125 -33.4375 "/></g></g></g><g fill="#f57d45" fill-opacity="1"><g transform="translate(208.911905, 133.324579)"><g><path d="M 1.1875 0.265625 L 3.71875 2.609375 C 3.78125 2.609375 3.828125 2.628906 3.859375 2.671875 L 3.953125 2.671875 C 4.328125 3.035156 4.785156 3.242188 5.328125 3.296875 C 5.816406 3.347656 6.269531 3.265625 6.6875 3.046875 C 7.09375 2.867188 7.457031 2.601562 7.78125 2.25 C 8.09375 1.894531 8.390625 1.484375 8.671875 1.015625 C 8.910156 0.585938 9.148438 0.160156 9.390625 -0.265625 L 9.484375 -1.265625 C 8.890625 -2.753906 8.226562 -4.488281 7.5 -6.46875 C 6.75 -8.414062 6.015625 -10.429688 5.296875 -12.515625 C 4.535156 -14.554688 3.800781 -16.570312 3.09375 -18.5625 C 2.351562 -20.507812 1.6875 -22.207031 1.09375 -23.65625 L 11.796875 -23.0625 L 15.4375 -8.234375 C 15.632812 -8.640625 15.835938 -9.179688 16.046875 -9.859375 C 16.242188 -10.554688 16.53125 -11.453125 16.90625 -12.546875 C 17.226562 -13.617188 17.675781 -14.894531 18.25 -16.375 C 18.820312 -17.875 19.585938 -19.644531 20.546875 -21.6875 L 30.578125 -21.15625 L 17.578125 3.140625 C 16.984375 4.242188 16.265625 5.285156 15.421875 6.265625 C 14.566406 7.253906 13.628906 8.101562 12.609375 8.8125 C 11.554688 9.53125 10.414062 10.070312 9.1875 10.4375 C 7.90625 10.800781 6.5625 10.910156 5.15625 10.765625 C 4.039062 10.648438 3.085938 10.375 2.296875 9.9375 C 1.492188 9.53125 0.84375 9.109375 0.34375 8.671875 C 0.0078125 8.367188 -0.304688 7.96875 -0.609375 7.46875 C -0.953125 6.976562 -1.273438 6.472656 -1.578125 5.953125 Z M 1.1875 0.265625 "/></g></g></g></svg>