<svg xmlns="http://www.w3.org/2000/svg" xmlns:xlink="http://www.w3.org/1999/xlink" width="500" zoomAndPan="magnify" viewBox="0 0 375 374.999991" height="500" preserveAspectRatio="xMidYMid meet" version="1.0"><defs><g/></defs><path stroke-linecap="butt" transform="matrix(0.796593, -0.25102, 0.25102, 0.796593, 53.633127, 145.145323)" fill="none" stroke-linejoin="miter" d="M 1.858122 67.225721 C 1.860036 65.367825 2.201325 63.817922 2.881989 62.576014 C 3.561247 61.338566 4.462008 60.34745 5.578403 59.605721 C 6.684472 58.865642 7.984791 58.333885 9.481009 58.020777 C 10.959627 57.716835 12.542794 57.563525 14.22018 57.562499 C 17.186007 57.565378 20.154386 57.902513 23.135888 58.587041 C 26.036909 59.324668 28.479994 60.099428 30.45903 60.899588 L 30.461326 48.925493 L 3.718673 51.237529 L 3.719533 31.549472 C 9.418367 31.609361 14.81301 31.700891 19.890078 31.819844 C 24.897667 31.941421 29.318689 32.103731 33.160415 32.299258 C 37.620177 32.47868 41.739818 32.663708 45.517688 32.844017 L 45.066944 78.002298 L 30.847412 77.99856 L 30.574483 71.581887 C 28.39575 73.562941 25.887424 75.111588 23.043639 76.230883 C 20.126891 77.410547 17.27433 77.997477 14.493474 77.998945 C 12.39005 77.998119 10.530089 77.691526 8.911942 77.068836 C 7.312614 76.51092 6.011497 75.738044 5.011646 74.756072 C 3.967188 73.760043 3.196802 72.610099 2.699081 71.310698 C 2.139154 70.006406 1.860871 68.648658 1.858122 67.225721 Z M 13.836719 67.680575 C 13.837404 68.798833 14.273795 69.608153 15.151758 70.10548 C 16.014503 70.666663 17.15218 70.946705 18.575117 70.943956 C 19.314756 70.946555 20.066014 70.756667 20.821618 70.381809 C 21.501446 70.076243 22.152129 69.707552 22.770612 69.269869 C 23.375713 68.82797 23.988272 68.300155 24.609696 67.681963 C 23.987043 67.059133 23.375936 66.508594 22.773321 66.024478 C 22.150782 65.588025 21.50056 65.177174 20.819845 64.800847 C 20.066409 64.499679 19.315411 64.34639 18.574367 64.348252 C 17.152835 64.34654 16.011039 64.624221 15.152034 65.187162 C 14.274755 65.808093 13.837254 66.636257 13.836719 67.680575 Z M 13.836719 67.680575 " stroke="#f57d45" stroke-width="24.386774" stroke-opacity="1" stroke-miterlimit="4"/><path stroke-linecap="butt" transform="matrix(0.828333, -0.106945, 0.106945, 0.828333, 125.984646, 125.617785)" fill="none" stroke-linejoin="miter" d="M 1.859572 54.956782 C 1.860543 51.99067 1.981364 49.082474 2.223231 46.222916 C 2.478709 43.440569 3.288246 40.932534 4.647801 38.693576 C 6.0096 36.47377 8.140319 34.617323 11.047439 33.139349 C 13.963683 31.700279 18.0853 30.860119 23.407651 30.618269 L 25.086498 30.618096 C 29.726819 30.618295 33.436535 31.361337 36.220885 32.843181 C 38.957947 34.399089 41.034515 36.322437 42.456425 38.604549 C 43.87803 40.962074 44.809731 43.53458 45.247488 46.316831 C 45.671025 49.172697 45.922197 51.902563 45.996966 54.50119 L 29.550918 55.612899 C 29.553695 54.495613 29.513975 53.415283 29.441034 52.373105 C 29.318866 51.310425 29.107512 50.354125 28.804127 49.48969 C 28.426527 48.615674 27.95839 47.895022 27.398517 47.33701 C 26.77744 46.851265 25.945367 46.611794 24.903494 46.609322 C 24.403431 46.61078 23.994341 46.638132 23.679665 46.701252 C 22.257415 46.942049 21.175865 47.283423 20.435613 47.720735 C 19.63566 48.145624 19.074502 48.766396 18.757375 49.579011 C 18.395954 50.442498 18.181004 51.522959 18.121204 52.82623 C 18.062002 54.124863 18.030304 55.794879 18.030749 57.836878 C 18.029702 59.817378 18.059797 61.556678 18.121032 63.054776 C 18.184663 64.534321 18.393154 65.768483 18.75698 66.749185 C 19.076065 67.747689 19.634577 68.498872 20.433713 68.993459 C 21.177187 69.48086 22.259292 69.719601 23.678231 69.723598 C 25.116922 69.720713 26.233326 69.511166 27.033279 69.086278 C 27.835029 68.647474 28.428211 67.997826 28.803547 67.136136 C 29.166765 66.258734 29.377229 65.139967 29.439577 63.780435 C 29.513293 62.47896 29.553059 60.965607 29.553637 59.244415 L 45.995233 57.655836 C 45.920503 60.499246 45.63959 63.259446 45.15773 65.932398 C 44.598508 68.656666 43.541194 71.038394 41.981149 73.076983 C 40.379652 75.180957 38.117423 76.850656 35.1985 78.091316 C 32.29873 79.329734 28.394392 79.94801 23.498803 79.952579 C 18.674588 79.952216 14.832598 79.21096 11.977473 77.729409 C 9.072218 76.307408 6.877292 74.387642 5.397935 71.966071 C 3.900916 69.608241 2.942887 66.947451 2.519209 63.983102 C 2.078773 61.002443 1.858894 57.993669 1.859572 54.956782 Z M 1.859572 54.956782 " stroke="#f57d45" stroke-width="24.386774" stroke-opacity="1" stroke-miterlimit="4"/><path stroke-linecap="butt" transform="matrix(0.835043, -0.0166162, 0.0166162, 0.835043, 170.527508, 120.079562)" fill="none" stroke-linejoin="miter" d="M 19.777079 12.975381 L 18.577302 45.294542 C 19.133562 43.434449 19.913622 41.611554 20.912712 39.830441 C 21.892261 38.091041 23.004344 36.508648 24.244194 35.087847 C 25.484322 33.653017 26.845121 32.501263 28.326405 31.641937 C 29.826486 30.778307 31.374119 30.34599 32.978564 30.349849 C 37.436611 30.349677 40.816259 31.179426 43.117416 32.843771 C 45.33759 34.581351 46.882554 37.339312 47.742862 41.122145 C 48.561179 44.899464 48.898259 49.82265 48.763549 55.887212 C 48.581799 61.964872 48.308252 69.364552 47.947492 78.091022 L 29.441673 78.092337 C 29.635971 76.791068 29.856975 75.08803 30.095241 72.987714 C 30.277394 70.886281 30.468037 68.593223 30.662403 66.113123 C 30.785325 63.697092 30.876817 61.214945 30.936694 58.676034 C 30.995361 56.197912 30.965486 53.937889 30.847069 51.895967 C 30.663187 49.852741 30.354959 48.181273 29.917711 46.881471 C 29.479253 45.642457 28.82735 45.021358 27.966584 45.022941 C 25.800733 45.021945 23.880435 45.610573 22.205596 46.793501 C 20.464176 48.03124 19.19748 49.390694 18.396156 50.871678 L 17.374477 78.001909 L 2.13394 77.99803 L 2.131737 69.175457 C 2.130288 65.957029 2.131259 62.617024 2.130066 59.150673 C 2.072946 55.673853 2.040231 52.146062 2.041364 48.562809 L 2.040972 38.238665 C 1.982193 30.378615 1.922552 22.326753 1.861957 14.087757 Z M 19.777079 12.975381 " stroke="#f57d45" stroke-width="24.386774" stroke-opacity="1" stroke-miterlimit="4"/><path stroke-linecap="butt" transform="matrix(0.831954, 0.0736519, -0.0736519, 0.831954, 217.793515, 119.484367)" fill="none" stroke-linejoin="miter" d="M 1.861238 67.226465 C 1.86097 65.367162 2.197876 63.816068 2.881686 62.577018 C 3.560836 61.33838 4.459163 60.34797 5.581326 59.605374 C 6.684853 58.864428 7.985623 58.336089 9.478976 58.020769 C 10.963836 57.715591 12.542331 57.566458 14.222952 57.563228 C 17.185725 57.563873 20.155312 57.906669 23.135959 58.586545 C 26.037286 59.325092 28.481642 60.099398 30.458884 60.900972 L 30.459644 48.923268 L 3.71849 51.238981 L 3.717553 31.551792 C 9.418119 31.61056 14.811621 31.701208 19.893397 31.824148 C 24.89515 31.944781 29.31798 32.10258 33.157227 32.297957 C 37.619801 32.48041 41.739399 32.660358 45.521091 32.84205 L 45.067667 77.999052 L 30.845754 77.999768 L 30.573396 71.581967 C 28.396495 73.563584 25.885262 75.109967 23.045179 76.230021 C 20.125775 77.408745 17.276357 77.99906 14.492267 78.001378 C 12.393304 77.999386 10.530074 77.690113 8.91148 77.068076 C 7.312637 76.510024 6.009433 75.737989 5.011599 74.755804 C 3.970186 73.758696 3.197163 72.611055 2.696776 71.307811 C 2.140485 70.009516 1.860419 68.649205 1.861238 67.226465 Z M 13.836607 67.678178 C 13.837345 68.800283 14.274966 69.606689 15.150296 70.106716 C 16.01194 70.664297 17.154544 70.948156 18.576871 70.944316 C 19.31407 70.944787 20.062725 70.756432 20.822834 70.379253 C 21.500202 70.075132 22.15316 69.707439 22.771566 69.26768 C 23.375997 68.829158 23.986567 68.300883 24.607936 67.682441 C 23.989495 67.061072 23.37724 66.509584 22.770759 66.023319 C 22.149767 65.585291 21.503297 65.17769 20.822032 64.801342 C 20.062684 64.497639 19.316945 64.347676 18.575087 64.347618 C 17.152347 64.346799 16.012648 64.626116 15.151329 65.18598 C 14.271666 65.803812 13.833563 66.636097 13.836607 67.678178 Z M 13.836607 67.678178 " stroke="#f57d45" stroke-width="24.386774" stroke-opacity="1" stroke-miterlimit="4"/><path stroke-linecap="butt" transform="matrix(0.820528, 0.155905, -0.155905, 0.820528, 261.808903, 123.712024)" fill="none" stroke-linejoin="miter" d="M 19.505293 32.478297 L 18.573354 43.909561 C 19.814655 39.693799 21.614228 36.562125 23.972946 34.519134 C 26.315445 32.541114 28.887872 31.547708 31.682784 31.549851 C 33.787009 31.549931 35.516487 31.983025 36.879533 32.842792 C 38.238168 33.779567 39.319649 35.111771 40.123102 36.834809 C 40.939237 38.574479 41.498342 40.715276 41.799545 43.252603 C 42.115405 45.791905 42.249084 48.675266 42.185051 51.896115 L 24.428906 53.756001 C 24.305157 51.651501 24.1543 49.98061 23.971742 48.744202 C 23.778249 47.500351 23.027459 46.881301 21.727687 46.880711 C 20.927828 46.880348 19.786763 47.163807 18.302744 47.721897 L 18.304758 77.999285 L 2.133204 78.001355 C 2.131334 72.47935 2.130935 67.090363 2.131134 61.829801 C 2.073577 56.56593 2.041156 51.835238 2.042188 47.631383 C 1.98206 42.729811 1.921612 38.05205 1.85997 33.593507 Z M 19.505293 32.478297 " stroke="#f57d45" stroke-width="24.386774" stroke-opacity="1" stroke-miterlimit="4"/><path stroke-linecap="butt" transform="matrix(0.792137, 0.264748, -0.264748, 0.792137, 303.196098, 130.9613)" fill="none" stroke-linejoin="miter" d="M 19.778903 31.369765 L 19.141788 44.749228 C 19.764582 43.071555 20.564856 41.39374 21.547044 39.714301 C 22.486404 38.113282 23.573805 36.689625 24.812212 35.452199 C 25.975186 34.210397 27.275883 33.188854 28.714302 32.387572 C 30.074382 31.64699 31.493918 31.276109 32.978826 31.277881 C 37.934926 31.278361 41.559243 32.266391 43.839953 34.250855 C 46.079247 36.229437 47.506135 39.510179 48.129489 44.090117 C 48.807008 42.413879 49.639873 40.804071 50.62365 39.262177 C 51.563105 37.779478 52.61802 36.420922 53.80022 35.177625 C 54.964724 33.999418 56.231453 33.038542 57.606323 32.297948 C 58.972369 31.619479 60.362349 31.278202 61.782179 31.277068 C 66.239858 31.276467 69.614053 32.047285 71.895891 33.592488 C 74.137854 35.210193 75.686978 37.838603 76.546226 41.486588 C 77.34928 45.143492 77.685885 49.94255 77.566395 55.885232 C 77.387792 61.88712 77.105276 69.260117 76.727718 78.001257 L 58.244763 77.999746 C 58.427121 76.701046 58.643176 75.001512 58.901799 72.89818 C 59.082084 70.855549 59.263722 68.654666 59.446712 66.295528 C 59.580897 63.937909 59.682525 61.556652 59.741242 59.150287 C 59.80143 56.733567 59.771573 54.534331 59.651671 52.552579 C 59.453432 50.631527 59.143063 49.053691 58.719082 47.814635 C 58.283264 46.569673 57.633495 45.953452 56.769763 45.951184 C 55.092585 45.949565 53.571003 46.324965 52.210923 47.065546 C 50.791682 47.806175 49.578148 48.704892 48.580674 49.763167 C 48.703286 53.287505 48.700627 57.366565 48.58158 62.012171 C 48.401903 66.668179 48.190224 71.995674 47.948026 77.999093 L 29.44141 78.000559 C 29.637076 76.697411 29.85313 74.997878 30.096963 72.894558 C 30.278731 70.856363 30.466287 68.658432 30.664067 66.299283 C 30.786415 63.935758 30.874736 61.558948 30.937889 59.1511 C 30.998077 56.73438 30.966738 54.530709 30.848318 52.553392 C 30.664869 50.632329 30.353017 49.050057 29.914246 47.811013 C 29.475476 46.571969 28.82866 45.94983 27.96641 45.951997 C 25.925403 45.953627 24.091845 46.443158 22.477572 47.426497 C 20.873712 48.485256 19.635305 49.722682 18.754963 51.146174 L 17.37432 77.999841 L 2.131837 78.000179 C 2.133552 72.737927 2.132254 67.407644 2.132379 62.007847 C 2.070451 56.687965 2.042904 51.825064 2.04235 47.426545 C 1.980564 42.284142 1.918907 37.304427 1.860333 32.481484 Z M 19.778903 31.369765 " stroke="#f57d45" stroke-width="24.386774" stroke-opacity="1" stroke-miterlimit="4"/><g fill="#3b82f6" fill-opacity="1"><g transform="translate(73.212671, 207.279614)"><g><path d="M -1.234375 -9.046875 C -1.703125 -10.523438 -1.816406 -11.84375 -1.578125 -13 C -1.347656 -14.164062 -0.878906 -15.1875 -0.171875 -16.0625 C 0.523438 -16.925781 1.429688 -17.671875 2.546875 -18.296875 C 3.648438 -18.910156 4.867188 -19.425781 6.203125 -19.84375 C 8.566406 -20.59375 11.019531 -21.070312 13.5625 -21.28125 C 16.0625 -21.414062 18.203125 -21.414062 19.984375 -21.28125 L 16.984375 -30.8125 L -3.75 -22.25 L -8.6875 -37.9375 C -4.132812 -39.3125 0.175781 -40.585938 4.25 -41.765625 C 8.269531 -42.921875 11.835938 -43.910156 14.953125 -44.734375 C 18.546875 -45.703125 21.875 -46.582031 24.9375 -47.375 L 35.90625 -11.3125 L 24.578125 -7.75 L 22.734375 -12.78125 C 21.503906 -10.65625 19.898438 -8.789062 17.921875 -7.1875 C 15.890625 -5.519531 13.765625 -4.335938 11.546875 -3.640625 C 9.867188 -3.109375 8.3125 -2.890625 6.875 -2.984375 C 5.457031 -3.023438 4.226562 -3.316406 3.1875 -3.859375 C 2.09375 -4.367188 1.179688 -5.082031 0.453125 -6 C -0.316406 -6.90625 -0.878906 -7.921875 -1.234375 -9.046875 Z M 8.4375 -11.6875 C 8.71875 -10.800781 9.265625 -10.265625 10.078125 -10.078125 C 10.910156 -9.859375 11.894531 -9.925781 13.03125 -10.28125 C 13.625 -10.46875 14.171875 -10.800781 14.671875 -11.28125 C 15.128906 -11.707031 15.554688 -12.171875 15.953125 -12.671875 C 16.316406 -13.171875 16.671875 -13.75 17.015625 -14.40625 C 16.359375 -14.726562 15.726562 -15.015625 15.125 -15.265625 C 14.519531 -15.453125 13.898438 -15.601562 13.265625 -15.71875 C 12.597656 -15.78125 11.96875 -15.71875 11.375 -15.53125 C 10.238281 -15.175781 9.394531 -14.664062 8.84375 -14 C 8.3125 -13.300781 8.175781 -12.53125 8.4375 -11.6875 Z M 8.4375 -11.6875 "/></g></g></g><g fill="#3b82f6" fill-opacity="1"><g transform="translate(109.457404, 196.070559)"><g/></g></g><g fill="#3b82f6" fill-opacity="1"><g transform="translate(134.326357, 190.227726)"><g><path d="M -0.9375 -19.296875 C -1.25 -21.753906 -1.453125 -24.171875 -1.546875 -26.546875 C -1.640625 -28.890625 -1.242188 -31.0625 -0.359375 -33.0625 C 0.535156 -35.039062 2.109375 -36.804688 4.359375 -38.359375 C 6.609375 -39.847656 9.929688 -40.976562 14.328125 -41.75 L 15.71875 -41.9375 C 19.5625 -42.425781 22.71875 -42.203125 25.1875 -41.265625 C 27.601562 -40.273438 29.519531 -38.914062 30.9375 -37.1875 C 32.382812 -35.375 33.429688 -33.335938 34.078125 -31.078125 C 34.742188 -28.765625 35.242188 -26.535156 35.578125 -24.390625 L 22.078125 -21.703125 C 21.953125 -22.617188 21.804688 -23.519531 21.640625 -24.40625 C 21.429688 -25.25 21.148438 -26.015625 20.796875 -26.703125 C 20.410156 -27.378906 19.953125 -27.921875 19.421875 -28.328125 C 18.847656 -28.671875 18.128906 -28.785156 17.265625 -28.671875 C 16.847656 -28.617188 16.519531 -28.550781 16.28125 -28.46875 C 15.125 -28.101562 14.265625 -27.707031 13.703125 -27.28125 C 13.078125 -26.832031 12.675781 -26.253906 12.5 -25.546875 C 12.28125 -24.796875 12.21875 -23.878906 12.3125 -22.796875 C 12.394531 -21.710938 12.546875 -20.320312 12.765625 -18.625 C 12.972656 -16.976562 13.1875 -15.546875 13.40625 -14.328125 C 13.613281 -13.097656 13.925781 -12.09375 14.34375 -11.3125 C 14.707031 -10.53125 15.25 -9.976562 15.96875 -9.65625 C 16.632812 -9.3125 17.554688 -9.21875 18.734375 -9.375 C 19.921875 -9.53125 20.820312 -9.832031 21.4375 -10.28125 C 22.070312 -10.71875 22.488281 -11.316406 22.6875 -12.078125 C 22.90625 -12.847656 22.96875 -13.800781 22.875 -14.9375 C 22.78125 -16.007812 22.644531 -17.265625 22.46875 -18.703125 L 35.921875 -21.78125 C 36.171875 -19.40625 36.226562 -17.09375 36.09375 -14.84375 C 35.925781 -12.507812 35.316406 -10.414062 34.265625 -8.5625 C 33.160156 -6.644531 31.460938 -5.019531 29.171875 -3.6875 C 26.890625 -2.351562 23.722656 -1.425781 19.671875 -0.90625 C 15.671875 -0.382812 12.414062 -0.585938 9.90625 -1.515625 C 7.332031 -2.378906 5.304688 -3.734375 3.828125 -5.578125 C 2.347656 -7.367188 1.265625 -9.472656 0.578125 -11.890625 C -0.109375 -14.304688 -0.613281 -16.773438 -0.9375 -19.296875 Z M -0.9375 -19.296875 "/></g></g></g><g fill="#3b82f6" fill-opacity="1"><g transform="translate(171.823571, 185.212885)"><g><path d="M 15.453125 -54.625 L 14.96875 -27.625 C 15.40625 -29.1875 16.019531 -30.722656 16.8125 -32.234375 C 17.625 -33.703125 18.53125 -35.039062 19.53125 -36.25 C 20.539062 -37.46875 21.664062 -38.445312 22.90625 -39.1875 C 24.125 -39.925781 25.40625 -40.3125 26.75 -40.34375 C 30.46875 -40.414062 33.300781 -39.773438 35.25 -38.421875 C 37.144531 -37.003906 38.484375 -34.734375 39.265625 -31.609375 C 39.992188 -28.460938 40.351562 -24.351562 40.34375 -19.28125 C 40.289062 -14.207031 40.179688 -8.019531 40.015625 -0.71875 L 24.59375 -0.40625 C 24.726562 -1.5 24.882812 -2.925781 25.0625 -4.6875 C 25.175781 -6.445312 25.289062 -8.367188 25.40625 -10.453125 C 25.476562 -12.460938 25.515625 -14.53125 25.515625 -16.65625 C 25.535156 -18.726562 25.472656 -20.613281 25.328125 -22.3125 C 25.140625 -24.007812 24.851562 -25.40625 24.46875 -26.5 C 24.082031 -27.519531 23.53125 -28.023438 22.8125 -28.015625 C 21 -27.972656 19.40625 -27.453125 18.03125 -26.453125 C 16.601562 -25.378906 15.5625 -24.21875 14.90625 -22.96875 L 14.515625 -0.28125 L 1.78125 -0.03125 L 1.640625 -7.40625 C 1.578125 -10.09375 1.519531 -12.882812 1.46875 -15.78125 C 1.351562 -18.675781 1.269531 -21.625 1.21875 -24.625 L 1.046875 -33.234375 C 0.859375 -39.796875 0.671875 -46.519531 0.484375 -53.40625 Z M 15.453125 -54.625 "/></g></g></g><g fill="#3b82f6" fill-opacity="1"><g transform="translate(212.04867, 184.376784)"><g><path d="M 2.34375 -8.828125 C 2.476562 -10.367188 2.875 -11.628906 3.53125 -12.609375 C 4.1875 -13.597656 5.007812 -14.359375 6 -14.890625 C 6.96875 -15.429688 8.085938 -15.773438 9.359375 -15.921875 C 10.617188 -16.078125 11.941406 -16.09375 13.328125 -15.96875 C 15.796875 -15.75 18.25 -15.242188 20.6875 -14.453125 C 23.039062 -13.609375 25.019531 -12.78125 26.625 -11.96875 L 27.5 -21.9375 L 5.0625 -21.96875 L 6.515625 -38.359375 C 11.253906 -37.890625 15.734375 -37.414062 19.953125 -36.9375 C 24.109375 -36.46875 27.773438 -36.015625 30.953125 -35.578125 C 34.648438 -35.097656 38.0625 -34.640625 41.1875 -34.203125 L 37.5 3.3125 L 25.671875 2.265625 L 25.90625 -3.09375 C 23.945312 -1.59375 21.742188 -0.484375 19.296875 0.234375 C 16.785156 0.992188 14.375 1.269531 12.0625 1.0625 C 10.3125 0.90625 8.785156 0.507812 7.484375 -0.125 C 6.191406 -0.695312 5.164062 -1.429688 4.40625 -2.328125 C 3.601562 -3.234375 3.046875 -4.25 2.734375 -5.375 C 2.367188 -6.488281 2.238281 -7.640625 2.34375 -8.828125 Z M 12.28125 -7.5625 C 12.195312 -6.632812 12.492188 -5.929688 13.171875 -5.453125 C 13.859375 -4.921875 14.789062 -4.601562 15.96875 -4.5 C 16.59375 -4.445312 17.226562 -4.546875 17.875 -4.796875 C 18.457031 -5.003906 19.023438 -5.269531 19.578125 -5.59375 C 20.117188 -5.90625 20.675781 -6.296875 21.25 -6.765625 C 20.769531 -7.328125 20.296875 -7.835938 19.828125 -8.296875 C 19.335938 -8.691406 18.820312 -9.070312 18.28125 -9.4375 C 17.6875 -9.75 17.078125 -9.929688 16.453125 -9.984375 C 15.273438 -10.085938 14.300781 -9.941406 13.53125 -9.546875 C 12.769531 -9.109375 12.351562 -8.445312 12.28125 -7.5625 Z M 12.28125 -7.5625 "/></g></g></g><g fill="#3b82f6" fill-opacity="1"><g transform="translate(249.648296, 187.713186)"><g><path d="M 23.109375 -34.296875 L 20.5625 -25.09375 C 22.238281 -28.34375 24.195312 -30.625 26.4375 -31.9375 C 28.675781 -33.195312 30.9375 -33.609375 33.21875 -33.171875 C 34.945312 -32.835938 36.304688 -32.210938 37.296875 -31.296875 C 38.273438 -30.328125 38.957031 -29.066406 39.34375 -27.515625 C 39.738281 -25.960938 39.867188 -24.117188 39.734375 -21.984375 C 39.585938 -19.859375 39.234375 -17.472656 38.671875 -14.828125 L 23.828125 -16.078125 C 24.046875 -17.828125 24.175781 -19.226562 24.21875 -20.28125 C 24.269531 -21.332031 23.765625 -21.957031 22.703125 -22.15625 C 22.035156 -22.28125 21.046875 -22.226562 19.734375 -22 L 15.015625 2.859375 L 1.75 0.328125 C 2.613281 -4.191406 3.453125 -8.613281 4.265625 -12.9375 C 5.035156 -17.257812 5.75 -21.148438 6.40625 -24.609375 C 7.113281 -28.640625 7.789062 -32.488281 8.4375 -36.15625 Z M 23.109375 -34.296875 "/></g></g></g><g fill="#3b82f6" fill-opacity="1"><g transform="translate(282.545716, 192.747957)"><g><path d="M 28.015625 -31.703125 L 23.96875 -21.28125 C 24.90625 -22.4375 25.988281 -23.546875 27.21875 -24.609375 C 28.375 -25.640625 29.609375 -26.484375 30.921875 -27.140625 C 32.171875 -27.816406 33.46875 -28.28125 34.8125 -28.53125 C 36.09375 -28.757812 37.320312 -28.675781 38.5 -28.28125 C 42.425781 -26.96875 45.03125 -25.222656 46.3125 -23.046875 C 47.5625 -20.890625 47.820312 -17.914062 47.09375 -14.125 C 48.082031 -15.269531 49.164062 -16.320312 50.34375 -17.28125 C 51.488281 -18.21875 52.691406 -19.019531 53.953125 -19.6875 C 55.203125 -20.3125 56.457031 -20.734375 57.71875 -20.953125 C 58.988281 -21.128906 60.1875 -21.03125 61.3125 -20.65625 C 64.84375 -19.476562 67.3125 -17.976562 68.71875 -16.15625 C 70.0625 -14.28125 70.59375 -11.78125 70.3125 -8.65625 C 69.988281 -5.539062 68.988281 -1.648438 67.3125 3.015625 C 65.570312 7.734375 63.394531 13.5 60.78125 20.3125 L 46.140625 15.421875 C 46.640625 14.441406 47.265625 13.148438 48.015625 11.546875 C 48.703125 9.984375 49.425781 8.285156 50.1875 6.453125 C 50.914062 4.640625 51.625 2.78125 52.3125 0.875 C 53 -1.019531 53.554688 -2.769531 53.984375 -4.375 C 54.335938 -5.945312 54.515625 -7.28125 54.515625 -8.375 C 54.492188 -9.46875 54.140625 -10.128906 53.453125 -10.359375 C 52.117188 -10.804688 50.816406 -10.914062 49.546875 -10.6875 C 48.222656 -10.46875 47.03125 -10.078125 45.96875 -9.515625 C 45.132812 -6.691406 44.050781 -3.453125 42.71875 0.203125 C 41.34375 3.828125 39.757812 7.988281 37.96875 12.6875 L 23.328125 7.796875 C 23.816406 6.816406 24.441406 5.523438 25.203125 3.921875 C 25.890625 2.359375 26.613281 0.664062 27.375 -1.15625 C 28.101562 -2.976562 28.816406 -4.84375 29.515625 -6.75 C 30.191406 -8.644531 30.742188 -10.394531 31.171875 -12 C 31.535156 -13.570312 31.710938 -14.90625 31.703125 -16 C 31.671875 -17.09375 31.316406 -17.753906 30.640625 -17.984375 C 29.015625 -18.523438 27.4375 -18.617188 25.90625 -18.265625 C 24.351562 -17.847656 23.039062 -17.191406 21.96875 -16.296875 L 13.765625 4.59375 L 1.6875 0.5625 C 3.082031 -3.601562 4.492188 -7.820312 5.921875 -12.09375 C 7.273438 -16.320312 8.535156 -20.179688 9.703125 -23.671875 C 11.023438 -27.753906 12.296875 -31.722656 13.515625 -35.578125 Z M 28.015625 -31.703125 "/></g></g></g><path stroke-linecap="butt" transform="matrix(0.692695, -0.287531, 0.287531, 0.692695, 22.108575, 127.905109)" fill="none" stroke-linejoin="miter" d="M 1.382424 26.995176 L 1.386366 10.248359 L 37.308147 9.555464 L 37.51214 26.304005 L 27.544048 26.502894 L 27.743821 58.001855 L 12.248609 57.998636 L 12.587689 26.791018 Z M 1.382424 26.995176 " stroke="#f57d45" stroke-width="18.169987" stroke-opacity="1" stroke-miterlimit="4"/><path stroke-linecap="butt" transform="matrix(0.710166, -0.241171, 0.241171, 0.710166, 50.021478, 116.382122)" fill="none" stroke-linejoin="miter" d="M 14.732275 9.558421 L 13.839141 33.633203 C 14.253744 32.250371 14.83621 30.891543 15.579934 29.559974 C 16.310259 28.267859 17.138755 27.09159 18.065422 26.031167 C 18.9839 24.962462 20.001667 24.103491 21.105511 23.460768 C 22.219218 22.821394 23.373968 22.498484 24.568084 22.496969 C 27.890172 22.497548 30.408318 23.116186 32.120846 24.357815 C 33.777079 25.651832 34.926669 27.708874 35.571291 30.524009 C 36.176366 33.342215 36.427496 37.008306 36.329612 41.523954 C 36.193763 46.054213 35.988148 51.567365 35.72263 58.06676 L 21.931899 58.069851 C 22.080665 57.097284 22.240964 55.831608 22.421075 54.264634 C 22.556709 52.699057 22.696434 50.991857 22.845181 49.144709 C 22.934378 47.343342 23.000776 45.495731 23.049307 43.603548 C 23.092629 41.759101 23.070818 40.07405 22.977269 38.551653 C 22.844174 37.032328 22.612359 35.787504 22.286754 34.818856 C 21.962546 33.894685 21.475975 33.432421 20.831973 33.433738 C 19.221176 33.43126 17.790721 33.869559 16.540606 34.748634 C 15.247411 35.673584 14.297946 36.687761 13.70375 37.789585 L 12.941081 57.997839 L 1.587992 57.998178 L 1.587105 51.424813 C 1.587426 49.026716 1.589884 46.541338 1.586292 43.960397 C 1.543247 41.366058 1.521788 38.740546 1.522009 36.067392 L 1.520819 28.377328 C 1.474725 22.520174 1.431047 16.526329 1.388204 10.384254 Z M 14.732275 9.558421 " stroke="#f57d45" stroke-width="18.169987" stroke-opacity="1" stroke-miterlimit="4"/><path stroke-linecap="butt" transform="matrix(0.720656, -0.207736, 0.207736, 0.720656, 77.709206, 107.198547)" fill="none" stroke-linejoin="miter" d="M 1.523796 35.846272 L 14.884808 35.019903 L 14.461609 57.999681 L 1.724247 57.997628 Z M 1.11727 24.357076 C 1.114358 21.640613 1.643209 19.749567 2.705266 18.678932 C 3.715069 17.620336 5.656539 17.090482 8.518223 17.091488 C 10.084277 17.093025 11.304304 17.298358 12.180421 17.71894 C 13.061455 18.178882 13.706828 18.760607 14.12443 19.455548 C 14.532024 20.147604 14.785652 20.903685 14.88599 21.740249 C 14.931865 22.615318 14.952041 23.466717 14.952964 24.290885 C 14.952944 25.212348 14.909324 26.115823 14.818545 26.994863 C 14.67186 27.917411 14.36877 28.72441 13.905712 29.40941 C 13.398877 30.152257 12.684238 30.732214 11.761794 31.149282 C 10.836376 31.614276 9.545216 31.843751 7.891875 31.844156 C 6.368743 31.844151 5.172386 31.613118 4.291352 31.153176 C 3.365866 30.734624 2.675362 30.177833 2.216281 29.476356 C 1.752871 28.789892 1.452849 27.987914 1.3191 27.060413 C 1.182377 26.180839 1.115806 25.283543 1.11727 24.357076 Z M 1.11727 24.357076 " stroke="#f57d45" stroke-width="18.169987" stroke-opacity="1" stroke-miterlimit="4"/><path stroke-linecap="butt" transform="matrix(0.728656, -0.177653, 0.177653, 0.728656, 90.248245, 103.476087)" fill="none" stroke-linejoin="miter" d="M 14.533366 24.08698 L 13.84028 32.602655 C 14.761787 29.460682 16.102358 27.12852 17.86076 25.611228 C 19.604233 24.133184 21.521291 23.394377 23.606876 23.393576 C 25.172021 23.394549 26.461116 23.714203 27.472926 24.357598 C 28.48758 25.055295 29.296774 26.045997 29.889155 27.332296 C 30.500542 28.62859 30.91659 30.220355 31.141125 32.113887 C 31.377014 34.004826 31.475441 36.15174 31.426287 38.55216 L 18.195738 39.936806 C 18.105753 38.370928 17.996175 37.127288 17.861942 36.204651 C 17.712528 35.278314 17.15527 34.815435 16.190167 34.816013 C 15.588891 34.819522 14.73994 35.025329 13.635785 35.442321 L 13.636048 58.001046 L 1.58991 58.001862 C 1.589918 53.890054 1.587959 49.874264 1.590328 45.950664 C 1.543455 42.031141 1.517844 38.508148 1.521023 35.372797 C 1.477013 31.727378 1.432646 28.237338 1.384221 24.917857 Z M 14.533366 24.08698 " stroke="#f57d45" stroke-width="18.169987" stroke-opacity="1" stroke-miterlimit="4"/><path stroke-linecap="butt" transform="matrix(0.73807, -0.133239, 0.133239, 0.73807, 114.723688, 97.480599)" fill="none" stroke-linejoin="miter" d="M 0.00187902 39.736406 C -0.00224483 37.560436 0.186123 35.461555 0.557657 33.432788 C 0.929191 31.404021 1.619649 29.602188 2.635083 28.023088 C 3.64774 26.459366 5.079129 25.21469 6.929249 24.289062 C 8.720212 23.368631 11.089868 22.907268 14.043342 22.905897 C 15.382653 22.904219 16.489685 23.045847 17.370489 23.326582 C 18.248019 23.59614 18.984956 23.940876 19.582227 24.355664 C 20.181421 24.818431 20.687505 25.327901 21.106528 25.879871 C 21.478569 26.486871 21.826407 27.110671 22.149117 27.756398 L 22.62614 27.752539 L 22.289468 10.38522 L 36.194454 9.555825 L 36.195927 41.591718 C 36.193866 44.03649 36.21714 46.252965 36.26155 48.235092 C 36.26218 50.225194 36.282521 51.95952 36.327698 53.438996 C 36.375018 55.141145 36.42397 56.658351 36.477828 58.001788 L 24.501341 57.999092 L 25.2618 49.975306 C 24.937029 51.774352 24.381672 53.208928 23.603632 54.264582 C 22.769283 55.368289 21.868438 56.195366 20.90017 56.750939 C 19.932828 57.301385 18.964768 57.650587 17.99599 57.798542 C 16.979731 57.974975 16.126416 58.069679 15.42857 58.065429 L 14.465198 58.06617 C 14.330511 58.020686 14.21775 58.00033 14.127841 57.999977 C 11.624838 57.997988 9.548444 57.538469 7.889333 56.614442 C 6.221896 55.736545 4.8807 54.605283 3.871796 53.216457 C 2.809861 51.88686 2.003055 50.433959 1.45138 48.857755 C 0.482801 46.190126 -0.000366309 43.149677 0.00187902 39.736406 Z M 13.278777 41.037655 C 13.283024 42.56796 13.30983 43.885344 13.364322 44.990733 C 13.408562 46.094271 13.591398 47.016421 13.906779 47.761383 C 14.187207 48.494742 14.649084 49.043864 15.291486 49.413874 C 15.944139 49.785734 16.868151 49.973711 18.064447 49.972678 C 19.360903 49.973849 20.347335 49.786739 21.039118 49.414126 C 21.736026 49.042438 22.242647 48.4935 22.554779 47.761262 C 22.837084 47.018347 23.003633 46.095759 23.050227 44.987449 C 23.09077 43.883338 23.116144 42.570081 23.112822 41.034651 L 23.112864 37.721541 C 23.114972 36.801022 23.050168 36.016616 22.912401 35.372521 C 22.767233 34.76943 22.512298 34.305299 22.150873 33.991304 C 21.735916 33.709986 21.111033 33.565424 20.274373 33.56787 C 19.723742 33.569026 18.98639 33.637032 18.062317 33.771888 C 16.869514 33.95879 15.947864 34.168179 15.293165 34.394004 C 14.651991 34.632855 14.186582 34.982824 13.908113 35.440636 C 13.588712 35.949276 13.410196 36.615662 13.367438 37.438869 C 13.309376 38.317531 13.278731 39.513401 13.278777 41.037655 Z M 13.278777 41.037655 " stroke="#f57d45" stroke-width="18.169987" stroke-opacity="1" stroke-miterlimit="4"/><path stroke-linecap="butt" transform="matrix(0.748132, -0.0529014, 0.0529014, 0.748132, 163.012319, 89.88099)" fill="none" stroke-linejoin="miter" d="M 1.384978 26.995484 L 1.383788 10.250567 L 37.308517 9.558842 L 37.513428 26.3025 L 27.541952 26.505917 L 27.742918 57.999576 L 12.251133 58.000614 L 12.588805 26.790445 Z M 1.384978 26.995484 " stroke="#f57d45" stroke-width="18.169987" stroke-opacity="1" stroke-miterlimit="4"/><path stroke-linecap="butt" transform="matrix(0.749795, -0.0175299, 0.0175299, 0.749795, 192.554406, 88.007925)" fill="none" stroke-linejoin="miter" d="M 1.522298 35.847308 L 14.883856 35.018759 L 14.466396 57.999655 L 1.723354 57.998684 Z M 1.113584 24.360659 C 1.114647 21.64119 1.643323 19.75199 2.705062 18.682764 C 3.719696 17.622856 5.654437 17.095016 8.514614 17.094159 C 10.082746 17.094353 11.302231 17.299996 12.183361 17.716538 C 13.063395 18.179942 13.711525 18.757749 14.127508 19.460372 C 14.533442 20.147131 14.786671 20.903257 14.886952 21.739162 C 14.928984 22.615384 14.955881 23.470413 14.95239 24.288263 C 14.951548 25.21558 14.90966 26.115889 14.81619 26.994152 C 14.674762 27.918182 14.369392 28.723765 13.905285 29.411022 C 13.398184 30.15458 12.68658 30.731856 11.759816 31.153018 C 10.837407 31.61075 9.545213 31.841026 7.888442 31.84397 C 6.372379 31.844993 5.169123 31.613681 4.294296 31.150399 C 3.366304 30.732761 2.676032 30.174808 2.213065 29.476296 C 1.749855 28.788198 1.450859 27.984115 1.316077 27.064047 C 1.180443 26.180427 1.112864 25.282769 1.113584 24.360659 Z M 1.113584 24.360659 " stroke="#f57d45" stroke-width="18.169987" stroke-opacity="1" stroke-miterlimit="4"/><path stroke-linecap="butt" transform="matrix(0.749326, 0.0317805, -0.0317805, 0.749326, 206.395993, 87.208295)" fill="none" stroke-linejoin="miter" d="M 14.736463 23.259349 L 14.262747 33.231088 C 14.7204 31.976193 15.318993 30.725747 16.053322 29.47997 C 16.748009 28.282791 17.563355 27.226459 18.483309 26.301229 C 19.351227 25.378206 20.319872 24.617728 21.389246 24.019794 C 22.403145 23.465917 23.465387 23.191492 24.570549 23.191537 C 28.261358 23.191393 30.961824 23.931795 32.661319 25.407982 C 34.329372 26.880289 35.392338 29.327028 35.85498 32.737571 C 36.359907 31.491097 36.981301 30.286601 37.71462 29.139914 C 38.413279 28.036401 39.199169 27.023023 40.077494 26.099558 C 40.947177 25.218165 41.891791 24.505622 42.916097 23.951304 C 43.931983 23.44426 44.96909 23.191753 46.027418 23.193784 C 49.348106 23.193699 51.864144 23.76468 53.565567 24.917578 C 55.23255 26.118854 56.384489 28.082222 57.026145 30.797054 C 57.626614 33.52406 57.877323 37.099982 57.788681 41.524379 C 57.649989 45.997816 57.445056 51.4906 57.163255 57.99797 L 43.390478 57.998244 C 43.526794 57.033268 43.691938 55.764714 43.880929 54.198007 C 44.014445 52.675356 44.153513 51.037784 44.287504 49.280528 C 44.390274 47.524596 44.460939 45.749173 44.504924 43.959243 C 44.553671 42.158685 44.530984 40.517547 44.437084 39.041033 C 44.293133 37.613559 44.060686 36.43485 43.745167 35.509889 C 43.41924 34.585369 42.935811 34.126275 42.294437 34.122199 C 41.043353 34.12313 39.908259 34.400644 38.89436 34.954522 C 37.838611 35.504961 36.939065 36.173887 36.195721 36.961301 C 36.281155 39.590251 36.284934 42.629279 36.191889 46.089455 C 36.057435 49.5566 35.902759 53.530265 35.722217 58.000264 L 21.933829 58.001201 C 22.080332 57.030579 22.240273 55.762246 22.424059 54.195759 C 22.557796 52.678313 22.696864 51.04074 22.846467 49.282822 C 22.933405 47.522348 23.004291 45.75213 23.048055 43.956996 C 23.091598 42.156659 23.068911 40.515521 22.980435 39.04399 C 22.846671 37.61087 22.614224 36.432161 22.288298 35.507642 C 21.962592 34.588326 21.473738 34.124248 20.832585 34.125376 C 19.315452 34.121952 17.949725 34.492656 16.745149 35.221436 C 15.548425 36.01244 14.628251 36.932467 13.974659 37.992364 L 12.941412 58.002037 L 1.587325 57.998777 C 1.587877 54.078566 1.586443 50.111522 1.587785 46.087016 C 1.544721 42.121737 1.521428 38.499679 1.523108 35.220621 C 1.475375 31.391078 1.432719 27.68122 1.38451 24.086284 Z M 14.736463 23.259349 " stroke="#f57d45" stroke-width="18.169987" stroke-opacity="1" stroke-miterlimit="4"/><path stroke-linecap="butt" transform="matrix(0.744105, 0.0938515, -0.0938515, 0.744105, 252.731707, 89.621361)" fill="none" stroke-linejoin="miter" d="M 34.539122 43.398921 C 34.491034 45.473327 34.284572 47.457467 33.913918 49.346825 C 33.496803 51.28404 32.715084 52.994262 31.562291 54.467809 C 30.357171 55.942705 28.673672 57.120965 26.511141 57.997422 C 24.291815 58.923039 21.33681 59.384987 17.640959 59.383919 C 14.003253 59.386016 11.117565 58.857547 8.989063 57.79786 C 6.823738 56.737568 5.19489 55.352381 4.086366 53.639088 C 2.931383 51.973651 2.190861 50.056455 1.87644 47.89653 C 1.551731 45.7799 1.385907 43.632731 1.384788 41.459539 C 1.384973 39.296682 1.473656 37.127912 1.656003 34.952578 C 1.845519 32.834086 2.44866 30.873408 3.465425 29.070545 C 4.477721 27.315493 6.095022 25.862103 8.31216 24.71103 C 10.475668 23.550972 13.562232 22.883445 17.571199 22.703281 L 18.757279 22.700674 C 22.306488 22.704489 25.122486 23.304743 27.206577 24.511771 C 29.231265 25.747289 30.796335 27.292758 31.900483 29.137843 C 32.958124 30.988794 33.654141 32.969349 33.97885 35.085979 C 34.305561 37.260102 34.49387 39.294193 34.538609 41.188905 L 13.50126 43.044339 C 13.501075 44.624491 13.523235 45.965593 13.567741 47.067645 C 13.612944 48.216855 13.769037 49.163093 14.041187 49.905708 C 14.27521 50.637383 14.69377 51.167297 15.291698 51.496101 C 15.842515 51.867595 16.679307 52.050781 17.792392 52.05213 C 18.895142 52.054783 19.74576 51.889752 20.344898 51.562203 C 20.939568 51.282465 21.379634 50.817493 21.661233 50.178272 C 21.942879 49.581042 22.109353 48.819852 22.150319 47.896005 C 22.196452 46.971507 22.222382 45.88682 22.221636 44.63226 Z M 22.083602 38.418398 L 22.015122 38.416536 L 21.458391 33.294903 C 21.312912 32.599306 20.942721 31.995047 20.343303 31.487944 C 19.749052 30.98019 19.02976 30.729688 18.200276 30.729316 C 17.691218 30.730527 17.164144 30.797005 16.608719 30.930054 C 16.060417 31.077954 15.572261 31.286512 15.154586 31.554426 C 14.696876 31.837888 14.321286 32.189736 14.042666 32.602849 C 13.727874 33.020524 13.566289 33.529116 13.567593 34.122156 L 13.499628 39.243836 L 13.502934 39.311664 L 22.015122 38.416536 L 22.018428 38.484363 Z M 22.083602 38.418398 " stroke="#f57d45" stroke-width="18.169987" stroke-opacity="1" stroke-miterlimit="4"/><path stroke-linecap="butt" transform="matrix(0.739539, 0.12483, -0.12483, 0.739539, 280.206226, 93.287571)" fill="none" stroke-linejoin="miter" d="M 1.384966 23.531999 L 4.492261 17.313501 C 3.435927 17.032269 2.722621 16.592778 2.347206 15.995895 C 1.932374 15.384537 1.721301 14.759913 1.724259 14.120291 C 1.722911 12.641556 2.070776 11.510591 2.772121 10.721393 C 3.414505 9.989685 4.726378 9.625635 6.706873 9.624106 C 8.328606 9.625031 9.440827 10.018316 10.038402 10.804826 C 10.631774 11.62902 10.932412 12.502626 10.930044 13.427377 C 10.934152 14.171447 10.912123 14.698084 10.864824 15.012424 C 10.77217 15.339702 10.610349 15.757885 10.373357 16.262705 L 9.206878 18.614659 C 8.658525 19.684389 7.894721 21.32397 6.925736 23.531666 Z M 1.384966 23.531999 " stroke="#f57d45" stroke-width="18.169987" stroke-opacity="1" stroke-miterlimit="4"/><path stroke-linecap="butt" transform="matrix(0.733788, 0.155095, -0.155095, 0.733788, 290.251449, 94.822729)" fill="none" stroke-linejoin="miter" d="M 20.47665 34.124974 C 20.481342 33.618259 20.278393 33.086227 19.869958 32.53907 C 19.454273 31.982799 18.827171 31.710765 17.996691 31.710625 C 17.814819 31.706478 17.628141 31.729965 17.435579 31.775988 C 17.211366 31.823378 16.980193 31.88821 16.744213 31.980674 C 16.147013 32.20272 15.735786 32.523868 15.510529 32.944116 C 15.231084 33.359848 15.045598 33.867512 14.952993 34.462012 C 14.862044 35.11472 14.842517 35.853477 14.888238 36.674264 C 14.884079 37.510917 14.887749 38.409796 14.885037 39.379228 C 14.883449 40.076929 14.974002 40.6061 15.156695 40.96674 C 15.293029 41.38509 15.479452 41.713002 15.714887 41.945381 C 15.939053 42.174817 16.190771 42.307933 16.477292 42.353841 C 16.698933 42.445403 16.909805 42.486007 17.101868 42.488 C 17.277568 42.488127 17.389674 42.464432 17.439265 42.42201 L 17.572044 42.420563 L 22.219891 42.423015 C 24.023822 42.419695 25.663114 42.49376 27.136689 42.640115 C 28.613206 42.775202 29.900474 43.072727 31.004665 43.536709 C 32.06436 44.042035 32.891677 44.782797 33.489558 45.747725 C 34.055288 46.762036 34.332668 48.124756 34.332966 49.838828 C 34.335661 51.866474 33.734209 53.478827 32.527532 54.670791 C 31.286263 55.875389 29.788596 56.798806 28.029437 57.442119 C 26.272432 58.095622 24.428059 58.512069 22.491221 58.692536 C 20.506367 58.872505 18.75857 58.965105 17.235485 58.9623 C 15.431554 58.96562 13.838333 58.80729 12.450725 58.488386 C 11.065561 58.206229 9.870226 57.814746 8.852374 57.305898 C 7.792678 56.800571 6.920159 56.223742 6.236971 55.585602 C 5.490768 54.976751 4.863633 54.326764 4.361738 53.639658 C 3.210297 52.120983 2.514951 50.367499 2.28187 48.383224 L 15.513776 49.078657 C 15.510034 49.766167 15.512674 50.383123 15.51258 50.936777 C 15.453202 51.48699 15.475854 51.971956 15.580536 52.391672 C 15.668854 52.809524 15.870275 53.107649 16.184798 53.286047 C 16.469326 53.524019 16.930259 53.639532 17.574849 53.641698 L 18.128502 53.641792 C 19.009072 53.551495 19.681213 53.45734 20.141985 53.370598 C 20.604622 53.267491 20.945088 53.014534 21.173575 52.609572 C 21.362084 52.191767 21.459993 51.521618 21.457111 50.601279 C 21.45775 49.722783 21.412493 48.476026 21.322417 46.866104 L 17.574526 46.865078 C 16.424299 46.863315 15.412734 46.837568 14.532582 46.778722 C 13.654086 46.778084 12.825181 46.735023 12.04479 46.644445 C 11.215885 46.601384 10.382382 46.511384 9.544282 46.374446 C 8.669434 46.239951 7.699053 46.056444 6.642252 45.816676 C 4.750003 45.402144 3.415022 44.475896 2.63329 43.044104 C 1.804619 41.61691 1.385648 39.634662 1.387645 37.100301 C 1.384716 36.456788 1.432085 35.648266 1.520637 34.681985 C 1.564694 33.757048 1.748988 32.765206 2.079693 31.710479 C 2.405591 30.683384 2.909053 29.640053 3.601348 28.583427 C 4.286972 27.570798 5.277924 26.64269 6.571262 25.810371 C 7.866754 24.988243 9.509209 24.321687 11.489512 23.817953 C 13.473833 23.308045 15.896134 23.05691 18.755338 23.059452 C 20.932127 23.057175 22.821272 23.28072 24.434042 23.733029 C 25.996434 24.24922 27.331462 24.898641 28.438049 25.676197 C 29.551388 26.510883 30.454226 27.432649 31.142545 28.447666 C 31.792541 29.508047 32.325045 30.566644 32.729866 31.625611 C 33.608519 34.170802 33.90936 37.029763 33.643657 40.205435 L 20.633877 40.208329 Z M 20.47665 34.124974 " stroke="#f57d45" stroke-width="18.169987" stroke-opacity="1" stroke-miterlimit="4"/><g fill="#3b82f6" fill-opacity="1"><g transform="translate(38.785379, 168.081395)"><g><path d="M -7.953125 -21.859375 L -12.78125 -33.46875 L 11.921875 -44.28125 L 16.875 -32.734375 L 10.015625 -29.734375 L 19.21875 -7.984375 L 8.484375 -3.515625 L -0.234375 -25.25 Z M -7.953125 -21.859375 "/></g></g></g><g fill="#3b82f6" fill-opacity="1"><g transform="translate(64.009419, 157.571772)"><g><path d="M -1.21875 -37.96875 L 3.953125 -20.640625 C 3.910156 -21.722656 3.988281 -22.820312 4.1875 -23.9375 C 4.40625 -25.050781 4.710938 -26.09375 5.109375 -27.0625 C 5.503906 -28.03125 6.019531 -28.882812 6.65625 -29.625 C 7.289062 -30.332031 8.03125 -30.832031 8.875 -31.125 C 11.238281 -31.925781 13.175781 -32.09375 14.6875 -31.625 C 16.1875 -31.101562 17.503906 -29.925781 18.640625 -28.09375 C 19.742188 -26.238281 20.804688 -23.695312 21.828125 -20.46875 C 22.816406 -17.21875 24 -13.25 25.375 -8.5625 L 15.59375 -5.25 C 15.46875 -5.957031 15.273438 -6.890625 15.015625 -8.046875 C 14.734375 -9.191406 14.421875 -10.4375 14.078125 -11.78125 C 13.710938 -13.101562 13.316406 -14.4375 12.890625 -15.78125 C 12.484375 -17.101562 12.0625 -18.289062 11.625 -19.34375 C 11.164062 -20.394531 10.703125 -21.226562 10.234375 -21.84375 C 9.773438 -22.40625 9.320312 -22.613281 8.875 -22.46875 C 7.726562 -22.070312 6.816406 -21.414062 6.140625 -20.5 C 5.441406 -19.53125 5.015625 -18.582031 4.859375 -17.65625 L 9.1875 -3.125 L 1.125 -0.375 L -0.46875 -5.046875 C -1.039062 -6.742188 -1.640625 -8.507812 -2.265625 -10.34375 C -2.921875 -12.164062 -3.570312 -14.03125 -4.21875 -15.9375 L -6.0625 -21.390625 C -7.507812 -25.554688 -8.992188 -29.8125 -10.515625 -34.15625 Z M -1.21875 -37.96875 "/></g></g></g><g fill="#3b82f6" fill-opacity="1"><g transform="translate(89.757903, 148.996616)"><g><path d="M -3.5 -16.265625 L 5.9375 -19.65625 L 10.421875 -3 L 1.25 -0.359375 Z M -6.1875 -24.46875 C -6.75 -26.425781 -6.757812 -27.898438 -6.21875 -28.890625 C -5.707031 -29.859375 -4.421875 -30.640625 -2.359375 -31.234375 C -1.222656 -31.566406 -0.296875 -31.671875 0.421875 -31.546875 C 1.148438 -31.398438 1.734375 -31.125 2.171875 -30.71875 C 2.609375 -30.3125 2.945312 -29.816406 3.1875 -29.234375 C 3.40625 -28.609375 3.601562 -28 3.78125 -27.40625 C 3.96875 -26.726562 4.117188 -26.066406 4.234375 -25.421875 C 4.328125 -24.722656 4.28125 -24.078125 4.09375 -23.484375 C 3.875 -22.847656 3.476562 -22.285156 2.90625 -21.796875 C 2.332031 -21.273438 1.445312 -20.84375 0.25 -20.5 C -0.851562 -20.1875 -1.765625 -20.101562 -2.484375 -20.25 C -3.222656 -20.351562 -3.835938 -20.601562 -4.328125 -21 C -4.804688 -21.40625 -5.1875 -21.925781 -5.46875 -22.5625 C -5.757812 -23.164062 -6 -23.800781 -6.1875 -24.46875 Z M -6.1875 -24.46875 "/></g></g></g><g fill="#3b82f6" fill-opacity="1"><g transform="translate(100.552109, 145.738127)"><g><path d="M 4.5625 -27.296875 L 5.5625 -20.953125 C 5.6875 -23.410156 6.253906 -25.351562 7.265625 -26.78125 C 8.273438 -28.164062 9.539062 -29.039062 11.0625 -29.40625 C 12.207031 -29.6875 13.203125 -29.675781 14.046875 -29.375 C 14.898438 -29.0625 15.660156 -28.488281 16.328125 -27.65625 C 16.992188 -26.820312 17.582031 -25.734375 18.09375 -24.390625 C 18.601562 -23.054688 19.050781 -21.503906 19.4375 -19.734375 L 10.0625 -16.390625 C 9.707031 -17.515625 9.398438 -18.398438 9.140625 -19.046875 C 8.867188 -19.703125 8.378906 -19.941406 7.671875 -19.765625 C 7.234375 -19.660156 6.644531 -19.359375 5.90625 -18.859375 L 9.921875 -2.421875 L 1.15625 -0.28125 C 0.425781 -3.28125 -0.285156 -6.207031 -0.984375 -9.0625 C -1.710938 -11.90625 -2.351562 -14.46875 -2.90625 -16.75 C -3.59375 -19.414062 -4.25 -21.953125 -4.875 -24.359375 Z M 4.5625 -27.296875 "/></g></g></g><g fill="#3b82f6" fill-opacity="1"><g transform="translate(122.451575, 140.288653)"><g><path d="M -2.4375 -13.484375 C -2.726562 -15.085938 -2.863281 -16.660156 -2.84375 -18.203125 C -2.851562 -19.742188 -2.585938 -21.160156 -2.046875 -22.453125 C -1.515625 -23.742188 -0.625 -24.859375 0.625 -25.796875 C 1.832031 -26.710938 3.519531 -27.367188 5.6875 -27.765625 C 6.6875 -27.941406 7.523438 -27.988281 8.203125 -27.90625 C 8.890625 -27.8125 9.476562 -27.648438 9.96875 -27.421875 C 10.46875 -27.171875 10.910156 -26.863281 11.296875 -26.5 C 11.648438 -26.113281 11.988281 -25.707031 12.3125 -25.28125 L 12.671875 -25.34375 L 10.109375 -38.125 L 20.25 -40.578125 L 24.515625 -16.921875 C 24.835938 -15.117188 25.15625 -13.488281 25.46875 -12.03125 C 25.726562 -10.570312 25.972656 -9.300781 26.203125 -8.21875 C 26.460938 -6.945312 26.703125 -5.828125 26.921875 -4.859375 L 18.078125 -3.265625 L 17.59375 -9.28125 C 17.582031 -7.914062 17.359375 -6.785156 16.921875 -5.890625 C 16.453125 -4.972656 15.894531 -4.242188 15.25 -3.703125 C 14.601562 -3.171875 13.9375 -2.785156 13.25 -2.546875 C 12.53125 -2.285156 11.914062 -2.109375 11.40625 -2.015625 L 10.6875 -1.875 C 10.570312 -1.894531 10.484375 -1.894531 10.421875 -1.875 C 8.578125 -1.539062 6.984375 -1.601562 5.640625 -2.0625 C 4.296875 -2.5 3.15625 -3.15625 2.21875 -4.03125 C 1.257812 -4.894531 0.472656 -5.863281 -0.140625 -6.9375 C -1.210938 -8.78125 -1.976562 -10.960938 -2.4375 -13.484375 Z M 7.546875 -14.28125 C 7.753906 -13.15625 7.945312 -12.191406 8.125 -11.390625 C 8.300781 -10.566406 8.5625 -9.910156 8.90625 -9.421875 C 9.207031 -8.910156 9.617188 -8.554688 10.140625 -8.359375 C 10.679688 -8.179688 11.390625 -8.171875 12.265625 -8.328125 C 13.222656 -8.503906 13.929688 -8.769531 14.390625 -9.125 C 14.847656 -9.5 15.148438 -9.976562 15.296875 -10.5625 C 15.390625 -11.144531 15.378906 -11.847656 15.265625 -12.671875 C 15.160156 -13.492188 15.003906 -14.46875 14.796875 -15.59375 L 14.359375 -18.046875 C 14.234375 -18.722656 14.078125 -19.289062 13.890625 -19.75 C 13.710938 -20.175781 13.460938 -20.488281 13.140625 -20.6875 C 12.804688 -20.832031 12.332031 -20.847656 11.71875 -20.734375 C 11.300781 -20.660156 10.757812 -20.507812 10.09375 -20.28125 C 9.25 -19.988281 8.597656 -19.710938 8.140625 -19.453125 C 7.703125 -19.191406 7.410156 -18.878906 7.265625 -18.515625 C 7.085938 -18.078125 7.039062 -17.554688 7.125 -16.953125 C 7.207031 -16.296875 7.347656 -15.40625 7.546875 -14.28125 Z M 7.546875 -14.28125 "/></g></g></g><g fill="#3b82f6" fill-opacity="1"><g transform="translate(149.246354, 135.559072)"><g/></g></g><g fill="#3b82f6" fill-opacity="1"><g transform="translate(166.080597, 133.272642)"><g><path d="M -0.609375 -23.265625 L -1.5 -35.796875 L 25.359375 -38.203125 L 26.390625 -25.6875 L 18.9375 -25.015625 L 20.765625 -1.46875 L 9.171875 -0.640625 L 7.765625 -24.015625 Z M -0.609375 -23.265625 "/></g></g></g><g fill="#3b82f6" fill-opacity="1"><g transform="translate(193.571142, 131.496041)"><g><path d="M 0.75 -16.640625 L 10.75 -17.5 L 10.84375 -0.25 L 1.296875 -0.03125 Z M 0.234375 -25.234375 C 0.191406 -27.273438 0.5625 -28.703125 1.34375 -29.515625 C 2.082031 -30.328125 3.523438 -30.757812 5.671875 -30.8125 C 6.847656 -30.832031 7.769531 -30.695312 8.4375 -30.40625 C 9.101562 -30.070312 9.597656 -29.648438 9.921875 -29.140625 C 10.242188 -28.648438 10.441406 -28.09375 10.515625 -27.46875 C 10.578125 -26.8125 10.613281 -26.171875 10.625 -25.546875 C 10.644531 -24.847656 10.625 -24.171875 10.5625 -23.515625 C 10.476562 -22.816406 10.269531 -22.207031 9.9375 -21.6875 C 9.5625 -21.125 9.035156 -20.675781 8.359375 -20.34375 C 7.671875 -19.988281 6.707031 -19.796875 5.46875 -19.765625 C 4.320312 -19.734375 3.414062 -19.882812 2.75 -20.21875 C 2.050781 -20.507812 1.519531 -20.910156 1.15625 -21.421875 C 0.800781 -21.929688 0.5625 -22.53125 0.4375 -23.21875 C 0.320312 -23.875 0.253906 -24.546875 0.234375 -25.234375 Z M 0.234375 -25.234375 "/></g></g></g><g fill="#3b82f6" fill-opacity="1"><g transform="translate(204.552724, 130.66922)"><g><path d="M 12.15625 -25.5625 L 11.453125 -18.109375 C 11.847656 -19.035156 12.34375 -19.953125 12.9375 -20.859375 C 13.5 -21.734375 14.132812 -22.5 14.84375 -23.15625 C 15.53125 -23.832031 16.28125 -24.378906 17.09375 -24.796875 C 17.882812 -25.160156 18.691406 -25.328125 19.515625 -25.296875 C 22.285156 -25.179688 24.285156 -24.550781 25.515625 -23.40625 C 26.710938 -22.226562 27.425781 -20.359375 27.65625 -17.796875 C 28.070312 -18.710938 28.578125 -19.585938 29.171875 -20.421875 C 29.722656 -21.234375 30.34375 -21.972656 31.03125 -22.640625 C 31.726562 -23.273438 32.460938 -23.78125 33.234375 -24.15625 C 34.015625 -24.5 34.800781 -24.648438 35.59375 -24.609375 C 38.082031 -24.503906 39.945312 -24 41.1875 -23.09375 C 42.40625 -22.144531 43.207031 -20.640625 43.59375 -18.578125 C 43.957031 -16.515625 44.039062 -13.820312 43.84375 -10.5 C 43.59375 -7.15625 43.257812 -3.050781 42.84375 1.8125 L 32.515625 1.375 C 32.648438 0.65625 32.8125 -0.289062 33 -1.46875 C 33.144531 -2.59375 33.300781 -3.816406 33.46875 -5.140625 C 33.59375 -6.453125 33.703125 -7.769531 33.796875 -9.09375 C 33.878906 -10.445312 33.914062 -11.679688 33.90625 -12.796875 C 33.84375 -13.867188 33.707031 -14.757812 33.5 -15.46875 C 33.28125 -16.164062 32.929688 -16.523438 32.453125 -16.546875 C 31.515625 -16.585938 30.65625 -16.414062 29.875 -16.03125 C 29.0625 -15.644531 28.363281 -15.171875 27.78125 -14.609375 C 27.769531 -12.640625 27.671875 -10.351562 27.484375 -7.75 C 27.273438 -5.175781 27.03125 -2.210938 26.75 1.140625 L 16.4375 0.703125 C 16.570312 -0.0234375 16.734375 -0.972656 16.921875 -2.140625 C 17.066406 -3.273438 17.222656 -4.503906 17.390625 -5.828125 C 17.515625 -7.128906 17.625 -8.445312 17.71875 -9.78125 C 17.8125 -11.132812 17.847656 -12.363281 17.828125 -13.46875 C 17.765625 -14.550781 17.628906 -15.445312 17.421875 -16.15625 C 17.203125 -16.851562 16.851562 -17.210938 16.375 -17.234375 C 15.226562 -17.273438 14.191406 -17.039062 13.265625 -16.53125 C 12.347656 -15.976562 11.628906 -15.316406 11.109375 -14.546875 L 9.6875 0.40625 L 1.1875 0.046875 C 1.3125 -2.890625 1.4375 -5.859375 1.5625 -8.859375 C 1.65625 -11.835938 1.753906 -14.554688 1.859375 -17.015625 C 1.953125 -19.890625 2.035156 -22.675781 2.109375 -25.375 Z M 12.15625 -25.5625 "/></g></g></g><g fill="#3b82f6" fill-opacity="1"><g transform="translate(247.288319, 132.779432)"><g><path d="M 27.078125 -7.625 C 26.835938 -6.082031 26.492188 -4.625 26.046875 -3.25 C 25.554688 -1.851562 24.8125 -0.65625 23.8125 0.34375 C 22.78125 1.320312 21.414062 2.035156 19.71875 2.484375 C 17.988281 2.953125 15.75 3.015625 13 2.671875 C 10.289062 2.328125 8.195312 1.664062 6.71875 0.6875 C 5.207031 -0.289062 4.113281 -1.46875 3.4375 -2.84375 C 2.738281 -4.195312 2.375 -5.695312 2.34375 -7.34375 C 2.289062 -8.957031 2.363281 -10.570312 2.5625 -12.1875 C 2.769531 -13.800781 3.046875 -15.398438 3.390625 -16.984375 C 3.734375 -18.546875 4.367188 -19.953125 5.296875 -21.203125 C 6.210938 -22.410156 7.550781 -23.335938 9.3125 -23.984375 C 11.03125 -24.648438 13.390625 -24.859375 16.390625 -24.609375 L 17.265625 -24.5 C 19.910156 -24.164062 21.953125 -23.457031 23.390625 -22.375 C 24.785156 -21.25 25.800781 -19.945312 26.4375 -18.46875 C 27.0625 -17 27.394531 -15.460938 27.4375 -13.859375 C 27.46875 -12.210938 27.414062 -10.6875 27.28125 -9.28125 L 11.453125 -9.859375 C 11.304688 -8.691406 11.195312 -7.695312 11.125 -6.875 C 11.039062 -6.007812 11.070312 -5.289062 11.21875 -4.71875 C 11.320312 -4.144531 11.578125 -3.707031 11.984375 -3.40625 C 12.367188 -3.082031 12.972656 -2.867188 13.796875 -2.765625 C 14.617188 -2.660156 15.269531 -2.703125 15.75 -2.890625 C 16.21875 -3.023438 16.585938 -3.320312 16.859375 -3.78125 C 17.117188 -4.207031 17.3125 -4.757812 17.4375 -5.4375 C 17.550781 -6.125 17.664062 -6.929688 17.78125 -7.859375 Z M 18.28125 -12.5 L 18.21875 -12.515625 L 18.28125 -16.375 C 18.25 -16.894531 18.03125 -17.375 17.625 -17.8125 C 17.226562 -18.25 16.722656 -18.507812 16.109375 -18.59375 C 15.722656 -18.632812 15.320312 -18.628906 14.90625 -18.578125 C 14.46875 -18.523438 14.085938 -18.414062 13.765625 -18.25 C 13.390625 -18.082031 13.082031 -17.859375 12.84375 -17.578125 C 12.5625 -17.304688 12.390625 -16.945312 12.328125 -16.5 L 11.8125 -12.6875 L 11.796875 -12.640625 L 18.21875 -12.515625 L 18.203125 -12.46875 Z M 18.28125 -12.5 "/></g></g></g><g fill="#3b82f6" fill-opacity="1"><g transform="translate(272.966102, 136.180818)"><g><path d="M 5.3125 -25.3125 L 8.40625 -29.53125 C 7.65625 -29.863281 7.179688 -30.273438 6.984375 -30.765625 C 6.753906 -31.265625 6.675781 -31.753906 6.75 -32.234375 C 6.9375 -33.316406 7.335938 -34.109375 7.953125 -34.609375 C 8.515625 -35.078125 9.53125 -35.1875 11 -34.9375 C 12.195312 -34.738281 12.96875 -34.3125 13.3125 -33.65625 C 13.65625 -32.96875 13.769531 -32.28125 13.65625 -31.59375 C 13.5625 -31.050781 13.476562 -30.660156 13.40625 -30.421875 C 13.300781 -30.203125 13.125 -29.914062 12.875 -29.5625 L 11.734375 -27.96875 C 11.179688 -27.257812 10.40625 -26.144531 9.40625 -24.625 Z M 5.3125 -25.3125 "/></g></g></g><g fill="#3b82f6" fill-opacity="1"><g transform="translate(281.255954, 137.382461)"><g><path d="M 18.734375 -14.34375 C 18.816406 -14.71875 18.742188 -15.140625 18.515625 -15.609375 C 18.304688 -16.078125 17.894531 -16.375 17.28125 -16.5 C 17.144531 -16.53125 17.003906 -16.546875 16.859375 -16.546875 C 16.691406 -16.546875 16.515625 -16.53125 16.328125 -16.5 C 15.859375 -16.414062 15.503906 -16.242188 15.265625 -15.984375 C 14.992188 -15.722656 14.773438 -15.378906 14.609375 -14.953125 C 14.453125 -14.492188 14.328125 -13.953125 14.234375 -13.328125 C 14.097656 -12.710938 13.957031 -12.054688 13.8125 -11.359375 C 13.707031 -10.847656 13.691406 -10.4375 13.765625 -10.125 C 13.796875 -9.8125 13.878906 -9.550781 14.015625 -9.34375 C 14.148438 -9.144531 14.316406 -9.003906 14.515625 -8.921875 C 14.671875 -8.816406 14.816406 -8.75 14.953125 -8.71875 C 15.085938 -8.695312 15.171875 -8.695312 15.203125 -8.71875 L 15.3125 -8.6875 L 18.703125 -7.984375 C 20.023438 -7.703125 21.21875 -7.394531 22.28125 -7.0625 C 23.363281 -6.738281 24.269531 -6.316406 25 -5.796875 C 25.695312 -5.265625 26.191406 -4.59375 26.484375 -3.78125 C 26.722656 -2.957031 26.710938 -1.921875 26.453125 -0.671875 C 26.140625 0.816406 25.445312 1.910156 24.375 2.609375 C 23.28125 3.296875 22.039062 3.738281 20.65625 3.9375 C 19.269531 4.144531 17.851562 4.160156 16.40625 3.984375 C 14.914062 3.828125 13.609375 3.628906 12.484375 3.390625 C 11.171875 3.109375 10.03125 2.742188 9.0625 2.296875 C 8.082031 1.867188 7.265625 1.394531 6.609375 0.875 C 5.898438 0.332031 5.347656 -0.222656 4.953125 -0.796875 C 4.503906 -1.359375 4.140625 -1.929688 3.859375 -2.515625 C 3.253906 -3.816406 3.03125 -5.210938 3.1875 -6.703125 L 12.765625 -4.15625 C 12.648438 -3.644531 12.550781 -3.1875 12.46875 -2.78125 C 12.351562 -2.382812 12.296875 -2.023438 12.296875 -1.703125 C 12.296875 -1.378906 12.398438 -1.125 12.609375 -0.9375 C 12.773438 -0.71875 13.097656 -0.554688 13.578125 -0.453125 L 13.96875 -0.375 C 14.632812 -0.3125 15.144531 -0.28125 15.5 -0.28125 C 15.84375 -0.269531 16.140625 -0.398438 16.390625 -0.671875 C 16.585938 -0.953125 16.753906 -1.425781 16.890625 -2.09375 C 17.035156 -2.75 17.195312 -3.671875 17.375 -4.859375 L 14.640625 -5.4375 C 13.796875 -5.625 13.050781 -5.800781 12.40625 -5.96875 C 11.757812 -6.101562 11.160156 -6.265625 10.609375 -6.453125 C 9.992188 -6.617188 9.390625 -6.816406 8.796875 -7.046875 C 8.171875 -7.285156 7.492188 -7.570312 6.765625 -7.90625 C 5.441406 -8.507812 4.597656 -9.394531 4.234375 -10.5625 C 3.859375 -11.738281 3.863281 -13.253906 4.25 -15.109375 C 4.351562 -15.585938 4.515625 -16.179688 4.734375 -16.890625 C 4.898438 -17.546875 5.191406 -18.238281 5.609375 -18.96875 C 5.992188 -19.664062 6.523438 -20.347656 7.203125 -21.015625 C 7.867188 -21.660156 8.738281 -22.191406 9.8125 -22.609375 C 10.894531 -23.003906 12.195312 -23.238281 13.71875 -23.3125 C 15.257812 -23.375 17.082031 -23.1875 19.1875 -22.75 C 20.769531 -22.414062 22.125 -21.941406 23.25 -21.328125 C 24.320312 -20.722656 25.195312 -20.046875 25.875 -19.296875 C 26.570312 -18.523438 27.09375 -17.707031 27.4375 -16.84375 C 27.75 -15.96875 27.972656 -15.113281 28.109375 -14.28125 C 28.359375 -12.28125 28.132812 -10.132812 27.4375 -7.84375 L 17.90625 -9.859375 Z M 18.734375 -14.34375 "/></g></g></g></svg>