<svg version="1.2" xmlns="http://www.w3.org/2000/svg" viewBox="0 0 375 152" width="375" height="152"><style>.a{fill:none;stroke:#f57d45;stroke-width:20.4}.b{fill:#3b82f6}.c{fill:none;stroke:#f57d45;stroke-width:13.6}</style><path class="a" d="m72 118.2q-0.7-2.2-0.4-3.9 0.4-1.8 1.4-3.1 1.1-1.3 2.8-2.2 1.6-0.9 3.6-1.6 3.6-1.1 7.4-1.4 3.7-0.2 6.4 0l-3-9.5-20.7 8.5-5-15.7q6.9-2 13-3.8 6-1.7 10.7-2.9 5.4-1.5 9.9-2.7l11 36.1-11.3 3.5-1.8-5q-1.9 3.2-4.9 5.6-3 2.5-6.3 3.5-2.6 0.8-4.7 0.7-2.1-0.1-3.7-0.9-1.6-0.8-2.7-2.1-1.2-1.4-1.7-3.1zm9.6-2.6q0.5 1.3 1.7 1.6 1.2 0.3 2.9-0.2 0.9-0.3 1.7-1 0.7-0.6 1.3-1.4 0.5-0.7 1-1.7-1-0.5-1.9-0.9-0.9-0.3-1.8-0.5-1 0-1.9 0.2-1.7 0.6-2.5 1.6-0.8 1-0.5 2.3z"/><path class="a" d="m133.4 90.9q-0.5-3.6-0.6-7.2-0.2-3.5 1.2-6.5 1.3-3 4.7-5.3 3.4-2.3 9.9-3.4l1.4-0.2q5.8-0.7 9.5 0.6 3.6 1.5 5.8 4.2 2.1 2.7 3.1 6 1 3.5 1.5 6.7l-13.5 2.7q-0.2-1.4-0.4-2.6-0.3-1.3-0.9-2.4-0.6-1-1.4-1.6-0.8-0.5-2.1-0.3-0.6 0-1 0.2-1.7 0.5-2.6 1.2-0.9 0.6-1.2 1.7-0.3 1.1-0.2 2.7 0.2 1.7 0.5 4.2 0.3 2.5 0.6 4.3 0.4 1.8 1 3 0.5 1.2 1.6 1.7 1 0.5 2.8 0.2 1.7-0.2 2.7-0.8 0.9-0.7 1.2-1.9 0.3-1.1 0.2-2.8-0.1-1.6-0.4-3.8l13.5-3q0.3 3.5 0.1 6.9-0.2 3.5-1.8 6.3-1.7 2.8-5.1 4.8-3.4 2-9.5 2.8-6 0.8-9.8-0.6-3.8-1.3-6-4-2.3-2.7-3.3-6.4-1-3.6-1.5-7.4z"/><path class="a" d="m187.3 50.6l-0.5 27q0.6-2.4 1.9-4.6 1.1-2.2 2.7-4 1.5-1.9 3.3-3 1.9-1.1 3.9-1.1 5.6-0.1 8.5 1.9 2.8 2.1 4 6.8 1.1 4.7 1.1 12.3-0.1 7.7-0.3 18.6l-15.5 0.3q0.2-1.6 0.5-4.3 0.1-2.6 0.3-5.7 0.1-3.1 0.1-6.2 0-3.1-0.2-5.7-0.2-2.6-0.8-4.2-0.6-1.5-1.7-1.5-2.7 0.1-4.8 1.6-2.1 1.6-3.1 3.5l-0.4 22.6-12.7 0.3-0.1-7.4q-0.1-4-0.2-8.4-0.2-4.3-0.3-8.8l-0.1-8.6q-0.3-9.9-0.6-20.2z"/><path class="a" d="m214.4 95.6q0.2-2.4 1.2-3.8 1-1.5 2.4-2.3 1.5-0.8 3.4-1 1.9-0.3 4-0.1 3.7 0.4 7.3 1.5 3.6 1.3 5.9 2.5l0.9-10h-22.4l1.5-16.4q7.1 0.7 13.4 1.4 6.2 0.7 11 1.4 5.5 0.7 10.2 1.4l-3.7 37.5-11.8-1.1 0.3-5.3q-3 2.2-6.6 3.3-3.8 1.1-7.3 0.8-2.6-0.2-4.6-1.1-1.9-0.9-3-2.3-1.2-1.3-1.7-3-0.6-1.7-0.4-3.4zm9.9 1.2q-0.1 1.4 0.9 2.1 1 0.8 2.8 1 0.9 0.1 1.9-0.3 0.9-0.3 1.7-0.8 0.8-0.5 1.7-1.2-0.7-0.8-1.4-1.5-0.7-0.6-1.6-1.2-0.9-0.4-1.8-0.5-1.8-0.2-2.9 0.4-1.2 0.7-1.3 2z"/><path class="a" d="m272.8 73.4l-2.6 9.2q2.5-4.9 5.9-6.8 3.3-1.9 6.8-1.3 2.6 0.5 4 1.9 1.5 1.5 2.1 3.8 0.6 2.3 0.4 5.5-0.2 3.2-1.1 7.2l-14.8-1.3q0.3-2.6 0.4-4.2 0-1.5-1.6-1.8-1-0.2-2.9 0.1l-4.7 24.9-13.3-2.6q1.3-6.7 2.5-13.2 1.2-6.5 2.2-11.7 1-6 2-11.5z"/><path class="a" d="m310.6 81l-4.1 10.5q1.4-1.8 3.3-3.4 1.7-1.5 3.7-2.5 1.8-1 3.9-1.4 1.9-0.3 3.6 0.3 5.9 1.9 7.9 5.2 1.8 3.2 0.7 8.9 1.5-1.7 3.3-3.1 1.7-1.4 3.6-2.4 1.9-1 3.8-1.3 1.9-0.3 3.6 0.3 5.3 1.8 7.4 4.5 2 2.8 1.5 7.5-0.5 4.7-3 11.7-2.6 7-6.5 17.3l-14.6-4.9q0.7-1.5 1.9-3.9 1-2.4 2.1-5.1 1.1-2.7 2.2-5.6 1-2.8 1.6-5.2 0.6-2.4 0.6-4-0.1-1.7-1.1-2-2-0.7-3.9-0.3-2 0.3-3.6 1.1-1.3 4.3-3.2 9.7-2.1 5.5-4.8 12.5l-14.6-4.9q0.7-1.4 1.8-3.8 1.1-2.4 2.2-5.1 1.1-2.8 2.1-5.6 1.1-2.8 1.7-5.2 0.6-2.4 0.5-4 0-1.7-1-2-2.4-0.8-4.8-0.3-2.3 0.6-3.9 1.9l-8.2 20.9-12.1-4q2.1-6.2 4.3-12.7 2-6.3 3.8-11.5 1.9-6.2 3.8-11.9z"/><path class="b" d="m72 118.2q-0.7-2.2-0.4-3.9 0.4-1.8 1.4-3.1 1.1-1.3 2.8-2.2 1.6-0.9 3.6-1.6 3.6-1.1 7.4-1.4 3.7-0.2 6.4 0l-3-9.5-20.7 8.5-5-15.7q6.9-2 13-3.8 6-1.7 10.7-3 5.4-1.4 10-2.6l10.9 36.1-11.3 3.5-1.9-5q-1.8 3.2-4.8 5.6-3 2.5-6.3 3.5-2.6 0.8-4.7 0.7-2.1-0.1-3.7-0.9-1.6-0.7-2.7-2.1-1.2-1.4-1.7-3.1zm9.7-2.6q0.4 1.3 1.6 1.6 1.2 0.3 2.9-0.2 0.9-0.3 1.7-1 0.7-0.6 1.3-1.4 0.5-0.7 1-1.7-1-0.5-1.9-0.9-0.9-0.3-1.8-0.4-1-0.1-1.9 0.1-1.7 0.6-2.5 1.6-0.8 1-0.4 2.3z"/><path class="b" d="m133.4 90.9q-0.5-3.7-0.6-7.2-0.2-3.5 1.2-6.5 1.3-3 4.7-5.3 3.4-2.3 10-3.4l1.3-0.2q5.8-0.7 9.5 0.7 3.6 1.5 5.8 4 2.1 2.8 3.1 6.1 1 3.5 1.5 6.7l-13.5 2.7q-0.2-1.3-0.4-2.7-0.3-1.2-0.9-2.3-0.6-1-1.4-1.6-0.8-0.5-2.1-0.3-0.6 0-1 0.2-1.7 0.5-2.6 1.1-0.9 0.7-1.2 1.8-0.3 1.1-0.2 2.7 0.2 1.7 0.5 4.2 0.3 2.5 0.6 4.3 0.3 1.8 1 3 0.5 1.2 1.6 1.7 1 0.5 2.8 0.3 1.7-0.3 2.7-1 0.9-0.6 1.2-1.8 0.3-1.1 0.2-2.8-0.1-1.6-0.4-3.8l13.4-3.1q0.4 3.6 0.2 7-0.2 3.5-1.8 6.3-1.7 2.8-5.1 4.8-3.4 2-9.5 2.8-6 0.8-9.8-0.6-3.8-1.3-6-4.1-2.3-2.6-3.3-6.3-1-3.6-1.5-7.4z"/><path class="b" d="m187.3 50.6l-0.5 27q0.6-2.4 1.8-4.6 1.3-2.2 2.8-4 1.5-1.9 3.3-3 1.9-1.1 3.9-1.1 5.6-0.1 8.5 1.9 2.8 2.1 4 6.8 1.1 4.7 1.1 12.3-0.1 7.6-0.4 18.6l-15.4 0.3q0.2-1.6 0.5-4.3 0.2-2.6 0.3-5.7 0.1-3.1 0.1-6.2 0.1-3.1-0.1-5.7-0.3-2.5-0.9-4.2-0.6-1.5-1.7-1.5-2.7 0.1-4.7 1.6-2.2 1.6-3.2 3.4l-0.4 22.7-12.7 0.3-0.1-7.4q-0.1-4-0.2-8.4-0.2-4.3-0.3-8.8l-0.1-8.6q-0.3-9.9-0.6-20.2z"/><path class="b" d="m214.4 95.5q0.2-2.3 1.2-3.7 1-1.5 2.4-2.3 1.5-0.8 3.4-1 1.9-0.3 4-0.1 3.7 0.3 7.3 1.5 3.6 1.3 6 2.5l0.8-10h-22.4l1.5-16.4q7.1 0.7 13.4 1.4 6.2 0.7 11 1.4 5.5 0.7 10.2 1.4l-3.7 37.5-11.8-1.1 0.3-5.3q-3 2.2-6.7 3.3-3.7 1.1-7.2 0.8-2.6-0.2-4.6-1.1-1.9-0.9-3-2.3-1.3-1.3-1.7-3-0.6-1.7-0.4-3.5zm9.9 1.3q-0.1 1.4 0.9 2.1 1 0.8 2.8 1 1 0.1 1.9-0.3 0.9-0.3 1.7-0.8 0.8-0.5 1.7-1.2-0.7-0.8-1.4-1.5-0.8-0.6-1.6-1.2-0.9-0.4-1.8-0.5-1.8-0.2-2.9 0.4-1.2 0.7-1.3 2z"/><path class="b" d="m272.8 73.4l-2.6 9.2q2.5-4.9 5.9-6.8 3.3-1.9 6.8-1.3 2.6 0.5 4 1.9 1.5 1.5 2.1 3.8 0.6 2.3 0.4 5.5-0.2 3.2-1.1 7.2l-14.8-1.3q0.3-2.6 0.4-4.2 0-1.5-1.5-1.8-1-0.2-3 0.1l-4.7 24.9-13.3-2.6q1.3-6.7 2.5-13.2 1.2-6.5 2.2-11.7 1-6 2-11.5z"/><path class="b" d="m310.6 81l-4.1 10.5q1.4-1.8 3.3-3.4 1.7-1.5 3.7-2.5 1.8-1 3.9-1.4 1.9-0.3 3.6 0.3 5.9 1.9 7.9 5.2 1.8 3.2 0.7 8.9 1.5-1.7 3.3-3.1 1.7-1.4 3.6-2.4 1.9-1 3.8-1.3 1.9-0.3 3.6 0.3 5.3 1.8 7.4 4.5 2 2.8 1.6 7.5-0.5 4.7-3 11.7-2.7 7-6.6 17.3l-14.6-4.9q0.7-1.5 1.9-3.9 1-2.3 2.1-5.1 1.1-2.7 2.2-5.6 1-2.8 1.6-5.2 0.6-2.4 0.6-4-0.1-1.7-1.1-2-2-0.7-3.9-0.3-2 0.3-3.6 1.1-1.2 4.3-3.2 9.8-2.1 5.4-4.8 12.4l-14.6-4.9q0.7-1.4 1.8-3.8 1.1-2.4 2.2-5.1 1.1-2.7 2.2-5.6 1-2.8 1.6-5.3 0.6-2.3 0.5-4 0-1.6-1-1.9-2.5-0.8-4.7-0.3-2.4 0.6-4 2l-8.2 20.8-12.1-4q2.1-6.2 4.3-12.6 2-6.4 3.7-11.6 2-6.1 3.9-11.9z"/><path class="c" d="m30.8 66.2l-4.8-11.6 24.7-10.8 5 11.5-6.9 3 9.2 21.8-10.7 4.5-8.8-21.8z"/><path class="c" d="m62.8 39.6l5.2 17.3q-0.1-1.6 0.2-3.3 0.3-1.6 0.9-3.1 0.6-1.5 1.6-2.5 0.9-1.1 2.2-1.6 3.5-1.2 5.8-0.5 2.2 0.8 3.9 3.6 1.7 2.8 3.2 7.6 1.5 4.9 3.6 11.9l-9.8 3.3q-0.2-1.1-0.6-2.8-0.4-1.7-0.9-3.7-0.6-2-1.2-4-0.6-2-1.3-3.6-0.7-1.6-1.4-2.5-0.6-0.8-1.3-0.6-1.7 0.6-2.8 2-1 1.4-1.2 2.8l4.3 14.5-8.1 2.8-1.5-4.7q-0.9-2.5-1.9-5.3-0.9-2.7-1.9-5.6l-1.9-5.4q-2.1-6.3-4.4-12.8z"/><path class="c" d="m86.3 52.7l9.4-3.4 4.5 16.7-9.2 2.6zm-2.7-8.2q-0.8-2.9 0-4.4 0.7-1.4 3.8-2.3 1.7-0.5 2.8-0.3 1.1 0.2 1.8 0.8 0.6 0.6 1 1.5 0.3 0.9 0.6 1.8 0.3 1 0.4 2 0.2 1-0.1 1.9-0.3 1-1.2 1.7-0.9 0.8-2.6 1.3-1.7 0.5-2.8 0.3-1.1-0.2-1.8-0.8-0.7-0.6-1.2-1.6-0.4-0.9-0.7-1.9z"/><path class="c" d="m105.1 38.4l1 6.4q0.2-3.7 1.7-5.8 1.5-2.1 3.8-2.7 1.7-0.4 3 0 1.3 0.5 2.3 1.8 1 1.2 1.7 3.2 0.8 2 1.4 4.7l-9.4 3.3q-0.5-1.6-0.9-2.6-0.4-1-1.5-0.7-0.6 0.1-1.7 0.9l4 16.4-8.8 2.2q-1.1-4.5-2.1-8.8-1.1-4.3-2-7.7-1-4-1.9-7.6z"/><path class="c" d="m120 46.8q-0.4-2.4-0.4-4.7 0-2.3 0.8-4.3 0.8-1.9 2.7-3.3 1.8-1.4 5-2 1.5-0.3 2.6-0.1 1 0.1 1.7 0.4 0.8 0.4 1.3 1 0.6 0.6 1.1 1.2l0.3-0.1-2.5-12.7 10.1-2.5 4.3 23.7q0.5 2.7 0.9 4.9 0.4 2.2 0.8 3.8 0.3 1.9 0.7 3.3l-8.9 1.6-0.5-6q0 2.1-0.6 3.4-0.7 1.4-1.7 2.2-1 0.8-2 1.1-1.1 0.4-1.9 0.6l-0.7 0.1q-0.1 0-0.2 0-2.8 0.5-4.8-0.2-2-0.6-3.4-2-1.5-1.2-2.4-2.9-1.6-2.7-2.3-6.5zm10-0.8q0.3 1.7 0.6 2.9 0.3 1.2 0.8 2 0.4 0.7 1.2 1 0.8 0.3 2.1 0.1 1.4-0.3 2.1-0.9 0.7-0.5 0.9-1.4 0.2-0.9 0-2.1-0.1-1.2-0.5-2.9l-0.4-2.5q-0.2-1-0.5-1.7-0.2-0.6-0.7-0.9-0.5-0.2-1.4 0-0.6 0.1-1.6 0.4-1.3 0.4-2 0.8-0.7 0.4-0.9 1-0.2 0.6-0.1 1.5 0.1 1 0.4 2.7z"/><path class="c" d="m165.5 30l-0.9-12.5 26.8-2.4 1.1 12.5-7.5 0.7 1.8 23.5-11.6 0.8-1.4-23.3z"/><path class="c" d="m194.3 34.9l10-0.9 0.1 17.2-9.5 0.3zm-0.5-8.6q-0.1-3.1 1-4.3 1.2-1.2 4.4-1.3 1.7-0.1 2.7 0.4 1 0.5 1.5 1.3 0.5 0.7 0.6 1.7 0.1 0.9 0.1 1.9 0.1 1 0 2-0.2 1-0.7 1.8-0.5 0.9-1.5 1.4-1.1 0.5-2.9 0.6-1.7 0-2.7-0.5-1.1-0.5-1.6-1.2-0.6-0.8-0.7-1.8-0.2-1-0.2-2z"/><path class="c" d="m216.7 25.1l-0.7 7.5q0.6-1.4 1.5-2.8 0.8-1.3 1.9-2.3 1-1 2.3-1.6 1.1-0.6 2.4-0.5 4.1 0.1 6 1.9 1.8 1.7 2.1 5.6 0.7-1.4 1.5-2.7 0.9-1.2 1.9-2.2 1-0.9 2.2-1.5 1.2-0.5 2.3-0.4 3.8 0.1 5.6 1.5 1.9 1.4 2.4 4.5 0.6 3.1 0.3 8.1-0.4 5-1 12.3l-10.3-0.5q0.2-1 0.5-2.8 0.2-1.7 0.4-3.7 0.2-1.9 0.3-3.9 0.2-2.1 0.2-3.7-0.1-1.6-0.5-2.7-0.3-1-1-1.1-1.4 0-2.6 0.5-1.2 0.6-2.1 1.5 0 2.9-0.2 6.8-0.4 3.9-0.8 8.9l-10.3-0.4q0.2-1.1 0.5-2.9 0.2-1.7 0.4-3.6 0.2-2 0.4-4 0.1-2 0.1-3.7-0.1-1.6-0.4-2.7-0.4-1-1.1-1.1-1.7 0-3.1 0.7-1.4 0.9-2.1 2l-1.5 15-8.5-0.4q0.2-4.4 0.4-8.9 0.2-4.5 0.3-8.2 0.1-4.3 0.3-8.3z"/><path class="c" d="m274.4 45.2q-0.4 2.3-1.1 4.3-0.7 2.1-2.2 3.6-1.5 1.5-4.1 2.2-2.6 0.7-6.7 0.2-4.1-0.5-6.3-2-2.3-1.5-3.3-3.6-1-2-1.1-4.5 0-2.4 0.3-4.8 0.3-2.4 0.8-4.8 0.5-2.4 1.9-4.2 1.4-1.8 4-2.8 2.6-1 7.1-0.6l0.9 0.1q3.9 0.5 6.1 2.1 2.1 1.7 3 3.9 1 2.2 1 4.6 0.1 2.5-0.1 4.6l-15.9-0.6q-0.2 1.8-0.3 3-0.1 1.3 0.1 2.2 0.2 0.8 0.8 1.3 0.5 0.5 1.8 0.6 1.2 0.2 1.9-0.1 0.7-0.2 1.1-0.9 0.4-0.6 0.6-1.7 0.2-1 0.4-2.4zm-8.8-4.9h-0.1l0.1-3.8q-0.1-0.8-0.7-1.5-0.6-0.6-1.5-0.7-0.6-0.1-1.2 0-0.6 0-1.1 0.3-0.6 0.2-1 0.7-0.4 0.4-0.5 1l-0.5 3.9 6.4 0.1v0.1z"/><path class="c" d="m278.3 30.9l3.1-4.2q-1.2-0.6-1.5-1.3-0.3-0.7-0.2-1.5 0.3-1.6 1.2-2.3 0.9-0.7 3.1-0.4 1.8 0.3 2.3 1.3 0.5 1.1 0.3 2.1-0.1 0.8-0.2 1.1-0.2 0.4-0.6 0.9l-1.1 1.6q-0.8 1.1-2.3 3.4z"/><path class="c" d="m300 43q0.1-0.5-0.2-1.2-0.3-0.7-1.3-0.9-0.2-0.1-0.4-0.1-0.2 0-0.5 0.1-0.7 0.1-1.1 0.5-0.4 0.4-0.6 1-0.3 0.7-0.4 1.6-0.2 1-0.4 2-0.2 0.8-0.1 1.2 0.1 0.5 0.3 0.8 0.2 0.3 0.5 0.5 0.2 0.1 0.4 0.2 0.2 0 0.3 0h0.1l3.4 0.7q2 0.4 3.6 0.9 1.5 0.5 2.6 1.3 1.1 0.8 1.5 2 0.4 1.2 0 3.1-0.5 2.3-2.1 3.3-1.6 1-3.7 1.3-2.1 0.3-4.2 0.1-2.3-0.3-3.9-0.6-2-0.5-3.5-1.1-1.4-0.7-2.4-1.5-1.1-0.8-1.7-1.6-0.7-0.9-1.1-1.7-0.9-2-0.7-4.2l9.6 2.5q-0.1 0.8-0.3 1.4-0.2 0.6-0.1 1.1 0 0.5 0.3 0.7 0.2 0.4 0.9 0.5l0.4 0.1q1 0.1 1.6 0.1 0.5 0 0.8-0.4 0.3-0.4 0.5-1.4 0.3-1 0.5-2.8l-2.7-0.6q-1.3-0.2-2.2-0.5-1-0.2-1.8-0.5-0.9-0.2-1.8-0.6-1-0.3-2.1-0.8-2-0.9-2.5-2.7-0.6-1.7 0-4.5 0.2-0.7 0.5-1.8 0.3-1 0.9-2.1 0.6-1 1.6-2 1-1 2.6-1.6 1.6-0.6 3.9-0.7 2.3-0.1 5.4 0.6 2.4 0.5 4.1 1.3 1.6 1 2.6 2.1 1.1 1.2 1.6 2.4 0.5 1.3 0.7 2.6 0.3 3-0.7 6.4l-9.5-2z"/><path class="b" d="m30.8 66.2l-4.8-11.6 24.7-10.8 5 11.5-6.9 3 9.2 21.8-10.7 4.5-8.7-21.8z"/><path class="b" d="m62.8 39.6l5.2 17.3q-0.1-1.6 0.2-3.3 0.3-1.6 0.9-3.1 0.6-1.4 1.6-2.6 0.9-1 2.2-1.5 3.5-1.2 5.8-0.5 2.2 0.8 4 3.6 1.6 2.8 3.1 7.6 1.5 4.9 3.6 11.9l-9.8 3.3q-0.2-1-0.6-2.8-0.4-1.7-0.9-3.7-0.6-2-1.2-4-0.6-2-1.3-3.6-0.7-1.5-1.4-2.5-0.6-0.8-1.3-0.6-1.7 0.6-2.7 2-1.1 1.4-1.3 2.8l4.3 14.5-8.1 2.8-1.6-4.7q-0.8-2.5-1.8-5.3-0.9-2.7-1.9-5.6l-1.9-5.4q-2.1-6.3-4.4-12.8z"/><path class="b" d="m86.3 52.7l9.4-3.4 4.5 16.7-9.2 2.6zm-2.7-8.2q-0.8-2.9 0-4.4 0.8-1.4 3.8-2.3 1.8-0.5 2.8-0.3 1.1 0.2 1.8 0.8 0.6 0.6 1 1.5 0.3 0.9 0.6 1.8 0.3 1 0.4 2 0.2 1-0.1 1.9-0.3 1-1.2 1.7-0.8 0.8-2.6 1.3-1.7 0.5-2.8 0.3-1.1-0.2-1.8-0.8-0.7-0.6-1.2-1.6-0.4-0.9-0.7-1.9z"/><path class="b" d="m105.1 38.4l1 6.4q0.2-3.7 1.7-5.8 1.5-2.1 3.8-2.7 1.7-0.4 3 0.1 1.3 0.4 2.3 1.7 1 1.2 1.7 3.2 0.8 2.1 1.4 4.7l-9.4 3.3q-0.5-1.6-0.9-2.6-0.4-1-1.5-0.7-0.6 0.1-1.7 0.9l4 16.4-8.8 2.2q-1.1-4.5-2.1-8.8-1.1-4.3-2-7.7-1-4-1.9-7.6z"/><path class="b" d="m120 46.8q-0.4-2.4-0.4-4.7 0-2.3 0.8-4.3 0.8-1.9 2.7-3.3 1.8-1.4 5-2 1.5-0.2 2.6-0.1 1 0.1 1.7 0.5 0.8 0.3 1.3 0.9 0.6 0.6 1.1 1.2l0.3-0.1-2.5-12.7 10.1-2.5 4.3 23.7q0.4 2.7 0.9 4.9 0.4 2.1 0.8 3.8 0.3 1.9 0.7 3.3l-8.9 1.6-0.5-6q0 2.1-0.6 3.4-0.7 1.4-1.7 2.2-1 0.8-2 1.1-1.1 0.4-1.8 0.6l-0.8 0.1q-0.1 0-0.2 0-2.8 0.5-4.8-0.2-2-0.6-3.4-1.9-1.5-1.3-2.4-2.9-1.6-2.8-2.3-6.6zm10-0.8q0.3 1.7 0.6 2.9 0.2 1.2 0.8 2 0.4 0.7 1.2 1 0.8 0.3 2.1 0.1 1.5-0.3 2.1-0.8 0.7-0.6 0.9-1.5 0.2-0.8 0-2.1-0.1-1.2-0.5-2.9l-0.4-2.5q-0.2-1-0.5-1.7-0.2-0.6-0.7-0.9-0.5-0.2-1.4 0-0.7 0.1-1.7 0.4-1.2 0.4-1.9 0.8-0.7 0.4-0.9 1-0.3 0.6-0.1 1.5 0.1 1 0.4 2.7z"/><path class="b" d="m165.5 30l-0.9-12.5 26.8-2.4 1.1 12.5-7.5 0.7 1.8 23.5-11.5 0.8-1.5-23.3z"/><path class="b" d="m194.3 34.9l10-0.9 0.1 17.2-9.5 0.3zm-0.5-8.6q-0.1-3.1 1.1-4.3 1.1-1.2 4.3-1.3 1.8 0 2.8 0.4 1 0.5 1.4 1.3 0.5 0.7 0.6 1.6 0.1 1 0.1 2 0.1 1 0 2-0.1 1-0.6 1.8-0.6 0.9-1.6 1.4-1.1 0.5-2.9 0.5-1.7 0.1-2.7-0.4-1.1-0.4-1.6-1.2-0.6-0.8-0.7-1.8-0.2-1-0.2-2z"/><path class="b" d="m216.7 25.1l-0.7 7.5q0.6-1.4 1.5-2.8 0.8-1.3 1.9-2.3 1-1 2.2-1.6 1.2-0.6 2.5-0.5 4.1 0.1 6 1.9 1.8 1.7 2.1 5.6 0.6-1.4 1.5-2.7 0.9-1.2 1.9-2.2 1-0.9 2.2-1.5 1.2-0.5 2.3-0.4 3.8 0.1 5.6 1.5 1.9 1.4 2.4 4.5 0.6 3.1 0.3 8.1-0.4 5-1 12.3l-10.3-0.5q0.2-1 0.5-2.8 0.2-1.7 0.4-3.7 0.2-1.9 0.3-3.9 0.2-2.1 0.2-3.7-0.1-1.6-0.4-2.7-0.4-1-1.1-1.1-1.4 0-2.6 0.5-1.2 0.6-2.1 1.5 0 2.9-0.3 6.8-0.3 3.9-0.7 8.9l-10.3-0.4q0.2-1.1 0.5-2.9 0.2-1.7 0.4-3.7 0.2-1.9 0.4-3.9 0.1-2 0.1-3.7-0.1-1.6-0.4-2.7-0.4-1-1.1-1.1-1.7 0-3.1 0.7-1.4 0.9-2.1 2l-1.5 15-8.5-0.4q0.2-4.4 0.4-8.9 0.2-4.5 0.3-8.1 0.2-4.4 0.3-8.4z"/><path class="b" d="m274.4 45.2q-0.4 2.3-1.1 4.3-0.7 2.1-2.2 3.6-1.5 1.5-4.1 2.2-2.6 0.7-6.7 0.2-4.1-0.6-6.3-2-2.3-1.5-3.3-3.6-1-2-1.1-4.5 0-2.4 0.3-4.8 0.3-2.4 0.8-4.8 0.5-2.3 1.9-4.2 1.4-1.8 4-2.8 2.6-1 7.1-0.6l0.9 0.1q3.9 0.5 6.1 2.1 2.1 1.7 3 3.9 1 2.2 1 4.6 0.1 2.5-0.1 4.6l-15.9-0.6q-0.2 1.8-0.3 3-0.1 1.3 0.1 2.2 0.2 0.8 0.8 1.3 0.5 0.5 1.8 0.6 1.2 0.2 1.9-0.1 0.7-0.2 1.1-0.9 0.4-0.6 0.6-1.7 0.2-1 0.4-2.4zm-8.8-4.9h-0.1l0.1-3.8q-0.1-0.8-0.7-1.5-0.6-0.6-1.5-0.7-0.6-0.1-1.2 0-0.7 0-1.1 0.3-0.6 0.2-1 0.7-0.4 0.4-0.5 1l-0.5 3.9 6.4 0.1v0.1z"/><path class="b" d="m278.3 30.9l3.1-4.3q-1.2-0.4-1.4-1.2-0.4-0.7-0.3-1.5 0.3-1.6 1.2-2.3 0.9-0.7 3.1-0.4 1.8 0.3 2.3 1.3 0.5 1.1 0.3 2.1-0.1 0.8-0.2 1.2-0.2 0.3-0.6 0.8l-1.1 1.6q-0.8 1.1-2.3 3.4z"/><path class="b" d="m300 43q0.1-0.5-0.2-1.2-0.3-0.7-1.3-0.9-0.2-0.1-0.4-0.1-0.2 0-0.5 0.1-0.7 0.1-1.1 0.5-0.4 0.4-0.6 1-0.3 0.7-0.4 1.7-0.2 0.9-0.4 1.9-0.2 0.8-0.1 1.3 0.1 0.4 0.3 0.7 0.2 0.3 0.5 0.5 0.2 0.1 0.4 0.2 0.2 0 0.3 0h0.1l3.4 0.7q1.9 0.4 3.5 0.9 1.7 0.5 2.8 1.3 1 0.8 1.4 2 0.4 1.2 0 3.1-0.5 2.2-2.1 3.3-1.6 1-3.7 1.3-2.1 0.3-4.2 0.1-2.3-0.3-4-0.6-1.9-0.5-3.4-1.1-1.5-0.7-2.4-1.4-1.1-0.9-1.7-1.7-0.7-0.9-1.1-1.7-0.9-2-0.7-4.2l9.6 2.5q-0.2 0.8-0.3 1.4-0.1 0.6-0.1 1.1 0 0.5 0.3 0.7 0.2 0.4 0.9 0.5l0.4 0.1q1 0.1 1.6 0.1 0.5 0 0.8-0.4 0.3-0.4 0.5-1.4 0.3-1 0.5-2.8l-2.7-0.6q-1.3-0.2-2.2-0.5-1-0.2-1.8-0.5-1-0.2-1.8-0.6-1-0.3-2.1-0.8-2-0.9-2.5-2.7-0.6-1.7 0-4.5 0.2-0.7 0.5-1.8 0.2-1 0.9-2.1 0.5-1 1.6-2 1-1 2.6-1.6 1.6-0.6 3.9-0.7 2.3-0.1 5.4 0.5 2.4 0.5 4.1 1.5 1.6 0.9 2.6 2 1.1 1.1 1.6 2.4 0.5 1.4 0.7 2.6 0.3 3-0.7 6.4l-9.5-2z"/></svg>