<svg xmlns="http://www.w3.org/2000/svg" xmlns:xlink="http://www.w3.org/1999/xlink" width="500" zoomAndPan="magnify" viewBox="0 0 375 374.999991" height="500" preserveAspectRatio="xMidYMid meet" version="1.0"><defs><g/></defs><path stroke-linecap="butt" transform="matrix(0.553062, -0.327482, 0.327482, 0.553062, 2.357314, 160.095457)" fill="none" stroke-linejoin="miter" d="M 1.860251 67.228782 C 1.861929 65.365157 2.201042 63.814344 2.87759 62.576341 C 3.562464 61.336205 4.458303 60.348119 5.581759 59.607818 C 6.68643 58.863458 7.979979 58.33688 9.482154 58.018591 C 10.961484 57.715026 12.541755 57.563049 14.222967 57.56266 C 17.182032 57.563183 20.157675 57.905481 23.131111 58.585494 C 26.040279 59.326334 28.478517 60.099094 30.462477 60.899509 L 30.46065 48.926733 L 3.721624 51.238615 L 3.717705 31.551862 C 9.41936 31.608366 14.810617 31.700027 19.894573 31.821615 C 24.8941 31.942652 29.31852 32.104554 33.160471 32.295897 C 37.621497 32.479474 41.739579 32.657747 45.522079 32.84214 L 45.064275 77.999935 L 30.846397 78.000217 L 30.57249 71.580259 C 28.396238 73.561791 25.888125 75.113744 23.042924 76.233021 C 20.128224 77.410028 17.276838 78.002984 14.494956 78.001431 C 12.391601 77.999062 10.533486 77.689876 8.91538 77.070778 C 7.312206 76.509962 6.010074 75.738938 5.008985 74.757707 C 3.968194 73.76003 3.194383 72.609669 2.701109 71.307588 C 2.142192 70.009016 1.860163 68.648381 1.860251 67.228782 Z M 13.833572 67.679306 C 13.835895 68.796627 14.274198 69.607067 15.151575 70.105394 C 16.013676 70.665306 17.154526 70.945306 18.574126 70.945395 C 19.315199 70.9463 20.064532 70.754333 20.824259 70.377821 C 21.502101 70.079956 22.15242 69.709291 22.772121 69.271054 C 23.378266 68.831855 23.988059 68.302997 24.609827 67.682348 C 23.989178 67.060581 23.377267 66.507554 22.774093 66.023267 C 22.151378 65.583912 21.501757 65.178067 20.820002 64.802635 C 20.062556 64.495392 19.318526 64.344415 18.574356 64.348739 C 17.154757 64.34865 16.015068 64.627311 15.150062 65.181625 C 14.271912 65.805848 13.836889 66.635954 13.833572 67.679306 Z M 13.833572 67.679306 " stroke="#3b82f6" stroke-width="24.386774" stroke-opacity="1" stroke-miterlimit="4"/><path stroke-linecap="butt" transform="matrix(0.585191, -0.265845, 0.265845, 0.585191, 31.996229, 142.72921)" fill="none" stroke-linejoin="miter" d="M 19.77759 31.548939 L 19.14063 44.750093 C 19.763944 43.010681 20.56633 41.332593 21.547787 39.715829 C 22.483476 38.11165 23.569084 36.662354 24.815171 35.359389 C 25.979288 34.119313 27.277751 33.127173 28.71358 32.391018 C 30.072956 31.646831 31.495284 31.278351 32.977544 31.277531 C 37.437904 31.274566 40.817542 32.048925 43.113439 33.59256 C 45.335917 35.209645 46.87809 37.839359 47.74549 41.484216 C 48.559076 45.144676 48.901117 49.945979 48.766081 55.885611 C 48.581767 61.889634 48.309725 69.262264 47.944422 78.000987 L 29.44157 77.999408 C 29.637955 76.700188 29.85739 74.997579 30.097362 72.897114 C 30.27699 70.856013 30.469661 68.653958 30.664815 66.299502 C 30.783514 63.937014 30.877062 61.556425 30.93439 59.152707 C 30.999259 56.732389 30.963581 54.533401 30.848983 52.552216 C 30.665994 50.633415 30.356831 49.05113 29.91898 47.810893 C 29.481129 46.570656 28.827132 45.953145 27.965038 45.955342 C 25.984834 45.950232 24.186309 46.441517 22.56393 47.426684 C 20.90334 48.48127 19.630582 49.725393 18.758731 51.144968 L 17.373749 77.99746 L 2.132173 78.002225 C 2.134568 72.736605 2.131921 67.408617 2.134791 62.009709 C 2.069776 56.686764 2.045106 51.86276 2.039153 47.541221 C 1.978201 42.400351 1.921311 37.441557 1.857418 32.65981 Z M 19.77759 31.548939 " stroke="#3b82f6" stroke-width="24.386774" stroke-opacity="1" stroke-miterlimit="4"/><path stroke-linecap="butt" transform="matrix(0.610662, -0.200536, 0.200536, 0.610662, 65.251764, 127.901008)" fill="none" stroke-linejoin="miter" d="M 1.861625 55.798283 C 1.86214 52.894328 1.979862 49.984086 2.222461 47.063677 C 2.478846 44.218161 3.289713 41.593111 4.649203 39.167414 C 6.010931 36.812817 8.179733 34.863983 11.155608 33.320913 C 14.060297 31.760863 18.20563 30.864098 23.587726 30.622948 L 25.540329 30.618093 C 30.677492 30.616347 34.651534 31.390454 37.445132 32.934727 C 40.227524 34.55208 42.296757 36.568518 43.658605 38.985934 C 44.961158 41.467037 45.739984 44.159957 45.995081 47.064695 C 46.238973 50.042514 46.359284 52.890196 46.359894 55.615412 C 46.359978 58.653895 46.169346 61.591369 45.791877 64.435503 C 45.426212 67.341084 44.501845 69.941655 43.005331 72.239197 C 41.522262 74.534757 39.256855 76.368709 36.220573 77.725626 C 33.194199 79.149765 29.015348 79.856413 23.678331 79.862894 C 18.792903 79.857753 14.924862 79.150439 12.066453 77.725611 C 9.161936 76.304833 6.970407 74.446534 5.486093 72.148819 C 3.930936 69.910998 2.939326 67.340104 2.517038 64.438033 C 2.081562 61.595599 1.857317 58.713786 1.861625 55.798283 Z M 23.885118 46.040823 C 22.385217 46.283896 21.266147 46.59446 20.52791 46.972514 C 19.724604 47.412359 19.164237 48.027933 18.848791 48.832682 C 18.483361 49.63381 18.276497 50.653325 18.214755 51.893209 C 18.153013 53.133094 18.121768 54.747607 18.124813 56.725203 C 18.121827 58.643247 18.154269 60.317055 18.212486 61.737061 C 18.270703 63.157067 18.483535 64.339994 18.847105 65.278171 C 19.16474 66.258833 19.725241 66.96743 20.526711 67.409734 C 21.265009 67.908054 22.386561 68.154823 23.883697 68.153919 C 25.425045 68.154739 26.594356 67.905452 27.397405 67.407952 C 28.212259 66.9719 28.80486 66.258167 29.165642 65.276403 C 29.543918 64.338765 29.765438 63.157747 29.822531 61.737227 C 29.821969 60.316965 29.826068 58.648759 29.825176 56.723045 C 29.825141 54.989514 29.854746 53.438429 29.91787 52.077461 C 29.917565 50.714853 29.825988 49.571746 29.643139 48.648139 C 29.444864 47.713069 29.066895 46.99405 28.507336 46.496856 C 27.963203 46.011124 27.133805 45.770741 26.015262 45.768036 C 25.457929 45.770519 24.7434 45.862109 23.885118 46.040823 Z M 23.885118 46.040823 " stroke="#3b82f6" stroke-width="24.386774" stroke-opacity="1" stroke-miterlimit="4"/><path stroke-linecap="butt" transform="matrix(0.627257, -0.140255, 0.140255, 0.627257, 98.108273, 117.42796)" fill="none" stroke-linejoin="miter" d="M 0.929111 33.228787 L 9.663639 33.045793 L 9.297614 15.103437 L 27.486968 12.880795 L 26.558384 32.296062 L 38.919208 31.547629 L 38.170687 49.377777 L 26.76125 49.491999 L 26.763369 78.002035 L 9.096379 77.999933 L 9.934913 49.852237 L 1.380525 50.399341 Z M 0.929111 33.228787 " stroke="#3b82f6" stroke-width="24.386774" stroke-opacity="1" stroke-miterlimit="4"/><path stroke-linecap="butt" transform="matrix(0.638116, -0.0770097, 0.0770097, 0.638116, 126.624709, 111.060461)" fill="none" stroke-linejoin="miter" d="M 19.780457 12.974498 L 18.573836 45.291393 C 19.134329 43.436873 19.911307 41.614599 20.910801 39.825301 C 21.891675 38.08885 23.006643 36.509377 24.243637 35.085426 C 25.488121 33.650136 26.844646 32.503836 28.326007 31.64195 C 29.826197 30.776214 31.37726 30.351247 32.975346 30.34822 C 37.437963 30.348086 40.81484 31.178004 43.117315 32.845462 C 45.33792 34.582621 46.878393 37.339575 47.74404 41.123088 C 48.561417 44.900776 48.89819 49.820284 48.765698 55.889103 C 48.58348 61.964164 48.308166 69.368606 47.947244 78.091091 L 29.441708 78.09215 C 29.635193 76.793248 29.853329 75.087178 30.094662 72.986008 C 30.280963 70.884317 30.465702 68.592671 30.666981 66.113253 C 30.787118 63.697501 30.878335 61.217044 30.933869 58.677186 C 30.994918 56.193088 30.967231 53.937021 30.846232 51.896189 C 30.664169 49.85411 30.35176 48.181957 29.91504 46.880458 C 29.477071 45.640025 28.829177 45.02314 27.966052 45.023041 C 25.804859 45.025448 23.88512 45.614055 22.206835 46.78886 C 20.465509 48.029516 19.192833 49.394067 18.396296 50.871174 L 17.374915 78.000996 L 2.132651 77.997976 L 2.132072 69.176771 C 2.134964 65.957191 2.134318 62.614754 2.130134 59.149458 C 2.071647 55.67761 2.03927 52.141575 2.042888 48.560912 L 2.039698 38.239615 C 1.978373 30.378281 1.921521 22.32772 1.857072 14.086474 Z M 19.780457 12.974498 " stroke="#3b82f6" stroke-width="24.386774" stroke-opacity="1" stroke-miterlimit="4"/><path stroke-linecap="butt" transform="matrix(0.642707, -0.00705959, 0.00705959, 0.642707, 162.803547, 106.950931)" fill="none" stroke-linejoin="miter" d="M 46.359941 58.40375 C 46.298983 61.186716 46.020586 63.845737 45.518605 66.386825 C 44.961263 68.988082 43.908939 71.280012 42.367709 73.262681 C 40.747545 75.238406 38.487482 76.818122 35.587522 78.00183 C 32.607958 79.239364 28.63843 79.858243 23.678937 79.858467 C 18.792369 79.859493 14.922539 79.148427 12.063369 77.725204 C 9.161593 76.30759 6.969697 74.448016 5.487681 72.146482 C 3.932006 69.910995 2.93916 67.341333 2.51522 64.437562 C 2.078458 61.594429 1.860938 58.711159 1.862594 55.79383 C 1.857972 52.894665 1.981102 49.984748 2.21983 47.063945 C 2.481998 44.222411 3.288901 41.587428 4.652557 39.171284 C 6.009536 36.809766 8.182448 34.864424 11.159338 33.316893 C 14.063371 31.762484 18.206194 30.859851 23.587675 30.62115 L 25.173992 30.620341 C 29.939018 30.61798 33.716558 31.431355 36.512821 33.048377 C 39.235692 34.707138 41.340106 36.784552 42.820186 39.262321 C 44.239495 41.739423 45.170569 44.399574 45.613408 47.242774 C 46.049302 50.164909 46.298943 52.890509 46.362197 55.431727 L 18.121581 57.929475 C 18.122659 60.044563 18.151518 61.843911 18.214232 63.327585 C 18.270269 64.865886 18.487247 66.138531 18.847068 67.133166 C 19.164416 68.121256 19.721841 68.832405 20.525419 69.266678 C 21.267492 69.767131 22.38307 70.016419 23.884308 70.014676 C 25.367247 70.018809 26.506264 69.794285 27.307233 69.359403 C 28.107602 68.979215 28.697876 68.359685 29.078057 67.500812 C 29.457636 66.696633 29.675471 65.677954 29.731628 64.438698 C 29.793861 63.199509 29.822103 61.735068 29.822295 60.057595 Z M 29.646553 51.710836 L 29.555331 51.715912 L 28.804278 44.83974 C 28.607937 43.901601 28.106274 43.09382 27.305366 42.416464 C 26.504524 41.733031 25.547951 41.394322 24.429636 41.394194 C 23.748937 41.392795 23.036851 41.482218 22.293312 41.668541 C 21.555784 41.861008 20.902399 42.139488 20.345314 42.504115 C 19.727324 42.880229 19.223797 43.348767 18.846888 43.909863 C 18.421362 44.470425 18.213342 45.148854 18.210608 45.951095 L 18.122958 52.824132 L 18.121957 52.915288 L 29.555331 51.715912 L 29.554396 51.800991 Z M 29.646553 51.710836 " stroke="#3b82f6" stroke-width="24.386774" stroke-opacity="1" stroke-miterlimit="4"/><path stroke-linecap="butt" transform="matrix(0.640179, 0.057391, -0.057391, 0.640179, 197.402248, 106.84218)" fill="none" stroke-linejoin="miter" d="M 19.502684 32.479142 L 18.575012 43.91168 C 19.813893 39.694095 21.613749 36.561158 23.975122 34.51892 C 26.317709 32.539385 28.8896 31.552195 31.684199 31.551838 C 33.789363 31.552269 35.518185 31.983057 36.876717 32.843659 C 38.242304 33.782952 39.31909 35.108143 40.120809 36.836305 C 40.941773 38.574946 41.499777 40.715473 41.800331 43.25129 C 42.119587 45.791533 42.243636 48.672672 42.184586 51.893622 L 24.424262 53.754285 C 24.309141 51.653378 24.153315 49.983247 23.974943 48.742264 C 23.778411 47.50291 23.02703 46.880765 21.727395 46.88134 C 20.927919 46.87979 19.787501 47.15898 18.300089 47.719451 L 18.305688 78.00225 L 2.129594 78.000179 C 2.129339 72.484162 2.133884 67.089752 2.132208 61.830138 C 2.069457 56.569899 2.041269 51.831316 2.043218 47.633094 C 1.982218 42.732704 1.922595 38.051856 1.858294 33.591093 Z M 19.502684 32.479142 " stroke="#3b82f6" stroke-width="24.386774" stroke-opacity="1" stroke-miterlimit="4"/><path stroke-linecap="butt" transform="matrix(0.620388, 0.168051, -0.168051, 0.620388, 251.525993, 113.853859)" fill="none" stroke-linejoin="miter" d="M 0.00187243 53.484257 C -0.00216752 50.563792 0.247873 47.744506 0.750404 45.020533 C 1.24707 42.298149 2.178696 39.879805 3.539417 37.767091 C 4.895861 35.661833 6.818159 33.995162 9.295678 32.751072 C 11.705493 31.512728 14.886606 30.890291 18.848061 30.893904 C 20.6481 30.891136 22.134922 31.080252 23.314392 31.459664 C 24.494962 31.819888 25.482933 32.282656 26.290036 32.844788 C 27.086387 33.460205 27.769085 34.144188 28.329087 34.886592 C 28.827131 35.702448 29.293157 36.539569 29.734619 37.402234 L 30.369992 37.400128 L 29.917026 14.087387 L 48.580238 12.973468 L 48.580918 55.978136 C 48.581674 59.258389 48.611747 62.22847 48.671137 64.88838 C 48.671867 67.56418 48.7057 69.8973 48.763593 71.877597 C 48.8215 74.160121 48.889417 76.200667 48.967345 77.999237 L 32.885904 77.998237 L 33.909185 67.224844 C 33.470067 69.648298 32.730656 71.567525 31.686674 72.98998 C 30.564236 74.471466 29.353423 75.580213 28.055824 76.322089 C 26.758226 77.063964 25.455237 77.530255 24.154315 77.725238 C 22.790945 77.96862 21.646326 78.089781 20.708727 78.0919 L 19.417206 78.089147 C 19.23181 78.032327 19.083689 77.996892 18.958423 77.999342 C 15.603011 78.001568 12.81475 77.377929 10.590952 76.141745 C 8.356402 74.958846 6.553118 73.438749 5.194422 71.584142 C 3.772178 69.79712 2.690284 67.848643 1.953017 65.731256 C 0.648994 62.1492 0.00146392 58.061897 0.00187243 53.484257 Z M 17.827579 55.229124 C 17.823515 57.282872 17.862579 59.05419 17.943181 60.537211 C 17.99873 62.020723 18.245528 63.257238 18.667565 64.25739 C 19.046461 65.237747 19.662435 65.977582 20.528808 66.479585 C 21.401047 66.979998 22.645772 67.228397 24.245386 67.229549 C 25.981998 67.225072 27.31286 66.977904 28.234794 66.476311 C 29.177504 65.981683 29.857328 65.237146 30.277445 64.254433 C 30.656009 63.257789 30.875078 62.021008 30.938928 60.536636 C 30.996912 59.053853 31.027142 57.282655 31.025341 55.230495 L 31.029788 50.783987 C 31.027655 49.544161 30.937784 48.49181 30.754308 47.628523 C 30.55849 46.812654 30.220551 46.192694 29.734623 45.770234 C 29.172927 45.393484 28.334799 45.20495 27.214372 45.206222 C 26.477198 45.204421 25.488275 45.296001 24.246012 45.475094 C 22.641155 45.733518 21.400852 46.012824 20.525105 46.313012 C 19.667446 46.633486 19.04407 47.09828 18.665612 47.723404 C 18.245482 48.403891 18.001956 49.294694 17.942488 50.400091 C 17.865303 51.579549 17.828956 53.188696 17.827579 55.229124 Z M 17.827579 55.229124 " stroke="#3b82f6" stroke-width="24.386774" stroke-opacity="1" stroke-miterlimit="4"/><path stroke-linecap="butt" transform="matrix(0.598541, 0.234245, -0.234245, 0.598541, 286.749038, 123.677219)" fill="none" stroke-linejoin="miter" d="M 1.858137 67.228579 C 1.860756 65.367563 2.200749 63.818301 2.883776 62.578576 C 3.558928 61.335406 4.459 60.350106 5.577345 59.605696 C 6.684372 58.865716 7.985064 58.337099 9.479422 58.019846 C 10.959017 57.714897 12.544675 57.564228 14.222861 57.56661 C 17.184294 57.562778 20.1578 57.906641 23.131077 58.583434 C 26.03841 59.325192 28.481659 60.098469 30.458611 60.897606 L 30.457797 48.922196 L 3.717902 51.235768 L 3.721644 31.551036 C 9.422805 31.61056 14.809984 31.701596 19.888841 31.821929 C 24.896585 31.943987 29.31721 32.100031 33.160808 32.299164 C 37.617361 32.480305 41.740984 32.661216 45.518142 32.840667 L 45.068994 78.00211 L 30.847718 78.000816 L 30.574031 71.581643 C 28.399127 73.561858 25.886596 75.112947 23.042099 76.232693 C 20.123784 77.413959 17.273109 78.000967 14.492291 77.999377 C 12.390867 77.999476 10.533282 77.68878 8.913876 77.069503 C 7.31096 76.509035 6.010944 75.738657 5.013829 74.758368 C 3.969467 73.757411 3.200449 72.609538 2.6989 71.311305 C 2.137557 70.010368 1.859927 68.650608 1.858137 67.228579 Z M 13.833568 67.67807 C 13.835344 68.799896 14.275106 69.606733 15.149411 70.106456 C 16.015352 70.668189 17.1554 70.946439 18.577429 70.944649 C 19.316619 70.949043 20.062935 70.75486 20.823023 70.379077 C 21.500188 70.074904 22.15299 69.708478 22.771339 69.270693 C 23.376155 68.831678 23.989578 68.297927 24.608164 67.677313 C 23.987551 67.058726 23.374322 66.509039 22.774138 66.026035 C 22.151072 65.584618 21.502909 65.179128 20.819559 64.800461 C 20.066821 64.494634 19.316306 64.344568 18.573672 64.348048 C 17.157302 64.347623 16.013097 64.625734 15.148932 65.185827 C 14.274188 65.80227 13.837948 66.638677 13.833568 67.67807 Z M 13.833568 67.67807 " stroke="#3b82f6" stroke-width="24.386774" stroke-opacity="1" stroke-miterlimit="4"/><path stroke-linecap="butt" transform="matrix(0.569625, 0.297741, -0.297741, 0.569625, 318.697776, 136.342841)" fill="none" stroke-linejoin="miter" d="M 2.313602 78.271692 L 7.62372 82.264544 C 7.74062 82.265158 7.83365 82.298823 7.894852 82.376554 L 8.074303 82.378761 C 8.889776 82.981154 9.822156 83.282423 10.866057 83.285386 C 11.798444 83.284918 12.63952 83.04416 13.381083 82.56054 C 14.12338 82.117683 14.770691 81.532462 15.328158 80.788475 C 15.893826 80.047059 16.381644 79.209183 16.8052 78.274602 C 17.18383 77.411507 17.56246 76.548412 17.941091 75.685318 L 17.938688 73.739019 C 16.505714 70.997521 14.893421 67.808002 13.112582 64.164833 C 11.308117 60.5683 9.512224 56.843851 7.71156 53.005317 C 5.852138 49.224926 4.051103 45.51688 2.316412 41.870162 C 0.530921 38.27057 -1.082965 35.143602 -2.517288 32.478241 L 18.120106 31.552335 L 27.964055 59.241046 C 28.26471 58.425566 28.546887 57.338583 28.802386 55.977527 C 29.044297 54.616715 29.417563 52.851223 29.914225 50.692068 C 30.35213 48.591055 30.972435 46.051824 31.775138 43.074374 C 32.575026 40.091537 33.685846 36.562153 35.110166 32.47802 L 54.437297 31.551227 L 34.271887 80.610691 C 33.346792 82.829205 32.178229 84.962394 30.75518 87.002301 C 29.334947 89.047595 27.695485 90.844027 25.834224 92.399798 C 23.971126 94.004532 21.892719 95.276065 19.599003 96.214396 C 17.253264 97.131917 14.711804 97.596276 11.974378 97.593886 C 9.816068 97.597386 7.928779 97.253495 6.326342 96.575559 C 4.711296 95.952216 3.369835 95.275019 2.309916 94.532953 C 1.632273 94.036815 0.950718 93.323279 0.270882 92.403117 C -0.467712 91.541097 -1.179865 90.637827 -1.859946 89.704077 Z M 2.313602 78.271692 " stroke="#3b82f6" stroke-width="24.386774" stroke-opacity="1" stroke-miterlimit="4"/><path stroke-linecap="butt" transform="matrix(0.54374, 0.342738, -0.342738, 0.54374, 350.027619, 153.271161)" fill="none" stroke-linejoin="miter" d="M 2.788783 13.907538 L 19.68741 12.975747 L 17.830187 59.607065 L 4.648989 60.623836 Z M 3.53728 71.784557 C 3.538952 68.687178 4.220181 66.576709 5.575825 65.456389 C 6.882517 64.338189 9.110648 63.781436 12.270502 63.779648 C 14.253387 63.779789 15.793902 64.001299 16.893947 64.435797 C 17.956882 64.936791 18.733586 65.55355 19.230539 66.296357 C 19.732635 67.035924 20.041822 67.868351 20.163242 68.790398 C 20.280861 69.729209 20.343046 70.659857 20.341416 71.580443 C 20.342905 72.642743 20.286281 73.669834 20.16126 74.668197 C 19.982706 75.650015 19.611706 76.508882 19.051501 77.249937 C 18.494756 78.053468 17.654484 78.66933 16.532025 79.111047 C 15.35245 79.610317 13.744174 79.862561 11.703955 79.86264 C 9.906594 79.860501 8.483209 79.608264 7.437038 79.111071 C 6.320229 78.672772 5.48295 78.051091 4.920061 77.249269 C 4.360632 76.509922 3.99143 75.650668 3.809216 74.666365 C 3.629122 73.731014 3.53911 72.767617 3.53728 71.784557 Z M 3.53728 71.784557 " stroke="#3b82f6" stroke-width="24.386774" stroke-opacity="1" stroke-miterlimit="4"/><g fill="#63c4a7" fill-opacity="1"><g transform="translate(27.900885, 203.234322)"><g><path d="M -2.515625 -6.5625 C -3.117188 -7.59375 -3.429688 -8.5625 -3.453125 -9.46875 C -3.472656 -10.382812 -3.304688 -11.226562 -2.953125 -12 C -2.578125 -12.78125 -2.023438 -13.5 -1.296875 -14.15625 C -0.566406 -14.820312 0.253906 -15.425781 1.171875 -15.96875 C 2.816406 -16.9375 4.570312 -17.722656 6.4375 -18.328125 C 8.28125 -18.859375 9.890625 -19.226562 11.265625 -19.4375 L 7.34375 -26.0625 L -6.703125 -16.015625 L -13.15625 -26.90625 C -9.976562 -28.738281 -6.96875 -30.457031 -4.125 -32.0625 C -1.3125 -33.625 1.1875 -34.984375 3.375 -36.140625 C 5.90625 -37.503906 8.25 -38.75 10.40625 -39.875 L 24.921875 -14.765625 L 17.0625 -10.109375 L 14.796875 -13.546875 C 14.253906 -11.742188 13.378906 -10.070312 12.171875 -8.53125 C 10.941406 -6.914062 9.554688 -5.65625 8.015625 -4.75 C 6.847656 -4.050781 5.722656 -3.613281 4.640625 -3.4375 C 3.566406 -3.226562 2.585938 -3.226562 1.703125 -3.4375 C 0.796875 -3.644531 0 -4.03125 -0.6875 -4.59375 C -1.4375 -5.113281 -2.046875 -5.769531 -2.515625 -6.5625 Z M 4.28125 -10.234375 C 4.644531 -9.609375 5.144531 -9.304688 5.78125 -9.328125 C 6.445312 -9.296875 7.171875 -9.515625 7.953125 -9.984375 C 8.367188 -10.234375 8.726562 -10.578125 9.03125 -11.015625 C 9.289062 -11.429688 9.519531 -11.851562 9.71875 -12.28125 C 9.925781 -12.726562 10.101562 -13.222656 10.25 -13.765625 C 9.707031 -13.910156 9.175781 -14.015625 8.65625 -14.078125 C 8.175781 -14.117188 7.6875 -14.128906 7.1875 -14.109375 C 6.675781 -14.046875 6.210938 -13.890625 5.796875 -13.640625 C 5.015625 -13.171875 4.472656 -12.632812 4.171875 -12.03125 C 3.898438 -11.414062 3.9375 -10.816406 4.28125 -10.234375 Z M 4.28125 -10.234375 "/></g></g></g><g fill="#63c4a7" fill-opacity="1"><g transform="translate(52.732149, 188.374119)"><g><path d="M -0.765625 -32.453125 L 2.359375 -24.546875 C 2.265625 -25.734375 2.296875 -26.929688 2.453125 -28.140625 C 2.554688 -29.316406 2.800781 -30.453125 3.1875 -31.546875 C 3.539062 -32.585938 4.035156 -33.515625 4.671875 -34.328125 C 5.273438 -35.117188 6.007812 -35.710938 6.875 -36.109375 C 9.488281 -37.296875 11.664062 -37.738281 13.40625 -37.4375 C 15.144531 -37.09375 16.757812 -35.96875 18.25 -34.0625 C 19.6875 -32.144531 21.160156 -29.429688 22.671875 -25.921875 C 24.148438 -22.347656 25.941406 -17.957031 28.046875 -12.75 L 17.234375 -7.828125 C 16.992188 -8.640625 16.664062 -9.691406 16.25 -10.984375 C 15.820312 -12.234375 15.347656 -13.578125 14.828125 -15.015625 C 14.273438 -16.421875 13.695312 -17.84375 13.09375 -19.28125 C 12.488281 -20.695312 11.882812 -21.96875 11.28125 -23.09375 C 10.65625 -24.175781 10.054688 -25.019531 9.484375 -25.625 C 8.890625 -26.238281 8.335938 -26.429688 7.828125 -26.203125 C 6.671875 -25.671875 5.757812 -24.894531 5.09375 -23.875 C 4.394531 -22.820312 3.976562 -21.765625 3.84375 -20.703125 L 10.171875 -4.625 L 1.25 -0.5625 C -0.144531 -3.644531 -1.5625 -6.757812 -3 -9.90625 C -4.457031 -13.019531 -5.765625 -15.847656 -6.921875 -18.390625 C -8.316406 -21.367188 -9.664062 -24.242188 -10.96875 -27.015625 Z M -0.765625 -32.453125 "/></g></g></g><g fill="#63c4a7" fill-opacity="1"><g transform="translate(80.893535, 175.532624)"><g><path d="M -3.328125 -13.921875 C -3.910156 -15.703125 -4.414062 -17.507812 -4.84375 -19.34375 C -5.257812 -21.132812 -5.300781 -22.90625 -4.96875 -24.65625 C -4.601562 -26.363281 -3.660156 -27.984375 -2.140625 -29.515625 C -0.679688 -31.046875 1.671875 -32.429688 4.921875 -33.671875 L 6.109375 -34.0625 C 9.242188 -35.09375 11.816406 -35.410156 13.828125 -35.015625 C 15.859375 -34.585938 17.523438 -33.773438 18.828125 -32.578125 C 20.128906 -31.335938 21.148438 -29.847656 21.890625 -28.109375 C 22.628906 -26.347656 23.273438 -24.632812 23.828125 -22.96875 C 24.429688 -21.113281 24.90625 -19.28125 25.25 -17.46875 C 25.601562 -15.613281 25.5625 -13.835938 25.125 -12.140625 C 24.664062 -10.453125 23.65625 -8.878906 22.09375 -7.421875 C 20.507812 -5.960938 18.09375 -4.695312 14.84375 -3.625 C 11.851562 -2.644531 9.347656 -2.296875 7.328125 -2.578125 C 5.253906 -2.867188 3.535156 -3.566406 2.171875 -4.671875 C 0.785156 -5.722656 -0.332031 -7.09375 -1.1875 -8.78125 C -2.03125 -10.4375 -2.742188 -12.148438 -3.328125 -13.921875 Z M 8.171875 -24.296875 C 7.328125 -23.847656 6.710938 -23.441406 6.328125 -23.078125 C 5.910156 -22.648438 5.691406 -22.15625 5.671875 -21.59375 C 5.597656 -21.03125 5.671875 -20.363281 5.890625 -19.59375 C 6.097656 -18.820312 6.398438 -17.828125 6.796875 -16.609375 C 7.179688 -15.441406 7.535156 -14.4375 7.859375 -13.59375 C 8.179688 -12.726562 8.550781 -12.050781 8.96875 -11.5625 C 9.351562 -11.007812 9.835938 -10.6875 10.421875 -10.59375 C 10.984375 -10.4375 11.710938 -10.503906 12.609375 -10.796875 C 13.554688 -11.109375 14.222656 -11.5 14.609375 -11.96875 C 15.015625 -12.382812 15.234375 -12.9375 15.265625 -13.625 C 15.304688 -14.269531 15.203125 -15.035156 14.953125 -15.921875 C 14.671875 -16.785156 14.335938 -17.800781 13.953125 -18.96875 C 13.609375 -20.03125 13.316406 -20.984375 13.078125 -21.828125 C 12.804688 -22.660156 12.515625 -23.34375 12.203125 -23.875 C 11.910156 -24.40625 11.539062 -24.765625 11.09375 -24.953125 C 10.65625 -25.140625 10.097656 -25.125 9.421875 -24.90625 C 9.078125 -24.789062 8.660156 -24.585938 8.171875 -24.296875 Z M 8.171875 -24.296875 "/></g></g></g><g fill="#63c4a7" fill-opacity="1"><g transform="translate(109.048151, 166.353978)"><g><path d="M -5.703125 -28.21875 L -0.265625 -29.5625 L -2.984375 -40.75 L 8.109375 -44.703125 L 10.265625 -32.390625 L 17.890625 -34.59375 L 19.9375 -23.3125 L 12.78125 -21.640625 L 16.78125 -3.75 L 5.71875 -1.28125 L 2.28125 -19.046875 L -3 -17.5 Z M -5.703125 -28.21875 "/></g></g></g><g fill="#63c4a7" fill-opacity="1"><g transform="translate(132.631465, 160.833495)"><g><path d="M 7.625 -43.03125 L 9.328125 -22.296875 C 9.546875 -23.523438 9.90625 -24.753906 10.40625 -25.984375 C 10.894531 -27.160156 11.484375 -28.253906 12.171875 -29.265625 C 12.847656 -30.273438 13.632812 -31.109375 14.53125 -31.765625 C 15.394531 -32.441406 16.34375 -32.84375 17.375 -32.96875 C 20.21875 -33.3125 22.4375 -33.03125 24.03125 -32.125 C 25.582031 -31.1875 26.785156 -29.546875 27.640625 -27.203125 C 28.429688 -24.859375 29.03125 -21.742188 29.4375 -17.859375 C 29.78125 -13.972656 30.164062 -9.226562 30.59375 -3.625 L 18.796875 -2.203125 C 18.816406 -3.046875 18.820312 -4.148438 18.8125 -5.515625 C 18.78125 -6.878906 18.722656 -8.351562 18.640625 -9.9375 C 18.546875 -11.488281 18.421875 -13.082031 18.265625 -14.71875 C 18.109375 -16.300781 17.910156 -17.738281 17.671875 -19.03125 C 17.390625 -20.320312 17.066406 -21.363281 16.703125 -22.15625 C 16.316406 -22.914062 15.847656 -23.265625 15.296875 -23.203125 C 13.921875 -23.035156 12.738281 -22.507812 11.75 -21.625 C 10.738281 -20.707031 10.039062 -19.742188 9.65625 -18.734375 L 11.09375 -1.34375 L 1.359375 -0.171875 L 0.6875 -5.796875 C 0.4375 -7.859375 0.175781 -9.992188 -0.09375 -12.203125 C -0.40625 -14.410156 -0.695312 -16.660156 -0.96875 -18.953125 L -1.765625 -25.53125 C -2.410156 -30.550781 -3.070312 -35.6875 -3.75 -40.9375 Z M 7.625 -43.03125 "/></g></g></g><g fill="#63c4a7" fill-opacity="1"><g transform="translate(163.354195, 157.082088)"><g><path d="M 29.65625 -12.921875 C 29.632812 -11.128906 29.476562 -9.421875 29.1875 -7.796875 C 28.84375 -6.109375 28.179688 -4.625 27.203125 -3.34375 C 26.171875 -2.0625 24.726562 -1.03125 22.875 -0.25 C 20.96875 0.5625 18.425781 0.984375 15.25 1.015625 C 12.101562 1.054688 9.609375 0.632812 7.765625 -0.25 C 5.878906 -1.144531 4.445312 -2.328125 3.46875 -3.796875 C 2.46875 -5.210938 1.816406 -6.859375 1.515625 -8.734375 C 1.210938 -10.566406 1.050781 -12.414062 1.03125 -14.28125 C 1.007812 -16.15625 1.070312 -18.03125 1.21875 -19.90625 C 1.351562 -21.738281 1.847656 -23.4375 2.703125 -25 C 3.566406 -26.519531 4.953125 -27.785156 6.859375 -28.796875 C 8.710938 -29.816406 11.375 -30.425781 14.84375 -30.625 L 15.859375 -30.625 C 18.921875 -30.664062 21.351562 -30.175781 23.15625 -29.15625 C 24.914062 -28.101562 26.285156 -26.785156 27.265625 -25.203125 C 28.191406 -23.617188 28.804688 -21.914062 29.109375 -20.09375 C 29.398438 -18.21875 29.578125 -16.46875 29.640625 -14.84375 L 11.5 -13.03125 C 11.507812 -11.675781 11.539062 -10.519531 11.59375 -9.5625 C 11.644531 -8.5625 11.796875 -7.75 12.046875 -7.125 C 12.253906 -6.488281 12.617188 -6.03125 13.140625 -5.75 C 13.617188 -5.445312 14.332031 -5.300781 15.28125 -5.3125 C 16.238281 -5.320312 16.976562 -5.460938 17.5 -5.734375 C 18.007812 -5.984375 18.378906 -6.390625 18.609375 -6.953125 C 18.847656 -7.472656 18.984375 -8.128906 19.015625 -8.921875 C 19.046875 -9.710938 19.054688 -10.648438 19.046875 -11.734375 Z M 18.859375 -17.109375 L 18.796875 -17.109375 L 18.28125 -21.515625 C 18.144531 -22.117188 17.820312 -22.632812 17.3125 -23.0625 C 16.78125 -23.5 16.15625 -23.710938 15.4375 -23.703125 C 15 -23.703125 14.546875 -23.632812 14.078125 -23.5 C 13.597656 -23.382812 13.179688 -23.203125 12.828125 -22.953125 C 12.429688 -22.710938 12.117188 -22.414062 11.890625 -22.0625 C 11.609375 -21.6875 11.472656 -21.242188 11.484375 -20.734375 L 11.46875 -16.3125 L 11.46875 -16.25 L 18.796875 -17.109375 L 18.796875 -17.046875 Z M 18.859375 -17.109375 "/></g></g></g><g fill="#63c4a7" fill-opacity="1"><g transform="translate(192.925753, 156.776103)"><g><path d="M 15.109375 -28.03125 L 13.84375 -20.765625 C 14.882812 -23.390625 16.21875 -25.289062 17.84375 -26.46875 C 19.457031 -27.59375 21.160156 -28.078125 22.953125 -27.921875 C 24.296875 -27.796875 25.378906 -27.421875 26.203125 -26.796875 C 27.023438 -26.117188 27.640625 -25.203125 28.046875 -24.046875 C 28.472656 -22.890625 28.710938 -21.484375 28.765625 -19.828125 C 28.816406 -18.203125 28.726562 -16.359375 28.5 -14.296875 L 17.03125 -14.125 C 17.082031 -15.46875 17.078125 -16.546875 17.015625 -17.359375 C 16.972656 -18.160156 16.53125 -18.597656 15.6875 -18.671875 C 15.1875 -18.722656 14.441406 -18.613281 13.453125 -18.34375 L 11.71875 1.046875 L 1.375 0.125 C 1.6875 -3.40625 1.992188 -6.851562 2.296875 -10.21875 C 2.554688 -13.601562 2.8125 -16.644531 3.0625 -19.34375 C 3.300781 -22.476562 3.523438 -25.472656 3.734375 -28.328125 Z M 15.109375 -28.03125 "/></g></g></g><g fill="#63c4a7" fill-opacity="1"><g transform="translate(219.039548, 159.203751)"><g/></g></g><g fill="#63c4a7" fill-opacity="1"><g transform="translate(238.418002, 162.24411)"><g><path d="M 4.125 -15.21875 C 4.613281 -17.03125 5.242188 -18.738281 6.015625 -20.34375 C 6.773438 -21.945312 7.753906 -23.285156 8.953125 -24.359375 C 10.148438 -25.441406 11.625 -26.15625 13.375 -26.5 C 15.082031 -26.875 17.164062 -26.726562 19.625 -26.0625 C 20.738281 -25.757812 21.628906 -25.390625 22.296875 -24.953125 C 22.960938 -24.523438 23.5 -24.066406 23.90625 -23.578125 C 24.300781 -23.066406 24.609375 -22.53125 24.828125 -21.96875 C 24.992188 -21.394531 25.140625 -20.800781 25.265625 -20.1875 L 25.6875 -20.078125 L 29.3125 -34.640625 L 41.0625 -32.171875 L 33.84375 -5.484375 C 33.289062 -3.453125 32.8125 -1.601562 32.40625 0.0625 C 31.957031 1.707031 31.585938 3.15625 31.296875 4.40625 C 30.941406 5.832031 30.632812 7.109375 30.375 8.234375 L 20.40625 5.53125 L 22.84375 -0.984375 C 22.164062 0.441406 21.382812 1.507812 20.5 2.21875 C 19.5625 2.945312 18.625 3.429688 17.6875 3.671875 C 16.757812 3.921875 15.875 3.992188 15.03125 3.890625 C 14.144531 3.816406 13.410156 3.703125 12.828125 3.546875 L 12.03125 3.328125 C 11.925781 3.253906 11.835938 3.207031 11.765625 3.1875 C 9.679688 2.625 8.054688 1.773438 6.890625 0.640625 C 5.703125 -0.472656 4.84375 -1.722656 4.3125 -3.109375 C 3.726562 -4.460938 3.378906 -5.851562 3.265625 -7.28125 C 3.066406 -9.726562 3.351562 -12.375 4.125 -15.21875 Z M 14.890625 -11.109375 C 14.546875 -9.847656 14.269531 -8.753906 14.0625 -7.828125 C 13.84375 -6.890625 13.785156 -6.078125 13.890625 -5.390625 C 13.953125 -4.710938 14.21875 -4.148438 14.6875 -3.703125 C 15.132812 -3.242188 15.859375 -2.878906 16.859375 -2.609375 C 17.941406 -2.316406 18.8125 -2.25 19.46875 -2.40625 C 20.125 -2.550781 20.671875 -2.894531 21.109375 -3.4375 C 21.503906 -3.988281 21.847656 -4.722656 22.140625 -5.640625 C 22.429688 -6.546875 22.75 -7.628906 23.09375 -8.890625 L 23.84375 -11.671875 C 24.050781 -12.429688 24.164062 -13.101562 24.1875 -13.6875 C 24.207031 -14.207031 24.097656 -14.644531 23.859375 -15 C 23.585938 -15.320312 23.101562 -15.578125 22.40625 -15.765625 C 21.945312 -15.890625 21.316406 -16 20.515625 -16.09375 C 19.472656 -16.207031 18.660156 -16.242188 18.078125 -16.203125 C 17.472656 -16.148438 17.003906 -15.96875 16.671875 -15.65625 C 16.285156 -15.300781 15.984375 -14.785156 15.765625 -14.109375 C 15.523438 -13.390625 15.234375 -12.390625 14.890625 -11.109375 Z M 14.890625 -11.109375 "/></g></g></g><g fill="#63c4a7" fill-opacity="1"><g transform="translate(268.477962, 170.363445)"><g><path d="M 3.625 -6.015625 C 4.0625 -7.128906 4.628906 -7.972656 5.328125 -8.546875 C 6.035156 -9.128906 6.804688 -9.519531 7.640625 -9.71875 C 8.492188 -9.894531 9.398438 -9.898438 10.359375 -9.734375 C 11.316406 -9.566406 12.296875 -9.289062 13.296875 -8.90625 C 15.066406 -8.207031 16.769531 -7.304688 18.40625 -6.203125 C 19.957031 -5.078125 21.238281 -4.039062 22.25 -3.09375 L 25.0625 -10.265625 L 8.484375 -15.140625 L 13.09375 -26.9375 C 16.5 -25.5625 19.707031 -24.242188 22.71875 -22.984375 C 25.6875 -21.734375 28.296875 -20.601562 30.546875 -19.59375 C 33.179688 -18.425781 35.609375 -17.34375 37.828125 -16.34375 L 26.96875 10.5625 L 18.46875 7.21875 L 19.796875 3.3125 C 18.035156 4.007812 16.175781 4.347656 14.21875 4.328125 C 12.1875 4.359375 10.335938 4.046875 8.671875 3.390625 C 7.410156 2.898438 6.375 2.285156 5.5625 1.546875 C 4.738281 0.828125 4.140625 0.0507812 3.765625 -0.78125 C 3.359375 -1.625 3.160156 -2.488281 3.171875 -3.375 C 3.140625 -4.28125 3.289062 -5.160156 3.625 -6.015625 Z M 10.703125 -2.9375 C 10.429688 -2.269531 10.5 -1.6875 10.90625 -1.1875 C 11.300781 -0.644531 11.921875 -0.207031 12.765625 0.125 C 13.210938 0.300781 13.703125 0.367188 14.234375 0.328125 C 14.710938 0.285156 15.191406 0.210938 15.671875 0.109375 C 16.148438 -0.00390625 16.644531 -0.175781 17.15625 -0.40625 C 16.925781 -0.914062 16.6875 -1.394531 16.4375 -1.84375 C 16.164062 -2.25 15.867188 -2.644531 15.546875 -3.03125 C 15.171875 -3.382812 14.757812 -3.648438 14.3125 -3.828125 C 13.46875 -4.160156 12.71875 -4.257812 12.0625 -4.125 C 11.394531 -3.957031 10.941406 -3.5625 10.703125 -2.9375 Z M 10.703125 -2.9375 "/></g></g></g><g fill="#63c4a7" fill-opacity="1"><g transform="translate(295.473947, 180.77357)"><g><path d="M 1.25 0.84375 L 3.046875 4.703125 C 3.117188 4.742188 3.171875 4.796875 3.203125 4.859375 L 3.3125 4.90625 C 3.582031 5.488281 4.015625 5.9375 4.609375 6.25 C 5.148438 6.53125 5.695312 6.640625 6.25 6.578125 C 6.800781 6.554688 7.351562 6.414062 7.90625 6.15625 C 8.4375 5.894531 8.96875 5.566406 9.5 5.171875 C 9.96875 4.785156 10.4375 4.398438 10.90625 4.015625 L 11.5 2.90625 C 11.488281 0.925781 11.519531 -1.363281 11.59375 -3.96875 C 11.625 -6.5625 11.703125 -9.21875 11.828125 -11.9375 C 11.898438 -14.644531 11.988281 -17.300781 12.09375 -19.90625 C 12.132812 -22.476562 12.148438 -24.738281 12.140625 -26.6875 L 24.140625 -21.078125 L 21.515625 -2.359375 C 21.941406 -2.722656 22.425781 -3.257812 22.96875 -3.96875 C 23.507812 -4.664062 24.25 -5.5625 25.1875 -6.65625 C 26.050781 -7.726562 27.15625 -8.992188 28.5 -10.453125 C 29.851562 -11.898438 31.546875 -13.578125 33.578125 -15.484375 L 44.84375 -10.25 L 18.75 11.6875 C 17.5625 12.6875 16.253906 13.554688 14.828125 14.296875 C 13.410156 15.023438 11.945312 15.554688 10.4375 15.890625 C 8.882812 16.253906 7.316406 16.359375 5.734375 16.203125 C 4.128906 16.023438 2.550781 15.53125 1 14.71875 C -0.238281 14.070312 -1.21875 13.316406 -1.9375 12.453125 C -2.65625 11.628906 -3.207031 10.847656 -3.59375 10.109375 C -3.832031 9.628906 -4.007812 9.019531 -4.125 8.28125 C -4.289062 7.570312 -4.425781 6.851562 -4.53125 6.125 Z M 1.25 0.84375 "/></g></g></g><g fill="#63c4a7" fill-opacity="1"><g transform="translate(323.294027, 195.682846)"><g><path d="M 23.484375 -33.90625 L 32.984375 -28.609375 L 16.015625 -3.890625 L 8.484375 -7.859375 Z M 4.0625 -2.1875 C 5.113281 -3.863281 6.203125 -4.773438 7.328125 -4.921875 C 8.421875 -5.078125 9.828125 -4.613281 11.546875 -3.53125 C 12.617188 -2.851562 13.390625 -2.203125 13.859375 -1.578125 C 14.253906 -0.941406 14.457031 -0.34375 14.46875 0.21875 C 14.476562 0.789062 14.359375 1.351562 14.109375 1.90625 C 13.859375 2.445312 13.578125 2.972656 13.265625 3.484375 C 12.898438 4.054688 12.515625 4.585938 12.109375 5.078125 C 11.671875 5.566406 11.175781 5.914062 10.625 6.125 C 10.039062 6.363281 9.363281 6.414062 8.59375 6.28125 C 7.789062 6.132812 6.835938 5.710938 5.734375 5.015625 C 4.753906 4.398438 4.0625 3.78125 3.65625 3.15625 C 3.195312 2.53125 2.960938 1.90625 2.953125 1.28125 C 2.890625 0.695312 2.984375 0.0976562 3.234375 -0.515625 C 3.441406 -1.085938 3.71875 -1.644531 4.0625 -2.1875 Z M 4.0625 -2.1875 "/></g></g></g><path stroke-linecap="butt" transform="matrix(0.530227, -0.228008, 0.228008, 0.530227, 40.625155, 114.847024)" fill="none" stroke-linejoin="miter" d="M 1.387324 26.994162 L 1.383792 10.247176 L 37.309113 9.554362 L 37.5126 26.298926 L 27.544138 26.506249 L 27.748266 58.000066 L 12.247198 58.001566 L 12.590139 26.794569 Z M 1.387324 26.994162 " stroke="#3b82f6" stroke-width="18.169987" stroke-opacity="1" stroke-miterlimit="4"/><path stroke-linecap="butt" transform="matrix(0.543828, -0.193339, 0.193339, 0.543828, 61.962576, 105.735343)" fill="none" stroke-linejoin="miter" d="M 1.384846 41.454521 C 1.38491 39.292497 1.472832 37.125793 1.657256 34.9503 C 1.849052 32.83489 2.453078 30.873218 3.467069 29.07166 C 4.480211 27.312898 6.095194 25.861476 8.314285 24.711019 C 10.477827 23.555178 13.560781 22.884226 17.575902 22.702697 L 19.027265 22.701511 C 22.854631 22.704633 25.812361 23.274898 27.895921 24.425059 C 29.967721 25.628502 31.515499 27.134084 32.526502 28.93727 C 33.493861 30.782402 34.072664 32.791079 34.267447 34.950546 C 34.448204 37.169671 34.540956 39.292865 34.537061 41.324235 C 34.537143 43.586871 34.397357 45.778234 34.111326 47.896056 C 33.845845 50.057098 33.150274 51.993408 32.037369 53.70952 C 30.933108 55.421523 29.249252 56.783813 26.985802 57.796391 C 24.734256 58.856299 21.615587 59.385262 17.642547 59.387813 C 14.001384 59.386244 11.115643 58.855938 8.9917 57.799163 C 6.827228 56.735163 5.19358 55.349893 4.090754 53.643355 C 2.931531 51.97423 2.190334 50.05866 1.875808 47.892538 C 1.549523 45.779698 1.386624 43.631566 1.384846 41.454521 Z M 17.793268 34.193572 C 16.674497 34.370462 15.843536 34.606576 15.292164 34.884625 C 14.69488 35.210998 14.278987 35.673686 14.038106 36.270423 C 13.769451 36.864469 13.613034 37.627708 13.564745 38.551498 C 13.522833 39.477555 13.499069 40.675831 13.499831 42.148592 C 13.501441 43.578558 13.523734 44.829122 13.564867 45.885263 C 13.612377 46.943671 13.774804 47.820265 14.043506 48.519154 C 14.277207 49.255881 14.692711 49.784292 15.287751 50.110763 C 15.845523 50.481449 16.676642 50.669181 17.792018 50.663472 C 18.939278 50.669099 19.818563 50.478897 20.410319 50.107462 C 21.020356 49.785623 21.461187 49.252789 21.728279 48.521712 C 22.01181 47.825212 22.174883 46.94223 22.219341 45.887786 C 22.216894 44.82385 22.220108 43.582354 22.218498 42.152388 C 22.220719 40.853077 22.243634 39.697597 22.287243 38.685948 C 22.288057 37.673452 22.217173 36.82222 22.087345 36.136788 C 21.940653 35.438177 21.65807 34.899559 21.237328 34.52731 C 20.83345 34.168238 20.214042 33.991127 19.381372 33.989598 C 18.963903 33.992022 18.438172 34.056518 17.793268 34.193572 Z M 17.793268 34.193572 " stroke="#3b82f6" stroke-width="18.169987" stroke-opacity="1" stroke-miterlimit="4"/><path stroke-linecap="butt" transform="matrix(0.557996, -0.147544, 0.147544, 0.557996, 82.948225, 98.05101)" fill="none" stroke-linejoin="miter" d="M 14.734183 23.258962 L 14.26118 33.228614 C 14.724597 31.979051 15.320981 30.729645 16.050334 29.480396 C 16.75103 28.286574 17.563178 27.22723 18.486778 26.302363 C 19.354574 25.376741 20.318628 24.616582 21.393758 24.018803 C 22.407515 23.4678 23.46676 23.194844 24.56668 23.191662 C 28.263614 23.189128 30.958966 23.92983 32.661009 25.408955 C 34.330336 26.879429 35.392236 29.323369 35.854982 32.735963 C 36.359387 31.490238 36.984649 30.290471 37.715952 29.139745 C 38.413786 28.036172 39.200737 27.019169 40.081619 26.097008 C 40.943847 25.218917 41.895791 24.504559 42.916091 23.955287 C 43.932554 23.447002 44.96698 23.188485 46.030724 23.189738 C 49.348384 23.191925 51.86377 23.766032 53.562067 24.915143 C 55.231708 26.119681 56.38546 28.083873 57.026783 30.794632 C 57.621928 33.521183 57.880551 37.096819 57.787836 41.524622 C 57.655109 45.997849 57.442989 51.486157 57.162833 57.99955 L 43.393039 57.998827 C 43.529211 57.033762 43.689164 55.766962 43.879439 54.200159 C 44.016615 52.675319 44.148758 51.03714 44.28414 49.28081 C 44.39162 47.524102 44.461572 45.75047 44.508812 43.956832 C 44.551239 42.154921 44.529054 40.517938 44.435715 39.044154 C 44.289277 37.612333 44.062279 36.43223 43.746448 35.508659 C 43.415801 34.58817 42.936144 34.125316 42.292663 34.12318 C 41.046689 34.122746 39.90855 34.402843 38.894793 34.953845 C 37.838317 35.507554 36.934659 36.171675 36.193445 36.962755 C 36.282669 39.590534 36.284256 42.629171 36.196476 46.085209 C 36.055974 49.555309 35.902137 53.525918 35.720148 58.000121 L 21.928995 58.00075 C 22.079983 57.032602 22.239936 55.765803 22.423668 54.197269 C 22.559114 52.678973 22.69953 51.035981 22.841455 49.28138 C 22.935849 47.521212 23.005801 45.74758 23.044768 43.958755 C 23.093738 42.158574 23.073283 40.515048 22.979944 39.041264 C 22.846592 37.612903 22.613051 36.431071 22.288947 35.512312 C 21.960029 34.58528 21.47383 34.120697 20.835162 34.126834 C 19.316709 34.124355 17.95249 34.491683 16.744236 35.222274 C 15.548313 36.01213 14.624713 36.936997 13.973435 37.996875 L 12.941239 57.997394 L 1.58623 57.998139 C 1.586715 54.077986 1.586225 50.108573 1.58476 46.089898 C 1.541551 42.12319 1.519986 38.498229 1.518336 35.221558 C 1.47324 31.394361 1.433179 27.680503 1.381604 24.08961 Z M 14.734183 23.258962 " stroke="#3b82f6" stroke-width="18.169987" stroke-opacity="1" stroke-miterlimit="4"/><path stroke-linecap="butt" transform="matrix(0.568315, -0.100732, 0.100732, 0.568315, 117.554783, 89.256088)" fill="none" stroke-linejoin="miter" d="M 1.388156 41.455059 C 1.38586 39.296407 1.47492 37.126455 1.654156 34.951865 C 1.850599 32.835313 2.452702 30.873142 3.465947 29.0732 C 4.47877 27.314423 6.097086 25.862295 8.31423 24.715636 C 10.479244 23.552864 13.560509 22.882416 17.572537 22.699993 L 19.029015 22.703832 C 22.857817 22.702008 25.815043 23.274279 27.899512 24.42731 C 29.967867 25.632472 31.515742 27.137164 32.523143 28.937842 C 33.494438 30.787108 34.074742 32.78702 34.268357 34.952089 C 34.445858 37.169289 34.536391 39.295467 34.534474 41.322777 C 34.539045 43.584933 34.397431 45.779938 34.111993 47.894463 C 33.844944 50.060361 33.151907 51.992667 32.037184 53.705889 C 30.93579 55.421474 29.250499 56.786123 26.981311 57.799836 C 24.731692 58.858259 21.614074 59.384795 17.640602 59.388471 C 14.00548 59.383385 11.115652 58.857427 8.98681 57.799631 C 6.824647 56.73593 5.193173 55.353889 4.088086 53.638997 C 2.925721 51.975813 2.193237 50.058901 1.876126 47.892563 C 1.549566 45.779538 1.38691 43.633703 1.388156 41.455059 Z M 17.790502 34.189695 C 16.679284 34.370773 15.841292 34.600278 15.288672 34.887238 C 14.694463 35.214941 14.276975 35.670194 14.040509 36.267506 C 13.769542 36.865577 13.613715 37.628397 13.567545 38.548121 C 13.520194 39.47451 13.500081 40.673788 13.499362 42.15144 C 13.500246 43.581262 13.519695 44.828793 13.566733 45.881886 C 13.612591 46.941643 13.77267 47.822317 14.040309 48.522727 C 14.275385 49.251732 14.69723 49.780146 15.291334 50.112271 C 15.845031 50.478474 16.677612 50.667286 17.791439 50.66538 C 18.938587 50.669379 19.817321 50.481462 20.411953 50.112594 C 21.020671 49.78059 21.457816 49.253214 21.732414 48.518319 C 22.013254 47.825771 22.175833 46.9473 22.220152 45.882906 C 22.222124 44.824753 22.222667 43.580766 22.221783 42.150944 C 22.217266 40.857946 22.24362 39.701014 22.286335 38.684449 C 22.286702 37.674126 22.217557 36.823317 22.085562 36.133202 C 21.940238 35.440725 21.65758 34.902614 21.241888 34.533379 C 20.831679 34.171988 20.211589 33.986472 19.379255 33.990159 C 18.966421 33.992593 18.432787 34.056096 17.790502 34.189695 Z M 17.790502 34.189695 " stroke="#3b82f6" stroke-width="18.169987" stroke-opacity="1" stroke-miterlimit="4"/><path stroke-linecap="butt" transform="matrix(0.573254, -0.0671465, 0.0671465, 0.573254, 138.976944, 85.52519)" fill="none" stroke-linejoin="miter" d="M 14.533242 24.090621 L 13.836151 32.601639 C 14.76292 29.459834 16.105651 27.129938 17.857621 25.611165 C 19.604868 24.132723 21.524089 23.396728 23.602627 23.394881 C 25.169934 23.394481 26.461029 23.716064 27.475914 24.359631 C 28.491223 25.05776 29.294754 26.05135 29.887297 27.333679 C 30.499218 28.625091 30.918742 30.221048 31.139933 32.114039 C 31.374568 34.008605 31.470944 36.15273 31.428276 38.553134 L 18.196232 39.940144 C 18.107658 38.369324 17.993949 37.129454 17.857464 36.200369 C 17.713471 35.277218 17.154162 34.816483 16.186261 34.818951 C 15.593578 34.817671 14.738069 35.024101 13.633179 35.439816 L 13.634358 58.001676 L 1.586974 58.001073 C 1.592 53.885902 1.585217 49.871561 1.587576 45.953689 C 1.542882 42.030305 1.519741 38.504668 1.518152 35.376777 C 1.475573 31.726208 1.427542 28.238541 1.387502 24.915349 Z M 14.533242 24.090621 " stroke="#3b82f6" stroke-width="18.169987" stroke-opacity="1" stroke-miterlimit="4"/><path stroke-linecap="butt" transform="matrix(0.576083, -0.0354516, 0.0354516, 0.576083, 158.108973, 83.309995)" fill="none" stroke-linejoin="miter" d="M 14.534323 24.088787 L 13.840827 32.603359 C 14.759837 29.459422 16.103484 27.128177 17.858258 25.608795 C 19.603783 24.129528 21.520575 23.393117 23.602296 23.392391 C 25.16855 23.393847 26.457323 23.717262 27.475787 24.356297 C 28.49051 25.056128 29.290628 26.047885 29.889651 27.332398 C 30.501768 28.624497 30.918714 30.223279 31.14132 32.115233 C 31.377437 34.008019 31.476165 36.150016 31.429917 38.55432 L 18.197046 39.936931 C 18.110269 38.372029 17.9972 37.124201 17.857421 36.200205 C 17.710887 35.275792 17.156136 34.814469 16.186412 34.815819 C 15.589467 34.819768 14.74279 35.025331 13.638795 35.445603 L 13.63421 57.997945 L 1.591385 58.002719 C 1.587022 53.886562 1.589934 49.872564 1.587027 45.953138 C 1.543588 42.031218 1.523325 38.504004 1.519066 35.377837 C 1.472509 31.726953 1.429486 28.239023 1.383241 24.913632 Z M 14.534323 24.088787 " stroke="#3b82f6" stroke-width="18.169987" stroke-opacity="1" stroke-miterlimit="4"/><path stroke-linecap="butt" transform="matrix(0.577171, -0.00152257, 0.00152257, 0.577171, 177.422174, 82.115971)" fill="none" stroke-linejoin="miter" d="M 1.385823 41.459308 C 1.384769 39.293569 1.478464 37.12808 1.65341 34.94927 C 1.848499 32.831424 2.449232 30.877078 3.462413 29.072715 C 4.475468 27.315726 6.09683 25.8649 8.312979 24.71343 C 10.475003 23.555051 13.562959 22.879636 17.570043 22.700705 L 19.025137 22.704543 C 22.855792 22.701113 25.811855 23.277417 27.900112 24.426705 C 29.967923 25.630083 31.513803 27.13664 32.524236 28.939574 C 33.493954 30.783008 34.077475 32.787853 34.268031 34.954092 C 34.444907 37.174438 34.534069 39.293034 34.535481 41.323415 C 34.536286 43.583905 34.395144 45.77634 34.112073 47.893954 C 33.842412 50.058979 33.15375 51.992789 32.039283 53.708902 C 30.931602 55.418265 29.249562 56.780949 26.986395 57.796935 C 24.729888 58.853547 21.615236 59.386765 17.642473 59.383053 C 14.001319 59.386983 11.119577 58.858251 8.990481 57.796838 C 6.827545 56.735336 5.19336 55.350368 4.087927 53.641934 C 2.928244 51.973966 2.18883 50.056692 1.876435 47.8969 C 1.550397 45.777679 1.38686 43.631815 1.385823 41.459308 Z M 17.790139 34.193223 C 16.679725 34.373028 15.846669 34.60094 15.290953 34.883727 C 14.694505 35.213782 14.28045 35.672908 14.042003 36.267857 C 13.769699 36.869484 13.612038 37.627075 13.568985 38.554168 C 13.52595 39.474492 13.502486 40.672353 13.498594 42.14775 C 13.501577 43.582559 13.525363 44.82792 13.569953 45.883834 C 13.614525 46.946515 13.767883 47.819982 14.043528 48.517806 C 14.278457 49.25613 14.696673 49.785131 15.291389 50.11156 C 15.845391 50.47849 16.677358 50.663418 17.794058 50.666364 C 18.944598 50.669399 19.811386 50.482184 20.414709 50.11154 C 21.017925 49.781503 21.45923 49.254769 21.731891 48.517784 C 22.011213 47.821425 22.175963 46.942029 22.219355 45.886347 C 22.222159 44.82379 22.218676 43.578483 22.222443 42.15046 C 22.219085 40.857778 22.242442 39.700524 22.285727 38.685449 C 22.288405 37.670267 22.21619 36.824086 22.082653 36.133406 C 21.935599 35.435921 21.659527 34.900527 21.2409 34.527187 C 20.835774 34.167418 20.213593 33.989811 19.381144 33.987615 C 18.961535 33.986508 18.433444 34.059562 17.790139 34.193223 Z M 17.790139 34.193223 " stroke="#3b82f6" stroke-width="18.169987" stroke-opacity="1" stroke-miterlimit="4"/><path stroke-linecap="butt" transform="matrix(0.575648, 0.0419252, -0.0419252, 0.575648, 199.574624, 81.953315)" fill="none" stroke-linejoin="miter" d="M -1.454481 24.575297 L 12.044809 23.395338 L 16.60729 47.559886 L 18.957252 24.574782 L 31.140155 23.395695 L 37.019023 47.559371 L 38.13409 24.57599 L 51.348404 23.396428 L 44.219241 58.000869 L 31.21062 57.998286 L 26.225764 43.873597 L 23.251056 58.001196 L 10.242435 57.998614 Z M -1.454481 24.575297 " stroke="#3b82f6" stroke-width="18.169987" stroke-opacity="1" stroke-miterlimit="4"/><path stroke-linecap="butt" transform="matrix(0.572503, 0.0732699, -0.0732699, 0.572503, 229.454785, 84.45351)" fill="none" stroke-linejoin="miter" d="M 1.38491 23.532368 L 4.491967 17.314615 C 3.4393 17.033127 2.72111 16.59284 2.350825 15.992035 C 1.931829 15.383818 1.722659 14.762393 1.722456 14.121047 C 1.723987 12.640238 2.070727 11.510988 2.768531 10.725726 C 3.411071 9.988474 4.722072 9.62282 6.707387 9.621192 C 8.33175 9.624819 9.439302 10.015275 10.038475 10.805126 C 10.63523 11.629402 10.930753 12.499053 10.933475 13.426647 C 10.93314 14.170408 10.912024 14.69849 10.863415 15.01175 C 10.776246 15.343592 10.611256 15.760448 10.37516 16.261458 L 9.209342 18.614523 C 8.656751 19.681418 7.897654 21.32059 6.925338 23.532898 Z M 1.38491 23.532368 " stroke="#3b82f6" stroke-width="18.169987" stroke-opacity="1" stroke-miterlimit="4"/><path stroke-linecap="butt" transform="matrix(0.569011, 0.0967188, -0.0967188, 0.569011, 237.226235, 85.325385)" fill="none" stroke-linejoin="miter" d="M 20.4781 34.123483 C 20.480914 33.614997 20.274488 33.087157 19.872168 32.537694 C 19.45537 31.983827 18.831394 31.70545 17.994703 31.710369 C 17.815555 31.706495 17.6276 31.731578 17.436374 31.777812 C 17.210653 31.823044 16.981663 31.889427 16.74273 31.978095 C 16.149302 32.202534 15.737555 32.526525 15.513026 32.942264 C 15.227315 33.361537 15.045353 33.866149 14.954932 34.465042 C 14.866911 35.118446 14.840339 35.85065 14.884157 36.673864 C 14.889076 37.510555 14.884185 38.410698 14.883963 39.378698 C 14.886216 40.078542 14.975811 40.605646 15.153884 40.966682 C 15.293189 41.382361 15.478935 41.707767 15.712256 41.949572 C 15.942174 42.171361 16.191844 42.307412 16.47461 42.355458 C 16.701862 42.4404 16.908965 42.487577 17.101458 42.489182 C 17.279471 42.486384 17.392899 42.467104 17.439472 42.417998 L 17.57078 42.423138 L 22.218284 42.422642 C 24.022974 42.417945 25.663261 42.496113 27.136874 42.643801 C 28.614891 42.777011 29.900947 43.073285 31.009518 43.537026 C 32.063711 44.044335 32.896115 44.781562 33.493386 45.750976 C 34.049623 46.76169 34.33663 48.12709 34.332121 49.837236 C 34.33421 51.868913 33.728541 53.475293 32.524053 54.668585 C 31.287338 55.874219 29.790481 56.801418 28.032349 57.443509 C 26.27535 58.092272 24.424145 58.509908 22.492079 58.694151 C 20.504367 58.874121 18.755588 58.965424 17.237935 58.962521 C 15.43211 58.960546 13.840533 58.805449 12.455396 58.491692 C 11.068124 58.205758 9.868542 57.812406 8.855517 57.304965 C 7.794652 56.79879 6.921611 56.226364 6.235259 55.581016 C 5.493393 54.972564 4.869359 54.330353 4.360888 53.641039 C 3.209971 52.120424 2.521175 50.37023 2.28002 48.386053 L 15.509329 49.075585 C 15.510447 49.768758 15.512435 50.386268 15.509754 50.935921 C 15.452561 51.487976 15.479706 51.970775 15.578979 52.39326 C 15.669311 52.803534 15.871671 53.105521 16.190464 53.284743 C 16.47049 53.518609 16.9304 53.639519 17.575733 53.639667 L 18.132059 53.641214 C 19.008518 53.547156 19.680275 53.460433 20.138388 53.368834 C 20.60204 53.269429 20.943928 53.019097 21.16959 52.61003 C 21.366295 52.192157 21.45872 51.524274 21.459074 50.597442 C 21.460695 49.718449 21.414418 48.47689 21.325781 46.864957 L 17.570614 46.864806 C 16.424601 46.867382 15.409763 46.833932 14.52837 46.777799 C 13.650512 46.78285 12.825899 46.737661 12.047858 46.643366 C 11.216573 46.599311 10.377349 46.508551 9.544664 46.375489 C 8.670812 46.242559 7.697746 46.050979 6.642213 45.818497 C 4.744923 45.399575 3.414578 44.479252 2.635567 43.046452 C 1.802044 41.616052 1.382876 39.634673 1.384734 37.101181 C 1.384882 36.455848 1.433473 35.651252 1.522702 34.681853 C 1.565358 33.761561 1.753535 32.768479 2.081697 31.710412 C 2.407722 30.680169 2.910628 29.640455 3.595951 28.583464 C 4.288078 27.566507 5.277583 26.643166 6.571136 25.812309 C 7.865823 24.988124 9.510396 24.324146 11.490376 23.815971 C 13.470356 23.307796 15.891761 23.054107 18.754591 23.054905 C 20.930922 23.055688 22.823146 23.283252 24.430129 23.730924 C 26.001749 24.253257 27.333434 24.898753 28.440797 25.678489 C 29.550562 26.512736 30.454754 27.42998 31.142299 28.445834 C 31.796616 29.508526 32.326296 30.564944 32.732475 31.621759 C 33.605205 34.17135 33.912595 37.029851 33.642434 40.206201 L 20.633425 40.20691 Z M 20.4781 34.123483 " stroke="#3b82f6" stroke-width="18.169987" stroke-opacity="1" stroke-miterlimit="4"/><g fill="#63c4a7" fill-opacity="1"><g transform="translate(53.849593, 145.600217)"><g><path d="M -6.34375 -16.765625 L -10.15625 -25.640625 L 8.734375 -34.1875 L 12.65625 -25.375 L 7.4375 -22.96875 L 14.71875 -6.328125 L 6.5 -2.796875 L -0.4375 -19.421875 Z M -6.34375 -16.765625 "/></g></g></g><g fill="#63c4a7" fill-opacity="1"><g transform="translate(73.176237, 137.277354)"><g><path d="M -2.453125 -9.265625 C -2.867188 -10.441406 -3.238281 -11.632812 -3.5625 -12.84375 C -3.863281 -14.039062 -3.910156 -15.226562 -3.703125 -16.40625 C -3.503906 -17.5625 -2.910156 -18.664062 -1.921875 -19.71875 C -0.960938 -20.757812 0.582031 -21.71875 2.71875 -22.59375 L 3.515625 -22.875 C 5.597656 -23.613281 7.316406 -23.867188 8.671875 -23.640625 C 10.046875 -23.398438 11.179688 -22.890625 12.078125 -22.109375 C 12.941406 -21.285156 13.644531 -20.300781 14.1875 -19.15625 C 14.707031 -17.988281 15.164062 -16.847656 15.5625 -15.734375 C 16 -14.515625 16.347656 -13.296875 16.609375 -12.078125 C 16.867188 -10.847656 16.867188 -9.671875 16.609375 -8.546875 C 16.335938 -7.390625 15.675781 -6.320312 14.625 -5.34375 C 13.613281 -4.320312 12.023438 -3.425781 9.859375 -2.65625 C 7.878906 -1.957031 6.207031 -1.691406 4.84375 -1.859375 C 3.46875 -2.003906 2.3125 -2.441406 1.375 -3.171875 C 0.425781 -3.835938 -0.34375 -4.726562 -0.9375 -5.84375 C -1.519531 -6.945312 -2.023438 -8.085938 -2.453125 -9.265625 Z M 5.0625 -16.390625 C 4.507812 -16.078125 4.101562 -15.789062 3.84375 -15.53125 C 3.582031 -15.238281 3.445312 -14.910156 3.4375 -14.546875 C 3.40625 -14.171875 3.460938 -13.722656 3.609375 -13.203125 C 3.773438 -12.679688 4 -12.023438 4.28125 -11.234375 C 4.5625 -10.453125 4.8125 -9.773438 5.03125 -9.203125 C 5.269531 -8.648438 5.53125 -8.207031 5.8125 -7.875 C 6.070312 -7.507812 6.398438 -7.296875 6.796875 -7.234375 C 7.171875 -7.148438 7.65625 -7.210938 8.25 -7.421875 C 8.875 -7.648438 9.316406 -7.921875 9.578125 -8.234375 C 9.835938 -8.523438 9.976562 -8.898438 10 -9.359375 C 10.007812 -9.796875 9.925781 -10.300781 9.75 -10.875 C 9.550781 -11.457031 9.3125 -12.140625 9.03125 -12.921875 C 8.78125 -13.617188 8.5625 -14.25 8.375 -14.8125 C 8.175781 -15.375 7.976562 -15.820312 7.78125 -16.15625 C 7.570312 -16.507812 7.320312 -16.75 7.03125 -16.875 C 6.726562 -16.988281 6.351562 -16.96875 5.90625 -16.8125 C 5.675781 -16.726562 5.394531 -16.585938 5.0625 -16.390625 Z M 5.0625 -16.390625 "/></g></g></g><g fill="#63c4a7" fill-opacity="1"><g transform="translate(91.50579, 130.414765)"><g><path d="M 3.109375 -21.5625 L 4.296875 -15.9375 C 4.367188 -16.6875 4.519531 -17.46875 4.75 -18.28125 C 4.96875 -19.0625 5.265625 -19.773438 5.640625 -20.421875 C 5.992188 -21.054688 6.421875 -21.617188 6.921875 -22.109375 C 7.398438 -22.566406 7.953125 -22.878906 8.578125 -23.046875 C 10.628906 -23.585938 12.242188 -23.578125 13.421875 -23.015625 C 14.566406 -22.441406 15.519531 -21.234375 16.28125 -19.390625 C 16.382812 -20.160156 16.554688 -20.921875 16.796875 -21.671875 C 17.015625 -22.398438 17.304688 -23.085938 17.671875 -23.734375 C 18.015625 -24.335938 18.425781 -24.867188 18.90625 -25.328125 C 19.40625 -25.765625 19.953125 -26.0625 20.546875 -26.21875 C 22.398438 -26.707031 23.890625 -26.753906 25.015625 -26.359375 C 26.109375 -25.941406 27.039062 -25.023438 27.8125 -23.609375 C 28.550781 -22.171875 29.21875 -20.210938 29.8125 -17.734375 C 30.394531 -15.210938 31.09375 -12.113281 31.90625 -8.4375 L 24.21875 -6.40625 C 24.144531 -6.96875 24.046875 -7.695312 23.921875 -8.59375 C 23.773438 -9.46875 23.613281 -10.398438 23.4375 -11.390625 C 23.226562 -12.390625 23 -13.394531 22.75 -14.40625 C 22.519531 -15.414062 22.269531 -16.332031 22 -17.15625 C 21.71875 -17.925781 21.414062 -18.539062 21.09375 -19 C 20.78125 -19.46875 20.441406 -19.65625 20.078125 -19.5625 C 19.378906 -19.382812 18.785156 -19.0625 18.296875 -18.59375 C 17.785156 -18.132812 17.382812 -17.628906 17.09375 -17.078125 C 17.519531 -15.628906 17.972656 -13.929688 18.453125 -11.984375 C 18.890625 -10.035156 19.378906 -7.796875 19.921875 -5.265625 L 12.25 -3.234375 C 12.175781 -3.796875 12.070312 -4.53125 11.9375 -5.4375 C 11.789062 -6.3125 11.632812 -7.242188 11.46875 -8.234375 C 11.257812 -9.222656 11.03125 -10.226562 10.78125 -11.25 C 10.550781 -12.25 10.300781 -13.160156 10.03125 -13.984375 C 9.738281 -14.753906 9.4375 -15.367188 9.125 -15.828125 C 8.800781 -16.304688 8.460938 -16.5 8.109375 -16.40625 C 7.253906 -16.175781 6.546875 -15.765625 5.984375 -15.171875 C 5.429688 -14.554688 5.054688 -13.90625 4.859375 -13.21875 L 7.21875 -1.90625 L 0.890625 -0.234375 C 0.316406 -2.421875 -0.265625 -4.632812 -0.859375 -6.875 C -1.484375 -9.082031 -2.035156 -11.097656 -2.515625 -12.921875 C -3.097656 -15.054688 -3.671875 -17.125 -4.234375 -19.125 Z M 3.109375 -21.5625 "/></g></g></g><g fill="#63c4a7" fill-opacity="1"><g transform="translate(123.397221, 122.218348)"><g><path d="M -0.890625 -9.546875 C -1.109375 -10.773438 -1.273438 -12.015625 -1.390625 -13.265625 C -1.484375 -14.492188 -1.335938 -15.671875 -0.953125 -16.796875 C -0.546875 -17.890625 0.222656 -18.878906 1.359375 -19.765625 C 2.472656 -20.640625 4.160156 -21.328125 6.421875 -21.828125 L 7.25 -21.984375 C 9.425781 -22.367188 11.164062 -22.335938 12.46875 -21.890625 C 13.769531 -21.421875 14.804688 -20.726562 15.578125 -19.8125 C 16.296875 -18.851562 16.820312 -17.765625 17.15625 -16.546875 C 17.476562 -15.316406 17.738281 -14.125 17.9375 -12.96875 C 18.164062 -11.675781 18.316406 -10.410156 18.390625 -9.171875 C 18.441406 -7.910156 18.238281 -6.75 17.78125 -5.6875 C 17.332031 -4.59375 16.515625 -3.644531 15.328125 -2.84375 C 14.148438 -2.007812 12.429688 -1.394531 10.171875 -1 C 8.097656 -0.632812 6.40625 -0.644531 5.09375 -1.03125 C 3.75 -1.40625 2.679688 -2.023438 1.890625 -2.890625 C 1.066406 -3.710938 0.453125 -4.722656 0.046875 -5.921875 C -0.359375 -7.097656 -0.671875 -8.304688 -0.890625 -9.546875 Z M 7.703125 -15.328125 C 7.097656 -15.109375 6.648438 -14.894531 6.359375 -14.6875 C 6.054688 -14.4375 5.867188 -14.132812 5.796875 -13.78125 C 5.703125 -13.40625 5.6875 -12.953125 5.75 -12.421875 C 5.820312 -11.890625 5.929688 -11.207031 6.078125 -10.375 C 6.222656 -9.550781 6.359375 -8.835938 6.484375 -8.234375 C 6.617188 -7.648438 6.800781 -7.175781 7.03125 -6.8125 C 7.238281 -6.40625 7.523438 -6.144531 7.890625 -6.03125 C 8.253906 -5.875 8.75 -5.851562 9.375 -5.96875 C 10.03125 -6.082031 10.503906 -6.273438 10.796875 -6.546875 C 11.117188 -6.785156 11.320312 -7.128906 11.40625 -7.578125 C 11.476562 -8.003906 11.476562 -8.515625 11.40625 -9.109375 C 11.300781 -9.710938 11.175781 -10.425781 11.03125 -11.25 C 10.894531 -11.976562 10.789062 -12.632812 10.71875 -13.21875 C 10.613281 -13.800781 10.488281 -14.28125 10.34375 -14.65625 C 10.195312 -15.03125 9.988281 -15.304688 9.71875 -15.484375 C 9.4375 -15.640625 9.0625 -15.675781 8.59375 -15.59375 C 8.351562 -15.550781 8.054688 -15.460938 7.703125 -15.328125 Z M 7.703125 -15.328125 "/></g></g></g><g fill="#63c4a7" fill-opacity="1"><g transform="translate(142.871439, 118.773913)"><g><path d="M 6.046875 -20.40625 L 6.234375 -15.484375 C 6.554688 -17.335938 7.171875 -18.769531 8.078125 -19.78125 C 8.972656 -20.738281 10.015625 -21.285156 11.203125 -21.421875 C 12.097656 -21.535156 12.859375 -21.441406 13.484375 -21.140625 C 14.117188 -20.804688 14.648438 -20.289062 15.078125 -19.59375 C 15.515625 -18.882812 15.863281 -17.992188 16.125 -16.921875 C 16.375 -15.847656 16.566406 -14.628906 16.703125 -13.265625 L 9.203125 -11.5625 C 9.046875 -12.46875 8.90625 -13.179688 8.78125 -13.703125 C 8.632812 -14.222656 8.28125 -14.453125 7.71875 -14.390625 C 7.375 -14.347656 6.90625 -14.171875 6.3125 -13.859375 L 7.828125 -0.921875 L 0.921875 -0.109375 C 0.640625 -2.460938 0.367188 -4.765625 0.109375 -7.015625 C -0.179688 -9.253906 -0.429688 -11.273438 -0.640625 -13.078125 C -0.910156 -15.160156 -1.171875 -17.15625 -1.421875 -19.0625 Z M 6.046875 -20.40625 "/></g></g></g><g fill="#63c4a7" fill-opacity="1"><g transform="translate(160.165165, 116.72282)"><g><path d="M 7.171875 -20.0625 L 7.0625 -15.109375 C 7.5 -16.960938 8.191406 -18.363281 9.140625 -19.3125 C 10.097656 -20.21875 11.171875 -20.710938 12.359375 -20.796875 C 13.265625 -20.847656 14.023438 -20.703125 14.640625 -20.359375 C 15.242188 -19.992188 15.742188 -19.453125 16.140625 -18.734375 C 16.535156 -18.003906 16.832031 -17.097656 17.03125 -16.015625 C 17.226562 -14.921875 17.359375 -13.691406 17.421875 -12.328125 L 9.84375 -11.046875 C 9.738281 -11.953125 9.632812 -12.664062 9.53125 -13.1875 C 9.40625 -13.71875 9.0625 -13.96875 8.5 -13.9375 C 8.15625 -13.914062 7.675781 -13.765625 7.0625 -13.484375 L 7.859375 -0.484375 L 0.921875 -0.0625 C 0.773438 -2.4375 0.632812 -4.75 0.5 -7 C 0.320312 -9.25 0.179688 -11.273438 0.078125 -13.078125 C -0.078125 -15.179688 -0.226562 -17.191406 -0.375 -19.109375 Z M 7.171875 -20.0625 "/></g></g></g><g fill="#63c4a7" fill-opacity="1"><g transform="translate(177.510484, 115.591885)"><g><path d="M 0.765625 -9.546875 C 0.765625 -10.796875 0.816406 -12.046875 0.921875 -13.296875 C 1.023438 -14.523438 1.367188 -15.660156 1.953125 -16.703125 C 2.535156 -17.710938 3.46875 -18.554688 4.75 -19.234375 C 6 -19.898438 7.78125 -20.289062 10.09375 -20.40625 L 10.9375 -20.40625 C 13.144531 -20.40625 14.847656 -20.078125 16.046875 -19.421875 C 17.253906 -18.734375 18.148438 -17.867188 18.734375 -16.828125 C 19.285156 -15.765625 19.625 -14.601562 19.75 -13.34375 C 19.851562 -12.070312 19.90625 -10.847656 19.90625 -9.671875 C 19.914062 -8.367188 19.84375 -7.101562 19.6875 -5.875 C 19.519531 -4.625 19.125 -3.507812 18.5 -2.53125 C 17.863281 -1.539062 16.890625 -0.753906 15.578125 -0.171875 C 14.273438 0.453125 12.476562 0.765625 10.1875 0.765625 C 8.082031 0.773438 6.414062 0.472656 5.1875 -0.140625 C 3.9375 -0.742188 2.992188 -1.535156 2.359375 -2.515625 C 1.679688 -3.472656 1.25 -4.578125 1.0625 -5.828125 C 0.875 -7.054688 0.773438 -8.296875 0.765625 -9.546875 Z M 10.234375 -13.78125 C 9.597656 -13.664062 9.117188 -13.523438 8.796875 -13.359375 C 8.453125 -13.171875 8.210938 -12.90625 8.078125 -12.5625 C 7.921875 -12.21875 7.828125 -11.78125 7.796875 -11.25 C 7.773438 -10.707031 7.765625 -10.015625 7.765625 -9.171875 C 7.773438 -8.335938 7.789062 -7.613281 7.8125 -7 C 7.84375 -6.394531 7.9375 -5.890625 8.09375 -5.484375 C 8.226562 -5.054688 8.46875 -4.75 8.8125 -4.5625 C 9.132812 -4.363281 9.613281 -4.265625 10.25 -4.265625 C 10.914062 -4.265625 11.421875 -4.367188 11.765625 -4.578125 C 12.117188 -4.765625 12.375 -5.070312 12.53125 -5.5 C 12.6875 -5.90625 12.78125 -6.410156 12.8125 -7.015625 C 12.8125 -7.628906 12.804688 -8.351562 12.796875 -9.1875 C 12.796875 -9.925781 12.804688 -10.585938 12.828125 -11.171875 C 12.828125 -11.765625 12.789062 -12.257812 12.71875 -12.65625 C 12.632812 -13.050781 12.472656 -13.359375 12.234375 -13.578125 C 11.992188 -13.785156 11.632812 -13.890625 11.15625 -13.890625 C 10.914062 -13.890625 10.609375 -13.851562 10.234375 -13.78125 Z M 10.234375 -13.78125 "/></g></g></g><g fill="#63c4a7" fill-opacity="1"><g transform="translate(197.142964, 115.340913)"><g><path d="M 0.5625 -19.3125 L 8.390625 -19.4375 L 10 -5.3125 L 12.328125 -18.453125 L 19.390625 -18.625 L 21.75 -4.46875 L 23.359375 -17.65625 L 31.015625 -17.78125 L 25.46875 1.859375 L 17.96875 1.3125 L 15.6875 -7.046875 L 13.390625 0.96875 L 5.890625 0.421875 Z M 0.5625 -19.3125 "/></g></g></g><g fill="#63c4a7" fill-opacity="1"><g transform="translate(225.205132, 117.658709)"><g><path d="M 3.328125 -19.640625 L 5.5625 -22.984375 C 4.96875 -23.210938 4.585938 -23.507812 4.421875 -23.875 C 4.222656 -24.25 4.148438 -24.625 4.203125 -25 C 4.304688 -25.84375 4.585938 -26.460938 5.046875 -26.859375 C 5.472656 -27.234375 6.253906 -27.351562 7.390625 -27.21875 C 8.316406 -27.09375 8.921875 -26.785156 9.203125 -26.296875 C 9.492188 -25.773438 9.601562 -25.253906 9.53125 -24.734375 C 9.476562 -24.304688 9.425781 -24 9.375 -23.8125 C 9.289062 -23.632812 9.171875 -23.410156 9.015625 -23.140625 L 8.15625 -21.875 C 7.75 -21.3125 7.195312 -20.429688 6.5 -19.234375 Z M 3.328125 -19.640625 "/></g></g></g><g fill="#63c4a7" fill-opacity="1"><g transform="translate(231.616543, 118.32805)"><g><path d="M 13.96875 -11.609375 C 14.007812 -11.890625 13.945312 -12.210938 13.78125 -12.578125 C 13.59375 -12.929688 13.265625 -13.148438 12.796875 -13.234375 C 12.691406 -13.242188 12.578125 -13.242188 12.453125 -13.234375 C 12.328125 -13.234375 12.191406 -13.210938 12.046875 -13.171875 C 11.691406 -13.117188 11.425781 -12.984375 11.25 -12.765625 C 11.039062 -12.554688 10.882812 -12.285156 10.78125 -11.953125 C 10.664062 -11.585938 10.582031 -11.171875 10.53125 -10.703125 C 10.445312 -10.234375 10.359375 -9.71875 10.265625 -9.15625 C 10.203125 -8.757812 10.203125 -8.445312 10.265625 -8.21875 C 10.316406 -7.96875 10.390625 -7.769531 10.484375 -7.625 C 10.597656 -7.46875 10.734375 -7.363281 10.890625 -7.3125 C 11.003906 -7.238281 11.117188 -7.191406 11.234375 -7.171875 C 11.335938 -7.148438 11.398438 -7.148438 11.421875 -7.171875 L 11.5 -7.15625 L 14.140625 -6.703125 C 15.171875 -6.535156 16.097656 -6.34375 16.921875 -6.125 C 17.753906 -5.894531 18.460938 -5.59375 19.046875 -5.21875 C 19.597656 -4.832031 20 -4.34375 20.25 -3.75 C 20.457031 -3.101562 20.484375 -2.300781 20.328125 -1.34375 C 20.128906 -0.175781 19.632812 0.6875 18.84375 1.25 C 18.007812 1.820312 17.0625 2.207031 16 2.40625 C 14.9375 2.59375 13.847656 2.648438 12.734375 2.578125 C 11.585938 2.484375 10.582031 2.363281 9.71875 2.21875 C 8.6875 2.039062 7.789062 1.796875 7.03125 1.484375 C 6.28125 1.191406 5.632812 0.847656 5.09375 0.453125 C 4.539062 0.0664062 4.101562 -0.335938 3.78125 -0.765625 C 3.414062 -1.179688 3.125 -1.613281 2.90625 -2.0625 C 2.394531 -3.039062 2.164062 -4.101562 2.21875 -5.25 L 9.6875 -3.578125 C 9.625 -3.179688 9.566406 -2.828125 9.515625 -2.515625 C 9.429688 -2.203125 9.394531 -1.925781 9.40625 -1.6875 C 9.414062 -1.4375 9.503906 -1.25 9.671875 -1.125 C 9.804688 -0.957031 10.054688 -0.84375 10.421875 -0.78125 L 10.75 -0.734375 C 11.257812 -0.703125 11.644531 -0.6875 11.90625 -0.6875 C 12.175781 -0.695312 12.394531 -0.804688 12.5625 -1.015625 C 12.71875 -1.234375 12.84375 -1.609375 12.9375 -2.140625 C 13.019531 -2.628906 13.113281 -3.34375 13.21875 -4.28125 L 11.078125 -4.640625 C 10.429688 -4.753906 9.851562 -4.863281 9.34375 -4.96875 C 8.84375 -5.050781 8.378906 -5.15625 7.953125 -5.28125 C 7.484375 -5.394531 7.019531 -5.535156 6.5625 -5.703125 C 6.070312 -5.859375 5.535156 -6.054688 4.953125 -6.296875 C 3.921875 -6.703125 3.25 -7.351562 2.9375 -8.25 C 2.601562 -9.144531 2.554688 -10.3125 2.796875 -11.75 C 2.859375 -12.125 2.960938 -12.585938 3.109375 -13.140625 C 3.234375 -13.648438 3.441406 -14.191406 3.734375 -14.765625 C 4.015625 -15.304688 4.398438 -15.851562 4.890625 -16.40625 C 5.390625 -16.90625 6.046875 -17.328125 6.859375 -17.671875 C 7.679688 -18.023438 8.675781 -18.25 9.84375 -18.34375 C 11.007812 -18.445312 12.410156 -18.359375 14.046875 -18.078125 C 15.285156 -17.867188 16.34375 -17.554688 17.21875 -17.140625 C 18.0625 -16.691406 18.757812 -16.191406 19.3125 -15.640625 C 19.851562 -15.066406 20.28125 -14.457031 20.59375 -13.8125 C 20.84375 -13.132812 21.035156 -12.472656 21.171875 -11.828125 C 21.429688 -10.304688 21.328125 -8.65625 20.859375 -6.875 L 13.453125 -8.125 Z M 13.96875 -11.609375 "/></g></g></g></svg>