<svg version="1.2" xmlns="http://www.w3.org/2000/svg" viewBox="0 0 375 138" width="375" height="138"><style>.a{fill:none;stroke:#3b82f6;stroke-width:15.7}.b{fill:#63c4a7}.c{fill:none;stroke:#3b82f6;stroke-width:10.5}</style><path class="a" d="m25.4 120.7q-0.9-1.6-1-2.9 0-1.4 0.6-2.6 0.5-1.1 1.6-2.1 1.1-1 2.5-1.8 2.4-1.5 5.2-2.4 2.8-0.8 4.8-1.1l-3.9-6.6-14 10-6.5-10.9q4.8-2.7 9.1-5.1 4.2-2.4 7.5-4.1 3.8-2 7-3.7l14.5 25.1-7.8 4.6-2.3-3.4q-0.8 2.7-2.6 5-1.9 2.4-4.2 3.8-1.7 1-3.4 1.3-1.6 0.3-2.9 0-1.3-0.3-2.4-1.2-1.1-0.8-1.8-1.9zm6.8-3.7q0.5 0.9 1.5 0.9 1 0 2.2-0.7 0.6-0.3 1-1 0.4-0.6 0.7-1.3 0.3-0.6 0.5-1.4-0.8-0.2-1.5-0.3-0.8-0.1-1.5-0.1-0.8 0.1-1.4 0.5-1.2 0.7-1.6 1.6-0.4 0.9 0.1 1.8z"/><path class="a" d="m52 79.9l3.1 7.9q-0.2-1.7 0.1-3.6 0.1-1.7 0.7-3.4 0.5-1.5 1.5-2.7 0.9-1.2 2.2-1.8 3.9-1.8 6.6-1.4 2.6 0.6 4.8 3.4 2.1 2.9 4.4 8.2 2.2 5.3 5.4 13.1l-10.8 4.9q-0.4-1.2-1-3.1-0.7-1.9-1.4-4-0.9-2.1-1.8-4.3-0.9-2.1-1.8-3.8-0.9-1.6-1.8-2.5-0.9-1-1.6-0.6-1.8 0.8-2.8 2.3-1 1.6-1.2 3.2l6.3 16.1-8.9 4q-2.1-4.6-4.3-9.4-2.1-4.6-3.9-8.4-2.1-4.5-4-8.7z"/><path class="a" d="m77.6 85.6q-0.9-2.7-1.6-5.4-0.6-2.7-0.1-5.3 0.6-2.6 2.8-4.9 2.2-2.3 7.1-4.1l1.2-0.4q4.7-1.6 7.7-1 3.1 0.6 5 2.5 2 1.8 3.1 4.4 1.1 2.7 1.9 5.2 0.9 2.7 1.4 5.5 0.6 2.7-0.1 5.3-0.7 2.5-3 4.7-2.4 2.2-7.3 3.8-4.4 1.5-7.5 1-3.1-0.4-5.1-2-2.1-1.6-3.4-4.2-1.2-2.4-2.1-5.1zm11.5-10.4q-1.3 0.7-1.9 1.3-0.6 0.6-0.6 1.4-0.1 0.9 0.2 2 0.3 1.2 0.9 3 0.6 1.8 1.1 3 0.4 1.3 1.1 2.1 0.5 0.8 1.4 0.9 0.8 0.3 2.2-0.2 1.4-0.4 2-1.1 0.6-0.7 0.7-1.7 0-1-0.4-2.3-0.4-1.3-1-3-0.5-1.6-0.8-2.9-0.4-1.2-0.9-2-0.5-0.8-1.1-1.1-0.7-0.3-1.7 0-0.5 0.2-1.2 0.6z"/><path class="a" d="m103.4 62.1l5.4-1.3-2.7-11.2 11.1-3.9 2.1 12.3 7.6-2.2 2.1 11.2-7.2 1.7 4 17.9-11 2.5-3.5-17.8-5.3 1.5z"/><path class="a" d="m140.2 41.8l1.8 20.7q0.3-1.8 1-3.6 0.8-1.8 1.8-3.3 1-1.5 2.3-2.5 1.4-1 2.9-1.2 4.3-0.5 6.7 0.8 2.3 1.4 3.6 4.9 1.2 3.5 1.7 9.4 0.6 5.8 1.2 14.2l-11.8 1.4q0.1-1.2 0-3.3 0-2-0.1-4.4-0.2-2.3-0.4-4.8-0.2-2.4-0.6-4.3-0.4-1.9-1-3.1-0.5-1.2-1.4-1.1-2 0.3-3.5 1.6-1.5 1.4-2.1 2.9l1.4 17.4-9.7 1.2-0.7-5.7q-0.4-3-0.8-6.4-0.4-3.3-0.8-6.7l-0.8-6.6q-1-7.5-2-15.4z"/><path class="a" d="m193 68.2q0 2.6-0.5 5.1-0.5 2.5-1.9 4.4-1.6 2-4.4 3.1-2.8 1.3-7.6 1.3-4.7 0.1-7.5-1.3-2.8-1.3-4.3-3.5-1.5-2.2-1.9-5-0.5-2.7-0.5-5.5 0-2.8 0.2-5.6 0.2-2.8 1.5-5.1 1.3-2.3 4.1-3.8 2.8-1.5 8-1.8h1q4.6-0.1 7.3 1.4 2.6 1.6 4.1 4 1.4 2.4 1.9 5.1 0.4 2.8 0.5 5.2l-18.1 1.9q0 2 0.1 3.4 0 1.5 0.4 2.5 0.3 0.9 1.1 1.3 0.7 0.5 2.1 0.5 1.5 0 2.2-0.5 0.8-0.3 1.2-1.2 0.3-0.7 0.4-1.9 0-1.2 0-2.9zm-10.8-4.1h-0.1l-0.5-4.5q-0.2-0.9-1-1.5-0.7-0.7-1.8-0.6-0.7 0-1.4 0.2-0.7 0.1-1.2 0.5-0.6 0.4-1 0.9-0.4 0.6-0.4 1.3v4.5l7.3-0.8z"/><path class="a" d="m208 52.8l-1.2 7.2q1.5-3.9 4-5.7 2.4-1.7 5.1-1.4 2 0.1 3.2 1.1 1.3 1 1.9 2.7 0.6 1.8 0.7 4.2 0.1 2.5-0.3 5.6l-11.4 0.2q0-2.1 0-3.3-0.1-1.2-1.4-1.3-0.7-0.1-2.2 0.3l-1.8 19.4-10.3-0.9q0.5-5.3 0.9-10.4 0.4-5 0.8-9 0.3-4.8 0.7-9z"/><path class="a" d="m242.5 71q0.8-2.7 1.9-5.1 1.2-2.4 3-4 1.8-1.6 4.4-2.2 2.5-0.5 6.2 0.5 1.7 0.4 2.7 1.1 1 0.6 1.6 1.3 0.6 0.8 0.9 1.7 0.3 0.8 0.5 1.8l0.4 0.1 3.6-14.6 11.8 2.5-7.2 26.6q-0.9 3.1-1.5 5.6-0.7 2.5-1.1 4.3-0.5 2.2-0.9 3.9l-10-2.7 2.5-6.5q-1.1 2.1-2.4 3.2-1.4 1.1-2.8 1.4-1.4 0.4-2.7 0.2-1.3-0.1-2.1-0.3l-0.9-0.2q-0.1-0.1-0.2-0.2-3.1-0.8-4.9-2.5-1.8-1.7-2.6-3.8-0.9-2-1-4.1-0.3-3.7 0.8-8zm10.8 4.1q-0.5 1.9-0.8 3.3-0.3 1.4-0.2 2.5 0.1 1 0.8 1.6 0.7 0.7 2.2 1.1 1.6 0.5 2.6 0.2 1-0.2 1.6-1 0.6-0.8 1-2.2 0.5-1.4 1-3.3l0.7-2.7q0.4-1.2 0.4-2 0-0.8-0.3-1.4-0.4-0.4-1.5-0.7-0.7-0.2-1.9-0.4-1.5-0.1-2.4-0.1-0.9 0.1-1.4 0.6-0.6 0.5-0.9 1.5-0.4 1.1-0.9 3z"/><path class="a" d="m272.1 88.4q0.7-1.7 1.7-2.6 1.1-0.9 2.3-1.1 1.3-0.3 2.7-0.1 1.5 0.3 3 0.9 2.6 1 5.1 2.7 2.3 1.6 3.8 3.1l2.8-7.2-16.5-4.9 4.6-11.8q5.1 2.1 9.6 4 4.5 1.9 7.8 3.4 4 1.7 7.3 3.2l-10.8 26.9-8.6-3.3 1.4-3.9q-2.7 1-5.6 1-3.1 0-5.5-0.9-1.9-0.8-3.2-1.9-1.2-1.1-1.8-2.3-0.5-1.3-0.5-2.6-0.1-1.4 0.4-2.6zm7.1 3q-0.4 1 0.2 1.8 0.6 0.8 1.8 1.3 0.7 0.3 1.5 0.2 0.7-0.1 1.5-0.2 0.7-0.2 1.4-0.6-0.3-0.7-0.7-1.4-0.4-0.6-0.9-1.2-0.5-0.5-1.2-0.8-1.3-0.5-2.3-0.3-1 0.3-1.3 1.2z"/><path class="a" d="m296.7 105.6l1.8 3.9q0.1 0 0.2 0.1l0.1 0.1q0.4 0.9 1.3 1.3 0.8 0.4 1.6 0.4 0.9-0.1 1.7-0.5 0.8-0.4 1.6-1 0.7-0.5 1.4-1.1l0.6-1.1q0-3 0.1-6.9 0-3.9 0.2-8 0.1-4 0.3-7.9 0-3.9 0-6.8l12 5.6-2.6 18.7q0.6-0.5 1.4-1.6 0.9-1.1 2.2-2.7 1.4-1.6 3.4-3.8 2-2.2 5-5l11.3 5.2-26.1 22q-1.8 1.4-3.9 2.6-2.1 1.1-4.4 1.6-2.3 0.5-4.7 0.3-2.4-0.3-4.7-1.5-1.9-1-3-2.3-1.1-1.2-1.6-2.3-0.4-0.7-0.6-1.8-0.2-1.1-0.4-2.2z"/><path class="a" d="m346.8 85.8l9.5 5.3-17 24.7-7.5-4zm-19.5 31.8q1.6-2.6 3.3-2.8 1.7-0.2 4.2 1.4 1.7 1 2.3 1.9 0.6 1 0.7 1.8 0 0.9-0.4 1.7-0.4 0.9-0.8 1.6-0.6 0.9-1.2 1.6-0.7 0.7-1.5 1-0.9 0.4-2 0.2-1.2-0.2-2.9-1.3-1.4-0.9-2-1.8-0.7-1-0.8-1.9 0-0.9 0.3-1.8 0.3-0.8 0.8-1.6z"/><path class="b" d="m25.4 120.7q-0.9-1.6-1-2.9 0-1.4 0.5-2.6 0.6-1.1 1.7-2.1 1.1-1 2.5-1.8 2.4-1.5 5.2-2.4 2.8-0.8 4.9-1.1l-4-6.6-14 10-6.5-10.9q4.8-2.7 9.1-5.1 4.2-2.4 7.5-4.1 3.8-2.1 7-3.7l14.5 25.1-7.8 4.6-2.3-3.4q-0.8 2.7-2.6 5-1.9 2.4-4.2 3.8-1.7 1-3.4 1.3-1.6 0.3-2.9 0-1.4-0.3-2.4-1.2-1.1-0.7-1.8-1.9zm6.8-3.7q0.5 0.9 1.5 0.9 1 0.1 2.2-0.7 0.6-0.3 1-1 0.4-0.6 0.7-1.2 0.3-0.7 0.6-1.5-0.9-0.2-1.6-0.3-0.8-0.1-1.5-0.1-0.8 0.1-1.4 0.5-1.2 0.7-1.6 1.6-0.4 0.9 0.1 1.8z"/><path class="b" d="m52 79.9l3.1 7.9q-0.1-1.8 0.1-3.6 0.1-1.7 0.7-3.4 0.5-1.5 1.5-2.8 0.9-1.1 2.2-1.7 3.9-1.8 6.5-1.4 2.6 0.6 4.9 3.4 2.1 2.9 4.4 8.2 2.2 5.3 5.4 13.1l-10.8 4.9q-0.4-1.2-1-3.1-0.7-1.9-1.4-4-0.9-2.2-1.8-4.3-0.9-2.1-1.8-3.8-0.9-1.6-1.8-2.6-0.9-0.9-1.6-0.5-1.8 0.8-2.8 2.3-1 1.6-1.2 3.2l6.3 16-8.9 4.1q-2.1-4.6-4.3-9.3-2.2-4.7-3.9-8.5-2.1-4.5-4-8.6z"/><path class="b" d="m77.6 85.6q-0.9-2.7-1.6-5.4-0.6-2.7-0.1-5.3 0.6-2.6 2.9-4.9 2.1-2.3 7-4.1l1.2-0.4q4.7-1.6 7.7-1 3.1 0.7 5 2.5 2 1.8 3.1 4.4 1.1 2.7 1.9 5.2 0.9 2.7 1.4 5.5 0.6 2.7-0.1 5.3-0.7 2.5-3 4.7-2.4 2.2-7.3 3.8-4.5 1.5-7.5 1.1-3.1-0.5-5.1-2.1-2.1-1.6-3.4-4.1-1.3-2.5-2.1-5.2zm11.5-10.4q-1.3 0.7-1.9 1.3-0.6 0.6-0.6 1.4-0.1 0.9 0.2 2 0.3 1.2 0.9 3 0.6 1.8 1.1 3 0.4 1.3 1.1 2.1 0.5 0.8 1.4 0.9 0.9 0.3 2.2-0.2 1.4-0.4 2-1.1 0.6-0.7 0.7-1.7 0-1-0.4-2.3-0.4-1.3-1-3-0.5-1.6-0.8-2.9-0.4-1.2-0.9-2-0.4-0.8-1.1-1.1-0.7-0.3-1.7 0-0.5 0.2-1.2 0.6z"/><path class="b" d="m103.3 62.1l5.5-1.3-2.7-11.2 11.1-3.9 2.1 12.3 7.6-2.2 2.1 11.2-7.2 1.7 4 17.9-11 2.5-3.5-17.8-5.3 1.6z"/><path class="b" d="m140.3 41.8l1.7 20.7q0.3-1.8 1-3.7 0.8-1.7 1.8-3.2 1-1.5 2.4-2.5 1.3-1 2.8-1.2 4.3-0.6 6.7 0.8 2.3 1.4 3.6 4.9 1.2 3.5 1.8 9.4 0.5 5.8 1.1 14.2l-11.8 1.4q0.1-1.2 0-3.3 0-2-0.1-4.4-0.2-2.3-0.4-4.8-0.2-2.4-0.6-4.3-0.4-1.9-1-3.1-0.5-1.2-1.4-1.1-2 0.3-3.5 1.6-1.5 1.4-2.1 2.9l1.4 17.4-9.7 1.2-0.7-5.7q-0.4-3.1-0.8-6.4-0.4-3.3-0.8-6.7l-0.8-6.6q-1-7.5-2-15.4z"/><path class="b" d="m193 68.2q0 2.6-0.5 5.1-0.5 2.5-1.9 4.4-1.6 2-4.4 3.1-2.8 1.3-7.6 1.3-4.7 0.1-7.5-1.3-2.8-1.3-4.3-3.5-1.5-2.1-1.9-5-0.5-2.7-0.5-5.5 0-2.8 0.2-5.6 0.2-2.8 1.5-5.1 1.3-2.3 4.1-3.8 2.8-1.5 8-1.8h1q4.6-0.1 7.3 1.4 2.6 1.6 4.1 4 1.4 2.4 1.9 5.1 0.4 2.8 0.5 5.2l-18.1 1.9q0 2 0 3.4 0.1 1.5 0.5 2.5 0.3 0.9 1.1 1.3 0.7 0.5 2.1 0.5 1.5 0 2.3-0.5 0.7-0.3 1.1-1.2 0.3-0.8 0.4-1.9 0-1.2 0-2.9zm-10.8-4.1h-0.1l-0.5-4.4q-0.2-0.9-0.9-1.6-0.8-0.6-1.9-0.6-0.7 0-1.4 0.2-0.7 0.1-1.2 0.5-0.6 0.4-1 0.9-0.4 0.6-0.4 1.3v4.5l7.3-0.8z"/><path class="b" d="m208 52.7l-1.2 7.3q1.5-3.9 4-5.7 2.4-1.7 5.1-1.4 2 0.1 3.2 1.1 1.3 1 1.9 2.7 0.6 1.8 0.7 4.2 0.1 2.5-0.3 5.6l-11.4 0.2q0-2.1-0.1-3.3 0-1.2-1.3-1.3-0.7-0.1-2.2 0.3l-1.8 19.4-10.3-0.9q0.5-5.3 0.9-10.3 0.4-5.1 0.8-9.2 0.3-4.7 0.7-9z"/><path class="b" d="m242.5 71q0.8-2.7 1.9-5.1 1.2-2.4 3-4 1.8-1.6 4.4-2.2 2.6-0.5 6.2 0.5 1.7 0.4 2.7 1.1 1 0.6 1.6 1.4 0.6 0.7 0.9 1.6 0.3 0.8 0.5 1.8l0.4 0.1 3.6-14.6 11.8 2.5-7.2 26.7q-0.9 3-1.5 5.5-0.7 2.5-1.1 4.4-0.5 2.1-0.9 3.8l-10-2.7 2.5-6.5q-1.1 2.1-2.4 3.2-1.4 1.1-2.8 1.4-1.4 0.4-2.7 0.2-1.3-0.1-2.2-0.3l-0.8-0.2q-0.1-0.1-0.2-0.2-3.1-0.8-4.9-2.5-1.8-1.7-2.6-3.8-0.8-2-1-4.1-0.3-3.7 0.8-8zm10.8 4.1q-0.5 1.9-0.8 3.3-0.3 1.4-0.2 2.5 0.1 1 0.8 1.6 0.7 0.7 2.2 1.1 1.6 0.5 2.6 0.2 1-0.2 1.6-1 0.6-0.8 1.1-2.2 0.4-1.4 0.9-3.2l0.8-2.8q0.3-1.2 0.3-2 0-0.8-0.3-1.4-0.4-0.4-1.5-0.7-0.7-0.2-1.9-0.3-1.5-0.2-2.4-0.2-0.9 0.1-1.4 0.6-0.6 0.5-0.9 1.5-0.4 1.1-0.9 3z"/><path class="b" d="m272.1 88.3q0.7-1.6 1.7-2.5 1.1-0.9 2.3-1.2 1.3-0.2 2.7 0 1.5 0.3 3 0.9 2.6 1 5.1 2.7 2.3 1.6 3.8 3.1l2.8-7.2-16.5-4.9 4.6-11.8q5.1 2.1 9.6 4 4.4 1.9 7.8 3.4 4 1.7 7.3 3.2l-10.9 26.9-8.5-3.3 1.4-3.9q-2.7 1-5.6 1-3.1 0-5.6-0.9-1.8-0.8-3.1-1.9-1.2-1.1-1.8-2.3-0.6-1.3-0.6-2.6 0-1.4 0.5-2.7zm7.1 3.1q-0.4 1 0.2 1.8 0.6 0.8 1.8 1.3 0.7 0.3 1.5 0.2 0.7-0.1 1.4-0.2 0.8-0.2 1.5-0.5-0.3-0.8-0.7-1.5-0.4-0.6-0.9-1.2-0.5-0.5-1.2-0.8-1.3-0.5-2.3-0.3-1 0.3-1.3 1.2z"/><path class="b" d="m296.7 105.6l1.8 3.9q0.1 0 0.2 0.1l0.1 0.1q0.4 0.9 1.3 1.3 0.8 0.4 1.6 0.4 0.8-0.1 1.7-0.5 0.8-0.4 1.6-1 0.7-0.5 1.4-1.1l0.6-1.1q0-3 0.1-6.9 0-3.9 0.2-8 0.1-4 0.3-7.9 0-3.9 0-6.8l12 5.6-2.6 18.7q0.6-0.5 1.4-1.6 0.9-1 2.3-2.7 1.3-1.6 3.3-3.8 2-2.1 5.1-5l11.2 5.2-26.1 22q-1.8 1.5-3.9 2.6-2.1 1.1-4.4 1.6-2.3 0.5-4.7 0.3-2.4-0.3-4.7-1.5-1.9-1-3-2.3-1-1.2-1.6-2.3-0.4-0.7-0.6-1.8-0.2-1.1-0.4-2.2z"/><path class="b" d="m346.8 85.8l9.5 5.3-17 24.7-7.5-4zm-19.4 31.7q1.5-2.5 3.2-2.7 1.7-0.2 4.2 1.4 1.6 1 2.4 2 0.5 0.9 0.6 1.7 0 0.9-0.4 1.7-0.4 0.8-0.8 1.6-0.6 0.9-1.2 1.6-0.7 0.7-1.5 1.1-0.9 0.3-2 0.1-1.2-0.2-2.9-1.3-1.4-0.9-2-1.8-0.7-1-0.8-1.9 0-0.9 0.3-1.8 0.3-0.8 0.9-1.7z"/><path class="c" d="m47.5 52.8l-3.8-8.8 18.9-8.6 3.9 8.8-5.2 2.4 7.3 16.7-8.3 3.5-6.9-16.6z"/><path class="c" d="m70.7 52q-0.6-1.8-1.1-3.6-0.4-1.8-0.1-3.5 0.3-1.8 1.8-3.3 1.4-1.6 4.6-2.9l0.8-0.3q3.1-1.1 5.2-0.8 2 0.4 3.3 1.6 1.4 1.2 2.2 2.9 0.7 1.8 1.3 3.4 0.7 1.9 1.1 3.7 0.4 1.8 0 3.6-0.4 1.7-2 3.1-1.5 1.6-4.8 2.7-2.9 1.1-5 0.8-2-0.2-3.4-1.3-1.5-1-2.4-2.7-0.8-1.6-1.5-3.4zm7.6-7.1q-0.9 0.5-1.3 0.9-0.4 0.4-0.4 0.9 0 0.6 0.2 1.4 0.2 0.7 0.7 1.9 0.4 1.2 0.7 2.1 0.4 0.8 0.8 1.3 0.4 0.5 1 0.6 0.5 0.2 1.4-0.2 1-0.3 1.4-0.8 0.4-0.4 0.4-1.1 0-0.6-0.3-1.5-0.3-0.9-0.7-2-0.4-1.1-0.6-1.9-0.3-0.9-0.6-1.4-0.4-0.5-0.8-0.7-0.4-0.2-1.1 0.1-0.4 0.1-0.8 0.4z"/><path class="c" d="m94.6 32.9l1.2 5.6q0.1-1.2 0.5-2.4 0.3-1.1 0.8-2.1 0.6-1 1.3-1.7 0.8-0.7 1.7-0.9 3.1-0.9 4.8 0 1.7 0.9 2.9 3.6 0.1-1.1 0.5-2.3 0.3-1 0.9-2 0.5-0.9 1.2-1.6 0.8-0.7 1.7-0.9 2.7-0.7 4.4-0.1 1.7 0.6 2.8 2.7 1.1 2.2 2 5.9 0.9 3.8 2.1 9.3l-7.7 2q-0.1-0.8-0.3-2.2-0.2-1.3-0.5-2.8-0.3-1.5-0.6-3-0.4-1.5-0.8-2.7-0.4-1.2-0.9-1.9-0.5-0.7-1-0.5-1.1 0.2-1.8 0.9-0.8 0.7-1.2 1.5 0.7 2.2 1.3 5.1 0.7 3 1.5 6.7l-7.7 2.1q0-0.9-0.2-2.2-0.3-1.3-0.5-2.8-0.3-1.5-0.7-3-0.4-1.5-0.8-2.8-0.4-1.1-0.9-1.8-0.5-0.7-1-0.6-1.3 0.4-2.1 1.2-0.8 1-1.1 2l2.3 11.3-6.3 1.7q-0.9-3.3-1.8-6.7-0.9-3.3-1.6-6-0.9-3.2-1.7-6.2z"/><path class="c" d="m122.5 36.7q-0.3-1.9-0.5-3.7-0.1-1.9 0.5-3.6 0.6-1.6 2.3-2.9 1.6-1.4 5-2.1l0.9-0.2q3.2-0.5 5.2 0.1 1.9 0.7 3.1 2.1 1.1 1.5 1.6 3.3 0.4 1.8 0.7 3.6 0.4 1.9 0.5 3.7 0.1 1.9-0.6 3.6-0.7 1.6-2.5 2.8-1.7 1.2-5.1 1.8-3.1 0.6-5.1 0-2-0.6-3.2-1.9-1.3-1.2-1.9-3-0.6-1.8-0.9-3.6zm8.6-5.8q-0.9 0.3-1.3 0.6-0.5 0.4-0.6 1-0.2 0.5-0.1 1.3 0.1 0.8 0.4 2.1 0.2 1.2 0.4 2.1 0.2 0.9 0.5 1.4 0.3 0.6 0.9 0.8 0.5 0.2 1.5 0.1 1-0.2 1.4-0.6 0.5-0.4 0.6-1.1 0.1-0.6 0-1.5-0.2-0.9-0.4-2.1-0.2-1.1-0.3-2-0.1-0.9-0.4-1.4-0.2-0.6-0.6-0.9-0.4-0.2-1.1-0.1-0.4 0.1-0.9 0.3z"/><path class="c" d="m148.9 22.4l0.2 4.9q0.5-2.8 1.8-4.3 1.4-1.4 3.2-1.6 1.3-0.2 2.3 0.2 0.9 0.5 1.5 1.6 0.7 1 1.1 2.6 0.4 1.6 0.6 3.7l-7.5 1.7q-0.2-1.3-0.5-2.1-0.2-0.8-1-0.7-0.5 0.1-1.4 0.5l1.5 13-6.9 0.8q-0.4-3.6-0.8-6.9-0.5-3.4-0.8-6.1-0.4-3.1-0.8-6z"/><path class="c" d="m167.3 20.7l-0.1 4.9q0.7-2.8 2.1-4.2 1.4-1.3 3.2-1.5 1.4 0 2.3 0.5 0.9 0.5 1.5 1.6 0.6 1.1 0.9 2.7 0.3 1.6 0.4 3.7l-7.6 1.3q-0.2-1.4-0.3-2.2-0.2-0.8-1-0.7-0.5 0-1.5 0.4l0.8 13-6.9 0.5q-0.2-3.6-0.4-7-0.3-3.4-0.5-6.1-0.2-3.1-0.4-6z"/><path class="c" d="m178.3 30q0-1.8 0.1-3.7 0.2-1.8 1.1-3.4 0.8-1.5 2.8-2.5 1.8-1 5.3-1.2h0.8q3.4 0 5.2 1 1.8 1 2.6 2.6 0.9 1.6 1.1 3.4 0.1 2 0.1 3.7 0 2-0.2 3.8-0.2 1.9-1.2 3.4-1 1.4-2.9 2.3-2 1-5.4 1-3.2 0-5-0.9-1.9-1-2.8-2.4-1-1.5-1.3-3.3-0.3-1.9-0.3-3.8zm9.4-4.2q-0.9 0.2-1.4 0.4-0.5 0.3-0.7 0.8-0.3 0.5-0.3 1.3 0 0.8 0 2.1 0 1.3 0 2.2 0.1 0.9 0.3 1.5 0.2 0.6 0.7 0.9 0.5 0.3 1.5 0.3 1 0 1.5-0.3 0.5-0.3 0.7-0.9 0.3-0.6 0.3-1.5 0-1 0-2.2 0-1.1 0-2 0-0.9-0.1-1.5-0.1-0.6-0.5-0.9-0.3-0.3-1-0.3-0.4 0-1 0.1z"/><path class="c" d="m197.7 20l7.8-0.1 1.6 14.1 2.4-13.1 7-0.2 2.4 14.2 1.6-13.2 7.7-0.1-5.6 19.6-7.5-0.6-2.3-8.3-2.3 8-7.5-0.5z"/><path class="c" d="m228.5 22l2.3-3.3q-0.9-0.4-1.2-0.9-0.3-0.6-0.2-1.1 0.2-1.3 0.9-1.9 0.6-0.6 2.3-0.3 1.4 0.1 1.8 0.9 0.4 0.7 0.3 1.5-0.1 0.7-0.1 0.9-0.1 0.3-0.4 0.7l-0.8 1.3q-0.6 0.8-1.7 2.6z"/><path class="c" d="m245.6 30.7q0.1-0.4-0.2-0.9-0.3-0.6-1-0.7-0.2 0-0.3 0-0.2 0-0.4 0-0.6 0.1-0.8 0.5-0.3 0.3-0.5 0.8-0.2 0.5-0.3 1.2-0.1 0.7-0.2 1.6-0.1 0.6 0 0.9 0 0.4 0.2 0.6 0.2 0.2 0.4 0.3 0.2 0.1 0.3 0.2 0.2 0 0.2-0.1l0.1 0.1 2.7 0.4q1.5 0.3 2.7 0.6 1.3 0.3 2.2 0.9 0.8 0.6 1.2 1.5 0.3 0.9 0 2.4-0.3 1.7-1.5 2.6-1.2 0.8-2.8 1.1-1.6 0.3-3.3 0.2-1.7-0.1-3-0.4-1.5-0.2-2.6-0.7-1.2-0.4-2-1-0.8-0.6-1.3-1.2-0.5-0.7-0.9-1.3-0.7-1.5-0.7-3.2l7.5 1.6q-0.1 0.6-0.2 1.1-0.1 0.5-0.1 0.8 0 0.4 0.3 0.6 0.2 0.3 0.7 0.3l0.4 0.1q0.7 0.1 1.1 0 0.4 0 0.7-0.3 0.2-0.3 0.3-1.1 0.2-0.8 0.3-2.1l-2.1-0.4q-1-0.2-1.7-0.4-0.8-0.1-1.4-0.3-0.7-0.1-1.4-0.4-0.8-0.2-1.6-0.6-1.6-0.6-2-1.9-0.5-1.4-0.2-3.5 0.1-0.6 0.3-1.4 0.2-0.8 0.6-1.6 0.5-0.9 1.2-1.7 0.7-0.7 2-1.3 1.2-0.5 3-0.6 1.7-0.2 4.2 0.3 1.8 0.3 3.1 0.9 1.3 0.7 2.1 1.5 0.9 0.9 1.3 1.8 0.4 1 0.6 2 0.4 2.3-0.3 5l-7.4-1.3z"/><path class="b" d="m47.5 52.8l-3.8-8.8 18.9-8.6 3.9 8.8-5.2 2.4 7.3 16.7-8.3 3.5-6.9-16.6z"/><path class="b" d="m70.7 52q-0.6-1.8-1.1-3.6-0.4-1.8-0.1-3.5 0.3-1.8 1.8-3.3 1.4-1.6 4.6-2.9l0.8-0.3q3.1-1.1 5.1-0.8 2.1 0.4 3.5 1.6 1.2 1.2 2.1 2.9 0.7 1.8 1.3 3.4 0.7 1.9 1.1 3.7 0.4 1.8 0 3.5-0.4 1.8-2 3.2-1.5 1.6-4.8 2.7-2.9 1.1-5 0.8-2-0.2-3.4-1.3-1.5-1-2.4-2.7-0.8-1.6-1.5-3.4zm7.5-7.1q-0.8 0.5-1.2 0.8-0.4 0.5-0.4 1 0 0.6 0.2 1.4 0.2 0.8 0.7 1.9 0.4 1.2 0.7 2.1 0.4 0.8 0.8 1.3 0.4 0.6 1 0.6 0.5 0.2 1.4-0.1 1-0.4 1.4-0.9 0.3-0.4 0.4-1.1 0-0.6-0.3-1.5-0.3-0.9-0.7-2-0.4-1.1-0.6-1.9-0.3-0.9-0.6-1.4-0.4-0.5-0.8-0.7-0.4-0.2-1.1 0.1-0.4 0.1-0.9 0.4z"/><path class="b" d="m94.6 32.9l1.2 5.6q0.1-1.1 0.5-2.4 0.3-1.1 0.8-2.1 0.6-1 1.3-1.7 0.7-0.7 1.7-0.9 3.1-0.8 4.8 0 1.7 0.9 2.9 3.6 0.1-1.1 0.5-2.3 0.3-1 0.9-2 0.5-0.9 1.2-1.6 0.8-0.7 1.7-0.9 2.7-0.7 4.4-0.1 1.7 0.6 2.8 2.7 1.1 2.2 2 5.9 0.9 3.8 2.1 9.3l-7.7 2q-0.1-0.8-0.3-2.2-0.2-1.3-0.5-2.8-0.3-1.5-0.6-3-0.4-1.5-0.8-2.7-0.4-1.2-0.9-1.9-0.5-0.7-1-0.5-1.1 0.2-1.8 0.9-0.8 0.7-1.2 1.5 0.6 2.2 1.4 5.1 0.6 3 1.4 6.7l-7.6 2.1q-0.2-0.9-0.4-2.2-0.2-1.3-0.4-2.8-0.3-1.5-0.7-3-0.4-1.5-0.8-2.8-0.4-1.1-0.9-1.8-0.5-0.7-1-0.6-1.3 0.4-2.1 1.2-0.8 1-1.1 2l2.3 11.3-6.3 1.7q-0.9-3.3-1.8-6.7-0.9-3.3-1.6-6-0.9-3.2-1.7-6.2z"/><path class="b" d="m122.5 36.7q-0.3-1.9-0.5-3.7-0.1-1.9 0.4-3.6 0.7-1.6 2.4-2.9 1.6-1.4 5-2.1l0.8-0.2q3.3-0.5 5.3 0.1 1.9 0.7 3.1 2.1 1.1 1.4 1.6 3.3 0.4 1.8 0.7 3.5 0.4 2 0.5 3.8 0.1 1.9-0.6 3.5-0.7 1.7-2.5 2.9-1.7 1.2-5.1 1.8-3.1 0.6-5.1 0-2-0.6-3.2-1.9-1.2-1.2-1.9-3-0.6-1.8-0.9-3.6zm8.6-5.8q-0.9 0.3-1.3 0.6-0.5 0.4-0.6 0.9-0.1 0.6-0.1 1.4 0.2 0.8 0.4 2 0.2 1.3 0.4 2.2 0.2 0.9 0.5 1.4 0.3 0.6 0.9 0.8 0.5 0.2 1.5 0 1-0.1 1.4-0.5 0.5-0.4 0.6-1.1 0.1-0.6 0-1.5-0.2-0.9-0.4-2.1-0.2-1.1-0.3-2-0.1-0.9-0.4-1.4-0.2-0.6-0.6-0.9-0.4-0.2-1.1-0.1-0.4 0.1-0.9 0.3z"/><path class="b" d="m148.9 22.4l0.2 4.9q0.5-2.8 1.8-4.3 1.4-1.4 3.2-1.6 1.3-0.2 2.3 0.2 0.9 0.5 1.5 1.6 0.7 1 1.1 2.7 0.4 1.6 0.6 3.6l-7.5 1.7q-0.3-1.3-0.4-2.1-0.3-0.8-1.1-0.7-0.5 0-1.4 0.5l1.5 13-6.9 0.8q-0.4-3.6-0.8-6.9-0.5-3.4-0.8-6.1-0.4-3.1-0.8-6z"/><path class="b" d="m167.3 20.7l-0.1 4.9q0.7-2.8 2.1-4.2 1.4-1.3 3.2-1.5 1.4-0.1 2.3 0.5 0.9 0.5 1.5 1.6 0.6 1.1 0.9 2.7 0.3 1.6 0.4 3.7l-7.6 1.3q-0.2-1.4-0.3-2.2-0.2-0.8-1-0.7-0.6 0-1.5 0.4l0.8 13-6.9 0.5q-0.2-3.6-0.4-7-0.3-3.4-0.5-6.1-0.2-3.1-0.4-6z"/><path class="b" d="m178.3 30q0-1.8 0.1-3.7 0.2-1.8 1.1-3.4 0.8-1.5 2.8-2.5 1.8-1 5.3-1.2h0.8q3.4 0 5.2 1 1.8 1 2.6 2.6 0.9 1.6 1.1 3.4 0.1 2 0.1 3.7 0 2-0.2 3.8-0.3 1.9-1.2 3.4-0.9 1.4-2.9 2.3-2 1-5.4 1-3.2 0-5-0.9-1.9-1-2.8-2.4-1-1.5-1.3-3.3-0.3-1.9-0.3-3.8zm9.4-4.2q-0.9 0.2-1.4 0.4-0.5 0.3-0.7 0.8-0.2 0.5-0.3 1.3 0 0.9 0 2.1 0 1.3 0 2.2 0.1 0.9 0.3 1.5 0.2 0.7 0.7 0.9 0.5 0.3 1.5 0.3 1 0 1.5-0.3 0.5-0.3 0.7-0.9 0.3-0.6 0.3-1.5 0-0.9 0-2.2 0-1.1 0-2 0-0.9-0.1-1.5-0.1-0.6-0.5-0.9-0.3-0.3-1-0.3-0.4 0-1 0.1z"/><path class="b" d="m197.7 20l7.8-0.1 1.6 14.1 2.4-13.1 7-0.2 2.4 14.2 1.6-13.2 7.7-0.1-5.6 19.6-7.5-0.5-2.3-8.4-2.3 8-7.5-0.5z"/><path class="b" d="m228.5 22l2.3-3.3q-0.9-0.4-1.2-0.9-0.3-0.6-0.2-1.1 0.2-1.3 0.9-1.9 0.6-0.6 2.3-0.4 1.4 0.2 1.8 1 0.4 0.7 0.3 1.5 0 0.7-0.1 0.9-0.1 0.3-0.4 0.7l-0.8 1.3q-0.6 0.8-1.7 2.6z"/><path class="b" d="m245.6 30.7q0-0.4-0.2-1-0.3-0.5-1-0.6-0.1 0-0.3 0-0.2 0-0.4 0.1-0.6 0-0.8 0.4-0.3 0.3-0.5 0.8-0.2 0.5-0.3 1.2-0.1 0.7-0.2 1.6-0.1 0.6 0 0.9 0.1 0.4 0.2 0.6 0.2 0.2 0.4 0.3 0.2 0.1 0.4 0.2 0.1 0 0.1 0h0.1l2.7 0.4q1.5 0.3 2.7 0.6 1.3 0.3 2.2 0.9 0.8 0.6 1.2 1.5 0.3 0.9 0 2.4-0.3 1.7-1.4 2.6-1.3 0.8-2.9 1.1-1.6 0.3-3.2 0.2-1.8-0.1-3.1-0.4-1.5-0.2-2.7-0.7-1.1-0.4-1.9-1-0.8-0.6-1.3-1.2-0.6-0.7-0.9-1.3-0.7-1.5-0.7-3.2l7.5 1.6q-0.1 0.6-0.2 1.1-0.1 0.5-0.1 0.8 0 0.4 0.3 0.6 0.2 0.3 0.7 0.3l0.4 0.1q0.7 0 1.1 0 0.4 0 0.7-0.3 0.2-0.3 0.4-1.1 0.1-0.7 0.2-2.2l-2.1-0.3q-1-0.2-1.7-0.3-0.8-0.2-1.4-0.4-0.7-0.1-1.4-0.4-0.8-0.2-1.6-0.6-1.6-0.6-2-1.9-0.5-1.4-0.2-3.5 0.1-0.6 0.3-1.4 0.2-0.8 0.7-1.6 0.4-0.8 1.1-1.7 0.8-0.7 2-1.2 1.2-0.6 3-0.7 1.7-0.2 4.2 0.2 1.8 0.4 3.1 1 1.3 0.7 2.1 1.5 0.8 0.8 1.3 1.8 0.4 1 0.6 2 0.4 2.3-0.3 5l-7.4-1.3z"/></svg>